# Blender 4.3.2
# www.blender.org
mtllib file_cabinet_smallest_with_shelfs.mtl
o file_cabinet_smallest_with_shelfs
v -0.242357 0.000000 0.262317
v 0.242357 0.000000 0.262317
v -0.242357 0.000000 -0.262317
v 0.242357 0.000000 -0.262317
v -0.242357 0.706432 -0.262317
v -0.242357 0.706432 0.262317
v 0.242357 0.706432 0.262317
v 0.242357 0.706432 -0.262317
v -0.000000 0.000000 0.262317
v 0.000000 0.000000 -0.262317
v -0.000000 0.706432 0.262317
v 0.000000 0.706432 -0.262317
v -0.242357 0.353216 -0.262317
v 0.242357 0.353216 -0.262317
v 0.242357 0.353216 0.262317
v -0.242357 0.353216 0.262317
v 0.000000 0.353216 -0.262317
v -0.232357 0.010000 0.262317
v 0.232357 0.010000 0.262317
v -0.232357 0.010000 -0.252317
v 0.232357 0.010000 -0.252317
v -0.232357 0.696432 -0.252317
v -0.232357 0.696432 0.262317
v 0.232357 0.696432 0.262317
v 0.232357 0.696432 -0.252317
v -0.000000 0.010000 0.262317
v 0.000000 0.010000 -0.252317
v -0.000000 0.696432 0.262317
v 0.000000 0.696432 -0.252317
v -0.232357 0.353216 -0.252317
v 0.232357 0.353216 -0.252317
v 0.232357 0.353216 0.262317
v -0.232357 0.353216 0.262317
v 0.000000 0.353216 -0.252317
v -0.232357 0.698634 0.262317
v 0.232357 0.698634 0.262317
v 0.232357 0.354317 0.262317
v -0.232357 0.354317 0.262317
v 0.232357 0.354317 0.253001
v 0.232357 0.698634 0.253001
v -0.232357 0.698634 0.253001
v -0.232357 0.354317 0.253001
v 0.232357 0.373684 0.262317
v -0.232357 0.373684 0.262317
v 0.232357 0.373684 0.253001
v -0.232357 0.373684 0.253001
v -0.219911 0.698634 0.262317
v 0.219910 0.698634 0.262317
v 0.219910 0.354317 0.262317
v -0.219911 0.354317 0.262317
v -0.219911 0.698634 0.253001
v 0.219910 0.698634 0.253001
v 0.219910 0.354317 0.253001
v -0.219911 0.354317 0.253001
v 0.219910 0.373684 0.253001
v -0.219911 0.373684 0.253001
v -0.219911 0.373684 0.262317
v 0.219910 0.373684 0.262317
v -0.232357 0.373684 -0.261632
v -0.232357 0.354317 -0.261632
v -0.219911 0.354317 -0.261632
v 0.232357 0.354317 -0.261632
v 0.232357 0.373684 -0.261632
v -0.219911 0.373684 -0.261632
v 0.219910 0.354317 -0.261632
v 0.219910 0.373684 -0.261632
v 0.232357 0.504805 -0.261632
v 0.232357 0.522765 -0.261632
v -0.232357 0.504805 -0.261632
v -0.232357 0.522765 -0.261632
v -0.219911 0.504805 -0.261632
v -0.219911 0.522765 -0.261632
v 0.219910 0.522765 -0.261632
v 0.219910 0.504805 -0.261632
v 0.232357 0.504805 0.262317
v 0.232357 0.522765 0.262317
v 0.232357 0.522765 0.253001
v 0.232357 0.504805 0.253001
v -0.232357 0.504805 0.262317
v -0.232357 0.522765 0.262317
v -0.232357 0.522765 0.253001
v -0.232357 0.504805 0.253001
v -0.219911 0.522765 0.253001
v -0.219911 0.504805 0.253001
v 0.219910 0.504805 0.253001
v 0.219910 0.522765 0.253001
v -0.219911 0.504805 0.262317
v -0.219911 0.522765 0.262317
v 0.219910 0.522765 0.262317
v 0.219910 0.504805 0.262317
v 0.219910 0.373684 -0.250627
v -0.219911 0.373684 -0.250627
v -0.219911 0.354317 -0.250627
v -0.232357 0.354317 -0.250627
v -0.232357 0.373684 -0.250627
v 0.219910 0.354317 -0.250627
v 0.232357 0.373684 -0.250627
v 0.232357 0.354317 -0.250627
v 0.232357 0.522765 -0.250627
v 0.219910 0.504805 -0.250627
v 0.219910 0.522765 -0.250627
v 0.232357 0.504805 -0.250627
v -0.219911 0.504805 -0.250627
v -0.232357 0.522765 -0.250627
v -0.232357 0.504805 -0.250627
v -0.219911 0.522765 -0.250627
v -0.232357 0.354317 0.399947
v 0.232357 0.354317 0.399947
v 0.232357 0.010000 0.399947
v -0.232357 0.010000 0.399947
v 0.232357 0.010000 0.390632
v 0.232357 0.354317 0.390632
v -0.232357 0.354317 0.390632
v -0.232357 0.010000 0.390632
v 0.232357 0.029367 0.399947
v -0.232357 0.029367 0.399947
v 0.232357 0.029367 0.390632
v -0.232357 0.029367 0.390632
v -0.219911 0.354317 0.399947
v 0.219910 0.354317 0.399947
v 0.219910 0.010000 0.399947
v -0.219911 0.010000 0.399947
v -0.219911 0.354317 0.390632
v 0.219910 0.354317 0.390632
v 0.219910 0.010000 0.390632
v -0.219911 0.010000 0.390632
v 0.219910 0.029367 0.390632
v -0.219911 0.029367 0.390632
v -0.219911 0.029367 0.399947
v 0.219910 0.029367 0.399947
v -0.232357 0.029367 -0.124001
v -0.232357 0.010000 -0.124001
v -0.219911 0.010000 -0.124001
v 0.232357 0.010000 -0.124001
v 0.232357 0.029367 -0.124001
v -0.219911 0.029367 -0.124001
v 0.219910 0.010000 -0.124001
v 0.219910 0.029367 -0.124001
v 0.232357 0.160489 -0.124001
v 0.232357 0.178448 -0.124001
v -0.232357 0.160489 -0.124001
v -0.232357 0.178448 -0.124001
v -0.219911 0.160489 -0.124001
v -0.219911 0.178448 -0.124001
v 0.219910 0.178448 -0.124001
v 0.219910 0.160489 -0.124001
v 0.232357 0.160489 0.399947
v 0.232357 0.178448 0.399947
v 0.232357 0.178448 0.390632
v 0.232357 0.160489 0.390632
v -0.232357 0.160489 0.399947
v -0.232357 0.178448 0.399947
v -0.232357 0.178448 0.390632
v -0.232357 0.160489 0.390632
v -0.219911 0.178448 0.390632
v -0.219911 0.160489 0.390632
v 0.219910 0.160489 0.390632
v 0.219910 0.178448 0.390632
v -0.219911 0.160489 0.399947
v -0.219911 0.178448 0.399947
v 0.219910 0.178448 0.399947
v 0.219910 0.160489 0.399947
v 0.219910 0.029367 -0.112997
v -0.219911 0.029367 -0.112997
v -0.219911 0.010000 -0.112997
v -0.232357 0.010000 -0.112997
v -0.232357 0.029367 -0.112997
v 0.219910 0.010000 -0.112997
v 0.232357 0.029367 -0.112997
v 0.232357 0.010000 -0.112997
v 0.232357 0.178448 -0.112997
v 0.219910 0.160489 -0.112997
v 0.219910 0.178448 -0.112997
v 0.232357 0.160489 -0.112997
v -0.219911 0.160489 -0.112997
v -0.232357 0.178448 -0.112997
v -0.232357 0.160489 -0.112997
v -0.219911 0.178448 -0.112997
vn -0.0000 -1.0000 -0.0000
vn -0.0000 -0.0000 -1.0000
vn 1.0000 -0.0000 -0.0000
vn -1.0000 -0.0000 -0.0000
vn -0.0000 1.0000 -0.0000
vn -0.0000 -0.0000 1.0000
vt 0.136788 0.391757
vt 0.136788 0.647823
vt 0.255079 0.647823
vt 0.255079 0.391757
vt 0.998773 0.751244
vt 0.867445 0.751244
vt 0.867445 0.992093
vt 0.998773 0.992093
vt 0.008777 0.289739
vt 0.287439 0.289739
vt 0.287439 0.507240
vt 0.008777 0.507240
vt 0.287439 0.289739
vt 0.008777 0.289739
vt 0.008777 0.507240
vt 0.287439 0.507240
vt 0.867445 0.751244
vt 0.867445 0.992093
vt 0.018497 0.391757
vt 0.018497 0.647823
vt 0.148108 0.561236
vt 0.276838 0.561236
vt 0.276838 0.884291
vt 0.148108 0.884291
vt 0.019378 0.884291
vt 0.019378 0.561236
vt 0.867445 0.510394
vt 0.998773 0.510394
vt 0.287439 0.072238
vt 0.008777 0.072238
vt 0.265228 0.391171
vt 0.265228 0.519253
vt 0.272442 0.519253
vt 0.272442 0.391171
vt 0.265228 0.282598
vt 0.265228 0.378091
vt 0.272442 0.378091
vt 0.272442 0.282598
vt 0.574018 0.262912
vt 0.574018 0.248807
vt 0.836130 0.262912
vt 0.843344 0.262912
vt 0.843344 0.358405
vt 0.836130 0.358405
vt 0.836130 0.248807
vt 0.843344 0.248807
vt 0.581231 0.499567
vt 0.581231 0.499567
vt 0.574018 0.499567
vt 0.574018 0.371485
vt 0.581231 0.371485
vt 0.270461 0.519865
vt 0.574014 0.358401
vt 0.574014 0.358401
vt 0.276258 0.519865
vt 0.581231 0.248807
vt 0.581231 0.262912
vt 0.581231 0.248807
vt 0.836130 0.248807
vt 0.836130 0.262912
vt 0.581231 0.262912
vt 0.018340 0.644500
vt 0.018340 0.650297
vt 0.024896 0.650297
vt 0.024896 0.644500
vt 0.256555 0.644500
vt 0.256555 0.650297
vt 0.843344 0.499567
vt 0.836130 0.499567
vt 0.836130 0.499567
vt 0.836130 0.499567
vt 0.581231 0.499567
vt 0.581231 0.499567
vt 0.581231 0.248807
vt 0.581231 0.248807
vt 0.836130 0.248807
vt 0.836130 0.248807
vt 0.010329 0.391171
vt 0.010329 0.519253
vt 0.265228 0.519253
vt 0.265228 0.391171
vt 0.010329 0.282598
vt 0.010329 0.378091
vt 0.265228 0.282598
vt 0.003116 0.282598
vt 0.003116 0.378091
vt 0.010329 0.282598
vt 0.003116 0.391171
vt 0.265228 0.268493
vt 0.272442 0.268493
vt 0.003116 0.268493
vt 0.010329 0.282598
vt 0.010329 0.268493
vt 0.010329 0.268493
vt 0.010329 0.282598
vt 0.265228 0.268493
vt 0.270461 0.509664
vt 0.276258 0.509664
vt 0.263111 0.644500
vt 0.263111 0.650297
vt 0.836130 0.371485
vt 0.581231 0.499567
vt 0.574018 0.371485
vt 0.581231 0.262912
vt 0.836130 0.262912
vt 0.581231 0.358405
vt 0.003116 0.519253
vt 0.010329 0.519253
vt 0.574018 0.358405
vt 0.574018 0.358405
vt 0.843344 0.371485
vt 0.574018 0.358405
vt 0.574015 0.371482
vt 0.574015 0.371482
vt 0.010329 0.378091
vt 0.003116 0.378091
vt 0.843340 0.358403
vt 0.843340 0.358403
vt 0.843340 0.371484
vt 0.843340 0.371484
vt 0.256555 0.379233
vt 0.263111 0.379233
vt 0.005194 0.519865
vt 0.005194 0.509664
vt 0.024896 0.379233
vt 0.018340 0.379233
s 0
usemtl file_cabinet
f 9/1/1 10/2/1 4/3/1 2/4/1
f 17/5/2 13/6/2 5/7/2 12/8/2
f 15/9/3 14/10/3 8/11/3 7/12/3
f 13/13/4 16/14/4 6/15/4 5/16/4
f 14/17/2 17/5/2 12/8/2 8/18/2
f 1/19/1 3/20/1 10/2/1 9/1/1
f 11/21/5 7/22/5 8/23/5 12/24/5 5/25/5 6/26/5
f 4/27/2 10/28/2 17/5/2 14/17/2
f 3/29/4 1/30/4 16/14/4 13/13/4
f 2/30/3 4/29/3 14/10/3 15/9/3
f 10/28/2 3/27/2 13/6/2 17/5/2
f 26/1/5 19/4/5 21/3/5 27/2/5
f 34/5/6 29/8/6 22/7/6 30/6/6
f 32/9/4 24/12/4 25/11/4 31/10/4
f 30/13/3 22/16/3 23/15/3 33/14/3
f 31/17/6 25/18/6 29/8/6 34/5/6
f 18/19/5 26/1/5 27/2/5 20/20/5
f 28/21/1 23/26/1 22/25/1 29/24/1 25/23/1 24/22/1
f 21/27/6 31/17/6 34/5/6 27/28/6
f 20/29/3 30/13/3 33/14/3 18/30/3
f 19/30/4 32/9/4 31/10/4 21/29/4
f 27/28/6 34/5/6 30/6/6 20/27/6
f 9/1/6 2/4/6 19/4/6 26/1/6
f 7/22/6 11/21/6 28/21/6 24/22/6
f 15/9/6 7/12/6 24/12/6 32/9/6
f 16/14/6 1/30/6 18/30/6 33/14/6
f 1/19/6 9/1/6 26/1/6 18/19/6
f 11/21/6 6/26/6 23/26/6 28/21/6
f 2/30/6 15/9/6 32/9/6 19/30/6
f 6/15/6 16/14/6 33/14/6 23/15/6
f 86/31/2 52/32/2 40/33/2 77/34/2
f 55/35/2 85/36/2 78/37/2 45/38/2
f 44/39/4 46/39/4 42/40/4 38/40/4
f 58/41/6 43/42/6 75/43/6 90/44/6
f 49/45/1 53/45/1 39/46/1 37/46/1
f 47/47/5 51/48/5 41/49/5 35/49/5
f 37/46/3 39/46/3 45/42/3 43/42/3
f 80/50/6 88/51/6 47/48/6 35/49/6
f 95/52/4 105/53/4 69/54/4 59/55/4
f 49/45/6 37/46/6 43/42/6 58/41/6
f 38/40/6 50/56/6 57/57/6 44/39/6
f 50/58/6 49/59/6 58/60/6 57/61/6
f 94/62/1 60/63/1 61/64/1 93/65/1
f 91/66/5 66/67/5 64/64/5 92/65/5
f 36/68/5 40/68/5 52/69/5 48/70/5
f 48/71/5 52/70/5 51/72/5 47/73/5
f 38/40/1 42/40/1 54/56/1 50/56/1
f 50/74/1 54/75/1 53/76/1 49/77/1
f 83/78/2 51/79/2 52/80/2 86/81/2
f 56/82/2 84/83/2 85/36/2 55/84/2
f 46/85/2 82/86/2 84/83/2 56/87/2
f 72/78/2 71/83/2 69/86/2 70/88/2
f 65/89/2 66/35/2 63/38/2 62/90/2
f 60/91/2 59/85/2 64/92/2 61/93/2
f 61/94/2 64/95/2 66/84/2 65/96/2
f 93/65/1 61/64/1 65/67/1 96/66/1
f 98/97/3 62/98/3 63/55/3 97/52/3
f 100/36/6 91/66/6 97/99/6 102/37/6
f 95/52/4 59/55/4 60/98/4 94/97/4
f 96/66/1 65/67/1 62/100/1 98/99/1
f 88/51/6 89/101/6 48/69/6 47/102/6
f 35/49/4 41/49/4 81/103/4 80/50/4
f 57/104/6 58/105/6 90/44/6 87/106/6
f 81/88/2 41/107/2 51/108/2 83/78/2
f 79/109/4 82/110/4 46/39/4 44/39/4
f 89/101/6 76/111/6 36/68/6 48/69/6
f 44/39/6 57/57/6 87/106/6 79/112/6
f 43/42/3 45/42/3 78/43/3 75/43/3
f 88/51/6 87/106/6 90/44/6 89/101/6
f 80/50/6 79/112/6 87/106/6 88/51/6
f 86/81/2 85/36/2 84/83/2 83/78/2
f 74/36/4 66/67/4 91/66/4 100/36/4
f 79/109/4 80/50/4 81/103/4 82/110/4
f 76/111/3 75/43/3 78/43/3 77/111/3
f 104/113/4 70/114/4 69/54/4 105/53/4
f 89/101/6 90/44/6 75/43/6 76/111/6
f 76/111/3 77/111/3 40/68/3 36/68/3
f 68/34/2 67/37/2 74/36/2 73/31/2
f 92/65/6 103/115/6 105/116/6 95/62/6
f 106/78/5 72/78/5 70/88/5 104/88/5
f 99/34/5 68/34/5 73/31/5 101/81/5
f 73/31/5 72/78/5 106/78/5 101/81/5
f 102/117/3 67/118/3 68/119/3 99/120/3
f 74/36/2 71/83/2 72/78/2 73/31/2
f 53/121/1 96/66/1 98/99/1 39/122/1
f 46/123/4 95/52/4 94/97/4 42/124/4
f 45/122/5 97/99/5 91/66/5 55/121/5
f 39/124/3 98/97/3 97/52/3 45/123/3
f 54/125/1 93/65/1 96/66/1 53/121/1
f 55/121/5 91/66/5 92/65/5 56/125/5
f 42/126/1 94/62/1 93/65/1 54/125/1
f 56/125/5 92/65/5 95/62/5 46/126/5
f 86/81/4 101/81/4 100/36/4 85/36/4
f 78/43/3 102/117/3 99/120/3 77/111/3
f 77/34/5 99/34/5 101/81/5 86/31/5
f 85/36/1 100/36/1 102/37/1 78/37/1
f 84/83/3 103/115/3 106/78/3 83/78/3
f 83/78/5 106/78/5 104/88/5 81/88/5
f 82/86/1 105/116/1 103/115/1 84/83/1
f 81/103/4 104/113/4 105/53/4 82/110/4
f 102/117/3 97/52/3 63/55/3 67/118/3
f 67/37/2 63/38/2 66/35/2 74/36/2
f 59/85/2 69/86/2 71/83/2 64/92/2
f 64/64/3 71/83/3 103/115/3 92/65/3
f 101/81/6 106/78/6 103/115/6 100/36/6
f 100/36/1 103/115/1 71/83/1 74/36/1
f 158/31/2 124/32/2 112/33/2 149/34/2
f 127/35/2 157/36/2 150/37/2 117/38/2
f 116/39/4 118/39/4 114/40/4 110/40/4
f 130/41/6 115/42/6 147/43/6 162/44/6
f 121/45/1 125/45/1 111/46/1 109/46/1
f 119/47/5 123/48/5 113/49/5 107/49/5
f 109/46/3 111/46/3 117/42/3 115/42/3
f 152/50/6 160/51/6 119/48/6 107/49/6
f 167/52/4 177/53/4 141/54/4 131/55/4
f 121/45/6 109/46/6 115/42/6 130/41/6
f 110/40/6 122/56/6 129/57/6 116/39/6
f 122/58/6 121/59/6 130/60/6 129/61/6
f 166/62/1 132/63/1 133/64/1 165/65/1
f 163/66/5 138/67/5 136/64/5 164/65/5
f 108/68/5 112/68/5 124/69/5 120/70/5
f 120/71/5 124/70/5 123/72/5 119/73/5
f 110/40/1 114/40/1 126/56/1 122/56/1
f 122/74/1 126/75/1 125/76/1 121/77/1
f 155/78/2 123/79/2 124/80/2 158/81/2
f 128/82/2 156/83/2 157/36/2 127/84/2
f 118/85/2 154/86/2 156/83/2 128/87/2
f 144/78/2 143/83/2 141/86/2 142/88/2
f 137/89/2 138/35/2 135/38/2 134/90/2
f 132/91/2 131/85/2 136/92/2 133/93/2
f 133/94/2 136/95/2 138/84/2 137/96/2
f 165/65/1 133/64/1 137/67/1 168/66/1
f 170/97/3 134/98/3 135/55/3 169/52/3
f 172/36/6 163/66/6 169/99/6 174/37/6
f 167/52/4 131/55/4 132/98/4 166/97/4
f 168/66/1 137/67/1 134/100/1 170/99/1
f 160/51/6 161/101/6 120/69/6 119/102/6
f 107/49/4 113/49/4 153/103/4 152/50/4
f 129/104/6 130/105/6 162/44/6 159/106/6
f 153/88/2 113/107/2 123/108/2 155/78/2
f 151/109/4 154/110/4 118/39/4 116/39/4
f 161/101/6 148/111/6 108/68/6 120/69/6
f 116/39/6 129/57/6 159/106/6 151/112/6
f 115/42/3 117/42/3 150/43/3 147/43/3
f 160/51/6 159/106/6 162/44/6 161/101/6
f 152/50/6 151/112/6 159/106/6 160/51/6
f 158/81/2 157/36/2 156/83/2 155/78/2
f 146/36/4 138/67/4 163/66/4 172/36/4
f 151/109/4 152/50/4 153/103/4 154/110/4
f 148/111/3 147/43/3 150/43/3 149/111/3
f 176/113/4 142/114/4 141/54/4 177/53/4
f 161/101/6 162/44/6 147/43/6 148/111/6
f 148/111/3 149/111/3 112/68/3 108/68/3
f 140/34/2 139/37/2 146/36/2 145/31/2
f 164/65/6 175/115/6 177/116/6 167/62/6
f 178/78/5 144/78/5 142/88/5 176/88/5
f 171/34/5 140/34/5 145/31/5 173/81/5
f 145/31/5 144/78/5 178/78/5 173/81/5
f 174/117/3 139/118/3 140/119/3 171/120/3
f 146/36/2 143/83/2 144/78/2 145/31/2
f 125/121/1 168/66/1 170/99/1 111/122/1
f 118/123/4 167/52/4 166/97/4 114/124/4
f 117/122/5 169/99/5 163/66/5 127/121/5
f 111/124/3 170/97/3 169/52/3 117/123/3
f 126/125/1 165/65/1 168/66/1 125/121/1
f 127/121/5 163/66/5 164/65/5 128/125/5
f 114/126/1 166/62/1 165/65/1 126/125/1
f 128/125/5 164/65/5 167/62/5 118/126/5
f 158/81/4 173/81/4 172/36/4 157/36/4
f 150/43/3 174/117/3 171/120/3 149/111/3
f 149/34/5 171/34/5 173/81/5 158/31/5
f 157/36/1 172/36/1 174/37/1 150/37/1
f 156/83/3 175/115/3 178/78/3 155/78/3
f 155/78/5 178/78/5 176/88/5 153/88/5
f 154/86/1 177/116/1 175/115/1 156/83/1
f 153/103/4 176/113/4 177/53/4 154/110/4
f 174/117/3 169/52/3 135/55/3 139/118/3
f 139/37/2 135/38/2 138/35/2 146/36/2
f 131/85/2 141/86/2 143/83/2 136/92/2
f 136/64/3 143/83/3 175/115/3 164/65/3
f 173/81/6 178/78/6 175/115/6 172/36/6
f 172/36/1 175/115/1 143/83/1 146/36/1
