# Blender 4.3.2
# www.blender.org
mtllib file_cabinet_largest_open.mtl
o file_cabinet_largest_open
v -0.733426 0.000000 0.262317
v 0.717092 0.000000 0.262317
v -0.733426 0.000000 -0.437081
v 0.717092 0.000000 -0.437081
v -0.733426 1.408583 -0.437081
v -0.733426 1.408583 0.262317
v 0.717092 1.408583 0.262317
v 0.717092 1.408583 -0.437081
v -0.000000 0.000000 0.262317
v 0.000000 0.000000 -0.437081
v -0.000000 1.408583 0.262317
v 0.000000 1.408583 -0.437081
v -0.723426 0.010000 0.262317
v 0.707092 0.010000 0.262317
v -0.723426 0.010000 -0.427081
v 0.707092 0.010000 -0.427081
v -0.723426 1.398583 -0.427081
v -0.723426 1.398583 0.262317
v 0.707092 1.398583 0.262317
v 0.707092 1.398583 -0.427081
v -0.000000 0.010000 0.262317
v 0.000000 0.010000 -0.427081
v -0.000000 1.398583 0.262317
v 0.000000 1.398583 -0.427081
vn -0.0000 -1.0000 -0.0000
vn -0.0000 1.0000 -0.0000
vn -0.0000 -0.0000 -1.0000
vn 1.0000 -0.0000 -0.0000
vn -1.0000 -0.0000 -0.0000
vn -0.0000 -0.0000 1.0000
vt 0.036694 0.593925
vt 0.306398 0.593925
vt 0.306398 0.280076
vt 0.036694 0.280076
vt 0.028328 0.631910
vt 0.028328 0.319609
vt 0.302455 0.319609
vt 0.302455 0.631910
vt 0.999679 0.210026
vt 0.756337 0.210026
vt 0.756337 0.998531
vt 0.999679 0.998531
vt 0.039488 0.331232
vt 0.309192 0.331232
vt 0.309192 0.947726
vt 0.039488 0.947726
vt 0.756337 0.210026
vt 0.756337 0.998531
vt 0.028328 0.951325
vt 0.302455 0.951325
vt 0.036694 0.914923
vt 0.306398 0.914923
vt 0.031812 0.599466
vt 0.031812 0.289994
vt 0.297659 0.289994
vt 0.297659 0.599466
vt 0.037003 0.599911
vt 0.302850 0.599911
vt 0.302850 0.290438
vt 0.037003 0.290438
vt 0.999182 0.209337
vt 0.999182 0.993798
vt 0.759558 0.993798
vt 0.759558 0.209337
vt 0.039488 0.335609
vt 0.039488 0.943349
vt 0.305335 0.943349
vt 0.305335 0.335609
vt 0.037003 0.916532
vt 0.302850 0.916532
vt 0.031812 0.916088
vt 0.297659 0.916088
vt 0.216375 0.607346
vt 0.216375 0.298877
vt 0.216375 0.300605
vt 0.143675 0.225770
vt 0.143675 0.557439
vt 0.143675 0.227628
vt 0.053824 0.306456
vt 0.053824 0.875812
vt 0.053824 0.871446
vt 0.053824 0.310825
vt 0.053824 0.874058
vt 0.053824 0.308216
vt 0.053824 0.312641
vt 0.053824 0.869629
vt 0.216375 0.922877
vt 0.216375 0.921137
vt 0.143675 0.896702
vt 0.143675 0.894832
s 0
usemtl file_cabinet_large
f 9/1/1 10/2/1 4/3/1 2/4/1
f 11/5/2 7/6/2 8/7/2 12/8/2
f 10/9/3 3/10/3 5/11/3 12/12/3
f 2/13/4 4/14/4 8/15/4 7/16/4
f 3/14/5 1/13/5 6/16/5 5/15/5
f 4/17/3 10/9/3 12/12/3 8/18/3
f 6/19/2 11/5/2 12/8/2 5/20/2
f 1/21/1 3/22/1 10/2/1 9/1/1
f 21/23/2 14/24/2 16/25/2 22/26/2
f 23/27/1 24/28/1 20/29/1 19/30/1
f 22/31/6 24/32/6 17/33/6 15/34/6
f 14/35/5 19/36/5 20/37/5 16/38/5
f 15/38/4 17/37/4 18/36/4 13/35/4
f 16/34/6 20/33/6 24/32/6 22/31/6
f 18/39/1 17/40/1 24/28/1 23/27/1
f 13/41/2 21/23/2 22/26/2 15/42/2
f 9/43/6 2/44/6 14/45/6 21/43/6
f 7/46/6 11/47/6 23/47/6 19/48/6
f 2/49/6 7/50/6 19/51/6 14/52/6
f 6/53/6 1/54/6 13/55/6 18/56/6
f 1/57/6 9/43/6 21/43/6 13/58/6
f 11/47/6 6/59/6 18/60/6 23/47/6
