# Blender 4.3.2
# www.blender.org
mtllib file_cabinet_large_open.mtl
o file_cabinet_large_open
v -0.733426 0.000000 0.262317
v 0.717092 0.000000 0.262317
v -0.733426 0.000000 -0.437081
v 0.717092 0.000000 -0.437081
v -0.733426 0.711432 -0.437081
v -0.733426 0.711432 0.262317
v 0.717092 0.711432 0.262317
v 0.717092 0.711432 -0.437081
v -0.000000 0.000000 0.262317
v 0.000000 0.000000 -0.437081
v -0.000000 0.711432 0.262317
v 0.000000 0.711432 -0.437081
v -0.723426 0.010000 0.262317
v 0.707092 0.010000 0.262317
v -0.723426 0.010000 -0.427081
v 0.707092 0.010000 -0.427081
v -0.723426 0.701432 -0.427081
v -0.723426 0.701432 0.262317
v 0.707092 0.701432 0.262317
v 0.707092 0.701432 -0.427081
v -0.000000 0.010000 0.262317
v 0.000000 0.010000 -0.427081
v -0.000000 0.701432 0.262317
v 0.000000 0.701432 -0.427081
vn -0.0000 -1.0000 -0.0000
vn -0.0000 1.0000 -0.0000
vn -0.0000 -0.0000 -1.0000
vn 1.0000 -0.0000 -0.0000
vn -1.0000 -0.0000 -0.0000
vn -0.0000 -0.0000 1.0000
vt 0.036694 0.593925
vt 0.306398 0.593925
vt 0.306398 0.280076
vt 0.036694 0.280076
vt 0.028328 0.631910
vt 0.028328 0.319609
vt 0.302455 0.319609
vt 0.302455 0.631910
vt 0.999679 0.595190
vt 0.756337 0.595190
vt 0.756337 0.993439
vt 0.999679 0.993439
vt 0.039488 0.331232
vt 0.309192 0.331232
vt 0.309192 0.642604
vt 0.039488 0.642604
vt 0.756336 0.595190
vt 0.756336 0.993439
vt 0.028328 0.951325
vt 0.302455 0.951325
vt 0.036694 0.914923
vt 0.306398 0.914923
vt 0.031812 0.599466
vt 0.031812 0.289994
vt 0.297659 0.289994
vt 0.297659 0.599466
vt 0.037003 0.599911
vt 0.302850 0.599911
vt 0.302850 0.290438
vt 0.037003 0.290438
vt 0.999182 0.597748
vt 0.999182 0.988363
vt 0.759558 0.988363
vt 0.759558 0.597748
vt 0.039488 0.335609
vt 0.039488 0.638228
vt 0.305335 0.638228
vt 0.305335 0.335609
vt 0.305335 0.638228
vt 0.039488 0.638228
vt 0.759558 0.988363
vt 0.999182 0.988363
vt 0.037003 0.916532
vt 0.302850 0.916532
vt 0.031812 0.916088
vt 0.297659 0.916088
vt 0.216375 0.607346
vt 0.216375 0.298877
vt 0.216375 0.300605
vt 0.138253 0.303359
vt 0.138249 0.680139
vt 0.138248 0.678607
vt 0.138252 0.307016
vt 0.045716 0.392345
vt 0.045716 0.679910
vt 0.045716 0.675871
vt 0.045716 0.396714
vt 0.045716 0.679895
vt 0.045716 0.394105
vt 0.045716 0.398530
vt 0.045716 0.675878
vt 0.216375 0.922877
vt 0.216375 0.921137
vt 0.143678 0.636273
vt 0.148791 0.975270
vt 0.148791 0.971608
vt 0.143678 0.637795
s 0
usemtl file_cabinet_large
f 9/1/1 10/2/1 4/3/1 2/4/1
f 11/5/2 7/6/2 8/7/2 12/8/2
f 10/9/3 3/10/3 5/11/3 12/12/3
f 2/13/4 4/14/4 8/15/4 7/16/4
f 3/14/5 1/13/5 6/16/5 5/15/5
f 4/17/3 10/9/3 12/12/3 8/18/3
f 6/19/2 11/5/2 12/8/2 5/20/2
f 1/21/1 3/22/1 10/2/1 9/1/1
f 21/23/2 14/24/2 16/25/2 22/26/2
f 23/27/1 24/28/1 20/29/1 19/30/1
f 22/31/6 24/32/6 17/33/6 15/34/6
f 14/35/5 19/36/5 20/37/5 16/38/5
f 15/38/4 17/39/4 18/40/4 13/35/4
f 16/34/6 20/41/6 24/42/6 22/31/6
f 18/43/1 17/44/1 24/28/1 23/27/1
f 13/45/2 21/23/2 22/26/2 15/46/2
f 9/47/6 2/48/6 14/49/6 21/47/6
f 7/50/6 11/51/6 23/52/6 19/53/6
f 2/54/6 7/55/6 19/56/6 14/57/6
f 6/58/6 1/59/6 13/60/6 18/61/6
f 1/62/6 9/47/6 21/47/6 13/63/6
f 11/64/6 6/65/6 18/66/6 23/67/6
