# Blender 4.3.2
# www.blender.org
mtllib file_cabinet_large_shelf.mtl
o file_cabinet_large_shelf
v -0.232357 0.344317 0.261974
v 1.196906 0.344317 0.261974
v 1.196906 -0.000000 0.261974
v -0.232357 -0.000000 0.261974
v 1.196906 -0.000000 0.252659
v 1.196906 0.344317 0.252659
v -0.232357 0.344317 0.252659
v -0.232357 -0.000000 0.252659
v 1.196906 0.019367 0.261974
v -0.232357 0.019367 0.261974
v 1.196906 0.019367 0.252659
v -0.232357 0.019367 0.252659
v -0.219910 0.344317 0.261974
v 1.184459 0.344317 0.261974
v 1.184459 -0.000000 0.261974
v -0.219910 -0.000000 0.261974
v -0.219910 0.344317 0.252659
v 1.184459 0.344317 0.252659
v 1.184459 -0.000000 0.252659
v -0.219910 -0.000000 0.252659
v 1.184459 0.019367 0.252659
v -0.219910 0.019367 0.252659
v -0.219910 0.019367 0.261974
v 1.184459 0.019367 0.261974
v -0.232357 0.019367 -0.426823
v -0.232357 -0.000000 -0.426823
v -0.219910 -0.000000 -0.426823
v 1.196906 -0.000000 -0.426823
v 1.196906 0.019367 -0.426823
v -0.219910 0.019367 -0.426823
v 1.184459 -0.000000 -0.426823
v 1.184459 0.019367 -0.426823
v 1.184459 0.019367 -0.415818
v -0.219910 0.019367 -0.415818
v -0.219910 -0.000000 -0.415818
v -0.232357 -0.000000 -0.415818
v -0.232357 0.019367 -0.415818
v 1.184459 -0.000000 -0.415818
v 1.196906 0.019367 -0.415818
v 1.196906 -0.000000 -0.415818
vn -0.0000 -0.0000 1.0000
vn -1.0000 -0.0000 -0.0000
vn -0.0000 -1.0000 -0.0000
vn -0.0000 1.0000 -0.0000
vn 1.0000 -0.0000 -0.0000
vn -0.0000 -0.0000 -1.0000
vt 0.748228 0.821817
vt 0.751894 0.821817
vt 0.751894 0.996832
vt 0.748228 0.996832
vt 0.574018 0.262912
vt 0.574018 0.248807
vt 1.395136 0.248808
vt 1.395136 0.248808
vt 1.402349 0.248808
vt 1.402349 0.248808
vt 0.581231 0.499567
vt 0.581231 0.499567
vt 0.574018 0.499567
vt 0.843344 0.248807
vt 0.843344 0.262912
vt 0.748228 0.811797
vt 0.751894 0.811797
vt 0.330914 0.811797
vt 0.334580 0.811797
vt 0.334580 0.821817
vt 0.330914 0.821817
vt 0.018340 0.731328
vt 0.018340 0.737124
vt 0.024896 0.737124
vt 0.024896 0.731328
vt 0.764596 0.731328
vt 0.764596 0.737124
vt 0.024896 0.737124
vt 0.024896 0.731329
vt 1.402352 0.499568
vt 1.402352 0.499568
vt 1.395150 0.499574
vt 1.395150 0.499574
vt 1.395137 0.499567
vt 1.395137 0.499567
vt 0.581231 0.499567
vt 0.581231 0.499567
vt 0.581231 0.248807
vt 0.334580 0.905356
vt 0.334580 0.910175
vt 0.748228 0.910175
vt 0.748228 0.905356
vt 0.824241 0.268496
vt 0.824241 0.282600
vt 0.831449 0.282599
vt 0.831449 0.268494
vt 0.003116 0.268493
vt 0.003116 0.282598
vt 0.010329 0.282598
vt 0.010329 0.268493
vt 0.010329 0.268493
vt 0.010329 0.282598
vt 0.824234 0.282598
vt 0.824235 0.268493
vt 0.024896 0.731328
vt 0.024896 0.737124
vt 0.764596 0.737125
vt 0.764596 0.731329
vt 0.357290 0.509664
vt 0.363086 0.509665
vt 0.363086 0.519866
vt 0.357290 0.519866
vt 0.764591 0.731327
vt 0.764591 0.737123
vt 0.771145 0.737123
vt 0.771145 0.731328
vt 0.334580 0.996832
vt 0.330914 0.996832
vt 0.540032 0.821817
vt 0.542776 0.821817
vt 0.542776 0.996832
vt 0.540032 0.996832
vt 0.010329 0.282598
vt 0.003116 0.519253
vt 0.010329 0.519253
vt 0.831451 0.282599
vt 0.824239 0.282599
vt 0.824239 0.519253
vt 0.831450 0.519252
vt 0.019963 0.248024
vt 0.315045 0.248024
vt 0.315045 0.241788
vt 0.019963 0.241788
vt 0.171779 0.767276
vt 0.171779 0.432367
vt 0.163229 0.432367
vt 0.163229 0.767276
vt 0.019963 0.951619
vt 0.315045 0.951619
vt 0.019963 0.957854
vt 0.315045 0.957854
vt 0.824235 0.282598
vt 0.010329 0.282598
vt 0.010329 0.519253
vt 0.824235 0.519253
s 0
usemtl file_cabinet_large
f 24/1/1 9/2/1 2/3/1 14/4/1
f 10/5/2 12/5/2 8/6/2 4/6/2
f 15/7/3 19/8/3 5/9/3 3/10/3
f 13/11/4 17/12/4 7/13/4 1/13/4
f 3/14/5 5/14/5 11/15/5 9/15/5
f 15/16/1 3/17/1 9/2/1 24/1/1
f 4/18/1 16/19/1 23/20/1 10/21/1
f 16/19/1 15/16/1 24/1/1 23/20/1
f 36/22/3 26/23/3 27/24/3 35/25/3
f 33/26/4 32/27/4 30/28/4 34/29/4
f 2/30/4 6/31/4 18/32/4 14/33/4
f 14/34/4 18/35/4 17/36/4 13/37/4
f 4/6/3 8/6/3 20/38/3 16/38/3
f 16/39/3 20/40/3 19/41/3 15/42/3
f 12/5/2 10/5/2 1/13/2 7/13/2
f 31/43/6 32/44/6 29/45/6 28/46/6
f 26/47/6 25/48/6 30/49/6 27/50/6
f 27/51/6 30/52/6 32/53/6 31/54/6
f 35/55/3 27/56/3 31/57/3 38/58/3
f 40/59/5 28/60/5 29/61/5 39/62/5
f 37/62/2 25/61/2 26/60/2 36/59/2
f 38/63/3 31/64/3 28/65/3 40/66/3
f 10/21/1 23/20/1 13/67/1 1/68/1
f 9/69/5 11/70/5 6/71/5 2/72/5
f 23/20/1 24/1/1 14/4/1 13/67/1
f 22/73/6 12/48/6 7/74/6 17/75/6
f 11/76/6 21/77/6 18/78/6 6/79/6
f 19/80/3 38/81/3 40/82/3 5/83/3
f 12/84/2 37/85/2 36/86/2 8/87/2
f 11/83/4 39/82/4 33/81/4 21/80/4
f 5/87/5 40/86/5 39/85/5 11/84/5
f 20/88/3 35/89/3 38/81/3 19/80/3
f 21/80/4 33/81/4 34/89/4 22/88/4
f 8/90/3 36/91/3 35/89/3 20/88/3
f 22/88/4 34/89/4 37/91/4 12/90/4
f 21/92/6 22/93/6 17/94/6 18/95/6
