# Blender 4.3.2
# www.blender.org
mtllib file_cabinet_small_shelf.mtl
o file_cabinet_small_shelf
v -0.232357 0.344317 0.261974
v 0.232357 0.344317 0.261974
v 0.232357 -0.000000 0.261974
v -0.232357 -0.000000 0.261974
v 0.232357 -0.000000 0.252659
v 0.232357 0.344317 0.252659
v -0.232357 0.344317 0.252659
v -0.232357 -0.000000 0.252659
v 0.232357 0.019367 0.261974
v -0.232357 0.019367 0.261974
v 0.232357 0.019367 0.252659
v -0.232357 0.019367 0.252659
v -0.219910 0.344317 0.261974
v 0.219909 0.344317 0.261974
v 0.219909 -0.000000 0.261974
v -0.219910 -0.000000 0.261974
v -0.219910 0.344317 0.252659
v 0.219909 0.344317 0.252659
v 0.219909 -0.000000 0.252659
v -0.219910 -0.000000 0.252659
v 0.219909 0.019367 0.252659
v -0.219910 0.019367 0.252659
v -0.219910 0.019367 0.261974
v 0.219909 0.019367 0.261974
v -0.232357 0.019367 -0.261974
v -0.232357 -0.000000 -0.261974
v -0.219910 -0.000000 -0.261974
v 0.232357 -0.000000 -0.261974
v 0.232357 0.019367 -0.261974
v -0.219910 0.019367 -0.261974
v 0.219909 -0.000000 -0.261974
v 0.219909 0.019367 -0.261974
v 0.219909 0.019367 -0.250969
v -0.219910 0.019367 -0.250969
v -0.219910 -0.000000 -0.250969
v -0.232357 -0.000000 -0.250969
v -0.232357 0.019367 -0.250969
v 0.219909 -0.000000 -0.250969
v 0.232357 0.019367 -0.250969
v 0.232357 -0.000000 -0.250969
vn -0.0000 -0.0000 1.0000
vn -1.0000 -0.0000 -0.0000
vn -0.0000 -1.0000 -0.0000
vn -0.0000 1.0000 -0.0000
vn 1.0000 -0.0000 -0.0000
vn -0.0000 -0.0000 -1.0000
vt 0.836130 0.262912
vt 0.843344 0.262912
vt 0.843344 0.499567
vt 0.836130 0.499567
vt 0.574018 0.262912
vt 0.574018 0.248807
vt 0.836130 0.248807
vt 0.843344 0.248807
vt 0.581231 0.499567
vt 0.581231 0.499567
vt 0.574018 0.499567
vt 0.581231 0.248807
vt 0.581231 0.262912
vt 0.581231 0.248807
vt 0.836130 0.248807
vt 0.836130 0.262912
vt 0.581231 0.262912
vt 0.018340 0.644500
vt 0.018340 0.650297
vt 0.024896 0.650297
vt 0.024896 0.644500
vt 0.256555 0.644500
vt 0.256555 0.650297
vt 0.836130 0.499567
vt 0.836130 0.499567
vt 0.581231 0.499567
vt 0.581231 0.499567
vt 0.581231 0.248807
vt 0.581231 0.248807
vt 0.836130 0.248807
vt 0.836130 0.248807
vt 0.265228 0.268493
vt 0.265228 0.282598
vt 0.272442 0.282598
vt 0.272442 0.268493
vt 0.003116 0.268493
vt 0.003116 0.282598
vt 0.010329 0.282598
vt 0.010329 0.268493
vt 0.010329 0.268493
vt 0.010329 0.282598
vt 0.265228 0.282598
vt 0.265228 0.268493
vt 0.270461 0.509664
vt 0.276258 0.509664
vt 0.276258 0.519865
vt 0.270461 0.519865
vt 0.263111 0.650297
vt 0.263111 0.644500
vt 0.581231 0.262912
vt 0.836130 0.262912
vt 0.581231 0.499567
vt 0.010329 0.282598
vt 0.003116 0.519253
vt 0.010329 0.519253
vt 0.265228 0.519253
vt 0.272442 0.519253
vt 0.256555 0.379233
vt 0.263111 0.379233
vt 0.005194 0.519865
vt 0.005194 0.509664
vt 0.024896 0.379233
vt 0.018340 0.379233
vt 0.010329 0.282598
vt 0.010329 0.519253
vt 0.265228 0.519253
s 0
usemtl file_cabinet
f 24/1/1 9/2/1 2/3/1 14/4/1
f 10/5/2 12/5/2 8/6/2 4/6/2
f 15/7/3 19/7/3 5/8/3 3/8/3
f 13/9/4 17/10/4 7/11/4 1/11/4
f 3/8/5 5/8/5 11/2/5 9/2/5
f 15/7/1 3/8/1 9/2/1 24/1/1
f 4/6/1 16/12/1 23/13/1 10/5/1
f 16/14/1 15/15/1 24/16/1 23/17/1
f 36/18/3 26/19/3 27/20/3 35/21/3
f 33/22/4 32/23/4 30/20/4 34/21/4
f 2/3/4 6/3/4 18/4/4 14/24/4
f 14/25/4 18/24/4 17/26/4 13/27/4
f 4/6/3 8/6/3 20/12/3 16/12/3
f 16/28/3 20/29/3 19/30/3 15/31/3
f 12/5/2 10/5/2 1/11/2 7/11/2
f 31/32/6 32/33/6 29/34/6 28/35/6
f 26/36/6 25/37/6 30/38/6 27/39/6
f 27/40/6 30/41/6 32/42/6 31/43/6
f 35/21/3 27/20/3 31/23/3 38/22/3
f 40/44/5 28/45/5 29/46/5 39/47/5
f 37/47/2 25/46/2 26/45/2 36/44/2
f 38/22/3 31/23/3 28/48/3 40/49/3
f 10/5/1 23/13/1 13/10/1 1/11/1
f 9/2/5 11/2/5 6/3/5 2/3/5
f 23/50/1 24/51/1 14/4/1 13/52/1
f 22/53/6 12/37/6 7/54/6 17/55/6
f 11/34/6 21/33/6 18/56/6 6/57/6
f 19/58/3 38/22/3 40/49/3 5/59/3
f 12/60/2 37/47/2 36/44/2 8/61/2
f 11/59/4 39/49/4 33/22/4 21/58/4
f 5/61/5 40/44/5 39/47/5 11/60/5
f 20/62/3 35/21/3 38/22/3 19/58/3
f 21/58/4 33/22/4 34/21/4 22/62/4
f 8/63/3 36/18/3 35/21/3 20/62/3
f 22/62/4 34/21/4 37/18/4 12/63/4
f 21/42/6 22/64/6 17/65/6 18/66/6
