# Blender 4.3.2
# www.blender.org
mtllib file_cabinet_large_shelf_fancy.mtl
o file_cabinet_large_shelf_fancy
v -0.232357 0.344317 0.261974
v 1.196906 0.344317 0.261974
v 1.196906 -0.000000 0.261974
v -0.232357 -0.000000 0.261974
v 1.196906 -0.000000 0.252659
v 1.196906 0.344317 0.252659
v -0.232357 0.344317 0.252659
v -0.232357 -0.000000 0.252659
v 1.196906 0.019367 0.261974
v -0.232357 0.019367 0.261974
v 1.196906 0.019367 0.252659
v -0.232357 0.019367 0.252659
v -0.219910 0.344317 0.261974
v 1.184459 0.344317 0.261974
v 1.184459 -0.000000 0.261974
v -0.219910 -0.000000 0.261974
v -0.219910 0.344317 0.252659
v 1.184459 0.344317 0.252659
v 1.184459 -0.000000 0.252659
v -0.219910 -0.000000 0.252659
v 1.184459 0.019367 0.252659
v -0.219910 0.019367 0.252659
v -0.219910 0.019367 0.261974
v 1.184459 0.019367 0.261974
v -0.232357 0.019367 -0.432749
v -0.232357 -0.000000 -0.432749
v -0.219910 -0.000000 -0.432749
v 1.196906 -0.000000 -0.432749
v 1.196906 0.019367 -0.432749
v -0.219910 0.019367 -0.432749
v 1.184459 -0.000000 -0.432749
v 1.184459 0.019367 -0.432749
v 1.196906 0.150489 -0.432749
v 1.196906 0.168448 -0.432749
v -0.232357 0.150489 -0.432749
v -0.232357 0.168448 -0.432749
v -0.219910 0.150489 -0.432749
v -0.219910 0.168448 -0.432749
v 1.184459 0.168448 -0.432749
v 1.184459 0.150489 -0.432749
v 1.196906 0.150489 0.261974
v 1.196906 0.168448 0.261974
v 1.196906 0.168448 0.252659
v 1.196906 0.150489 0.252659
v -0.232357 0.150489 0.261974
v -0.232357 0.168448 0.261974
v -0.232357 0.168448 0.252659
v -0.232357 0.150489 0.252659
v -0.219910 0.168448 0.252659
v -0.219910 0.150489 0.252659
v 1.184459 0.150489 0.252659
v 1.184459 0.168448 0.252659
v -0.219910 0.150489 0.261974
v -0.219910 0.168448 0.261974
v 1.184459 0.168448 0.261974
v 1.184459 0.150489 0.261974
v 1.184459 0.019367 -0.421744
v -0.219910 0.019367 -0.421744
v -0.219910 -0.000000 -0.421744
v -0.232357 -0.000000 -0.421744
v -0.232357 0.019367 -0.421744
v 1.184459 -0.000000 -0.421744
v 1.196906 0.019367 -0.421744
v 1.196906 -0.000000 -0.421744
v 1.196906 0.168448 -0.421744
v 1.184459 0.150489 -0.421744
v 1.184459 0.168448 -0.421744
v 1.196906 0.150489 -0.421744
v -0.219910 0.150489 -0.421744
v -0.232357 0.168448 -0.421744
v -0.232357 0.150489 -0.421744
v -0.219910 0.168448 -0.421744
vn -0.0000 -0.0000 -1.0000
vn -1.0000 -0.0000 -0.0000
vn -0.0000 -0.0000 1.0000
vn -0.0000 -1.0000 -0.0000
vn -0.0000 1.0000 -0.0000
vn 1.0000 -0.0000 -0.0000
vt 0.824233 0.391168
vt 0.824233 0.519247
vt 0.831450 0.519251
vt 0.831450 0.391169
vt 0.824240 0.282598
vt 0.824240 0.378093
vt 0.831453 0.378093
vt 0.831453 0.282599
vt 0.574018 0.262912
vt 0.574018 0.248807
vt 0.747859 0.820917
vt 0.751521 0.820917
vt 0.751521 0.892704
vt 0.747859 0.892704
vt 1.395136 0.248808
vt 1.395136 0.248808
vt 1.402349 0.248808
vt 1.402349 0.248808
vt 0.581231 0.499567
vt 0.581231 0.499567
vt 0.574018 0.499567
vt 0.843344 0.248807
vt 0.843344 0.262912
vt 0.331109 0.902537
vt 0.334770 0.902537
vt 0.334770 0.998823
vt 0.331109 0.998823
vt 0.322160 0.519865
vt 0.612263 0.358400
vt 0.615303 0.358400
vt 0.324916 0.519864
vt 0.747859 0.810314
vt 0.751521 0.810314
vt 0.331109 0.810314
vt 0.334770 0.810314
vt 0.334770 0.820917
vt 0.331109 0.820917
vt 0.018340 0.734449
vt 0.018340 0.740246
vt 0.024896 0.740246
vt 0.024896 0.734449
vt 0.764596 0.734450
vt 0.764596 0.740246
vt 0.024896 0.740246
vt 0.024896 0.734450
vt 1.402352 0.499568
vt 1.402352 0.499568
vt 1.395150 0.499574
vt 1.395150 0.499574
vt 1.395137 0.499567
vt 1.395137 0.499567
vt 0.581231 0.499567
vt 0.581231 0.499567
vt 0.581231 0.248807
vt 0.581231 0.248807
vt 0.581231 0.248807
vt 1.395135 0.248807
vt 1.395135 0.248807
vt 0.150244 0.913865
vt 0.220248 0.913865
vt 0.220248 0.340833
vt 0.150244 0.340833
vt 0.090902 0.913865
vt 0.143095 0.913865
vt 0.143095 0.340833
vt 0.090902 0.340833
vt 0.003116 0.282598
vt 0.003116 0.378091
vt 0.010329 0.378091
vt 0.010329 0.282598
vt 0.010329 0.391171
vt 0.003116 0.391171
vt 0.824241 0.268496
vt 0.824241 0.282600
vt 0.831449 0.282599
vt 0.831449 0.268494
vt 0.003116 0.268493
vt 0.010329 0.282598
vt 0.010329 0.268493
vt 0.010329 0.268493
vt 0.010329 0.282598
vt 0.824234 0.282598
vt 0.824235 0.268493
vt 0.024896 0.734450
vt 0.024896 0.740246
vt 0.764596 0.740246
vt 0.764596 0.734450
vt 0.360411 0.509665
vt 0.366207 0.509664
vt 0.366207 0.519865
vt 0.360411 0.519866
vt 0.799038 0.378092
vt 0.789801 0.644503
vt 0.796686 0.644503
vt 0.805921 0.378092
vt 0.360411 0.519866
vt 0.366207 0.519865
vt 0.366207 0.509664
vt 0.360411 0.509665
vt 0.764584 0.734449
vt 0.764585 0.740246
vt 0.771139 0.740246
vt 0.771139 0.734449
vt 0.747859 0.902537
vt 0.747859 0.998823
vt 0.574018 0.371485
vt 0.574018 0.371485
vt 0.334770 0.892704
vt 0.003116 0.519253
vt 0.010329 0.519253
vt 0.574018 0.358405
vt 0.574018 0.358405
vt 0.751521 0.902537
vt 0.751521 0.998823
vt 0.331109 0.892704
vt 0.843344 0.358405
vt 0.150244 0.340833
vt 0.143095 0.340833
vt 0.265228 0.419381
vt 0.256555 0.698956
vt 0.256555 0.696199
vt 0.265228 0.416341
vt 0.843344 0.371485
vt 0.574014 0.371480
vt 0.574013 0.371480
vt 0.574013 0.358400
vt 0.574013 0.358400
vt 0.843344 0.499567
vt 0.831453 0.391171
vt 0.831453 0.378091
vt 0.824242 0.378093
vt 0.824242 0.391172
vt 0.024896 0.644500
vt 0.010329 0.378091
vt 0.003116 0.378091
vt 0.018340 0.644500
vt 0.010329 0.391171
vt 0.010329 0.391171
vt 0.003116 0.391171
vt 0.003116 0.391171
vt 0.831456 0.391172
vt 0.831456 0.391172
vt 0.824243 0.391173
vt 0.824244 0.391173
vt 0.185991 0.241384
vt 0.185990 0.990465
vt 0.185990 0.990465
vt 0.185991 0.241384
vt 0.843340 0.358403
vt 0.843339 0.358403
vt 0.843339 0.371483
vt 0.843340 0.371483
vt 0.176645 0.241385
vt 0.176645 0.990465
vt 0.185990 0.990465
vt 0.185990 0.241385
vt 0.764596 0.379237
vt 0.764596 0.734457
vt 0.771149 0.734453
vt 0.771149 0.379235
vt 0.005194 0.519865
vt 0.360410 0.519865
vt 0.360410 0.509664
vt 0.005194 0.509664
vt 0.771152 0.379229
vt 0.771151 0.734446
vt 0.764592 0.734446
vt 0.764593 0.379228
vt 0.360410 0.509664
vt 0.360410 0.519865
vt 0.024896 0.379233
vt 0.024896 0.734450
vt 0.764595 0.734450
vt 0.764595 0.379233
vt 0.058232 0.288016
vt 0.302232 0.288016
vt 0.302232 0.942530
vt 0.058232 0.942530
vt 0.018340 0.379233
vt 0.018340 0.734450
vt 0.024896 0.734450
vt 0.018340 0.734450
vt 0.265228 0.391171
vt 0.265228 0.378091
vt 0.843339 0.358403
vt 0.843339 0.371483
vt 0.831452 0.391171
vt 0.831452 0.391171
vt 0.824236 0.391171
vt 0.824236 0.391169
vt 0.824238 0.378092
vt 0.824237 0.378093
vt 0.831447 0.378091
vt 0.831447 0.378091
vt 0.010329 0.378091
vt 0.010329 0.391171
vt 0.003116 0.391171
vt 0.003116 0.378091
vt 0.574013 0.371481
vt 0.574013 0.358400
vt 0.881589 0.358402
vt 0.322160 0.519865
vt 0.324916 0.519865
vt 0.884629 0.358403
vt 0.831451 0.378092
vt 0.831451 0.282598
vt 0.824239 0.282599
vt 0.824239 0.378092
vt 0.024896 0.698955
vt 0.010329 0.419382
vt 0.010329 0.416342
vt 0.024896 0.696198
vt 0.185990 0.241385
vt 0.176645 0.990465
vt 0.176645 0.241385
vt 0.176644 0.241385
vt 0.176644 0.990465
vt 0.176645 0.990465
vt 0.176644 0.241386
s 0
usemtl file_cabinet_large
f 52/1/1 18/2/1 6/3/1 43/4/1
f 21/5/1 51/6/1 44/7/1 11/8/1
f 10/9/2 12/9/2 8/10/2 4/10/2
f 24/11/3 9/12/3 41/13/3 56/14/3
f 15/15/4 19/16/4 5/17/4 3/18/4
f 13/19/5 17/20/5 7/21/5 1/21/5
f 3/22/6 5/22/6 11/23/6 9/23/6
f 46/24/3 54/25/3 13/26/3 1/27/3
f 61/28/2 71/29/2 35/30/2 25/31/2
f 15/32/3 3/33/3 9/12/3 24/11/3
f 4/34/3 16/35/3 23/36/3 10/37/3
f 16/35/3 15/32/3 24/11/3 23/36/3
f 60/38/4 26/39/4 27/40/4 59/41/4
f 57/42/5 32/43/5 30/44/5 58/45/5
f 2/46/5 6/47/5 18/48/5 14/49/5
f 14/50/5 18/51/5 17/52/5 13/53/5
f 4/10/4 8/10/4 20/54/4 16/54/4
f 16/55/4 20/56/4 19/57/4 15/58/4
f 49/59/1 17/60/1 18/61/1 52/62/1
f 22/63/1 50/64/1 51/65/1 21/66/1
f 12/67/1 48/68/1 50/69/1 22/70/1
f 38/71/1 37/69/1 35/68/1 36/72/1
f 31/73/1 32/74/1 29/75/1 28/76/1
f 26/77/1 25/67/1 30/78/1 27/79/1
f 27/80/1 30/81/1 32/82/1 31/83/1
f 59/84/4 27/85/4 31/86/4 62/87/4
f 64/88/6 28/89/6 29/90/6 63/91/6
f 66/92/3 57/93/3 63/94/3 68/95/3
f 61/96/2 25/97/2 26/98/2 60/99/2
f 62/100/4 31/101/4 28/102/4 64/103/4
f 54/25/3 55/104/3 14/105/3 13/26/3
f 1/21/2 7/21/2 47/106/2 46/107/2
f 23/36/3 24/11/3 56/14/3 53/108/3
f 47/72/1 7/109/1 17/110/1 49/71/1
f 45/111/2 48/112/2 12/9/2 10/9/2
f 55/104/3 42/113/3 2/114/3 14/105/3
f 10/37/3 23/36/3 53/108/3 45/115/3
f 9/23/6 11/23/6 44/116/6 41/116/6
f 54/25/3 53/108/3 56/14/3 55/104/3
f 46/24/3 45/115/3 53/108/3 54/25/3
f 52/117/1 51/118/1 50/64/1 49/59/1
f 40/119/2 32/120/2 57/121/2 66/122/2
f 45/111/2 46/107/2 47/106/2 48/112/2
f 42/123/6 41/116/6 44/116/6 43/123/6
f 70/124/2 36/125/2 35/126/2 71/127/2
f 55/104/3 56/14/3 41/13/3 42/113/3
f 42/123/6 43/123/6 6/128/6 2/128/6
f 34/129/1 33/130/1 40/131/1 39/132/1
f 58/133/3 69/134/3 71/135/3 61/136/3
f 72/137/5 38/138/5 36/139/5 70/140/5
f 65/141/5 34/142/5 39/143/5 67/144/5
f 39/145/5 38/146/5 72/147/5 67/148/5
f 68/149/6 33/150/6 34/151/6 65/152/6
f 40/153/1 37/154/1 38/155/1 39/156/1
f 19/157/4 62/158/4 64/159/4 5/160/4
f 12/161/2 61/162/2 60/163/2 8/164/2
f 11/165/5 63/166/5 57/167/5 21/168/5
f 5/164/6 64/169/6 63/170/6 11/161/6
f 20/171/4 59/172/4 62/173/4 19/174/4
f 21/175/5 57/176/5 58/177/5 22/178/5
f 8/179/4 60/180/4 59/181/4 20/171/4
f 22/171/5 58/172/5 61/182/5 12/179/5
f 52/183/2 67/183/2 66/184/2 51/184/2
f 44/116/6 68/185/6 65/186/6 43/123/6
f 43/187/5 65/188/5 67/189/5 52/190/5
f 51/191/4 66/192/4 68/193/4 44/194/4
f 50/69/6 69/195/6 72/196/6 49/71/6
f 49/71/5 72/71/5 70/197/5 47/72/5
f 48/68/4 71/198/4 69/195/4 50/69/4
f 47/106/2 70/199/2 71/200/2 48/112/2
f 68/201/6 63/202/6 29/203/6 33/204/6
f 33/205/1 29/206/1 32/207/1 40/208/1
f 25/67/1 35/68/1 37/69/1 30/78/1
f 30/209/6 37/210/6 69/211/6 58/212/6
f 67/213/3 72/155/3 69/214/3 66/215/3
f 66/216/4 69/217/4 37/218/4 40/219/4
