# Blender 4.3.2
# www.blender.org
mtllib file_cabinet_large.mtl
o file_cabinet_large
v 0.728426 0.000000 -0.262317
v -0.712093 0.000000 -0.262316
v 0.728426 0.000000 0.437081
v -0.712093 0.000000 0.437082
v 0.728426 0.706432 0.437081
v 0.728426 0.706432 -0.262317
v -0.712093 0.706432 -0.262316
v -0.712093 0.706432 0.437082
v -0.000000 0.000000 -0.262317
v 0.000000 0.000000 0.437081
v -0.000000 0.706432 -0.262317
v 0.000000 0.706432 0.437081
vn -0.0000 -1.0000 -0.0000
vn -0.0000 -0.0000 1.0000
vn -0.0000 -0.0000 -1.0000
vn -1.0000 -0.0000 -0.0000
vn 1.0000 -0.0000 -0.0000
vn -0.0000 1.0000 -0.0000
vt 0.047888 0.597355
vt 0.288068 0.597355
vt 0.288068 0.319810
vt 0.047888 0.319810
vt 0.531263 0.002139
vt 0.332903 0.002139
vt 0.332903 0.387035
vt 0.531263 0.387035
vt 0.999108 0.458398
vt 0.757698 0.458398
vt 0.757698 0.827066
vt 0.999108 0.827066
vt 0.007717 0.433843
vt 0.320798 0.433843
vt 0.320798 0.792754
vt 0.007717 0.792754
vt 0.999108 0.458398
vt 0.999108 0.827066
vt 0.757698 0.827066
vt 0.746971 0.002139
vt 0.746971 0.387035
vt 0.047888 0.881265
vt 0.288068 0.881265
vt 0.011312 0.604950
vt 0.011312 0.254380
vt 0.314686 0.254380
vt 0.314686 0.604950
vt 0.011312 0.963561
vt 0.314686 0.963561
s 0
usemtl file_cabinet_large
f 9/1/1 10/2/1 4/3/1 2/4/1
f 10/5/2 3/6/2 5/7/2 12/8/2
f 9/9/3 2/10/3 7/11/3 11/12/3
f 2/13/4 4/14/4 8/15/4 7/16/4
f 3/14/5 1/13/5 6/16/5 5/15/5
f 1/10/3 9/17/3 11/18/3 6/19/3
f 4/20/2 10/5/2 12/8/2 8/21/2
f 1/22/1 3/23/1 10/2/1 9/1/1
f 11/24/6 7/25/6 8/26/6 12/27/6
f 6/28/6 11/24/6 12/27/6 5/29/6
