# Blender 4.3.2
# www.blender.org
mtllib armchair_red.mtl
o armchair_red
v -0.007559 0.135010 -0.542765
v -0.007559 0.466680 -0.542765
v -0.007559 0.135010 0.518335
v -0.671027 0.074264 -0.716632
v -0.675895 0.074264 -0.542766
v -0.007559 0.074264 -0.716632
v -0.007559 0.074264 -0.542766
v -0.007559 0.466680 0.503175
v -0.007559 0.439572 0.518335
v -0.700126 1.087819 -0.699161
v -0.699624 1.070348 -0.716632
v -0.699708 1.070348 -0.542766
v -0.700126 1.087819 -0.560237
v -0.007559 1.070348 -0.716632
v -0.007559 1.087819 -0.699161
v -0.007559 1.087819 -0.560237
v -0.007559 1.070348 -0.542766
v -0.472584 0.152799 0.508386
v -0.462636 0.135010 0.518335
v -0.472584 0.152799 -0.532817
v -0.462636 0.135010 -0.542765
v -0.472584 0.448891 -0.532817
v -0.462636 0.466680 -0.542765
v -0.472584 0.432204 0.508386
v -0.462636 0.439572 0.518335
v -0.472584 0.448891 0.499054
v -0.462636 0.466680 0.503175
v -0.483630 0.085310 -0.542765
v -0.472584 0.074264 -0.531719
v -0.665142 0.085310 -0.542765
v -0.675895 0.074264 -0.531719
v -0.506050 0.963084 -0.542765
v -0.501474 0.974131 -0.531719
v -0.483630 0.940665 -0.542765
v -0.472584 0.945240 -0.531719
v -0.688181 0.940887 -0.542765
v -0.699348 0.945250 -0.531719
v -0.666573 0.963084 -0.542765
v -0.671235 0.974131 -0.531719
v -0.472584 0.074264 0.626306
v -0.493639 0.095319 0.647361
v -0.655399 0.095319 0.647361
v -0.675895 0.074264 0.626306
v -0.493639 0.936519 0.647361
v -0.472584 0.945240 0.626306
v -0.501474 0.974131 0.626306
v -0.510196 0.953076 0.647361
v -0.662348 0.953076 0.647361
v -0.671235 0.974131 0.626306
v -0.699348 0.945250 0.626306
v -0.678062 0.936933 0.647361
v 0.669425 0.074264 -0.716632
v 0.674293 0.074264 -0.542766
v 0.698524 1.087819 -0.699161
v 0.698022 1.070348 -0.716632
v 0.698106 1.070348 -0.542766
v 0.698524 1.087819 -0.560237
v 0.470982 0.152799 0.508386
v 0.461034 0.135010 0.518335
v 0.470982 0.152799 -0.532817
v 0.461034 0.135010 -0.542765
v 0.470982 0.448891 -0.532817
v 0.461034 0.466680 -0.542765
v 0.470982 0.432204 0.508386
v 0.461034 0.439572 0.518335
v 0.470982 0.448891 0.499054
v 0.461034 0.466680 0.503175
v 0.482028 0.085310 -0.542765
v 0.470982 0.074264 -0.531719
v 0.663540 0.085310 -0.542765
v 0.674293 0.074264 -0.531719
v 0.504448 0.963084 -0.542765
v 0.499872 0.974131 -0.531719
v 0.482028 0.940665 -0.542765
v 0.470982 0.945240 -0.531719
v 0.686579 0.940887 -0.542765
v 0.697746 0.945250 -0.531719
v 0.664971 0.963084 -0.542765
v 0.669633 0.974131 -0.531719
v 0.470982 0.074264 0.626306
v 0.492037 0.095319 0.647361
v 0.653797 0.095319 0.647361
v 0.674293 0.074264 0.626306
v 0.492037 0.936519 0.647361
v 0.470982 0.945240 0.626306
v 0.499872 0.974131 0.626306
v 0.508594 0.953076 0.647361
v 0.660746 0.953076 0.647361
v 0.669633 0.974131 0.626306
v 0.697746 0.945250 0.626306
v 0.676460 0.936933 0.647361
v -0.603258 0.000000 0.511305
v -0.611766 0.093635 0.521980
v -0.603258 0.000000 0.451601
v -0.611766 0.093635 0.440925
v -0.555680 0.000000 0.451601
v -0.547173 0.093635 0.440925
v -0.555680 0.000000 0.511305
v -0.547173 0.093635 0.521980
v 0.601656 0.000000 0.511305
v 0.610164 0.093635 0.521981
v 0.601656 0.000000 0.451601
v 0.610164 0.093635 0.440925
v 0.554079 0.000000 0.451601
v 0.545571 0.093635 0.440925
v 0.554079 0.000000 0.511305
v 0.545571 0.093635 0.521981
v -0.603258 0.000000 -0.488150
v -0.611765 0.093635 -0.498826
v -0.603258 0.000000 -0.428446
v -0.611765 0.093635 -0.417770
v -0.555680 0.000000 -0.428446
v -0.547173 0.093635 -0.417770
v -0.555680 0.000000 -0.488150
v -0.547173 0.093635 -0.498826
v 0.601657 0.000000 -0.488150
v 0.610164 0.093635 -0.498826
v 0.601657 0.000000 -0.428446
v 0.610164 0.093635 -0.417770
v 0.554079 0.000000 -0.428446
v 0.545571 0.093635 -0.417770
v 0.554079 0.000000 -0.488150
v 0.545571 0.093635 -0.498826
v 0.469736 0.440875 -0.474160
v 0.454551 0.418904 -0.474160
v 0.454551 0.440875 -0.489040
v 0.469736 0.440875 0.569407
v 0.454551 0.440875 0.584287
v 0.454551 0.418904 0.569407
v -0.460631 0.440875 -0.474160
v -0.445445 0.440875 -0.489040
v -0.445445 0.418904 -0.474160
v -0.460631 0.440875 0.569407
v -0.445445 0.418904 0.569407
v -0.445445 0.440875 0.584287
v 0.469736 0.605885 -0.474160
v 0.454551 0.605885 -0.489040
v 0.454551 0.627855 -0.474160
v 0.469736 0.605885 0.569407
v 0.454551 0.627855 0.569407
v 0.454551 0.605885 0.584287
v -0.460631 0.605885 0.569407
v -0.445445 0.605885 0.584287
v -0.445445 0.627855 0.569407
v -0.460631 0.605885 -0.474160
v -0.445445 0.627855 -0.474160
v -0.445445 0.605885 -0.489040
v 0.467364 1.161161 -0.554388
v 0.452196 1.159215 -0.576224
v 0.452113 1.168266 -0.554991
v 0.472297 0.620340 -0.509312
v 0.457178 0.612981 -0.508709
v 0.457129 0.618393 -0.531148
v -0.463067 1.164310 -0.554388
v -0.447948 1.171668 -0.554991
v -0.447866 1.162616 -0.576224
v -0.458134 0.623488 -0.509312
v -0.442932 0.621795 -0.531148
v -0.442883 0.616383 -0.508709
v 0.467239 1.174830 -0.390384
v 0.451989 1.181935 -0.390986
v 0.452038 1.176523 -0.368547
v 0.472172 0.634008 -0.345308
v 0.456971 0.635701 -0.323471
v 0.457053 0.626650 -0.344705
v -0.458259 0.637156 -0.345308
v -0.443008 0.630051 -0.344705
v -0.443090 0.639103 -0.323471
v -0.463192 1.177978 -0.390384
v -0.448023 1.179924 -0.368547
v -0.448073 1.185336 -0.390986
v 0.397948 1.178402 -0.554991
v 0.330945 1.159673 -0.576224
v 0.335878 0.618851 -0.531148
v 0.335927 0.613440 -0.508709
v 0.330787 1.176981 -0.368547
v 0.397824 1.192070 -0.390986
v 0.335802 0.627108 -0.344705
v 0.335720 0.636159 -0.323471
vn -0.0000 0.4881 0.8728
vn -0.0000 1.0000 -0.0000
vn -0.0000 -0.0000 1.0000
vn -0.0000 -1.0000 -0.0000
vn 1.0000 -0.0000 -0.0000
vn -0.9996 -0.0263 -0.0140
vn -0.0000 -0.0000 -1.0000
vn -0.9996 -0.0269 -0.0000
vn -0.7166 0.6975 -0.0000
vn 0.7071 0.7071 -0.0000
vn -0.0000 0.7071 0.7071
vn -0.0000 0.7071 -0.7071
vn -0.8728 -0.4881 -0.0000
vn -0.7071 -0.0000 -0.7071
vn -0.7770 0.3073 0.5494
vn -0.7071 -0.0000 0.7071
vn -0.8728 0.4881 -0.0000
vn -1.0000 -0.0000 -0.0000
vn -0.0000 -0.7071 -0.7071
vn 0.5000 0.5000 -0.7071
vn -0.5067 0.4932 -0.7071
vn 0.7071 -0.0000 -0.7071
vn -0.7068 -0.0190 -0.7071
vn -0.0000 -0.7071 0.7071
vn 0.5000 0.5000 0.7071
vn -0.5067 0.4932 0.7071
vn 0.7071 -0.0000 0.7071
vn -0.7069 -0.0190 0.7071
vn 0.9996 -0.0263 -0.0140
vn 0.9996 -0.0269 -0.0000
vn 0.7166 0.6975 -0.0000
vn -0.7071 0.7071 -0.0000
vn 0.8728 -0.4881 -0.0000
vn 0.7770 0.3073 0.5494
vn 0.8728 0.4881 -0.0000
vn -0.5000 0.5000 -0.7071
vn 0.5067 0.4932 -0.7071
vn 0.7068 -0.0190 -0.7071
vn -0.5000 0.5000 0.7071
vn 0.5067 0.4932 0.7071
vn 0.7069 -0.0190 0.7071
vn -0.9959 -0.0905 -0.0000
vn -0.0000 -0.1133 0.9936
vn -0.0000 -0.1133 -0.9936
vn 0.9959 -0.0905 -0.0000
vn 0.6300 -0.4355 -0.6430
vn 0.6300 -0.4355 0.6430
vn -0.6300 -0.4355 -0.6430
vn -0.6300 -0.4355 0.6430
vn 0.6300 0.4355 -0.6430
vn 0.6300 0.4355 0.6430
vn -0.6300 0.4355 0.6430
vn -0.6300 0.4355 -0.6430
vn 0.8226 -0.5686 -0.0000
vn -0.8226 -0.5686 -0.0000
vn -0.0000 -0.5608 -0.8280
vn -0.0000 -0.5608 0.8280
vn 0.8226 0.5686 -0.0000
vn -0.8226 0.5686 -0.0000
vn -0.0000 0.5608 -0.8280
vn -0.0000 0.5608 0.8280
vn -0.6999 -0.0000 -0.7142
vn 0.6999 -0.0000 -0.7142
vn 0.6999 -0.0000 0.7142
vn -0.6999 -0.0000 0.7142
vn -0.0079 0.9965 -0.0831
vn -0.0038 -0.9965 0.0830
vn -0.0003 -0.0831 -0.9965
vn -1.0000 -0.0091 -0.0000
vn 0.0003 0.0831 0.9965
vn 0.4060 0.8412 -0.3570
vn 0.4206 -0.8817 -0.2136
vn -0.4202 0.8342 -0.3572
vn -0.4056 -0.8888 -0.2135
vn 0.4056 0.8888 0.2135
vn 0.4202 -0.8342 0.3572
vn -0.4060 -0.8412 0.3570
vn -0.4206 0.8817 0.2136
vn 0.8223 -0.0398 -0.5677
vn -0.8215 -0.0548 -0.5676
vn 0.0483 0.7993 -0.5990
vn -0.0037 -0.9721 -0.2344
vn 0.8215 0.0548 0.5676
vn -0.8223 0.0398 0.5677
vn 0.0529 0.8761 0.4792
vn -0.0035 -0.9199 0.3921
vn -0.4388 0.8955 -0.0750
vn 0.4235 0.9028 -0.0749
vn 0.4388 -0.8955 0.0750
vn -0.4235 -0.9028 0.0749
vn 1.0000 0.0091 -0.0000
vn -0.0021 0.9108 0.4129
vn -0.0020 0.8383 -0.5453
vn 0.1833 0.9797 -0.0815
vt 0.512944 0.349837
vt -0.076181 0.349837
vt -0.076181 0.345278
vt 0.512944 0.345278
vt 0.512944 0.457041
vt -0.076181 0.457041
vt -0.076181 0.281148
vt 0.512944 0.281148
vt 0.512944 0.294061
vt -0.076181 0.294061
vt -0.235934 0.483342
vt -0.235934 0.459979
vt 0.512944 0.459979
vt 0.512944 0.483342
vt -0.219634 0.457041
vt -0.216360 0.486280
vt 0.512944 0.486280
vt 0.512944 0.457041
vt 0.976786 0.283846
vt 0.976786 0.451354
vt 0.965034 0.454292
vt 0.871583 0.454292
vt 0.859831 0.451354
vt 0.859831 0.283846
vt -0.235653 0.451354
vt -0.219634 0.283846
vt 0.512944 0.283846
vt 0.512944 0.451354
vt -0.102307 0.260442
vt -0.102307 0.455183
vt -0.216500 0.455183
vt -0.216500 0.260442
vt -0.105385 0.433316
vt -0.090304 0.429546
vt -0.090304 0.285703
vt -0.212401 0.285703
vt -0.227898 0.429583
vt -0.213363 0.433316
vt 0.852401 0.283846
vt 0.073434 0.283846
vt 0.073434 0.430317
vt 0.852401 0.430317
vt 0.852401 0.430315
vt 0.073434 0.430315
vt 0.073434 0.435174
vt 0.852401 0.435174
vt -0.082873 0.260442
vt -0.082873 0.455183
vt -0.235653 0.457041
vt -0.235596 0.486280
vt 0.353289 0.464554
vt 0.963046 0.468931
vt 0.963046 0.298630
vt 0.353289 0.298630
vt 0.512944 0.278599
vt -0.076181 0.278599
vt 0.859831 0.294061
vt 0.146063 0.294061
vt 0.152755 0.297053
vt 0.853139 0.297053
vt -0.082873 0.297053
vt -0.082873 0.346846
vt 0.159032 0.346846
vt 0.152755 0.344039
vt 0.146063 0.345278
vt 0.156261 0.349837
vt -0.082873 0.344039
vt 0.853139 0.346846
vt 0.859831 0.349837
vt -0.212401 0.457041
vt -0.090304 0.457041
vt -0.219634 0.455183
vt -0.102307 0.435174
vt -0.082873 0.430315
vt -0.235410 0.430317
vt -0.216500 0.435174
vt -0.082873 0.283846
vt -0.219634 0.260442
vt -0.097036 0.256901
vt -0.205847 0.256901
vt -0.108173 0.431633
vt -0.097036 0.428849
vt -0.221092 0.428918
vt -0.210521 0.431633
vt -0.097036 0.287386
vt -0.210521 0.256901
vt -0.108173 0.256901
vt -0.205847 0.287386
vt 1.112239 0.345278
vt 1.112239 0.349837
vt 1.112239 0.281148
vt 1.112239 0.457041
vt 1.112239 0.294061
vt 1.271991 0.483342
vt 1.271991 0.459979
vt 1.255692 0.457041
vt 1.252417 0.486280
vt 1.271710 0.451354
vt 1.255692 0.283846
vt -0.197066 0.260442
vt -0.197066 0.455183
vt -0.212899 0.433316
vt -0.104920 0.433316
vt -0.090385 0.429583
vt -0.105883 0.285703
vt -0.227980 0.285703
vt -0.227980 0.429546
vt 1.271710 0.457041
vt 1.271654 0.486280
vt 0.353289 0.296317
vt 0.963046 0.296317
vt 1.112239 0.278599
vt 1.118931 0.346846
vt 1.118931 0.297053
vt 1.118931 0.344039
vt -0.090106 0.457041
vt -0.212204 0.457041
vt -0.235410 0.430315
vt -0.215977 0.435174
vt -0.101784 0.435174
vt -0.082873 0.430317
vt -0.235410 0.283846
vt -0.098650 0.283846
vt -0.096660 0.256901
vt -0.205471 0.256901
vt -0.210110 0.431633
vt -0.221247 0.428849
vt -0.097192 0.428918
vt -0.107762 0.431633
vt -0.221247 0.287386
vt -0.088852 0.256901
vt -0.191200 0.256901
vt -0.112436 0.287386
vt 0.063438 0.013283
vt 0.098185 0.014274
vt 0.098185 0.006754
vt 0.063438 0.007744
vt 0.006985 0.004830
vt 0.063438 0.003547
vt 0.006985 0.012001
vt 0.079620 0.003547
vt 0.079620 0.013283
vt 0.030751 0.013283
vt 0.030751 0.003547
vt 0.073183 0.012001
vt 0.073183 0.004830
vt 0.037187 0.004830
vt 0.037187 0.012001
vt 0.006985 0.012001
vt 0.006985 0.004830
vt 0.073183 0.004830
vt 0.037187 0.004830
vt 0.037187 0.012001
vt 0.073183 0.012001
vt 0.063438 0.007744
vt 0.063438 0.013283
vt 0.098185 0.006754
vt 0.006985 0.004830
vt 0.063438 0.003547
vt 0.030751 0.003547
vt 0.079620 0.003547
vt 0.037187 0.012001
vt 0.073183 0.012001
vt 0.063438 0.007744
vt 0.006985 0.004830
vt 0.582703 0.454473
vt 0.582703 0.309670
vt 0.693737 0.309670
vt 0.693737 0.454473
vt 0.693737 0.454473
vt 0.582703 0.454473
vt 0.582703 0.309670
vt 0.348613 0.469848
vt 0.348613 0.294295
vt 0.927827 0.294295
vt 0.927827 0.469848
vt 0.694614 0.295967
vt 0.694180 0.468035
vt 0.581826 0.468176
vt 0.582259 0.296108
vt 0.348613 0.294295
vt 0.927827 0.294295
vt 0.927827 0.469848
vt 0.348613 0.469848
vt 0.694180 0.468035
vt 0.712645 0.468691
vt 0.696316 0.471640
vt 0.694614 0.295967
vt 0.696451 0.292248
vt 0.712645 0.295248
vt 0.696451 0.292248
vt 0.712645 0.295248
vt 0.696316 0.471640
vt 0.581826 0.468176
vt 0.579989 0.471895
vt 0.563795 0.468895
vt 0.582260 0.296108
vt 0.563795 0.295452
vt 0.580124 0.292502
vt 0.579989 0.471895
vt 0.563795 0.468895
vt 0.563795 0.295452
vt 0.580124 0.292502
vt 0.564847 0.454473
vt 0.564847 0.309670
vt 0.711593 0.309670
vt 0.711593 0.454473
vt 0.711593 0.309670
vt 0.207023 0.383241
vt 0.874024 0.383684
vt 0.873867 0.417864
vt 0.207573 0.416906
vt 0.776145 0.382652
vt 0.873114 0.383004
vt 0.872886 0.416723
vt 0.776657 0.417367
vt 0.261625 0.456083
vt 0.255958 0.343921
vt 0.871776 0.343921
vt 0.877444 0.456083
vt 0.743105 0.417009
vt 0.294421 0.417009
vt 0.294421 0.382994
vt 0.743105 0.382994
vt 0.261625 0.343921
vt 0.877444 0.343921
vt 0.871776 0.456083
vt 0.255958 0.456083
vt 0.149993 0.382448
vt 0.162823 0.377709
vt 0.163755 0.382634
vt 0.886560 0.382840
vt 0.874171 0.378193
vt 0.887517 0.383520
vt 0.875079 0.378914
vt 0.151089 0.383770
vt 0.163264 0.379200
vt 0.164384 0.383925
vt 0.149941 0.417324
vt 0.163896 0.417140
vt 0.162920 0.422121
vt 0.886542 0.416873
vt 0.874101 0.421549
vt 0.150967 0.417601
vt 0.164487 0.417441
vt 0.163426 0.422207
vt 0.887586 0.418032
vt 0.874855 0.422668
vt 0.743105 0.382994
vt 0.294421 0.382994
vt 0.294421 0.377561
vt 0.743105 0.377561
vt 0.743105 0.422442
vt 0.294421 0.422442
vt 0.259361 0.377336
vt 0.776177 0.377797
vt 0.743105 0.422442
vt 0.294422 0.422442
vt 0.294421 0.417009
vt 0.743105 0.417009
vt 0.294421 0.377561
vt 0.743105 0.377561
vt 0.259835 0.422668
vt 0.776839 0.422207
vt 0.165750 0.343921
vt 0.160083 0.456083
vt 0.165750 0.456083
vt 0.160083 0.343921
s 0
usemtl couches
f 8/1/1 27/2/1 25/3/1 9/4/1
f 2/5/2 23/6/2 27/7/2 8/8/2
f 3/9/3 9/4/3 25/3/3 19/10/3
f 10/11/2 13/12/2 16/13/2 15/14/2
f 5/15/4 4/16/4 6/17/4 7/18/4
f 6/19/5 14/20/5 15/21/5 16/22/5 17/23/5 7/24/5
f 12/25/3 5/26/3 7/27/3 17/28/3
f 4/19/6 5/24/6 12/23/6 13/22/6 10/21/6 11/20/6
f 46/29/2 33/30/2 39/31/2 49/32/2
f 32/33/7 34/34/7 28/35/7 30/36/7 36/37/7 38/38/7
f 31/39/8 43/40/8 50/41/8 37/42/8
f 29/39/5 35/43/5 45/44/5 40/40/5
f 49/45/9 39/46/9 37/42/9 50/41/9
f 45/47/10 35/48/10 33/30/10 46/29/10
f 16/13/11 13/12/11 12/49/11 17/18/11
f 14/17/12 11/50/12 10/11/12 15/14/12
f 4/51/7 11/52/7 14/53/7 6/54/7
f 21/6/4 1/5/4 3/55/4 19/56/4
f 21/57/13 19/58/13 18/59/13 20/60/13
f 23/2/14 21/10/14 20/61/14 22/62/14
f 26/63/15 24/64/15 25/65/15 27/66/15
f 24/67/16 18/61/16 19/10/16 25/3/16
f 22/68/17 26/63/17 27/66/17 23/69/17
f 18/59/18 24/64/18 26/63/18 22/68/18 20/60/18
f 30/70/19 28/71/19 29/48/19 31/72/19
f 34/34/20 32/33/20 33/73/20 35/74/20
f 38/38/21 36/37/21 37/75/21 39/76/21
f 39/76/12 33/73/12 32/33/12 38/38/12
f 35/74/22 29/77/22 28/35/22 34/34/22
f 31/26/23 37/75/23 36/37/23 30/36/23
f 29/48/4 40/47/4 43/78/4 31/72/4
f 43/78/24 40/47/24 41/79/24 42/80/24
f 47/81/25 44/82/25 45/74/25 46/73/25
f 51/83/26 48/84/26 49/76/26 50/75/26
f 44/82/27 41/85/27 40/77/27 45/74/27
f 48/86/11 47/87/11 46/29/11 49/32/11
f 50/75/28 43/26/28 42/88/28 51/83/28
f 41/85/3 44/82/3 47/81/3 48/84/3 51/83/3 42/88/3
f 8/1/1 9/4/1 65/89/1 67/90/1
f 2/5/2 8/8/2 67/91/2 63/92/2
f 3/9/3 59/93/3 65/89/3 9/4/3
f 54/94/2 15/14/2 16/13/2 57/95/2
f 53/96/4 7/18/4 6/17/4 52/97/4
f 56/98/3 17/28/3 7/27/3 53/99/3
f 52/19/29 55/20/29 54/21/29 57/22/29 56/23/29 53/24/29
f 86/100/2 89/47/2 79/48/2 73/101/2
f 72/102/7 78/103/7 76/104/7 70/105/7 68/106/7 74/107/7
f 71/39/30 77/42/30 90/41/30 83/40/30
f 69/39/18 80/40/18 85/44/18 75/43/18
f 89/45/31 90/41/31 77/42/31 79/46/31
f 85/32/32 86/100/32 73/101/32 75/31/32
f 16/13/11 17/18/11 56/108/11 57/95/11
f 14/17/12 15/14/12 54/94/12 55/109/12
f 52/51/7 6/110/7 14/111/7 55/52/7
f 61/92/4 59/112/4 3/55/4 1/5/4
f 61/57/33 60/60/33 58/59/33 59/58/33
f 63/90/22 62/113/22 60/114/22 61/93/22
f 66/63/34 67/66/34 65/65/34 64/64/34
f 64/115/27 65/89/27 59/93/27 58/114/27
f 62/68/35 63/69/35 67/66/35 66/63/35
f 58/59/5 60/60/5 62/68/5 66/63/5 64/64/5
f 70/116/19 71/48/19 69/72/19 68/117/19
f 74/107/36 75/118/36 73/119/36 72/102/36
f 78/103/37 79/120/37 77/121/37 76/104/37
f 79/120/12 78/103/12 72/102/12 73/119/12
f 75/118/14 74/107/14 68/106/14 69/122/14
f 71/123/38 70/105/38 76/104/38 77/121/38
f 69/72/4 71/48/4 83/47/4 80/78/4
f 83/47/24 82/124/24 81/125/24 80/78/24
f 87/126/39 86/119/39 85/118/39 84/127/39
f 91/128/40 90/121/40 89/120/40 88/129/40
f 84/127/16 85/118/16 80/122/16 81/130/16
f 88/131/11 89/47/11 86/100/11 87/132/11
f 90/121/41 91/128/41 82/133/41 83/123/41
f 81/130/3 82/133/3 91/128/3 88/129/3 87/126/3 84/127/3
f 92/134/42 93/135/42 95/136/42 94/137/42
f 98/138/43 99/139/43 93/134/43 92/140/43
f 97/141/2 95/142/2 93/143/2 99/144/2
f 94/140/44 95/134/44 97/139/44 96/138/44
f 94/145/4 96/146/4 98/147/4 92/148/4
f 100/134/45 102/137/45 103/136/45 101/135/45
f 106/149/43 100/150/43 101/139/43 107/134/43
f 105/142/2 107/143/2 101/144/2 103/141/2
f 102/150/44 104/149/44 105/134/44 103/139/44
f 102/151/4 100/152/4 106/153/4 104/154/4
f 108/155/42 110/156/42 111/135/42 109/157/42
f 114/158/44 108/149/44 109/134/44 115/159/44
f 113/160/2 115/161/2 109/142/2 111/143/2
f 110/149/43 112/158/43 113/159/43 111/134/43
f 110/162/4 108/163/4 114/151/4 112/152/4
f 116/164/45 117/157/45 119/135/45 118/156/45
f 122/140/44 123/134/44 117/139/44 116/165/44
f 121/143/2 119/144/2 117/141/2 123/142/2
f 118/165/43 119/139/43 121/134/43 120/140/43
f 118/152/4 120/153/4 122/154/4 116/151/4
f 126/166/7 131/167/7 147/168/7 137/169/7
f 135/168/3 128/170/3 141/171/3 143/172/3
f 125/173/4 129/174/4 134/175/4 132/176/4
f 130/177/18 133/178/18 142/179/18 145/180/18
f 138/181/2 146/182/2 144/183/2 140/184/2
f 124/185/46 125/186/46 126/187/46
f 127/188/47 128/189/47 129/190/47
f 130/177/48 131/191/48 132/192/48
f 133/178/49 134/186/49 135/193/49
f 136/194/50 137/195/50 138/196/50
f 139/197/51 140/198/51 141/199/51
f 142/179/52 143/200/52 144/201/52
f 145/180/53 146/202/53 147/203/53
f 124/185/54 127/188/54 129/190/54 125/186/54
f 133/178/55 130/177/55 132/192/55 134/186/55
f 131/167/56 126/166/56 125/204/56 132/205/56
f 134/206/57 129/207/57 128/170/57 135/168/57
f 138/196/58 140/198/58 139/197/58 136/194/58
f 144/201/59 146/202/59 145/180/59 142/179/59
f 146/208/60 138/207/60 137/169/60 147/168/60
f 143/172/61 141/171/61 140/204/61 144/205/61
f 130/177/62 145/180/62 147/203/62 131/191/62
f 136/194/63 124/185/63 126/187/63 137/195/63
f 141/199/64 128/189/64 127/188/64 139/197/64
f 142/179/65 133/178/65 135/193/65 143/200/65
f 127/188/5 124/185/5 136/194/5 139/197/5
f 172/209/66 155/210/66 171/211/66 177/212/66
f 175/213/67 152/214/67 165/215/67 178/216/67
f 173/217/68 174/218/68 158/219/68 156/220/68
f 154/221/69 157/222/69 166/223/69 169/224/69
f 176/225/70 170/226/70 168/227/70 179/228/70
f 148/229/71 149/230/71 150/231/71
f 151/232/72 152/214/72 153/233/72
f 154/234/73 155/210/73 156/235/73
f 157/236/74 158/237/74 159/238/74
f 160/239/75 161/240/75 162/241/75
f 163/242/76 164/243/76 165/215/76
f 166/244/77 167/245/77 168/246/77
f 169/247/78 170/248/78 171/211/78
f 148/249/79 151/250/79 153/251/79 149/252/79
f 157/222/80 154/221/80 156/253/80 158/254/80
f 172/209/81 150/231/81 149/230/81 173/255/81
f 174/256/82 153/233/82 152/214/82 175/213/82
f 162/257/83 164/258/83 163/259/83 160/260/83
f 168/261/84 170/262/84 169/224/84 166/223/84
f 176/263/85 162/241/85 161/240/85 177/212/85
f 178/216/86 165/215/86 164/243/86 179/264/86
f 154/234/87 169/247/87 171/211/87 155/210/87
f 160/239/88 148/229/88 150/231/88 161/240/88
f 165/215/89 152/214/89 151/232/89 163/242/89
f 166/244/90 157/236/90 159/238/90 167/245/90
f 151/250/91 148/249/91 160/260/91 163/259/91
f 167/245/86 178/216/86 179/264/86 168/246/86
f 170/248/92 176/263/92 177/212/92 171/211/92
f 158/237/82 174/256/82 175/213/82 159/238/82
f 155/210/93 172/209/93 173/255/93 156/235/93
f 162/265/70 176/225/70 179/228/70 164/266/70
f 149/267/68 153/268/68 174/218/68 173/217/68
f 159/238/67 175/213/67 178/216/67 167/245/67
f 150/231/94 172/209/94 177/212/94 161/240/94
f 106/153/42 107/143/42 105/134/42 104/154/42
f 122/154/42 120/153/42 121/134/42 123/142/42
f 98/147/45 96/146/45 97/139/45 99/144/45
f 114/151/45 115/161/45 113/159/45 112/152/45
