# Blender 4.3.2
# www.blender.org
mtllib armchair_blue.mtl
o armchair_blue
v -0.007559 0.135010 -0.542765
v -0.007559 0.466680 -0.542765
v -0.007559 0.135010 0.518335
v -0.671027 0.074264 -0.716632
v -0.675895 0.074264 -0.542766
v -0.007559 0.074264 -0.716632
v -0.007559 0.074264 -0.542766
v -0.007559 0.466680 0.503175
v -0.007559 0.439572 0.518335
v -0.700126 1.087819 -0.699161
v -0.699624 1.070348 -0.716632
v -0.699708 1.070348 -0.542766
v -0.700126 1.087819 -0.560237
v -0.007559 1.070348 -0.716632
v -0.007559 1.087819 -0.699161
v -0.007559 1.087819 -0.560237
v -0.007559 1.070348 -0.542766
v -0.472584 0.152799 0.508386
v -0.462636 0.135010 0.518335
v -0.472584 0.152799 -0.532817
v -0.462636 0.135010 -0.542765
v -0.472584 0.448891 -0.532817
v -0.462636 0.466680 -0.542765
v -0.472584 0.432204 0.508386
v -0.462636 0.439572 0.518335
v -0.472584 0.448891 0.499054
v -0.462636 0.466680 0.503175
v -0.483630 0.085310 -0.542765
v -0.472584 0.074264 -0.531719
v -0.665142 0.085310 -0.542765
v -0.675895 0.074264 -0.531719
v -0.506050 0.963084 -0.542765
v -0.501474 0.974131 -0.531719
v -0.483630 0.940665 -0.542765
v -0.472584 0.945240 -0.531719
v -0.688181 0.940887 -0.542765
v -0.699348 0.945250 -0.531719
v -0.666573 0.963084 -0.542765
v -0.671235 0.974131 -0.531719
v -0.472584 0.074264 0.626306
v -0.493639 0.095319 0.647361
v -0.655399 0.095319 0.647361
v -0.675895 0.074264 0.626306
v -0.493639 0.936519 0.647361
v -0.472584 0.945240 0.626306
v -0.501474 0.974131 0.626306
v -0.510196 0.953076 0.647361
v -0.662348 0.953076 0.647361
v -0.671235 0.974131 0.626306
v -0.699348 0.945250 0.626306
v -0.678062 0.936933 0.647361
v 0.669425 0.074264 -0.716632
v 0.674293 0.074264 -0.542766
v 0.698524 1.087819 -0.699161
v 0.698022 1.070348 -0.716632
v 0.698106 1.070348 -0.542766
v 0.698524 1.087819 -0.560237
v 0.470982 0.152799 0.508386
v 0.461034 0.135010 0.518335
v 0.470982 0.152799 -0.532817
v 0.461034 0.135010 -0.542765
v 0.470982 0.448891 -0.532817
v 0.461034 0.466680 -0.542765
v 0.470982 0.432204 0.508386
v 0.461034 0.439572 0.518335
v 0.470982 0.448891 0.499054
v 0.461034 0.466680 0.503175
v 0.482028 0.085310 -0.542765
v 0.470982 0.074264 -0.531719
v 0.663540 0.085310 -0.542765
v 0.674293 0.074264 -0.531719
v 0.504448 0.963084 -0.542765
v 0.499872 0.974131 -0.531719
v 0.482028 0.940665 -0.542765
v 0.470982 0.945240 -0.531719
v 0.686579 0.940887 -0.542765
v 0.697746 0.945250 -0.531719
v 0.664971 0.963084 -0.542765
v 0.669633 0.974131 -0.531719
v 0.470982 0.074264 0.626306
v 0.492037 0.095319 0.647361
v 0.653797 0.095319 0.647361
v 0.674293 0.074264 0.626306
v 0.492037 0.936519 0.647361
v 0.470982 0.945240 0.626306
v 0.499872 0.974131 0.626306
v 0.508594 0.953076 0.647361
v 0.660746 0.953076 0.647361
v 0.669633 0.974131 0.626306
v 0.697746 0.945250 0.626306
v 0.676460 0.936933 0.647361
v -0.603258 0.000000 0.511305
v -0.611766 0.093635 0.521980
v -0.603258 0.000000 0.451601
v -0.611766 0.093635 0.440925
v -0.555680 0.000000 0.451601
v -0.547173 0.093635 0.440925
v -0.555680 0.000000 0.511305
v -0.547173 0.093635 0.521980
v 0.601656 0.000000 0.511305
v 0.610164 0.093635 0.521981
v 0.601656 0.000000 0.451601
v 0.610164 0.093635 0.440925
v 0.554079 0.000000 0.451601
v 0.545571 0.093635 0.440925
v 0.554079 0.000000 0.511305
v 0.545571 0.093635 0.521981
v -0.603258 0.000000 -0.488150
v -0.611765 0.093635 -0.498826
v -0.603258 0.000000 -0.428446
v -0.611765 0.093635 -0.417770
v -0.555680 0.000000 -0.428446
v -0.547173 0.093635 -0.417770
v -0.555680 0.000000 -0.488150
v -0.547173 0.093635 -0.498826
v 0.601657 0.000000 -0.488150
v 0.610164 0.093635 -0.498826
v 0.601657 0.000000 -0.428446
v 0.610164 0.093635 -0.417770
v 0.554079 0.000000 -0.428446
v 0.545571 0.093635 -0.417770
v 0.554079 0.000000 -0.488150
v 0.545571 0.093635 -0.498826
v 0.469736 0.440875 -0.474160
v 0.454551 0.418904 -0.474160
v 0.454551 0.440875 -0.489040
v 0.469736 0.440875 0.569407
v 0.454551 0.440875 0.584287
v 0.454551 0.418904 0.569407
v -0.460631 0.440875 -0.474160
v -0.445445 0.440875 -0.489040
v -0.445445 0.418904 -0.474160
v -0.460631 0.440875 0.569407
v -0.445445 0.418904 0.569407
v -0.445445 0.440875 0.584287
v 0.469736 0.605885 -0.474160
v 0.454551 0.605885 -0.489040
v 0.454551 0.627855 -0.474160
v 0.469736 0.605885 0.569407
v 0.454551 0.627855 0.569407
v 0.454551 0.605885 0.584287
v -0.460631 0.605885 0.569407
v -0.445445 0.605885 0.584287
v -0.445445 0.627855 0.569407
v -0.460631 0.605885 -0.474160
v -0.445445 0.627855 -0.474160
v -0.445445 0.605885 -0.489040
v 0.467364 1.161161 -0.554388
v 0.452196 1.159215 -0.576224
v 0.452113 1.168266 -0.554991
v 0.472297 0.620340 -0.509312
v 0.457178 0.612981 -0.508709
v 0.457129 0.618393 -0.531148
v -0.463067 1.164310 -0.554388
v -0.447948 1.171668 -0.554991
v -0.447866 1.162616 -0.576224
v -0.458134 0.623488 -0.509312
v -0.442932 0.621795 -0.531148
v -0.442883 0.616383 -0.508709
v 0.467239 1.174830 -0.390384
v 0.451989 1.181935 -0.390986
v 0.452038 1.176523 -0.368547
v 0.472172 0.634008 -0.345308
v 0.456971 0.635701 -0.323471
v 0.457053 0.626650 -0.344705
v -0.458259 0.637156 -0.345308
v -0.443008 0.630051 -0.344705
v -0.443090 0.639103 -0.323471
v -0.463192 1.177978 -0.390384
v -0.448023 1.179924 -0.368547
v -0.448073 1.185336 -0.390986
v 0.397948 1.178402 -0.554991
v 0.330945 1.159673 -0.576224
v 0.335878 0.618851 -0.531148
v 0.335927 0.613440 -0.508709
v 0.330787 1.176981 -0.368547
v 0.397824 1.192070 -0.390986
v 0.335802 0.627108 -0.344705
v 0.335720 0.636159 -0.323471
vn -0.0000 0.4881 0.8728
vn -0.0000 1.0000 -0.0000
vn -0.0000 -0.0000 1.0000
vn -0.0000 -1.0000 -0.0000
vn 1.0000 -0.0000 -0.0000
vn -0.9996 -0.0263 -0.0140
vn -0.0000 -0.0000 -1.0000
vn -0.9996 -0.0269 -0.0000
vn -0.7166 0.6975 -0.0000
vn 0.7071 0.7071 -0.0000
vn -0.0000 0.7071 0.7071
vn -0.0000 0.7071 -0.7071
vn -0.8728 -0.4881 -0.0000
vn -0.7071 -0.0000 -0.7071
vn -0.7770 0.3073 0.5494
vn -0.7071 -0.0000 0.7071
vn -0.8728 0.4881 -0.0000
vn -1.0000 -0.0000 -0.0000
vn -0.0000 -0.7071 -0.7071
vn 0.5000 0.5000 -0.7071
vn -0.5067 0.4932 -0.7071
vn 0.7071 -0.0000 -0.7071
vn -0.7068 -0.0190 -0.7071
vn -0.0000 -0.7071 0.7071
vn 0.5000 0.5000 0.7071
vn -0.5067 0.4932 0.7071
vn 0.7071 -0.0000 0.7071
vn -0.7069 -0.0190 0.7071
vn 0.9996 -0.0263 -0.0140
vn 0.9996 -0.0269 -0.0000
vn 0.7166 0.6975 -0.0000
vn -0.7071 0.7071 -0.0000
vn 0.8728 -0.4881 -0.0000
vn 0.7770 0.3073 0.5494
vn 0.8728 0.4881 -0.0000
vn -0.5000 0.5000 -0.7071
vn 0.5067 0.4932 -0.7071
vn 0.7068 -0.0190 -0.7071
vn -0.5000 0.5000 0.7071
vn 0.5067 0.4932 0.7071
vn 0.7069 -0.0190 0.7071
vn -0.9959 -0.0905 -0.0000
vn -0.0000 -0.1133 0.9936
vn -0.0000 -0.1133 -0.9936
vn 0.9959 -0.0905 -0.0000
vn 0.6300 -0.4355 -0.6430
vn 0.6300 -0.4355 0.6430
vn -0.6300 -0.4355 -0.6430
vn -0.6300 -0.4355 0.6430
vn 0.6300 0.4355 -0.6430
vn 0.6300 0.4355 0.6430
vn -0.6300 0.4355 0.6430
vn -0.6300 0.4355 -0.6430
vn 0.8226 -0.5686 -0.0000
vn -0.8226 -0.5686 -0.0000
vn -0.0000 -0.5608 -0.8280
vn -0.0000 -0.5608 0.8280
vn 0.8226 0.5686 -0.0000
vn -0.8226 0.5686 -0.0000
vn -0.0000 0.5608 -0.8280
vn -0.0000 0.5608 0.8280
vn -0.6999 -0.0000 -0.7142
vn 0.6999 -0.0000 -0.7142
vn 0.6999 -0.0000 0.7142
vn -0.6999 -0.0000 0.7142
vn -0.0079 0.9965 -0.0831
vn -0.0038 -0.9965 0.0830
vn -0.0003 -0.0831 -0.9965
vn -1.0000 -0.0091 -0.0000
vn 0.0003 0.0831 0.9965
vn 0.4060 0.8412 -0.3570
vn 0.4206 -0.8817 -0.2136
vn -0.4202 0.8342 -0.3572
vn -0.4056 -0.8888 -0.2135
vn 0.4056 0.8888 0.2135
vn 0.4202 -0.8342 0.3572
vn -0.4060 -0.8412 0.3570
vn -0.4206 0.8817 0.2136
vn 0.8223 -0.0398 -0.5677
vn -0.8215 -0.0548 -0.5676
vn 0.0483 0.7993 -0.5990
vn -0.0037 -0.9721 -0.2344
vn 0.8215 0.0548 0.5676
vn -0.8223 0.0398 0.5677
vn 0.0529 0.8761 0.4792
vn -0.0035 -0.9199 0.3921
vn -0.4388 0.8955 -0.0750
vn 0.4235 0.9028 -0.0749
vn 0.4388 -0.8955 0.0750
vn -0.4235 -0.9028 0.0749
vn 1.0000 0.0091 -0.0000
vn -0.0021 0.9108 0.4129
vn -0.0020 0.8383 -0.5453
vn 0.1833 0.9797 -0.0815
vt 0.531578 0.920922
vt 0.093228 0.920922
vt 0.093228 0.913443
vt 0.531578 0.913443
vt 0.034339 0.878884
vt 0.034340 0.769296
vt 1.041837 0.769296
vt 1.041837 0.878884
vt 0.531578 0.840101
vt 0.093228 0.840101
vt 0.871644 0.863784
vt 0.871644 0.897239
vt 0.204532 0.897239
vt 0.204532 0.863784
vt 0.216202 0.901446
vt 0.220891 0.859577
vt 0.859974 0.859577
vt 0.859974 0.901446
vt 0.049937 0.859577
vt 1.009410 0.859577
vt 1.026239 0.863784
vt 1.026239 0.897239
vt 1.009410 0.901446
vt 0.049937 0.901446
vt 1.025655 0.963826
vt 0.065908 0.963826
vt 0.050522 0.802930
vt 1.009720 0.797197
vt 0.139429 0.810493
vt 0.257963 0.780892
vt 0.936739 0.950520
vt 0.936747 0.956470
vt 0.842142 0.980131
vt 0.818337 0.980131
vt -0.005303 0.864991
vt 1.110160 0.864991
vt 1.110160 0.905871
vt -0.005303 0.905871
vt 0.957455 0.898922
vt 0.936139 0.904227
vt 0.114020 0.904298
vt 0.115194 0.858446
vt 0.937061 0.856756
vt 0.958119 0.861678
vt -0.019643 0.770749
vt 1.095819 0.770749
vt 1.095819 0.980568
vt -0.019643 0.980568
vt -0.019643 0.985382
vt -0.019643 0.775641
vt 1.095819 0.775641
vt 1.095819 0.985382
vt 1.095819 0.990274
vt -0.019643 0.990274
vt -0.005303 0.855152
vt 1.110160 0.855152
vt 0.871241 0.903189
vt 0.204532 0.903189
vt 0.204532 0.857834
vt 0.871160 0.857834
vt 0.058352 0.984400
vt 1.017825 0.991287
vt 1.017824 0.824630
vt 0.058352 0.824630
vt 0.027038 0.991726
vt 0.027038 0.882139
vt 1.049138 0.882139
vt 1.049138 0.991726
vt 0.149665 0.789570
vt 1.069792 0.901851
vt 1.052538 0.905217
vt 0.149665 0.795041
vt 0.697828 0.882205
vt 0.378348 0.882205
vt 0.395483 0.878817
vt 0.680693 0.878817
vt 0.910291 0.966596
vt 0.925588 0.964231
vt 0.932175 0.967731
vt 0.906171 0.971453
vt 0.079676 0.911668
vt 0.079676 0.844385
vt 0.023325 0.860543
vt 0.006384 0.863904
vt -0.041507 0.902402
vt -0.041508 0.858692
vt -0.026460 0.856032
vt -0.026460 0.904991
vt 0.972792 0.900666
vt 0.942384 0.907994
vt 0.943594 0.852962
vt 0.972792 0.860094
vt 0.103384 0.908061
vt 0.104717 0.854707
vt 1.089002 0.856032
vt 1.089002 0.904991
vt 1.117684 0.861102
vt 1.117684 0.900056
vt 0.817447 0.801411
vt 0.795072 0.801095
vt 0.785295 0.793945
vt 0.826751 0.793945
vt 0.906683 0.835264
vt 0.910009 0.830059
vt 0.940811 0.829360
vt 0.932157 0.839231
vt 0.168962 0.927135
vt 0.135365 0.924742
vt -0.033984 0.903731
vt -0.033984 0.867091
vt 0.272569 0.967078
vt 0.270609 0.958435
vt 0.446644 0.981152
vt 0.462891 0.780228
vt 0.478243 0.776147
vt 0.625523 0.776835
vt 0.639334 0.780817
vt 0.607892 0.981806
vt 0.982948 0.913443
vt 0.982948 0.920922
vt 1.041837 0.991726
vt 0.034339 0.991726
vt 0.982948 0.840101
vt 0.198022 0.863784
vt 0.878153 0.863784
vt 0.878154 0.897239
vt 0.198022 0.897239
vt 0.866484 0.901446
vt 0.209693 0.901446
vt 0.209693 0.859577
vt 0.861795 0.859577
vt 1.017825 0.795545
vt 1.017824 0.965478
vt 0.058352 0.965478
vt 0.058352 0.801280
vt 0.049736 0.859569
vt 1.009604 0.859585
vt 1.026440 0.863792
vt 1.026440 0.897247
vt 1.009606 0.901454
vt 0.049859 0.901454
vt -0.005302 0.896032
vt -0.005302 0.855152
vt 1.110160 0.896032
vt 0.848023 0.803813
vt 0.934520 0.833955
vt 0.928788 0.840984
vt 0.250000 0.957797
vt 0.143465 0.920300
vt 0.818609 0.802722
vt -0.019643 0.770749
vt -0.019643 0.775641
vt 1.095819 0.775641
vt -0.019643 0.985382
vt -0.005302 0.905871
vt 0.878154 0.903189
vt 0.198425 0.903189
vt 0.878153 0.857834
vt 0.198505 0.857834
vt 0.058352 0.986028
vt 0.058352 0.823002
vt 1.017825 0.823002
vt 1.017824 0.992914
vt 0.027038 0.769296
vt 1.049138 0.769296
vt 0.026144 0.921768
vt 0.035744 0.916851
vt 1.040432 0.916851
vt 1.050032 0.921768
vt 0.697828 0.878817
vt 0.680693 0.882205
vt 0.395483 0.882205
vt 0.378348 0.878817
vt 1.020296 0.846093
vt 1.025114 0.841277
vt 1.041953 0.847473
vt 1.029892 0.849895
vt 0.996500 0.911668
vt 0.996500 0.844384
vt 0.037136 0.844133
vt 0.027808 0.839255
vt -0.041507 0.858621
vt -0.026460 0.904991
vt -0.041507 0.902331
vt 0.815374 0.798649
vt 0.856636 0.800360
vt 0.950068 0.833125
vt 0.942881 0.843143
vt 0.126108 0.918732
vt 0.250000 0.962374
vt 1.089002 0.856032
vt 1.089002 0.904991
vt 1.117684 0.860967
vt 1.117684 0.899921
vt 0.902506 0.828082
vt 0.932971 0.827478
vt 0.924749 0.837326
vt 0.898567 0.833616
vt 0.789749 0.798740
vt 0.779550 0.791658
vt 0.820237 0.791658
vt 0.810811 0.799062
vt 0.281284 0.969365
vt 0.278783 0.960674
vt -0.033984 0.857292
vt -0.033984 0.893932
vt 0.176693 0.929382
vt 0.143205 0.927132
vt 0.620006 0.981679
vt 0.458501 0.981117
vt 0.452255 0.779734
vt 0.466779 0.775908
vt 0.614641 0.777001
vt 0.629069 0.781312
vt 0.093325 0.014825
vt 0.014276 0.017068
vt 0.014276 0.000031
vt 0.093325 0.002275
vt 0.014183 0.003550
vt 0.093417 0.001762
vt 0.093417 0.015338
vt 0.014183 0.013550
vt 0.019726 0.015338
vt 0.019726 0.001762
vt 0.087875 0.001762
vt 0.087875 0.015338
vt 0.028702 0.013550
vt 0.028702 0.003550
vt 0.078899 0.003550
vt 0.078899 0.013550
vt 0.014276 0.014825
vt 0.014276 0.002275
vt 0.093325 0.000031
vt 0.093325 0.017068
vt 0.014183 0.003550
vt 0.028702 0.003550
vt 0.078899 0.003550
vt 0.078899 0.013550
vt 0.028702 0.013550
vt 0.014276 0.002275
vt 0.014276 0.002275
vt 0.014276 0.014824
vt 0.012224 0.005351
vt 0.090494 0.001789
vt 0.095377 0.015311
vt 0.015821 0.015311
vt 0.078899 0.013550
vt 0.028702 0.003550
vt 0.603454 0.791382
vt 0.603454 0.969641
vt 0.472722 0.969641
vt 0.472722 0.791382
vt 0.472722 0.791382
vt 0.894606 0.777164
vt 0.894606 0.983859
vt 0.181570 0.983859
vt 0.181570 0.777164
vt 0.604537 0.779254
vt 0.603988 0.981595
vt 0.471639 0.981769
vt 0.472188 0.779428
vt 0.894606 0.777164
vt 0.626092 0.982427
vt 0.606717 0.985943
vt 0.604537 0.779254
vt 0.606878 0.774760
vt 0.626092 0.778339
vt 0.626091 0.982427
vt 0.606717 0.985943
vt 0.471639 0.981769
vt 0.469298 0.986262
vt 0.450084 0.982684
vt 0.472188 0.779428
vt 0.450084 0.778596
vt 0.469459 0.775080
vt 0.450085 0.778596
vt 0.469459 0.775080
vt 0.624477 0.791382
vt 0.624477 0.969641
vt 0.451699 0.969641
vt 0.451699 0.791382
vt 0.624477 0.969641
vt 0.922819 0.904113
vt 0.110203 0.904287
vt 0.109728 0.864471
vt 0.921494 0.864885
vt 0.841926 0.908653
vt 0.937608 0.925937
vt 0.847088 0.958042
vt 0.749445 0.941819
vt 0.224751 0.945853
vt 0.218031 0.815170
vt 0.968221 0.815170
vt 0.974941 0.945853
vt 0.799480 0.900327
vt 0.276708 0.900327
vt 0.276708 0.860696
vt 0.799480 0.860696
vt 0.854758 0.944840
vt 0.104632 0.947251
vt 0.104632 0.816558
vt 0.854760 0.814147
vt 0.952869 0.832960
vt 0.952869 0.839718
vt 0.938778 0.835182
vt 0.951328 0.928111
vt 0.951454 0.921523
vt 0.215707 0.961379
vt 0.228823 0.958845
vt 0.240728 0.963598
vt 0.215019 0.800432
vt 0.239665 0.798187
vt 0.227991 0.802917
vt 0.859038 0.799716
vt 0.845758 0.802325
vt 0.833258 0.797425
vt 0.860166 0.960552
vt 0.835284 0.962836
vt 0.124722 0.832770
vt 0.138326 0.834917
vt 0.124722 0.839263
vt 0.123307 0.928475
vt 0.123410 0.921912
vt 0.137084 0.926298
vt 0.799468 0.860696
vt 0.276697 0.860696
vt 0.276708 0.854276
vt 0.799480 0.854276
vt 0.799468 0.906747
vt 0.276697 0.906747
vt 0.894080 0.842178
vt 0.857812 0.856982
vt 0.854934 0.904030
vt 0.799480 0.906747
vt 0.276708 0.906747
vt 0.276697 0.900327
vt 0.799468 0.900327
vt 0.276697 0.854276
vt 0.799468 0.854276
vt 0.735387 0.813946
vt 0.802992 0.810234
vt 0.736661 0.946459
vt 0.971545 0.944465
vt 0.971545 0.813772
vt 0.107956 0.945853
vt 0.101235 0.815170
s 0
usemtl couches
f 8/1/1 27/2/1 25/3/1 9/4/1
f 2/5/2 23/6/2 27/7/2 8/8/2
f 3/9/3 9/4/3 25/3/3 19/10/3
f 10/11/2 13/12/2 16/13/2 15/14/2
f 5/15/4 4/16/4 6/17/4 7/18/4
f 6/19/5 14/20/5 15/21/5 16/22/5 17/23/5 7/24/5
f 12/25/3 5/26/3 7/27/3 17/28/3
f 4/29/6 5/30/6 12/31/6 13/32/6 10/33/6 11/34/6
f 46/35/2 33/36/2 39/37/2 49/38/2
f 32/39/7 34/40/7 28/41/7 30/42/7 36/43/7 38/44/7
f 31/45/8 43/46/8 50/47/8 37/48/8
f 29/49/5 35/50/5 45/51/5 40/52/5
f 49/53/9 39/54/9 37/48/9 50/47/9
f 45/55/10 35/56/10 33/36/10 46/35/10
f 16/13/11 13/12/11 12/57/11 17/58/11
f 14/59/12 11/60/12 10/11/12 15/14/12
f 4/61/7 11/62/7 14/63/7 6/64/7
f 21/65/4 1/66/4 3/67/4 19/68/4
f 21/69/13 19/70/13 18/71/13 20/72/13
f 23/73/14 21/74/14 20/75/14 22/76/14
f 26/77/15 24/78/15 25/79/15 27/80/15
f 24/81/16 18/82/16 19/10/16 25/3/16
f 22/83/17 26/77/17 27/80/17 23/84/17
f 18/71/18 24/78/18 26/77/18 22/83/18 20/72/18
f 30/85/19 28/86/19 29/87/19 31/88/19
f 34/40/20 32/39/20 33/89/20 35/90/20
f 38/44/21 36/43/21 37/91/21 39/92/21
f 39/92/12 33/89/12 32/39/12 38/44/12
f 35/90/22 29/93/22 28/41/22 34/40/22
f 31/94/23 37/91/23 36/43/23 30/42/23
f 29/87/4 40/95/4 43/96/4 31/88/4
f 43/96/24 40/95/24 41/97/24 42/98/24
f 47/99/25 44/100/25 45/101/25 46/102/25
f 51/103/26 48/104/26 49/105/26 50/106/26
f 44/100/27 41/107/27 40/108/27 45/101/27
f 48/109/11 47/110/11 46/35/11 49/38/11
f 50/106/28 43/111/28 42/112/28 51/103/28
f 41/113/3 44/114/3 47/115/3 48/116/3 51/117/3 42/118/3
f 8/1/1 9/4/1 65/119/1 67/120/1
f 2/5/2 8/8/2 67/121/2 63/122/2
f 3/9/3 59/123/3 65/119/3 9/4/3
f 54/124/2 15/125/2 16/126/2 57/127/2
f 53/128/4 7/129/4 6/130/4 52/131/4
f 56/132/3 17/133/3 7/134/3 53/135/3
f 52/136/29 55/137/29 54/138/29 57/139/29 56/140/29 53/141/29
f 86/142/2 89/143/2 79/56/2 73/144/2
f 72/145/7 78/146/7 76/147/7 70/148/7 68/149/7 74/150/7
f 71/46/30 77/47/30 90/48/30 83/151/30
f 69/152/18 80/153/18 85/52/18 75/154/18
f 89/54/31 90/48/31 77/47/31 79/53/31
f 85/155/32 86/142/32 73/144/32 75/37/32
f 16/126/11 17/156/11 56/157/11 57/127/11
f 14/158/12 15/125/12 54/124/12 55/159/12
f 52/160/7 6/161/7 14/162/7 55/163/7
f 61/164/4 59/165/4 3/67/4 1/66/4
f 61/166/33 60/167/33 58/168/33 59/169/33
f 63/170/22 62/171/22 60/172/22 61/173/22
f 66/174/34 67/175/34 65/176/34 64/177/34
f 64/178/27 65/119/27 59/123/27 58/179/27
f 62/180/35 63/181/35 67/175/35 66/174/35
f 58/168/5 60/167/5 62/180/5 66/174/5 64/177/5
f 70/182/19 71/87/19 69/183/19 68/184/19
f 74/150/36 75/185/36 73/186/36 72/145/36
f 78/146/37 79/187/37 77/188/37 76/147/37
f 79/187/12 78/146/12 72/145/12 73/186/12
f 75/185/14 74/150/14 68/149/14 69/189/14
f 71/190/38 70/148/38 76/147/38 77/188/38
f 69/183/4 71/87/4 83/191/4 80/192/4
f 83/191/24 82/193/24 81/194/24 80/192/24
f 87/195/39 86/196/39 85/197/39 84/198/39
f 91/199/40 90/200/40 89/201/40 88/202/40
f 84/198/16 85/197/16 80/203/16 81/204/16
f 88/205/11 89/143/11 86/142/11 87/206/11
f 90/200/41 91/199/41 82/207/41 83/208/41
f 81/209/3 82/210/3 91/211/3 88/212/3 87/213/3 84/214/3
f 92/215/42 93/216/42 95/217/42 94/218/42
f 98/219/43 99/220/43 93/221/43 92/222/43
f 97/223/2 95/224/2 93/225/2 99/226/2
f 94/219/44 95/220/44 97/221/44 96/222/44
f 94/227/4 96/228/4 98/229/4 92/230/4
f 100/231/45 102/232/45 103/233/45 101/234/45
f 106/222/43 100/235/43 101/220/43 107/221/43
f 105/224/2 107/225/2 101/226/2 103/223/2
f 102/222/44 104/235/44 105/220/44 103/221/44
f 102/236/4 100/237/4 106/238/4 104/239/4
f 108/231/42 110/240/42 111/233/42 109/234/42
f 114/222/44 108/219/44 109/220/44 115/221/44
f 113/226/2 115/223/2 109/224/2 111/225/2
f 110/222/43 112/219/43 113/220/43 111/221/43
f 110/230/4 108/227/4 114/228/4 112/229/4
f 116/241/45 117/233/45 119/234/45 118/242/45
f 122/243/44 123/244/44 117/245/44 116/246/44
f 121/225/2 119/226/2 117/223/2 123/224/2
f 118/235/43 119/220/43 121/221/43 120/222/43
f 118/237/4 120/247/4 122/227/4 116/248/4
f 126/249/7 131/250/7 147/251/7 137/252/7
f 135/251/3 128/253/3 141/249/3 143/250/3
f 125/254/4 129/255/4 134/256/4 132/257/4
f 130/258/18 133/259/18 142/260/18 145/261/18
f 138/255/2 146/256/2 144/257/2 140/262/2
f 124/259/46 125/263/46 126/264/46
f 127/265/47 128/266/47 129/267/47
f 130/258/48 131/266/48 132/267/48
f 133/259/49 134/268/49 135/269/49
f 136/270/50 137/271/50 138/272/50
f 139/273/51 140/274/51 141/275/51
f 142/260/52 143/271/52 144/272/52
f 145/261/53 146/276/53 147/277/53
f 124/259/54 127/265/54 129/267/54 125/263/54
f 133/259/55 130/258/55 132/267/55 134/268/55
f 131/250/56 126/249/56 125/278/56 132/279/56
f 134/280/57 129/281/57 128/253/57 135/251/57
f 138/272/58 140/274/58 139/273/58 136/270/58
f 144/272/59 146/276/59 145/261/59 142/260/59
f 146/280/60 138/281/60 137/252/60 147/251/60
f 143/250/61 141/249/61 140/278/61 144/282/61
f 130/258/62 145/261/62 147/277/62 131/266/62
f 136/270/63 124/259/63 126/264/63 137/271/63
f 141/275/64 128/266/64 127/265/64 139/273/64
f 142/260/65 133/259/65 135/269/65 143/271/65
f 127/265/5 124/259/5 136/270/5 139/273/5
f 172/283/66 155/284/66 171/285/66 177/286/66
f 175/287/67 152/288/67 165/289/67 178/290/67
f 173/291/68 174/292/68 158/293/68 156/294/68
f 154/295/69 157/296/69 166/297/69 169/298/69
f 176/299/70 170/300/70 168/301/70 179/302/70
f 148/303/71 149/304/71 150/305/71
f 151/306/72 152/288/72 153/307/72
f 154/308/73 155/309/73 156/310/73
f 157/311/74 158/312/74 159/313/74
f 160/314/75 161/315/75 162/316/75
f 163/317/76 164/318/76 165/289/76
f 166/319/77 167/320/77 168/321/77
f 169/322/78 170/323/78 171/324/78
f 148/325/79 151/326/79 153/327/79 149/328/79
f 157/296/80 154/295/80 156/329/80 158/330/80
f 172/331/81 150/305/81 149/304/81 173/332/81
f 174/333/82 153/307/82 152/288/82 175/287/82
f 162/334/83 164/335/83 163/336/83 160/337/83
f 168/338/84 170/339/84 169/298/84 166/297/84
f 176/340/85 162/316/85 161/315/85 177/341/85
f 178/290/86 165/289/86 164/318/86 179/342/86
f 154/308/87 169/322/87 171/324/87 155/309/87
f 160/314/88 148/303/88 150/305/88 161/315/88
f 165/289/89 152/288/89 151/306/89 163/317/89
f 166/319/90 157/311/90 159/313/90 167/320/90
f 151/326/91 148/325/91 160/337/91 163/336/91
f 167/320/86 178/290/86 179/342/86 168/321/86
f 170/323/92 176/340/92 177/341/92 171/324/92
f 158/312/82 174/333/82 175/287/82 159/313/82
f 155/309/93 172/331/93 173/332/93 156/310/93
f 162/343/70 176/299/70 179/302/70 164/344/70
f 149/345/68 153/346/68 174/292/68 173/291/68
f 159/313/67 175/287/67 178/290/67 167/320/67
f 150/305/94 172/331/94 177/341/94 161/315/94
f 122/227/42 120/247/42 121/221/42 123/224/42
f 106/238/42 107/225/42 105/220/42 104/239/42
f 98/229/45 96/228/45 97/221/45 99/226/45
f 114/228/45 115/223/45 113/220/45 112/229/45
