# Blender 4.3.2
# www.blender.org
mtllib armchair_pattern.mtl
o armchair_pattern
v -0.007559 0.135010 -0.542765
v -0.007559 0.466680 -0.542765
v -0.007559 0.135010 0.518335
v -0.671027 0.074264 -0.716632
v -0.675895 0.074264 -0.542766
v 0.669425 0.074264 -0.716632
v 0.674293 0.074264 -0.542766
v -0.007559 0.466680 0.503175
v -0.007559 0.439572 0.518335
v -0.700126 1.087819 -0.699161
v -0.699624 1.070348 -0.716632
v -0.699708 1.070348 -0.542766
v -0.700126 1.087819 -0.560237
v 0.698022 1.070348 -0.716632
v 0.698524 1.087819 -0.699161
v 0.698524 1.087819 -0.560237
v 0.698106 1.070348 -0.542766
v -0.472584 0.152799 0.508386
v -0.462636 0.135010 0.518335
v -0.472584 0.152799 -0.532817
v -0.462636 0.135010 -0.542765
v -0.472584 0.448891 -0.532817
v -0.462636 0.466680 -0.542765
v -0.472584 0.432204 0.508386
v -0.462636 0.439572 0.518335
v -0.472584 0.448891 0.499054
v -0.462636 0.466680 0.503175
v -0.483630 0.085310 -0.542765
v -0.472584 0.074264 -0.531719
v -0.665142 0.085310 -0.542765
v -0.675895 0.074264 -0.531719
v -0.506050 0.963084 -0.542765
v -0.501474 0.974131 -0.531719
v -0.483630 0.940665 -0.542765
v -0.472584 0.945240 -0.531719
v -0.688181 0.940887 -0.542765
v -0.699348 0.945250 -0.531719
v -0.666573 0.963084 -0.542765
v -0.671235 0.974131 -0.531719
v -0.472584 0.074264 0.626306
v -0.493639 0.095319 0.647361
v -0.655399 0.095319 0.647361
v -0.675895 0.074264 0.626306
v -0.493639 0.936519 0.647361
v -0.472584 0.945240 0.626306
v -0.501474 0.974131 0.626306
v -0.510196 0.953076 0.647361
v -0.662348 0.953076 0.647361
v -0.671235 0.974131 0.626306
v -0.699348 0.945250 0.626306
v -0.678062 0.936933 0.647361
v 0.470982 0.152799 0.508386
v 0.461034 0.135010 0.518335
v 0.470982 0.152799 -0.532817
v 0.461034 0.135010 -0.542765
v 0.470982 0.448891 -0.532817
v 0.461034 0.466680 -0.542765
v 0.470982 0.432204 0.508386
v 0.461034 0.439572 0.518335
v 0.470982 0.448891 0.499054
v 0.461034 0.466680 0.503175
v 0.482028 0.085310 -0.542765
v 0.470982 0.074264 -0.531719
v 0.663540 0.085310 -0.542765
v 0.674293 0.074264 -0.531719
v 0.504448 0.963084 -0.542765
v 0.499872 0.974131 -0.531719
v 0.482028 0.940665 -0.542765
v 0.470982 0.945240 -0.531719
v 0.686579 0.940887 -0.542765
v 0.697746 0.945250 -0.531719
v 0.664971 0.963084 -0.542765
v 0.669633 0.974131 -0.531719
v 0.470982 0.074264 0.626306
v 0.492037 0.095319 0.647361
v 0.653797 0.095319 0.647361
v 0.674293 0.074264 0.626306
v 0.492037 0.936519 0.647361
v 0.470982 0.945240 0.626306
v 0.499872 0.974131 0.626306
v 0.508594 0.953076 0.647361
v 0.660746 0.953076 0.647361
v 0.669633 0.974131 0.626306
v 0.697746 0.945250 0.626306
v 0.676460 0.936933 0.647361
v -0.603258 0.000000 0.511305
v -0.611766 0.093635 0.521980
v -0.603258 0.000000 0.451601
v -0.611766 0.093635 0.440925
v -0.555680 0.000000 0.451601
v -0.547173 0.093635 0.440925
v -0.555680 0.000000 0.511305
v -0.547173 0.093635 0.521980
v 0.601656 0.000000 0.511305
v 0.610164 0.093635 0.521981
v 0.601656 0.000000 0.451601
v 0.610164 0.093635 0.440925
v 0.554079 0.000000 0.451601
v 0.545571 0.093635 0.440925
v 0.554079 0.000000 0.511305
v 0.545571 0.093635 0.521981
v -0.603258 0.000000 -0.488150
v -0.611765 0.093635 -0.498826
v -0.603258 0.000000 -0.428446
v -0.611765 0.093635 -0.417770
v -0.555680 0.000000 -0.428446
v -0.547173 0.093635 -0.417770
v -0.555680 0.000000 -0.488150
v -0.547173 0.093635 -0.498826
v 0.601657 0.000000 -0.488150
v 0.610164 0.093635 -0.498826
v 0.601657 0.000000 -0.428446
v 0.610164 0.093635 -0.417770
v 0.554079 0.000000 -0.428446
v 0.545571 0.093635 -0.417770
v 0.554079 0.000000 -0.488150
v 0.545571 0.093635 -0.498826
v 0.469736 0.440875 -0.474160
v 0.454551 0.418904 -0.474160
v 0.454551 0.440875 -0.489040
v 0.469736 0.440875 0.569407
v 0.454551 0.440875 0.584287
v 0.454551 0.418904 0.569407
v -0.460631 0.440875 -0.474160
v -0.445445 0.440875 -0.489040
v -0.445445 0.418904 -0.474160
v -0.460631 0.440875 0.569407
v -0.445445 0.418904 0.569407
v -0.445445 0.440875 0.584287
v 0.469736 0.605885 -0.474160
v 0.454551 0.605885 -0.489040
v 0.454551 0.627855 -0.474160
v 0.469736 0.605885 0.569407
v 0.454551 0.627855 0.569407
v 0.454551 0.605885 0.584287
v -0.460631 0.605885 0.569407
v -0.445445 0.605885 0.584287
v -0.445445 0.627855 0.569407
v -0.460631 0.605885 -0.474160
v -0.445445 0.627855 -0.474160
v -0.445445 0.605885 -0.489040
v 0.467364 1.161161 -0.554388
v 0.452196 1.159215 -0.576224
v 0.452113 1.168266 -0.554991
v 0.472297 0.620340 -0.509312
v 0.457178 0.612981 -0.508709
v 0.457129 0.618393 -0.531148
v -0.463067 1.164310 -0.554388
v -0.447948 1.171668 -0.554991
v -0.447866 1.162616 -0.576224
v -0.458134 0.623488 -0.509312
v -0.442932 0.621795 -0.531148
v -0.442883 0.616383 -0.508709
v 0.467239 1.174830 -0.390384
v 0.451989 1.181935 -0.390986
v 0.452038 1.176523 -0.368547
v 0.472172 0.634008 -0.345308
v 0.456971 0.635701 -0.323471
v 0.457053 0.626650 -0.344705
v -0.458259 0.637156 -0.345308
v -0.443008 0.630051 -0.344705
v -0.443090 0.639103 -0.323471
v -0.463192 1.177978 -0.390384
v -0.448023 1.179924 -0.368547
v -0.448073 1.185336 -0.390986
v 0.397948 1.178402 -0.554991
v 0.330945 1.159673 -0.576224
v 0.335878 0.618851 -0.531148
v 0.335927 0.613440 -0.508709
v 0.330787 1.176981 -0.368547
v 0.397824 1.192070 -0.390986
v 0.335802 0.627108 -0.344705
v 0.335720 0.636159 -0.323471
vn -0.0000 0.4881 0.8728
vn -0.0000 1.0000 -0.0000
vn -0.0000 -0.0000 1.0000
vn -0.0000 -1.0000 -0.0000
vn 0.9996 -0.0263 -0.0140
vn -0.9996 -0.0263 -0.0140
vn -0.0000 -0.0000 -1.0000
vn -0.9996 -0.0269 -0.0000
vn 1.0000 -0.0000 -0.0000
vn -0.7166 0.6975 -0.0000
vn 0.7071 0.7071 -0.0000
vn -0.0000 0.7071 0.7071
vn -0.0000 0.7071 -0.7071
vn -0.8728 -0.4881 -0.0000
vn -0.7071 -0.0000 -0.7071
vn -0.7770 0.3073 0.5494
vn -0.7071 -0.0000 0.7071
vn -0.8728 0.4881 -0.0000
vn -1.0000 -0.0000 -0.0000
vn -0.0000 -0.7071 -0.7071
vn 0.5000 0.5000 -0.7071
vn -0.5067 0.4932 -0.7071
vn 0.7071 -0.0000 -0.7071
vn -0.7068 -0.0190 -0.7071
vn -0.0000 -0.7071 0.7071
vn 0.5000 0.5000 0.7071
vn -0.5067 0.4932 0.7071
vn 0.7071 -0.0000 0.7071
vn -0.7069 -0.0190 0.7071
vn 0.9996 -0.0269 -0.0000
vn 0.7166 0.6975 -0.0000
vn -0.7071 0.7071 -0.0000
vn 0.8728 -0.4881 -0.0000
vn 0.7770 0.3073 0.5494
vn 0.8728 0.4881 -0.0000
vn -0.5000 0.5000 -0.7071
vn 0.5067 0.4932 -0.7071
vn 0.7068 -0.0190 -0.7071
vn -0.5000 0.5000 0.7071
vn 0.5067 0.4932 0.7071
vn 0.7069 -0.0190 0.7071
vn -0.9959 -0.0905 -0.0000
vn -0.0000 -0.1133 0.9936
vn -0.0000 -0.1133 -0.9936
vn 0.9959 -0.0905 -0.0000
vn 0.6300 -0.4355 -0.6430
vn 0.6300 -0.4355 0.6430
vn -0.6300 -0.4355 -0.6430
vn -0.6300 -0.4355 0.6430
vn 0.6300 0.4355 -0.6430
vn 0.6300 0.4355 0.6430
vn -0.6300 0.4355 0.6430
vn -0.6300 0.4355 -0.6430
vn 0.8226 -0.5686 -0.0000
vn -0.8226 -0.5686 -0.0000
vn -0.0000 -0.5608 -0.8280
vn -0.0000 -0.5608 0.8280
vn 0.8226 0.5686 -0.0000
vn -0.8226 0.5686 -0.0000
vn -0.0000 0.5608 -0.8280
vn -0.0000 0.5608 0.8280
vn -0.6999 -0.0000 -0.7142
vn 0.6999 -0.0000 -0.7142
vn 0.6999 -0.0000 0.7142
vn -0.6999 -0.0000 0.7142
vn -0.0079 0.9965 -0.0831
vn -0.0038 -0.9965 0.0830
vn -0.0003 -0.0831 -0.9965
vn -1.0000 -0.0091 -0.0000
vn 0.0003 0.0831 0.9965
vn 0.4060 0.8412 -0.3570
vn 0.4206 -0.8817 -0.2136
vn -0.4202 0.8342 -0.3572
vn -0.4056 -0.8888 -0.2135
vn 0.4056 0.8888 0.2135
vn 0.4202 -0.8342 0.3572
vn -0.4060 -0.8412 0.3570
vn -0.4206 0.8817 0.2136
vn 0.8223 -0.0398 -0.5677
vn -0.8215 -0.0548 -0.5676
vn 0.0483 0.7993 -0.5990
vn -0.0037 -0.9721 -0.2344
vn 0.8215 0.0548 0.5676
vn -0.8223 0.0398 0.5677
vn 0.0529 0.8761 0.4792
vn -0.0035 -0.9199 0.3921
vn -0.4388 0.8955 -0.0750
vn 0.4235 0.9028 -0.0749
vn 0.4388 -0.8955 0.0750
vn -0.4235 -0.9028 0.0749
vn 1.0000 0.0091 -0.0000
vn -0.0021 0.9108 0.4129
vn -0.0020 0.8383 -0.5453
vn 0.1833 0.9797 -0.0815
vt 0.493420 0.670508
vt 0.055070 0.670508
vt 0.055070 0.663029
vt 0.493420 0.663029
vt -0.003819 0.628470
vt -0.003819 0.518882
vt 1.003678 0.518882
vt 1.003678 0.628470
vt 0.493420 0.589687
vt 0.055069 0.589687
vt 0.912409 0.657147
vt 0.912409 0.676739
vt 0.123430 0.676739
vt 0.123430 0.657147
vt 0.898740 0.654683
vt 0.895994 0.679203
vt 0.139845 0.679203
vt 0.137099 0.654683
vt 0.231929 0.654678
vt 0.794051 0.654688
vt 0.803910 0.657152
vt 0.803910 0.676744
vt 0.794052 0.679207
vt 0.232001 0.679207
vt 0.912173 0.596707
vt 0.898740 0.737179
vt 0.137099 0.737179
vt 0.123666 0.596707
vt 0.231929 0.679207
vt 0.232001 0.654678
vt 0.794052 0.654678
vt 0.803910 0.657142
vt 0.803910 0.676734
vt 0.794051 0.679198
vt -0.043461 0.614577
vt 1.072002 0.614577
vt 1.072002 0.655457
vt -0.043461 0.655457
vt 0.919297 0.648508
vt 0.897980 0.653813
vt 0.075862 0.653884
vt 0.077036 0.608031
vt 0.898903 0.606341
vt 0.919961 0.611264
vt -0.057801 0.520335
vt 1.057661 0.520335
vt 1.057661 0.730154
vt -0.057801 0.730154
vt -0.057801 0.734968
vt -0.057801 0.525227
vt 1.057661 0.525227
vt 1.057661 0.734968
vt 1.057661 0.739860
vt -0.057801 0.739860
vt -0.043461 0.604738
vt 1.072002 0.604738
vt 0.912173 0.680223
vt 0.123666 0.680223
vt 0.123713 0.653663
vt 0.912126 0.653663
vt 0.895994 0.596707
vt 0.912126 0.737179
vt 0.123713 0.737179
vt 0.139845 0.596707
vt -0.011120 0.741312
vt -0.011120 0.631725
vt 1.010980 0.631725
vt 1.010980 0.741312
vt 0.111506 0.539156
vt 1.031633 0.651437
vt 1.014380 0.654803
vt 0.111506 0.544627
vt 0.659669 0.631791
vt 0.340190 0.631791
vt 0.357325 0.628403
vt 0.642534 0.628403
vt 0.872133 0.716182
vt 0.887429 0.713817
vt 0.894017 0.717317
vt 0.868013 0.721039
vt 0.041518 0.661254
vt 0.041518 0.593970
vt -0.014833 0.610129
vt -0.031774 0.613489
vt -0.079665 0.651988
vt -0.079666 0.608278
vt -0.064618 0.605618
vt -0.064618 0.654577
vt 0.934633 0.650252
vt 0.904225 0.657580
vt 0.905436 0.602548
vt 0.934633 0.609680
vt 0.065226 0.657647
vt 0.066558 0.604293
vt 1.050843 0.605618
vt 1.050843 0.654577
vt 1.079525 0.610688
vt 1.079525 0.649642
vt 0.779289 0.550997
vt 0.756914 0.550681
vt 0.747137 0.543531
vt 0.788593 0.543531
vt 0.868524 0.584850
vt 0.871851 0.579645
vt 0.902653 0.578946
vt 0.893998 0.588817
vt 0.130804 0.676720
vt 0.097207 0.674327
vt -0.072142 0.653317
vt -0.072142 0.616677
vt 0.234411 0.716663
vt 0.232450 0.708021
vt 0.944790 0.663029
vt 0.944790 0.670508
vt 1.003678 0.741312
vt -0.003819 0.741312
vt 0.944789 0.589687
vt 0.095450 0.678999
vt 0.095450 0.649911
vt 0.889130 0.649911
vt 0.889130 0.678999
vt 0.809864 0.553399
vt 0.896362 0.583541
vt 0.890630 0.590570
vt 0.211842 0.707383
vt 0.105306 0.669885
vt 0.780450 0.552308
vt 0.878926 0.589856
vt 0.878926 0.739148
vt 0.085246 0.739148
vt 0.085246 0.589856
vt 0.085246 0.593337
vt 0.878926 0.593337
vt 0.878926 0.742573
vt 0.085246 0.742573
vt 0.085246 0.746054
vt 0.878926 0.746054
vt 0.095450 0.685999
vt 0.889130 0.685999
vt -0.011120 0.518882
vt 1.010980 0.518882
vt -0.012014 0.671354
vt -0.002415 0.666437
vt 1.002274 0.666437
vt 1.011873 0.671354
vt 0.659669 0.628403
vt 0.642534 0.631791
vt 0.357325 0.631791
vt 0.340190 0.628403
vt 0.982137 0.595679
vt 0.986955 0.590863
vt 1.003794 0.597059
vt 0.991734 0.599481
vt 0.958342 0.661254
vt 0.958342 0.593970
vt -0.001023 0.593719
vt -0.010351 0.588841
vt -0.079665 0.608207
vt -0.064618 0.654577
vt -0.079665 0.651917
vt 0.777216 0.548235
vt 0.818477 0.549946
vt 0.911910 0.582711
vt 0.904722 0.592729
vt 0.087950 0.668318
vt 0.211842 0.711960
vt 0.080396 0.685373
vt 0.080396 0.650537
vt 0.874075 0.650537
vt 0.874075 0.685373
vt 1.050843 0.605617
vt 1.079525 0.610553
vt 1.079525 0.649507
vt 1.050843 0.654577
vt 0.864347 0.577668
vt 0.894813 0.577064
vt 0.886591 0.586912
vt 0.860409 0.583202
vt 0.751591 0.548326
vt 0.741391 0.541243
vt 0.782079 0.541243
vt 0.772653 0.548648
vt 0.243126 0.718951
vt 0.240624 0.710260
vt -0.072142 0.606878
vt -0.043460 0.604738
vt -0.043460 0.645618
vt -0.072142 0.643518
vt 0.138535 0.678968
vt 0.105047 0.676718
vt 0.080738 0.014751
vt 0.013347 0.016665
vt 0.013347 0.002140
vt 0.080738 0.004053
vt 0.013268 0.005140
vt 0.080817 0.003615
vt 0.080817 0.015190
vt 0.013268 0.013665
vt 0.017993 0.015190
vt 0.017993 0.003615
vt 0.076091 0.003615
vt 0.076091 0.015190
vt 0.025645 0.013665
vt 0.025645 0.005140
vt 0.068439 0.005140
vt 0.068439 0.013665
vt 0.013347 0.014752
vt 0.013347 0.004053
vt 0.080738 0.002140
vt 0.080738 0.016665
vt 0.013268 0.005139
vt 0.025645 0.005139
vt 0.068439 0.005140
vt 0.068439 0.013665
vt 0.025645 0.013665
vt 0.013347 0.004053
vt 0.013347 0.004053
vt 0.013347 0.014751
vt 0.011597 0.006675
vt 0.078325 0.003638
vt 0.082487 0.015166
vt 0.014664 0.015166
vt 0.068439 0.013665
vt 0.025645 0.005139
vt 0.757228 0.679228
vt 0.265346 0.679228
vt 0.265346 0.656682
vt 0.757228 0.656682
vt 0.796461 0.729440
vt 0.226113 0.729440
vt 0.226113 0.606470
vt 0.796461 0.606470
vt 0.790693 0.679415
vt 0.232361 0.679320
vt 0.231881 0.656495
vt 0.790213 0.656590
vt 0.230064 0.683132
vt 0.220364 0.679791
vt 0.790693 0.679415
vt 0.803093 0.679819
vt 0.793218 0.683132
vt 0.230064 0.683132
vt 0.220364 0.679791
vt 0.231881 0.656495
vt 0.219482 0.656092
vt 0.229356 0.652778
vt 0.790213 0.656590
vt 0.792510 0.652778
vt 0.802210 0.656119
vt 0.792510 0.652778
vt 0.802210 0.656119
vt 0.757228 0.682854
vt 0.265346 0.682854
vt 0.265346 0.653056
vt 0.757228 0.653056
vt 0.265346 0.682854
vt 0.884661 0.653699
vt 0.072045 0.653873
vt 0.071570 0.614057
vt 0.883336 0.614471
vt 0.803767 0.658239
vt 0.899450 0.675522
vt 0.808929 0.707628
vt 0.711286 0.691405
vt 0.186592 0.695438
vt 0.179872 0.564756
vt 0.930063 0.564756
vt 0.936783 0.695438
vt 0.761321 0.649913
vt 0.238550 0.649913
vt 0.238550 0.610282
vt 0.761321 0.610282
vt 0.816600 0.694426
vt 0.066473 0.696837
vt 0.066473 0.566144
vt 0.816601 0.563733
vt 0.914711 0.582546
vt 0.914711 0.589304
vt 0.900620 0.584767
vt 0.913170 0.677697
vt 0.913296 0.671108
vt 0.177548 0.710965
vt 0.190665 0.708431
vt 0.202570 0.713183
vt 0.176860 0.550018
vt 0.201507 0.547772
vt 0.189832 0.552503
vt 0.820880 0.549302
vt 0.807600 0.551911
vt 0.795100 0.547011
vt 0.822007 0.710138
vt 0.797126 0.712422
vt 0.086564 0.582356
vt 0.100167 0.584503
vt 0.086564 0.588849
vt 0.085149 0.678061
vt 0.085252 0.671498
vt 0.098926 0.675883
vt 0.761310 0.610282
vt 0.238538 0.610282
vt 0.238550 0.603862
vt 0.761321 0.603862
vt 0.761310 0.656333
vt 0.238538 0.656333
vt 0.855922 0.591764
vt 0.819654 0.606567
vt 0.816775 0.653616
vt 0.761321 0.656333
vt 0.238550 0.656333
vt 0.238538 0.649913
vt 0.761310 0.649913
vt 0.238538 0.603862
vt 0.761310 0.603862
vt 0.697229 0.563532
vt 0.764834 0.559820
vt 0.698503 0.696045
vt 0.933386 0.694051
vt 0.933386 0.563358
vt 0.069797 0.695438
vt 0.063077 0.564756
vt 0.780429 0.641107
vt 0.735730 0.648103
vt 0.644643 0.616159
vt 0.687409 0.608250
s 0
usemtl couches
f 8/1/1 27/2/1 25/3/1 9/4/1
f 2/5/2 23/6/2 27/7/2 8/8/2
f 3/9/3 9/4/3 25/3/3 19/10/3
f 10/11/2 13/12/2 16/13/2 15/14/2
f 5/15/4 4/16/4 6/17/4 7/18/4
f 6/19/5 14/20/5 15/21/5 16/22/5 17/23/5 7/24/5
f 12/25/3 5/26/3 7/27/3 17/28/3
f 4/29/6 5/30/6 12/31/6 13/32/6 10/33/6 11/34/6
f 46/35/2 33/36/2 39/37/2 49/38/2
f 32/39/7 34/40/7 28/41/7 30/42/7 36/43/7 38/44/7
f 31/45/8 43/46/8 50/47/8 37/48/8
f 29/49/9 35/50/9 45/51/9 40/52/9
f 49/53/10 39/54/10 37/48/10 50/47/10
f 45/55/11 35/56/11 33/36/11 46/35/11
f 16/13/12 13/12/12 12/57/12 17/58/12
f 14/59/13 11/60/13 10/11/13 15/14/13
f 4/61/7 11/62/7 14/63/7 6/64/7
f 21/65/4 1/66/4 3/67/4 19/68/4
f 21/69/14 19/70/14 18/71/14 20/72/14
f 23/73/15 21/74/15 20/75/15 22/76/15
f 26/77/16 24/78/16 25/79/16 27/80/16
f 24/81/17 18/82/17 19/10/17 25/3/17
f 22/83/18 26/77/18 27/80/18 23/84/18
f 18/71/19 24/78/19 26/77/19 22/83/19 20/72/19
f 30/85/20 28/86/20 29/87/20 31/88/20
f 34/40/21 32/39/21 33/89/21 35/90/21
f 38/44/22 36/43/22 37/91/22 39/92/22
f 39/92/13 33/89/13 32/39/13 38/44/13
f 35/90/23 29/93/23 28/41/23 34/40/23
f 31/94/24 37/91/24 36/43/24 30/42/24
f 29/87/4 40/95/4 43/96/4 31/88/4
f 43/96/25 40/95/25 41/97/25 42/98/25
f 47/99/26 44/100/26 45/101/26 46/102/26
f 51/103/27 48/104/27 49/105/27 50/106/27
f 44/100/28 41/107/28 40/108/28 45/101/28
f 48/109/12 47/110/12 46/35/12 49/38/12
f 50/106/29 43/111/29 42/112/29 51/103/29
f 41/107/3 44/100/3 47/99/3 48/104/3 51/103/3 42/112/3
f 8/1/1 9/4/1 59/113/1 61/114/1
f 2/5/2 8/8/2 61/115/2 57/116/2
f 3/9/3 53/117/3 59/113/3 9/4/3
f 80/118/2 83/119/2 73/120/2 67/121/2
f 66/122/7 72/123/7 70/124/7 64/125/7 62/126/7 68/127/7
f 65/128/30 71/129/30 84/130/30 77/131/30
f 63/132/19 74/133/19 79/134/19 69/135/19
f 83/136/31 84/130/31 71/129/31 73/137/31
f 79/138/32 80/118/32 67/121/32 69/139/32
f 55/140/4 53/141/4 3/67/4 1/66/4
f 55/142/33 54/143/33 52/144/33 53/145/33
f 57/146/23 56/147/23 54/148/23 55/149/23
f 60/150/34 61/151/34 59/152/34 58/153/34
f 58/154/28 59/113/28 53/117/28 52/155/28
f 56/156/35 57/157/35 61/151/35 60/150/35
f 52/144/9 54/143/9 56/156/9 60/150/9 58/153/9
f 64/158/20 65/87/20 63/159/20 62/160/20
f 68/127/36 69/161/36 67/162/36 66/122/36
f 72/123/37 73/163/37 71/164/37 70/124/37
f 73/163/13 72/123/13 66/122/13 67/162/13
f 69/161/15 68/127/15 62/126/15 63/165/15
f 65/166/38 64/125/38 70/124/38 71/164/38
f 63/167/4 65/168/4 77/169/4 74/170/4
f 77/171/25 76/172/25 75/173/25 74/174/25
f 81/175/39 80/176/39 79/177/39 78/178/39
f 85/179/40 84/180/40 83/181/40 82/182/40
f 78/178/17 79/177/17 74/183/17 75/184/17
f 82/185/12 83/186/12 80/187/12 81/188/12
f 84/180/41 85/179/41 76/189/41 77/190/41
f 75/184/3 76/189/3 85/179/3 82/182/3 81/175/3 78/178/3
f 86/191/42 87/192/42 89/193/42 88/194/42
f 92/195/43 93/196/43 87/197/43 86/198/43
f 91/199/2 89/200/2 87/201/2 93/202/2
f 88/195/44 89/196/44 91/197/44 90/198/44
f 88/203/4 90/204/4 92/205/4 86/206/4
f 94/207/45 96/208/45 97/209/45 95/210/45
f 100/198/43 94/211/43 95/196/43 101/197/43
f 99/200/2 101/201/2 95/202/2 97/199/2
f 96/198/44 98/211/44 99/196/44 97/197/44
f 96/212/4 94/213/4 100/214/4 98/215/4
f 102/207/42 104/216/42 105/209/42 103/210/42
f 108/198/44 102/195/44 103/196/44 109/197/44
f 107/202/2 109/199/2 103/200/2 105/201/2
f 104/198/43 106/195/43 107/196/43 105/197/43
f 104/206/4 102/203/4 108/204/4 106/205/4
f 110/217/45 111/209/45 113/210/45 112/218/45
f 116/219/44 117/220/44 111/221/44 110/222/44
f 115/201/2 113/202/2 111/199/2 117/200/2
f 112/211/43 113/196/43 115/197/43 114/198/43
f 112/213/4 114/223/4 116/203/4 110/224/4
f 120/225/7 125/226/7 141/227/7 131/228/7
f 129/227/3 122/228/3 135/225/3 137/226/3
f 119/229/4 123/230/4 128/231/4 126/232/4
f 124/233/19 127/234/19 136/235/19 139/236/19
f 132/230/2 140/231/2 138/232/2 134/229/2
f 118/234/46 119/237/46 120/238/46
f 121/239/47 122/240/47 123/241/47
f 124/233/48 125/240/48 126/241/48
f 127/234/49 128/242/49 129/243/49
f 130/244/50 131/245/50 132/246/50
f 133/247/51 134/248/51 135/249/51
f 136/235/52 137/245/52 138/246/52
f 139/236/53 140/250/53 141/251/53
f 118/234/54 121/239/54 123/241/54 119/237/54
f 127/234/55 124/233/55 126/241/55 128/242/55
f 125/226/56 120/225/56 119/252/56 126/253/56
f 128/254/57 123/255/57 122/228/57 129/227/57
f 132/246/58 134/248/58 133/247/58 130/244/58
f 138/246/59 140/250/59 139/236/59 136/235/59
f 140/254/60 132/255/60 131/228/60 141/227/60
f 137/226/61 135/225/61 134/252/61 138/256/61
f 124/233/62 139/236/62 141/251/62 125/240/62
f 130/244/63 118/234/63 120/238/63 131/245/63
f 135/249/64 122/240/64 121/239/64 133/247/64
f 136/235/65 127/234/65 129/243/65 137/245/65
f 121/239/9 118/234/9 130/244/9 133/247/9
f 166/257/66 149/258/66 165/259/66 171/260/66
f 169/261/67 146/262/67 159/263/67 172/264/67
f 167/265/68 168/266/68 152/267/68 150/268/68
f 148/269/69 151/270/69 160/271/69 163/272/69
f 170/273/70 164/274/70 162/275/70 173/276/70
f 142/277/71 143/278/71 144/279/71
f 145/280/72 146/262/72 147/281/72
f 148/282/73 149/283/73 150/284/73
f 151/285/74 152/286/74 153/287/74
f 154/288/75 155/289/75 156/290/75
f 157/291/76 158/292/76 159/263/76
f 160/293/77 161/294/77 162/295/77
f 163/296/78 164/297/78 165/298/78
f 142/299/79 145/300/79 147/301/79 143/302/79
f 151/270/80 148/269/80 150/303/80 152/304/80
f 166/305/81 144/279/81 143/278/81 167/306/81
f 168/307/82 147/281/82 146/262/82 169/261/82
f 156/308/83 158/309/83 157/310/83 154/311/83
f 162/312/84 164/313/84 163/272/84 160/271/84
f 170/314/85 156/290/85 155/289/85 171/315/85
f 172/264/86 159/263/86 158/292/86 173/316/86
f 148/282/87 163/296/87 165/298/87 149/283/87
f 154/288/88 142/277/88 144/279/88 155/289/88
f 159/263/89 146/262/89 145/280/89 157/291/89
f 160/293/90 151/285/90 153/287/90 161/294/90
f 145/300/91 142/299/91 154/311/91 157/310/91
f 161/294/86 172/264/86 173/316/86 162/295/86
f 164/297/92 170/314/92 171/315/92 165/298/92
f 152/286/82 168/307/82 169/261/82 153/287/82
f 149/283/93 166/305/93 167/306/93 150/284/93
f 156/317/70 170/273/70 173/276/70 158/318/70
f 143/319/68 147/320/68 168/266/68 167/265/68
f 153/287/67 169/261/67 172/264/67 161/294/67
f 144/321/94 166/322/94 171/323/94 155/324/94
f 108/204/45 109/199/45 107/196/45 106/205/45
f 92/205/45 90/204/45 91/197/45 93/202/45
f 116/203/42 114/223/42 115/197/42 117/200/42
f 100/214/42 101/201/42 99/196/42 98/215/42
