# Blender 4.3.2
# www.blender.org
mtllib armchair_green.mtl
o armchair_green
v -0.007559 0.135010 -0.542765
v -0.007559 0.466680 -0.542765
v -0.007559 0.135010 0.518335
v -0.671027 0.074264 -0.716632
v -0.675895 0.074264 -0.542766
v -0.007559 0.074264 -0.716632
v -0.007559 0.074264 -0.542766
v -0.007559 0.466680 0.503175
v -0.007559 0.439572 0.518335
v -0.700126 1.087819 -0.699161
v -0.699624 1.070348 -0.716632
v -0.699708 1.070348 -0.542766
v -0.700126 1.087819 -0.560237
v -0.007559 1.070348 -0.716632
v -0.007559 1.087819 -0.699161
v -0.007559 1.087819 -0.560237
v -0.007559 1.070348 -0.542766
v -0.472584 0.152799 0.508386
v -0.462636 0.135010 0.518335
v -0.472584 0.152799 -0.532817
v -0.462636 0.135010 -0.542765
v -0.472584 0.448891 -0.532817
v -0.462636 0.466680 -0.542765
v -0.472584 0.432204 0.508386
v -0.462636 0.439572 0.518335
v -0.472584 0.448891 0.499054
v -0.462636 0.466680 0.503175
v -0.483630 0.085310 -0.542765
v -0.472584 0.074264 -0.531719
v -0.665142 0.085310 -0.542765
v -0.675895 0.074264 -0.531719
v -0.506050 0.963084 -0.542765
v -0.501474 0.974131 -0.531719
v -0.483630 0.940665 -0.542765
v -0.472584 0.945240 -0.531719
v -0.688181 0.940887 -0.542765
v -0.699348 0.945250 -0.531719
v -0.666573 0.963084 -0.542765
v -0.671235 0.974131 -0.531719
v -0.472584 0.074264 0.626306
v -0.493639 0.095319 0.647361
v -0.655399 0.095319 0.647361
v -0.675895 0.074264 0.626306
v -0.493639 0.936519 0.647361
v -0.472584 0.945240 0.626306
v -0.501474 0.974131 0.626306
v -0.510196 0.953076 0.647361
v -0.662348 0.953076 0.647361
v -0.671235 0.974131 0.626306
v -0.699348 0.945250 0.626306
v -0.678062 0.936933 0.647361
v 0.669425 0.074264 -0.716632
v 0.674293 0.074264 -0.542766
v 0.698524 1.087819 -0.699161
v 0.698022 1.070348 -0.716632
v 0.698106 1.070348 -0.542766
v 0.698524 1.087819 -0.560237
v 0.470982 0.152799 0.508386
v 0.461034 0.135010 0.518335
v 0.470982 0.152799 -0.532817
v 0.461034 0.135010 -0.542765
v 0.470982 0.448891 -0.532817
v 0.461034 0.466680 -0.542765
v 0.470982 0.432204 0.508386
v 0.461034 0.439572 0.518335
v 0.470982 0.448891 0.499054
v 0.461034 0.466680 0.503175
v 0.482028 0.085310 -0.542765
v 0.470982 0.074264 -0.531719
v 0.663540 0.085310 -0.542765
v 0.674293 0.074264 -0.531719
v 0.504448 0.963084 -0.542765
v 0.499872 0.974131 -0.531719
v 0.482028 0.940665 -0.542765
v 0.470982 0.945240 -0.531719
v 0.686579 0.940887 -0.542765
v 0.697746 0.945250 -0.531719
v 0.664971 0.963084 -0.542765
v 0.669633 0.974131 -0.531719
v 0.470982 0.074264 0.626306
v 0.492037 0.095319 0.647361
v 0.653797 0.095319 0.647361
v 0.674293 0.074264 0.626306
v 0.492037 0.936519 0.647361
v 0.470982 0.945240 0.626306
v 0.499872 0.974131 0.626306
v 0.508594 0.953076 0.647361
v 0.660746 0.953076 0.647361
v 0.669633 0.974131 0.626306
v 0.697746 0.945250 0.626306
v 0.676460 0.936933 0.647361
v -0.603258 0.000000 0.511305
v -0.611766 0.093635 0.521980
v -0.603258 0.000000 0.451601
v -0.611766 0.093635 0.440925
v -0.555680 0.000000 0.451601
v -0.547173 0.093635 0.440925
v -0.555680 0.000000 0.511305
v -0.547173 0.093635 0.521980
v 0.601656 0.000000 0.511305
v 0.610164 0.093635 0.521981
v 0.601656 0.000000 0.451601
v 0.610164 0.093635 0.440925
v 0.554079 0.000000 0.451601
v 0.545571 0.093635 0.440925
v 0.554079 0.000000 0.511305
v 0.545571 0.093635 0.521981
v -0.603258 0.000000 -0.488150
v -0.611765 0.093635 -0.498826
v -0.603258 0.000000 -0.428446
v -0.611765 0.093635 -0.417770
v -0.555680 0.000000 -0.428446
v -0.547173 0.093635 -0.417770
v -0.555680 0.000000 -0.488150
v -0.547173 0.093635 -0.498826
v 0.601657 0.000000 -0.488150
v 0.610164 0.093635 -0.498826
v 0.601657 0.000000 -0.428446
v 0.610164 0.093635 -0.417770
v 0.554079 0.000000 -0.428446
v 0.545571 0.093635 -0.417770
v 0.554079 0.000000 -0.488150
v 0.545571 0.093635 -0.498826
v 0.478513 0.440875 -0.474160
v 0.463041 0.418904 -0.474160
v 0.463041 0.440875 -0.489040
v 0.478513 0.440875 0.569407
v 0.463041 0.440875 0.584287
v 0.463041 0.418904 0.569407
v -0.469408 0.440875 -0.474160
v -0.453936 0.440875 -0.489040
v -0.453936 0.418904 -0.474160
v -0.469408 0.440875 0.569407
v -0.453936 0.418904 0.569407
v -0.453936 0.440875 0.584287
v 0.478513 0.605885 -0.474160
v 0.463041 0.605885 -0.489040
v 0.463041 0.627855 -0.474160
v 0.478513 0.605885 0.569407
v 0.463041 0.627855 0.569407
v 0.463041 0.605885 0.584287
v -0.469408 0.605885 0.569407
v -0.453936 0.605885 0.584287
v -0.453936 0.627855 0.569407
v -0.469408 0.605885 -0.474160
v -0.453936 0.627855 -0.474160
v -0.453936 0.605885 -0.489040
v 0.476096 1.161161 -0.554388
v 0.460642 1.159215 -0.576224
v 0.460558 1.168266 -0.554991
v 0.481122 0.620340 -0.509312
v 0.465718 0.612981 -0.508709
v 0.465668 0.618393 -0.531148
v -0.471890 1.164310 -0.554388
v -0.456486 1.171668 -0.554991
v -0.456402 1.162616 -0.576224
v -0.466864 0.623488 -0.509312
v -0.451376 0.621795 -0.531148
v -0.451325 0.616383 -0.508709
v 0.475969 1.174830 -0.390384
v 0.460431 1.181935 -0.390986
v 0.460481 1.176523 -0.368547
v 0.480995 0.634008 -0.345308
v 0.465507 0.635701 -0.323471
v 0.465591 0.626650 -0.344705
v -0.466991 0.637156 -0.345308
v -0.451452 0.630051 -0.344705
v -0.451536 0.639103 -0.323471
v -0.472017 1.177978 -0.390384
v -0.456562 1.179924 -0.368547
v -0.456613 1.185336 -0.390986
v 0.405371 1.178402 -0.554991
v 0.337103 1.159673 -0.576224
v 0.342129 0.618851 -0.531148
v 0.342179 0.613440 -0.508709
v 0.336942 1.176981 -0.368547
v 0.405244 1.192070 -0.390986
v 0.342052 0.627108 -0.344705
v 0.341968 0.636159 -0.323471
vn -0.0000 0.4881 0.8728
vn -0.0000 1.0000 -0.0000
vn -0.0000 -0.0000 1.0000
vn -0.0000 -1.0000 -0.0000
vn 1.0000 -0.0000 -0.0000
vn -0.9996 -0.0263 -0.0140
vn -0.0000 -0.0000 -1.0000
vn -0.9996 -0.0269 -0.0000
vn -0.7166 0.6975 -0.0000
vn 0.7071 0.7071 -0.0000
vn -0.0000 0.7071 0.7071
vn -0.0000 0.7071 -0.7071
vn -0.8728 -0.4881 -0.0000
vn -0.7071 -0.0000 -0.7071
vn -0.7770 0.3073 0.5494
vn -0.7071 -0.0000 0.7071
vn -0.8728 0.4881 -0.0000
vn -1.0000 -0.0000 -0.0000
vn -0.0000 -0.7071 -0.7071
vn 0.5000 0.5000 -0.7071
vn -0.5067 0.4932 -0.7071
vn 0.7071 -0.0000 -0.7071
vn -0.7068 -0.0190 -0.7071
vn -0.0000 -0.7071 0.7071
vn 0.5000 0.5000 0.7071
vn -0.5067 0.4932 0.7071
vn 0.7071 -0.0000 0.7071
vn -0.7069 -0.0190 0.7071
vn 0.9996 -0.0263 -0.0140
vn 0.9996 -0.0269 -0.0000
vn 0.7166 0.6975 -0.0000
vn -0.7071 0.7071 -0.0000
vn 0.8728 -0.4881 -0.0000
vn 0.7770 0.3073 0.5494
vn 0.8728 0.4881 -0.0000
vn -0.5000 0.5000 -0.7071
vn 0.5067 0.4932 -0.7071
vn 0.7068 -0.0190 -0.7071
vn -0.5000 0.5000 0.7071
vn 0.5067 0.4932 0.7071
vn 0.7069 -0.0190 0.7071
vn -0.9959 -0.0905 -0.0000
vn -0.0000 -0.1133 0.9936
vn -0.0000 -0.1133 -0.9936
vn 0.9959 -0.0905 -0.0000
vn 0.6229 -0.4387 -0.6477
vn 0.6229 -0.4387 0.6477
vn -0.6229 -0.4387 -0.6477
vn -0.6229 -0.4387 0.6477
vn 0.6229 0.4387 -0.6477
vn 0.6229 0.4387 0.6477
vn -0.6229 0.4387 0.6477
vn -0.6229 0.4387 -0.6477
vn 0.8176 -0.5758 -0.0000
vn -0.8176 -0.5758 -0.0000
vn -0.0000 -0.5608 -0.8280
vn -0.0000 -0.5608 0.8280
vn 0.8176 0.5758 -0.0000
vn -0.8176 0.5758 -0.0000
vn -0.0000 0.5608 -0.8280
vn -0.0000 0.5608 0.8280
vn -0.6932 -0.0000 -0.7207
vn 0.6932 -0.0000 -0.7208
vn 0.6932 -0.0000 0.7208
vn -0.6932 -0.0000 0.7207
vn -0.0078 0.9965 -0.0831
vn -0.0037 -0.9965 0.0830
vn -0.0003 -0.0831 -0.9965
vn -1.0000 -0.0093 -0.0000
vn 0.0003 0.0831 0.9965
vn 0.3997 0.8438 -0.3581
vn 0.4142 -0.8846 -0.2143
vn -0.4138 0.8369 -0.3584
vn -0.3993 -0.8915 -0.2141
vn 0.3993 0.8915 0.2141
vn 0.4138 -0.8369 0.3584
vn -0.3997 -0.8438 0.3581
vn -0.4142 0.8846 0.2143
vn 0.8173 -0.0403 -0.5748
vn -0.8164 -0.0555 -0.5748
vn 0.0474 0.7994 -0.5990
vn -0.0036 -0.9721 -0.2344
vn 0.8164 0.0555 0.5748
vn -0.8173 0.0403 0.5748
vn 0.0519 0.8762 0.4792
vn -0.0034 -0.9199 0.3921
vn -0.4322 0.8986 -0.0752
vn 0.4171 0.9058 -0.0752
vn 0.4322 -0.8986 0.0752
vn -0.4171 -0.9058 0.0752
vn 1.0000 0.0093 -0.0000
vn -0.0021 0.9108 0.4129
vn -0.0019 0.8383 -0.5453
vn 0.1800 0.9803 -0.0816
vt 0.512944 0.105654
vt -0.076181 0.105654
vt -0.076181 0.101095
vt 0.512944 0.101095
vt 0.512944 0.212858
vt -0.076181 0.212858
vt -0.076181 0.036965
vt 0.512944 0.036965
vt 0.512944 0.049878
vt -0.076181 0.049878
vt -0.235934 0.239158
vt -0.235934 0.215796
vt 0.512944 0.215796
vt 0.512944 0.239158
vt -0.219634 0.212858
vt -0.216360 0.242096
vt 0.512944 0.242096
vt 0.512944 0.212858
vt 0.976786 0.039662
vt 0.976786 0.207171
vt 0.965034 0.210109
vt 0.871583 0.210109
vt 0.859831 0.207171
vt 0.859831 0.039662
vt -0.235653 0.207171
vt -0.219634 0.039662
vt 0.512944 0.039662
vt 0.512944 0.207171
vt -0.102307 0.016258
vt -0.102307 0.211000
vt -0.216500 0.211000
vt -0.216500 0.016258
vt -0.105385 0.189133
vt -0.090304 0.185362
vt -0.090304 0.041520
vt -0.212401 0.041520
vt -0.227898 0.185400
vt -0.213363 0.189133
vt 0.852401 0.039662
vt 0.073434 0.039662
vt 0.073434 0.186134
vt 0.852401 0.186134
vt 0.852401 0.186132
vt 0.073434 0.186132
vt 0.073434 0.190990
vt 0.852401 0.190990
vt -0.082873 0.016258
vt -0.082873 0.211000
vt -0.235653 0.212858
vt -0.235596 0.242096
vt 0.353289 0.220371
vt 0.963046 0.224747
vt 0.963046 0.054447
vt 0.353289 0.054447
vt 0.512944 0.034416
vt -0.076181 0.034416
vt 0.859831 0.049878
vt 0.146063 0.049878
vt 0.152755 0.052869
vt 0.853139 0.052869
vt -0.082873 0.052869
vt -0.082873 0.102662
vt 0.159032 0.102662
vt 0.152755 0.099856
vt 0.146063 0.101095
vt 0.156261 0.105654
vt -0.082873 0.099856
vt 0.853139 0.102662
vt 0.859831 0.105654
vt -0.212401 0.212858
vt -0.090304 0.212858
vt -0.219634 0.211000
vt -0.102307 0.190990
vt -0.082873 0.186132
vt -0.235410 0.186134
vt -0.216500 0.190990
vt -0.082873 0.039662
vt -0.219634 0.016258
vt -0.097036 0.012718
vt -0.205847 0.012718
vt -0.108173 0.187449
vt -0.097036 0.184665
vt -0.221092 0.184735
vt -0.210521 0.187449
vt -0.097036 0.043203
vt -0.210521 0.012718
vt -0.108173 0.012718
vt -0.205847 0.043203
vt 1.112239 0.101095
vt 1.112239 0.105654
vt 1.112239 0.036965
vt 1.112239 0.212858
vt 1.112239 0.049878
vt 1.271991 0.239158
vt 1.271991 0.215796
vt 1.255692 0.212858
vt 1.252417 0.242096
vt 1.271710 0.207171
vt 1.255692 0.039662
vt -0.197066 0.016258
vt -0.197066 0.211000
vt -0.212899 0.189133
vt -0.104920 0.189133
vt -0.090385 0.185400
vt -0.105883 0.041520
vt -0.227980 0.041520
vt -0.227980 0.185362
vt 1.271710 0.212858
vt 1.271654 0.242096
vt 0.353289 0.052133
vt 0.963046 0.052133
vt 1.112239 0.034416
vt 1.118931 0.102662
vt 1.118931 0.052869
vt 1.118931 0.099856
vt -0.090106 0.212858
vt -0.212204 0.212858
vt -0.235410 0.186132
vt -0.215977 0.190990
vt -0.101784 0.190990
vt -0.082873 0.186134
vt -0.235410 0.039662
vt -0.098650 0.039662
vt -0.096660 0.012718
vt -0.205471 0.012718
vt -0.210110 0.187449
vt -0.221247 0.184665
vt -0.097192 0.184735
vt -0.107762 0.187449
vt -0.221247 0.043203
vt -0.088852 0.012718
vt -0.191200 0.012718
vt -0.112436 0.043203
vt 0.026669 0.012235
vt 0.063438 0.013283
vt 0.063438 0.005326
vt 0.026669 0.006374
vt 0.006985 0.004830
vt 0.063438 0.003547
vt 0.063438 0.013283
vt 0.006985 0.012001
vt 0.079620 0.003547
vt 0.079620 0.013283
vt 0.030751 0.013283
vt 0.030751 0.003547
vt 0.073183 0.012001
vt 0.073183 0.004830
vt 0.037187 0.004830
vt 0.037187 0.012001
vt 0.006985 0.012001
vt 0.006985 0.004830
vt 0.073183 0.004830
vt 0.037187 0.004830
vt 0.037187 0.012001
vt 0.073183 0.012001
vt 0.026669 0.006374
vt 0.026669 0.012235
vt 0.063438 0.005326
vt 0.006985 0.004830
vt 0.063438 0.003547
vt 0.030751 0.003547
vt 0.079620 0.003547
vt 0.037187 0.012001
vt 0.073183 0.012001
vt 0.026669 0.006374
vt 0.006985 0.004830
vt 0.582703 0.210290
vt 0.582703 0.065486
vt 0.693737 0.065486
vt 0.693737 0.210290
vt 0.693737 0.210290
vt 0.582703 0.210290
vt 0.582703 0.065486
vt 0.348613 0.225664
vt 0.348613 0.050112
vt 0.927827 0.050112
vt 0.927827 0.225664
vt 0.694614 0.051783
vt 0.694180 0.223852
vt 0.581826 0.223993
vt 0.582259 0.051924
vt 0.348613 0.050112
vt 0.927827 0.050112
vt 0.927827 0.225664
vt 0.348613 0.225664
vt 0.694180 0.223851
vt 0.712645 0.224508
vt 0.696316 0.227457
vt 0.694614 0.051783
vt 0.696451 0.048065
vt 0.712645 0.051064
vt 0.696451 0.048065
vt 0.712645 0.051064
vt 0.696316 0.227457
vt 0.581826 0.223993
vt 0.579989 0.227712
vt 0.563795 0.224712
vt 0.582260 0.051924
vt 0.563795 0.051268
vt 0.580124 0.048319
vt 0.579989 0.227711
vt 0.563795 0.224712
vt 0.563795 0.051268
vt 0.580124 0.048319
vt 0.564847 0.210290
vt 0.564847 0.065486
vt 0.711593 0.065486
vt 0.711593 0.210290
vt 0.711593 0.065486
vt 0.207023 0.139057
vt 0.874024 0.139500
vt 0.873867 0.173680
vt 0.207573 0.172722
vt 0.776145 0.138469
vt 0.873114 0.138821
vt 0.872886 0.172540
vt 0.776657 0.173184
vt 0.261625 0.211899
vt 0.255958 0.099737
vt 0.871776 0.099737
vt 0.877444 0.211899
vt 0.743105 0.172826
vt 0.294421 0.172826
vt 0.294421 0.138811
vt 0.743105 0.138811
vt 0.261625 0.099737
vt 0.877444 0.099737
vt 0.871776 0.211899
vt 0.255958 0.211899
vt 0.149993 0.138265
vt 0.162823 0.133525
vt 0.163755 0.138450
vt 0.886560 0.138656
vt 0.874171 0.134010
vt 0.887517 0.139337
vt 0.875079 0.134730
vt 0.151089 0.139586
vt 0.163264 0.135017
vt 0.164384 0.139741
vt 0.149941 0.173141
vt 0.163896 0.172956
vt 0.162920 0.177938
vt 0.886542 0.172690
vt 0.874101 0.177366
vt 0.150967 0.173418
vt 0.164487 0.173258
vt 0.163426 0.178023
vt 0.887586 0.173849
vt 0.874855 0.178485
vt 0.743105 0.138811
vt 0.294421 0.138811
vt 0.294421 0.133378
vt 0.743105 0.133378
vt 0.743105 0.178259
vt 0.294421 0.178259
vt 0.259361 0.133152
vt 0.776177 0.133613
vt 0.743105 0.178259
vt 0.294422 0.178259
vt 0.294421 0.172826
vt 0.743105 0.172826
vt 0.294421 0.133378
vt 0.743105 0.133378
vt 0.259835 0.178485
vt 0.776839 0.178023
vt 0.165750 0.099737
vt 0.160083 0.211899
vt 0.165750 0.211899
vt 0.160083 0.099737
s 0
usemtl couches
f 8/1/1 27/2/1 25/3/1 9/4/1
f 2/5/2 23/6/2 27/7/2 8/8/2
f 3/9/3 9/4/3 25/3/3 19/10/3
f 10/11/2 13/12/2 16/13/2 15/14/2
f 5/15/4 4/16/4 6/17/4 7/18/4
f 6/19/5 14/20/5 15/21/5 16/22/5 17/23/5 7/24/5
f 12/25/3 5/26/3 7/27/3 17/28/3
f 4/19/6 5/24/6 12/23/6 13/22/6 10/21/6 11/20/6
f 46/29/2 33/30/2 39/31/2 49/32/2
f 32/33/7 34/34/7 28/35/7 30/36/7 36/37/7 38/38/7
f 31/39/8 43/40/8 50/41/8 37/42/8
f 29/39/5 35/43/5 45/44/5 40/40/5
f 49/45/9 39/46/9 37/42/9 50/41/9
f 45/47/10 35/48/10 33/30/10 46/29/10
f 16/13/11 13/12/11 12/49/11 17/18/11
f 14/17/12 11/50/12 10/11/12 15/14/12
f 4/51/7 11/52/7 14/53/7 6/54/7
f 21/6/4 1/5/4 3/55/4 19/56/4
f 21/57/13 19/58/13 18/59/13 20/60/13
f 23/2/14 21/10/14 20/61/14 22/62/14
f 26/63/15 24/64/15 25/65/15 27/66/15
f 24/67/16 18/61/16 19/10/16 25/3/16
f 22/68/17 26/63/17 27/66/17 23/69/17
f 18/59/18 24/64/18 26/63/18 22/68/18 20/60/18
f 30/70/19 28/71/19 29/48/19 31/72/19
f 34/34/20 32/33/20 33/73/20 35/74/20
f 38/38/21 36/37/21 37/75/21 39/76/21
f 39/76/12 33/73/12 32/33/12 38/38/12
f 35/74/22 29/77/22 28/35/22 34/34/22
f 31/26/23 37/75/23 36/37/23 30/36/23
f 29/48/4 40/47/4 43/78/4 31/72/4
f 43/78/24 40/47/24 41/79/24 42/80/24
f 47/81/25 44/82/25 45/74/25 46/73/25
f 51/83/26 48/84/26 49/76/26 50/75/26
f 44/82/27 41/85/27 40/77/27 45/74/27
f 48/86/11 47/87/11 46/29/11 49/32/11
f 50/75/28 43/26/28 42/88/28 51/83/28
f 41/85/3 44/82/3 47/81/3 48/84/3 51/83/3 42/88/3
f 8/1/1 9/4/1 65/89/1 67/90/1
f 2/5/2 8/8/2 67/91/2 63/92/2
f 3/9/3 59/93/3 65/89/3 9/4/3
f 54/94/2 15/14/2 16/13/2 57/95/2
f 53/96/4 7/18/4 6/17/4 52/97/4
f 56/98/3 17/28/3 7/27/3 53/99/3
f 52/19/29 55/20/29 54/21/29 57/22/29 56/23/29 53/24/29
f 86/100/2 89/47/2 79/48/2 73/101/2
f 72/102/7 78/103/7 76/104/7 70/105/7 68/106/7 74/107/7
f 71/39/30 77/42/30 90/41/30 83/40/30
f 69/39/18 80/40/18 85/44/18 75/43/18
f 89/45/31 90/41/31 77/42/31 79/46/31
f 85/32/32 86/100/32 73/101/32 75/31/32
f 16/13/11 17/18/11 56/108/11 57/95/11
f 14/17/12 15/14/12 54/94/12 55/109/12
f 52/51/7 6/110/7 14/111/7 55/52/7
f 61/92/4 59/112/4 3/55/4 1/5/4
f 61/57/33 60/60/33 58/59/33 59/58/33
f 63/90/22 62/113/22 60/114/22 61/93/22
f 66/63/34 67/66/34 65/65/34 64/64/34
f 64/115/27 65/89/27 59/93/27 58/114/27
f 62/68/35 63/69/35 67/66/35 66/63/35
f 58/59/5 60/60/5 62/68/5 66/63/5 64/64/5
f 70/116/19 71/48/19 69/72/19 68/117/19
f 74/107/36 75/118/36 73/119/36 72/102/36
f 78/103/37 79/120/37 77/121/37 76/104/37
f 79/120/12 78/103/12 72/102/12 73/119/12
f 75/118/14 74/107/14 68/106/14 69/122/14
f 71/123/38 70/105/38 76/104/38 77/121/38
f 69/72/4 71/48/4 83/47/4 80/78/4
f 83/47/24 82/124/24 81/125/24 80/78/24
f 87/126/39 86/119/39 85/118/39 84/127/39
f 91/128/40 90/121/40 89/120/40 88/129/40
f 84/127/16 85/118/16 80/122/16 81/130/16
f 88/131/11 89/47/11 86/100/11 87/132/11
f 90/121/41 91/128/41 82/133/41 83/123/41
f 81/130/3 82/133/3 91/128/3 88/129/3 87/126/3 84/127/3
f 92/134/42 93/135/42 95/136/42 94/137/42
f 98/138/43 99/139/43 93/140/43 92/141/43
f 97/142/2 95/143/2 93/144/2 99/145/2
f 94/141/44 95/140/44 97/139/44 96/138/44
f 94/146/4 96/147/4 98/148/4 92/149/4
f 100/134/45 102/137/45 103/136/45 101/135/45
f 106/150/43 100/151/43 101/139/43 107/140/43
f 105/143/2 107/144/2 101/145/2 103/142/2
f 102/151/44 104/150/44 105/140/44 103/139/44
f 102/152/4 100/153/4 106/154/4 104/155/4
f 108/156/42 110/157/42 111/135/42 109/158/42
f 114/159/44 108/150/44 109/140/44 115/160/44
f 113/161/2 115/162/2 109/143/2 111/144/2
f 110/150/43 112/159/43 113/160/43 111/140/43
f 110/163/4 108/164/4 114/152/4 112/153/4
f 116/165/45 117/158/45 119/135/45 118/157/45
f 122/141/44 123/140/44 117/139/44 116/166/44
f 121/144/2 119/145/2 117/142/2 123/143/2
f 118/166/43 119/139/43 121/140/43 120/141/43
f 118/153/4 120/154/4 122/155/4 116/152/4
f 126/167/7 131/168/7 147/169/7 137/170/7
f 135/169/3 128/171/3 141/172/3 143/173/3
f 125/174/4 129/175/4 134/176/4 132/177/4
f 130/178/18 133/179/18 142/180/18 145/181/18
f 138/182/2 146/183/2 144/184/2 140/185/2
f 124/186/46 125/187/46 126/188/46
f 127/189/47 128/190/47 129/191/47
f 130/178/48 131/192/48 132/193/48
f 133/179/49 134/187/49 135/194/49
f 136/195/50 137/196/50 138/197/50
f 139/198/51 140/199/51 141/200/51
f 142/180/52 143/201/52 144/202/52
f 145/181/53 146/203/53 147/204/53
f 124/186/54 127/189/54 129/191/54 125/187/54
f 133/179/55 130/178/55 132/193/55 134/187/55
f 131/168/56 126/167/56 125/205/56 132/206/56
f 134/207/57 129/208/57 128/171/57 135/169/57
f 138/197/58 140/199/58 139/198/58 136/195/58
f 144/202/59 146/203/59 145/181/59 142/180/59
f 146/209/60 138/208/60 137/170/60 147/169/60
f 143/173/61 141/172/61 140/205/61 144/206/61
f 130/178/62 145/181/62 147/204/62 131/192/62
f 136/195/63 124/186/63 126/188/63 137/196/63
f 141/200/64 128/190/64 127/189/64 139/198/64
f 142/180/65 133/179/65 135/194/65 143/201/65
f 127/189/5 124/186/5 136/195/5 139/198/5
f 172/210/66 155/211/66 171/212/66 177/213/66
f 175/214/67 152/215/67 165/216/67 178/217/67
f 173/218/68 174/219/68 158/220/68 156/221/68
f 154/222/69 157/223/69 166/224/69 169/225/69
f 176/226/70 170/227/70 168/228/70 179/229/70
f 148/230/71 149/231/71 150/232/71
f 151/233/72 152/215/72 153/234/72
f 154/235/73 155/211/73 156/236/73
f 157/237/74 158/238/74 159/239/74
f 160/240/75 161/241/75 162/242/75
f 163/243/76 164/244/76 165/216/76
f 166/245/77 167/246/77 168/247/77
f 169/248/78 170/249/78 171/212/78
f 148/250/79 151/251/79 153/252/79 149/253/79
f 157/223/80 154/222/80 156/254/80 158/255/80
f 172/210/81 150/232/81 149/231/81 173/256/81
f 174/257/82 153/234/82 152/215/82 175/214/82
f 162/258/83 164/259/83 163/260/83 160/261/83
f 168/262/84 170/263/84 169/225/84 166/224/84
f 176/264/85 162/242/85 161/241/85 177/213/85
f 178/217/86 165/216/86 164/244/86 179/265/86
f 154/235/87 169/248/87 171/212/87 155/211/87
f 160/240/88 148/230/88 150/232/88 161/241/88
f 165/216/89 152/215/89 151/233/89 163/243/89
f 166/245/90 157/237/90 159/239/90 167/246/90
f 151/251/91 148/250/91 160/261/91 163/260/91
f 167/246/86 178/217/86 179/265/86 168/247/86
f 170/249/92 176/264/92 177/213/92 171/212/92
f 158/238/82 174/257/82 175/214/82 159/239/82
f 155/211/93 172/210/93 173/256/93 156/236/93
f 162/266/70 176/226/70 179/229/70 164/267/70
f 149/268/68 153/269/68 174/219/68 173/218/68
f 159/239/67 175/214/67 178/217/67 167/246/67
f 150/232/94 172/210/94 177/213/94 161/241/94
f 98/148/45 96/147/45 97/139/45 99/145/45
f 114/152/45 115/162/45 113/160/45 112/153/45
f 122/155/42 120/154/42 121/140/42 123/143/42
f 106/150/42 107/140/42 105/143/42 104/150/42
