# Blender 4.3.2
# www.blender.org
mtllib beanbag_red.mtl
o beanbag_red
v 0.671701 0.123390 0.033640
v 0.498751 0.123025 -0.451177
v 0.033640 0.123239 -0.671701
v -0.451177 0.123912 -0.498751
v -0.671701 0.124662 -0.033640
v -0.500700 0.096561 0.451552
v -0.015071 0.095169 0.675359
v 0.451177 0.124130 0.498751
v 0.626374 0.308593 -0.565864
v 0.843632 0.278130 0.042251
v 0.042194 0.321667 -0.842503
v -0.566702 0.309702 -0.625615
v -0.843632 0.279722 -0.042251
v -0.633376 0.174940 0.572632
v -0.003459 0.171225 0.789469
v 0.566702 0.248135 0.625615
v 0.556809 0.694952 -0.448874
v 0.751461 0.595179 0.087258
v 0.034644 0.734434 -0.692312
v -0.509174 0.695952 -0.502261
v -0.756123 0.596819 0.011682
v -0.576266 0.312919 0.574900
v 0.002919 0.330818 0.850979
v 0.504319 0.463111 0.599208
v 0.508418 0.896168 -0.309763
v 0.689726 0.730182 0.183177
v 0.024896 0.915195 -0.517874
v -0.469867 0.884521 -0.354158
v -0.701322 0.732775 0.113059
v -0.538878 0.400538 0.620527
v -0.001491 0.408611 0.802550
v 0.461036 0.548176 0.634491
v 0.124541 0.642388 0.024348
v 0.168530 0.584196 0.151624
v 0.005017 0.642654 -0.026622
v -0.119604 0.606683 0.024562
v -0.182134 0.549586 0.147584
v -0.146123 0.483673 0.274779
v -0.023636 0.462744 0.327249
v 0.104478 0.502465 0.279128
v 0.300799 0.788194 -0.086930
v 0.410498 0.781877 0.222859
v 0.014591 0.806467 -0.205020
v -0.274352 0.858727 -0.081227
v -0.419050 0.746328 0.194906
v -0.334295 0.549094 0.479397
v -0.024999 0.503723 0.584608
v 0.265143 0.607991 0.485016
v 0.438538 0.967906 -0.206525
v 0.360219 0.926880 -0.122543
v 0.474890 0.843512 0.237609
v 0.591884 0.846411 0.228963
v 0.020064 0.958383 -0.385166
v 0.015900 0.906655 -0.257594
v -0.404724 0.938619 -0.237280
v -0.315064 0.908433 -0.119713
v -0.598148 0.858829 0.173936
v -0.495614 0.841177 0.197895
v -0.476042 0.505273 0.598476
v -0.380984 0.563421 0.528981
v -0.002354 0.413704 0.796328
v -0.019171 0.489715 0.649210
v 0.414276 0.596967 0.617259
v 0.307889 0.631651 0.537256
vn 0.0074 -0.9998 -0.0172
vn 0.9133 0.2784 -0.2971
vn 0.2575 -0.8059 0.5332
vn -0.5806 -0.8076 0.1037
vn -0.2534 -0.6356 -0.7293
vn 0.6823 -0.6824 -0.2624
vn 0.6038 -0.7517 0.2655
vn -0.1892 -0.8627 0.4691
vn -0.6534 -0.6818 -0.3290
vn 0.3239 -0.6358 -0.7006
vn 0.3506 0.1769 0.9196
vn 0.8628 0.2350 0.4476
vn -0.3737 -0.1175 0.9201
vn -0.8790 0.2788 -0.3869
vn 0.4150 0.3243 -0.8501
vn 0.3669 -0.0323 0.9297
vn -0.8958 0.2383 0.3752
vn -0.3275 0.3243 -0.8875
vn -0.6668 0.7333 0.1328
vn -0.9187 0.1347 0.3712
vn -0.2849 0.6434 -0.7106
vn 0.8769 0.4330 -0.2085
vn 0.8707 0.1332 0.4735
vn -0.3798 0.0913 0.9205
vn -0.8368 0.4649 -0.2891
vn 0.3495 0.6257 -0.6974
vn -0.0974 0.8881 0.4492
vn 0.1570 0.9861 0.0534
vn 0.5999 0.6130 0.5141
vn -0.3424 0.4008 0.8498
vn 0.3647 0.5516 0.7501
vn -0.3494 0.9345 0.0681
vn 0.7007 0.6564 0.2796
vn 0.7256 0.6863 -0.0490
vn 0.1750 0.9058 -0.3858
vn -0.1611 0.9321 -0.3244
vn -0.6608 0.7402 -0.1245
vn -0.7246 0.4307 0.5381
vn -0.2952 0.3910 0.8717
vn 0.1509 0.5036 0.8506
vn 0.6643 0.4835 0.5700
vn -0.5840 0.7479 0.3157
vn -0.2318 0.7351 0.6370
vn 0.3294 0.6084 0.7220
vn 0.5895 0.5868 0.5552
vn 0.6199 0.7309 0.2854
vn 0.2004 0.9695 -0.1411
vn -0.3717 0.9142 -0.1613
vn -0.6542 0.7439 0.1365
vn -0.0849 0.9576 0.2752
vn -0.1748 0.9250 0.3374
vn 0.0864 0.9536 0.2885
vn 0.0706 0.9702 0.2320
vn -0.0089 0.7660 0.6428
vn -0.0285 0.8544 0.5189
vn -0.1720 0.8456 0.5054
vn -0.0522 0.8413 0.5380
vn -0.7862 0.5206 0.3330
vt 0.820972 0.358202
vt 0.765387 0.419687
vt 0.560746 0.453061
vt 0.324807 0.443684
vt 0.176982 0.392051
vt 0.223610 0.332275
vt 0.421275 0.294544
vt 0.677521 0.304133
vt 0.370977 0.417853
vt 0.121349 0.368680
vt 0.270663 0.334901
vt 0.466444 0.385129
vt 0.586092 0.479064
vt 0.294930 0.459554
vt 0.081146 0.396577
vt 0.129551 0.316566
vt 0.621462 0.336335
vt 0.832859 0.377032
vt 0.782968 0.407338
vt 0.543544 0.360787
vt 0.947854 0.357385
vt 0.861167 0.435603
vt 0.373293 0.265977
vt 0.415748 0.293853
vt 0.308800 0.312769
vt 0.442154 0.381844
vt 0.275972 0.328380
vt 0.322699 0.324016
vt 0.465961 0.373355
vt 0.663155 0.448916
vt 0.703256 0.423121
vt 0.696941 0.438195
vt 0.402746 0.399675
vt 0.705315 0.419701
vt 0.311099 0.303515
vt 0.570865 0.348022
vt 0.476823 0.380952
vt 0.227551 0.348806
vt 0.425911 0.397707
vt 0.197081 0.358913
vt 0.184616 0.348609
vt 0.814043 0.400677
vt 0.765665 0.414342
vt 0.628065 0.444885
vt 0.703346 0.377999
vt 0.656463 0.337365
vt 0.688907 0.333226
vt 0.744740 0.381172
vt 0.749292 0.426547
vt 0.459233 0.402086
vt 0.542578 0.467052
vt 0.350649 0.421505
vt 0.381973 0.321415
vt 0.539336 0.374714
vt 0.741948 0.414846
vt 0.703146 0.405667
vt 0.212352 0.378390
vt 0.126887 0.385167
vt 0.529188 0.384112
vt 0.472559 0.386251
vt 0.424233 0.377013
vt 0.408302 0.361072
vt 0.436517 0.346409
vt 0.491984 0.343547
vt 0.542217 0.352138
vt 0.560738 0.369690
vt 0.519101 0.313551
vt 0.349928 0.321337
vt 0.326146 0.314425
vt 0.528835 0.305132
vt 0.454173 0.384801
vt 0.552540 0.416746
vt 0.536093 0.424877
vt 0.406068 0.393484
vt 0.465122 0.379737
vt 0.615736 0.382134
vt 0.627213 0.400773
vt 0.449708 0.392952
vt 0.318405 0.367193
vt 0.293073 0.373743
vt 0.449803 0.341459
vt 0.417206 0.339164
vt 0.451018 0.316197
vt 0.595836 0.362247
vt 0.693315 0.453975
vt 0.422684 0.463495
vt 0.435612 0.445660
vt 0.670207 0.436256
vt 0.182990 0.432427
vt 0.231011 0.418394
vt 0.073925 0.369099
vt 0.160813 0.363510
vt 0.705790 0.437061
vt 0.436188 0.422482
vt 0.468440 0.372659
vt 0.706155 0.390891
vt 0.354637 0.321647
vt 0.758877 0.407238
vt 0.598693 0.406305
vt 0.456975 0.413092
vt 0.425598 0.339954
vt 0.478894 0.350452
vt 0.593262 0.369719
vt 0.635056 0.384582
vt 0.271892 0.360310
vt 0.641669 0.422308
vt 0.800915 0.385133
vt 0.447777 0.427950
vt 0.282016 0.405185
vt 0.213809 0.362571
vt 0.289504 0.300700
vt 0.551668 0.284419
vt 0.749740 0.324266
vt 0.407369 0.389405
vt 0.527731 0.363071
vt 0.567327 0.367847
vt 0.450764 0.404831
s 0
usemtl couches
f 2/1/1 1/2/1 8/3/1 7/4/1 6/5/1 5/6/1 4/7/1 3/8/1
f 10/9/2 9/10/2 17/11/2 18/12/2
f 7/4/3 8/3/3 16/13/3 15/14/3
f 5/6/4 6/5/4 14/15/4 13/16/4
f 3/17/5 4/18/5 12/19/5 11/20/5
f 1/2/6 2/1/6 9/21/6 10/22/6
f 8/3/7 1/2/7 10/22/7 16/13/7
f 6/5/8 7/4/8 15/14/8 14/15/8
f 4/7/9 5/6/9 13/16/9 12/23/9
f 2/24/10 3/17/10 11/20/10 9/25/10
f 23/26/11 24/27/11 32/28/11 31/29/11
f 16/30/12 10/9/12 18/12/12 24/31/12
f 14/32/13 15/33/13 23/26/13 22/34/13
f 12/35/14 13/36/14 21/37/14 20/38/14
f 9/25/15 11/20/15 19/39/15 17/40/15
f 15/33/16 16/41/16 24/27/16 23/26/16
f 13/36/17 14/42/17 22/43/17 21/37/17
f 11/20/18 12/19/18 20/44/18 19/39/18
f 42/45/19 48/46/19 64/47/19 51/48/19
f 21/37/20 22/43/20 30/49/20 29/50/20
f 19/39/21 20/44/21 28/51/21 27/52/21
f 18/12/22 17/11/22 25/53/22 26/54/22
f 24/31/23 18/12/23 26/54/23 32/55/23
f 22/34/24 23/26/24 31/29/24 30/56/24
f 20/38/25 21/37/25 29/50/25 28/57/25
f 17/40/26 19/39/26 27/52/26 25/58/26
f 33/59/27 35/60/27 36/61/27 37/62/27 38/63/27 39/64/27 40/65/27 34/66/27
f 47/67/28 46/68/28 60/69/28 62/70/28
f 45/71/29 44/72/29 56/73/29 58/74/29
f 43/75/30 41/76/30 50/77/30 54/78/30
f 44/79/31 43/75/31 54/78/31 56/80/31
f 48/46/32 47/67/32 62/70/32 64/47/32
f 46/81/33 45/71/33 58/74/33 60/82/33
f 26/54/34 25/53/34 49/83/34 52/84/34
f 25/85/35 27/86/35 53/87/35 49/88/35
f 27/86/36 28/89/36 55/90/36 53/87/36
f 28/89/37 29/91/37 57/92/37 55/90/37
f 29/50/38 30/49/38 59/93/38 57/94/38
f 30/56/39 31/29/39 61/95/39 59/96/39
f 31/29/40 32/28/40 63/97/40 61/95/40
f 32/55/41 26/54/41 52/84/41 63/98/41
f 33/59/42 34/66/42 42/45/42 41/99/42
f 35/60/43 33/59/43 41/99/43 43/100/43
f 36/101/44 35/102/44 43/75/44 44/79/44
f 37/103/45 36/104/45 44/72/45 45/71/45
f 38/63/46 37/62/46 45/105/46 46/68/46
f 39/64/47 38/63/47 46/68/47 47/67/47
f 40/65/48 39/64/48 47/67/48 48/46/48
f 34/66/49 40/65/49 48/46/49 42/45/49
f 50/106/50 51/48/50 52/107/50 49/88/50
f 54/108/51 50/106/51 49/88/51 53/87/51
f 56/109/52 54/108/52 53/87/52 55/90/52
f 58/110/53 56/109/53 55/90/53 57/92/53
f 60/69/54 58/110/54 57/92/54 59/111/54
f 62/70/55 60/69/55 59/111/55 61/112/55
f 64/47/56 62/70/56 61/112/56 63/113/56
f 51/48/57 64/47/57 63/113/57 52/107/57
f 41/114/58 42/115/58 51/116/58 50/117/58
