# Blender 4.3.2
# www.blender.org
mtllib paper_single_sheet.mtl
o paper_single_sheet
v 0.153037 -0.132971 0.159355
v 0.155802 -0.129554 0.159355
v -0.173748 0.131499 0.137895
v -0.170983 0.134917 0.137895
v 0.164832 -0.142517 -0.137895
v 0.167597 -0.139099 -0.137895
v -0.161953 0.121954 -0.159355
v -0.159188 0.125371 -0.159355
vn -0.0396 0.0321 0.9987
vn -0.7763 0.6283 -0.0510
vn 0.0396 -0.0321 -0.9987
vn 0.7763 -0.6283 0.0510
vn -0.6291 -0.7773 -0.0000
vn 0.6291 0.7773 -0.0000
vt 0.414360 0.557113
vt 0.414360 0.516819
vt 0.449735 0.516819
vt 0.449735 0.557113
vt 0.485109 0.516819
vt 0.485109 0.557113
vt 0.520483 0.516819
vt 0.520483 0.557113
vt 0.555858 0.516819
vt 0.555858 0.557113
vt 0.134907 0.595879
vt 0.145450 0.595879
vt 0.145450 0.606422
vt 0.134907 0.606422
vt 0.742927 0.547572
vt 0.757073 0.547572
vt 0.757073 0.561719
vt 0.742927 0.561719
s 0
usemtl Material
f 1/1/1 2/2/1 4/3/1 3/4/1
f 3/4/2 4/3/2 8/5/2 7/6/2
f 7/6/3 8/5/3 6/7/3 5/8/3
f 5/8/4 6/7/4 2/9/4 1/10/4
f 3/11/5 7/12/5 5/13/5 1/14/5
f 8/15/6 4/16/6 2/17/6 6/18/6
