# Blender 4.3.2
# www.blender.org
mtllib pen5.mtl
o pen5
v -0.091569 -0.009065 -0.033550
v 0.089268 -0.004994 0.044326
v -0.092449 0.006382 -0.031704
v 0.088733 0.004404 0.045449
v -0.085277 -0.007021 -0.047657
v 0.093096 -0.003750 0.035744
v -0.086157 0.008426 -0.045811
v 0.092561 0.005648 0.036867
v -0.118781 0.000729 -0.051390
v -0.118629 -0.001931 -0.051708
v -0.117697 0.001082 -0.053820
v -0.117545 -0.001579 -0.054138
v 0.021110 -0.003860 0.019539
v 0.083545 -0.003391 0.045376
v 0.020804 0.001501 0.020179
v 0.083239 0.001969 0.046016
v 0.040821 -0.004061 0.030619
v 0.061379 -0.003987 0.039799
v 0.061074 0.001373 0.040440
v 0.040515 0.001299 0.031260
v 0.086157 -0.008426 0.045811
v 0.085277 0.007021 0.047657
v 0.091569 0.009065 0.033550
v 0.092449 -0.006382 0.031704
v 0.098706 -0.004960 0.048541
v 0.098170 0.004438 0.049664
v 0.101998 0.005681 0.041081
v 0.102534 -0.003716 0.039958
vn -0.3624 -0.7874 0.4986
vn 0.4197 -0.5932 0.6870
vn -0.4416 0.6026 0.6647
vn 0.3598 0.4584 0.8127
vn 0.2038 -0.6035 -0.7709
vn 0.8480 -0.4540 -0.2734
vn 0.1246 0.7866 -0.6048
vn 0.7881 0.5975 -0.1477
vn -0.8592 0.4440 0.2542
vn -0.8006 -0.5846 0.1313
vn -0.4402 0.5802 -0.6853
vn -0.3816 -0.4485 -0.8082
vn -0.4868 -0.1309 0.8636
vn -0.2387 -0.1286 0.9625
vn -0.4458 -0.1312 0.8855
vn -0.3225 -0.1304 0.9375
vn 0.1768 -0.7130 0.6785
vn 0.1049 0.5489 0.8293
vn 0.6190 0.7159 -0.3232
vn 0.6908 -0.5460 -0.4740
vn 0.3266 -0.6462 0.6897
vn 0.2614 0.4985 0.8265
vn 0.7277 0.6500 -0.2189
vn 0.7929 -0.4947 -0.3557
vt 0.739163 0.614621
vt 0.739163 0.797368
vt 0.724534 0.797368
vt 0.724534 0.614621
vt 0.737295 0.614621
vt 0.737295 0.797368
vt 0.722666 0.797368
vt 0.722666 0.614621
vt 0.731241 0.584493
vt 0.728721 0.584493
vt 0.708505 0.908679
vt 0.699604 0.908679
vt 0.699604 0.918383
vt 0.708505 0.918383
vt 0.731241 0.695577
vt 0.728721 0.695577
vt 0.728721 0.698097
vt 0.731241 0.698097
vt 0.730589 0.584493
vt 0.733109 0.584493
vt 0.163559 0.290802
vt 0.163559 0.311941
vt 0.158483 0.311941
vt 0.158483 0.290802
vt 0.163559 0.248523
vt 0.163559 0.269662
vt 0.158483 0.269662
vt 0.158483 0.248523
vt 0.734431 0.701287
vt 0.734431 0.692387
vt 0.737295 0.689523
vt 0.737295 0.704152
vt 0.725530 0.692387
vt 0.722666 0.689523
vt 0.725530 0.701287
vt 0.722666 0.704152
vt 0.697736 0.909483
vt 0.706636 0.909483
vt 0.706636 0.918383
vt 0.697736 0.918383
vt 0.706636 0.908679
vt 0.697736 0.908679
s 1
usemtl mug
f 1/1/1 21/2/17 22/3/18 3/4/3
f 3/5/3 22/6/18 23/7/19 7/8/7
f 7/4/7 23/3/19 24/2/20 5/1/5
f 5/8/5 24/7/20 21/6/17 1/5/1
f 5/8/5 1/5/1 10/9/10 12/10/12
f 6/11/6 8/12/8 27/13/23 28/14/24
f 9/15/9 11/16/11 12/17/12 10/18/10
f 3/5/3 7/8/7 11/10/11 9/9/9
f 1/1/1 3/4/3 9/19/9 10/20/10
f 7/4/7 5/1/5 12/20/12 11/19/11
f 18/21/16 14/22/14 16/23/14 19/24/16
f 13/25/13 17/26/15 20/27/15 15/28/13
f 17/26/15 18/21/16 19/24/16 20/27/15
f 2/29/2 4/30/4 22/31/18 21/32/17
f 4/30/4 8/33/8 23/34/19 22/31/18
f 8/33/8 6/35/6 24/36/20 23/34/19
f 6/35/6 2/29/2 21/32/17 24/36/20
f 27/37/23 26/38/22 25/39/21 28/40/24
f 4/12/4 2/11/2 25/14/21 26/13/22
f 2/41/2 6/42/6 28/40/24 25/39/21
f 8/42/8 4/41/4 26/39/22 27/40/23
