# Blender 4.3.2
# www.blender.org
mtllib pen6.mtl
o pen6
v -0.016901 -0.009065 -0.096046
v 0.006667 -0.004986 0.101758
v -0.018940 0.006382 -0.095881
v 0.005427 0.004411 0.101858
v -0.001541 -0.007021 -0.097678
v 0.016012 -0.003742 0.100765
v -0.003579 0.008426 -0.097514
v 0.014772 0.005655 0.100865
v -0.015116 0.000729 -0.128535
v -0.014765 -0.001931 -0.128564
v -0.012470 0.001082 -0.128816
v -0.012119 -0.001579 -0.128845
v -0.006316 -0.003860 0.028062
v 0.002863 -0.003362 0.095012
v -0.007023 0.001501 0.028119
v 0.002156 0.001998 0.095069
v -0.006016 -0.004061 0.050672
v -0.003647 -0.003987 0.073062
v -0.004354 0.001373 0.073119
v -0.006723 0.001299 0.050729
v 0.003579 -0.008426 0.097514
v 0.001541 0.007021 0.097678
v 0.016901 0.009065 0.096046
v 0.018940 -0.006382 0.095881
vn -0.6131 -0.7874 -0.0635
vn -0.2328 -0.4198 0.8772
vn -0.7965 0.6026 -0.0486
vn -0.3313 0.3266 0.8852
vn 0.7691 -0.6035 -0.2103
vn 0.5095 -0.3210 0.7984
vn 0.5857 0.7866 -0.1955
vn 0.4110 0.4254 0.8063
vn -0.6508 0.4440 -0.6158
vn -0.5151 -0.5846 -0.6268
vn 0.3721 0.5802 -0.7245
vn 0.5078 -0.4485 -0.7355
vn -0.9913 -0.1309 0.0120
vn -0.9498 -0.1284 0.2854
vn -0.9896 -0.1312 0.0584
vn -0.9719 -0.1303 0.1959
vn -0.5383 -0.7503 0.3838
vn -0.7134 0.5768 0.3980
vn 0.6062 0.7524 0.2578
vn 0.7813 -0.5746 0.2436
vt 0.140692 0.430136
vt 0.140692 0.247389
vt 0.155321 0.247389
vt 0.155321 0.430136
vt 0.142561 0.430136
vt 0.142561 0.247389
vt 0.157190 0.247389
vt 0.157190 0.430136
vt 0.148615 0.460264
vt 0.151135 0.460264
vt 0.148615 0.352947
vt 0.151135 0.352947
vt 0.151135 0.350427
vt 0.148615 0.350427
vt 0.149267 0.460264
vt 0.146747 0.460264
vt 0.663193 0.927819
vt 0.642054 0.927819
vt 0.642054 0.922742
vt 0.663193 0.922742
vt 0.705472 0.927819
vt 0.684333 0.927819
vt 0.684333 0.922742
vt 0.705472 0.922742
vt 0.143557 0.243110
vt 0.152457 0.243110
vt 0.145425 0.243110
vt 0.154325 0.243110
vt 0.154325 0.356137
vt 0.145425 0.356137
vt 0.145425 0.347237
vt 0.154325 0.347237
s 1
usemtl mug
f 1/1/1 21/2/17 22/3/18 3/4/3
f 3/5/3 22/6/18 23/7/19 7/8/7
f 7/4/7 23/3/19 24/2/20 5/1/5
f 5/8/5 24/7/20 21/6/17 1/5/1
f 5/8/5 1/5/1 10/9/10 12/10/12
f 9/11/9 11/12/11 12/13/12 10/14/10
f 3/5/3 7/8/7 11/10/11 9/9/9
f 1/1/1 3/4/3 9/15/9 10/16/10
f 7/4/7 5/1/5 12/16/12 11/15/11
f 18/17/16 14/18/14 16/19/14 19/20/16
f 13/21/13 17/22/15 20/23/15 15/24/13
f 17/22/15 18/17/16 19/20/16 20/23/15
f 2/25/2 4/26/4 22/3/18 21/2/17
f 4/27/4 8/28/8 23/7/19 22/6/18
f 8/26/8 6/25/6 24/2/20 23/3/19
f 6/28/6 2/27/2 21/6/17 24/7/20
f 8/29/8 4/30/4 2/31/2 6/32/6
