# Blender 4.3.2
# www.blender.org
mtllib desk_phone_with_cable.mtl
o desk_phone_with_cable
v -0.136727 0.006830 0.166795
v -0.144366 0.011251 -0.165889
v 0.188316 0.006807 -0.173587
v 0.000155 0.005002 0.163627
v -0.007484 0.009423 -0.169057
v -0.143630 0.065126 -0.165190
v -0.136286 0.039135 0.167214
v 0.000596 0.037306 0.164046
v 0.189052 0.060681 -0.172888
v -0.006748 0.063297 -0.168358
v 0.195389 0.002713 0.134459
v 0.171318 0.002715 0.159666
v 0.171759 0.035019 0.160086
v 0.195853 0.036615 0.134899
v -0.126458 0.028290 0.153811
v -0.010127 0.026736 0.151119
v -0.016897 0.050692 -0.155259
v -0.133227 0.052246 -0.152567
v -0.140547 0.009041 0.000453
v -0.003665 0.007212 -0.002715
v -0.139958 0.052130 0.001012
v -0.003076 0.050302 -0.002156
v -0.129843 0.040268 0.000622
v -0.013512 0.038714 -0.002070
v -0.114854 0.038680 0.122048
v -0.022905 0.037451 0.119920
v -0.117530 0.048148 0.000966
v -0.025581 0.046919 -0.001162
v -0.028256 0.056387 -0.122244
v -0.120205 0.057615 -0.120116
v -0.121207 0.063269 0.146583
v -0.013158 0.061826 0.144083
v -0.118210 0.097282 -0.001370
v -0.022085 0.095998 -0.003594
v -0.019697 0.082931 -0.150687
v -0.127746 0.084375 -0.148187
v -0.122941 0.040670 0.149208
v -0.011908 0.039186 0.146638
v -0.126043 0.071685 -0.002757
v -0.015010 0.070201 -0.005327
v -0.018693 0.058745 -0.157843
v -0.129726 0.060228 -0.155273
v -0.119114 0.080134 0.082884
v -0.017744 0.078780 0.080538
v -0.124492 0.056177 0.073225
v -0.013459 0.054694 0.070656
v -0.021503 0.089616 -0.088153
v -0.122872 0.090970 -0.085807
v -0.016852 0.064473 -0.081585
v -0.127884 0.065956 -0.079015
v -0.111434 0.028314 0.137948
v -0.024249 0.027149 0.135930
v -0.112652 0.040491 0.078285
v -0.029137 0.049909 -0.088434
v -0.030585 0.045413 -0.148396
v -0.117768 0.046576 -0.146296
v -0.025467 0.039326 0.076268
v -0.116322 0.051074 -0.086417
v -0.067907 0.058545 0.143971
v -0.060581 0.051805 0.144062
v -0.075204 0.050832 0.145050
v -0.067676 0.043905 0.145144
v -0.066903 0.044732 0.177449
v -0.061361 0.037955 0.182191
v -0.073325 0.037069 0.173715
v -0.067630 0.030105 0.178588
v -0.112199 0.038922 0.188378
v -0.112334 0.038021 0.198292
v -0.113376 0.028372 0.187266
v -0.113515 0.027447 0.197453
v -0.156707 0.033039 0.162436
v -0.162108 0.031567 0.170669
v -0.152329 0.023354 0.163411
v -0.157879 0.021842 0.171871
v -0.169161 0.032400 0.142958
v -0.176563 0.025879 0.141614
v -0.161982 0.024505 0.142739
v -0.169588 0.017805 0.141358
v -0.163789 0.025218 0.087855
v -0.171166 0.018699 0.086374
v -0.156609 0.017322 0.087772
v -0.164190 0.010623 0.086251
v -0.148198 0.023587 0.039789
v -0.155672 0.017041 0.040429
v -0.141311 0.015722 0.037642
v -0.148991 0.008995 0.038300
v -0.161358 0.024592 -0.008781
v -0.168692 0.018033 -0.007264
v -0.154765 0.016742 -0.011750
v -0.162302 0.010002 -0.010191
v -0.188387 0.044108 -0.058534
v -0.195853 0.037561 -0.057814
v -0.181522 0.036244 -0.060756
v -0.189194 0.029516 -0.060017
v -0.182843 0.040366 -0.120198
v -0.189764 0.033860 -0.123177
v -0.175829 0.032453 -0.118751
v -0.182942 0.025767 -0.121813
v -0.149788 0.025135 -0.177758
v -0.153604 0.018632 -0.184259
v -0.145130 0.017202 -0.172347
v -0.149051 0.010519 -0.179028
v -0.085763 0.024435 -0.191270
v -0.083223 0.017852 -0.198292
v -0.087146 0.016564 -0.184239
v -0.084535 0.009799 -0.191426
v -0.065418 0.023930 -0.173738
v -0.058391 0.017223 -0.175900
v -0.072014 0.016180 -0.170571
v -0.064792 0.009287 -0.172789
v -0.066738 0.014638 -0.160221
v -0.059514 0.007885 -0.159071
v -0.074130 0.006939 -0.160182
v -0.066706 -0.000000 -0.159000
vn 0.9996 -0.0134 -0.0231
vn -0.0137 -0.9998 -0.0130
vn -0.5389 0.8388 0.0775
vn -0.0230 0.0133 -0.9996
vn 0.0230 -0.0133 0.9996
vn 0.0151 0.9969 0.0776
vn -0.9996 0.0134 0.0231
vn 0.7231 -0.0188 0.6905
vn -0.0042 0.7759 -0.6309
vn -0.7411 0.6679 0.0686
vn 0.7610 0.6478 0.0338
vn -0.0221 -0.9018 -0.4316
vn 0.5641 0.8240 0.0520
vn 0.0200 0.9481 0.3174
vn 0.0108 0.9943 -0.1060
vn 0.0177 0.9797 0.1996
vn -0.0177 -0.9797 -0.1996
vn -0.9685 0.2480 0.0206
vn 0.9934 0.1140 -0.0105
vn 0.0245 0.1135 0.9932
vn 0.9755 0.2200 0.0091
vn -0.0184 0.2829 -0.9590
vn -0.9887 0.1465 0.0301
vn -0.9678 0.2460 0.0540
vn 0.9926 0.1200 -0.0157
vn 0.0188 0.9664 0.2565
vn 0.9747 0.2221 -0.0244
vn -0.9894 0.1405 0.0354
vn -0.0116 -0.9971 0.0752
vn 0.0116 0.9971 -0.0752
vn -0.0115 -0.9971 0.0751
vn 0.0082 -0.6693 0.7429
vn 0.0150 -0.4359 0.8999
vn 0.7529 -0.6417 -0.1463
vn 0.0093 0.9859 -0.1669
vn -0.7757 -0.6213 -0.1110
vn -0.0262 -0.3248 -0.9454
vn 0.0258 0.7102 0.7035
vn -0.0619 -0.0807 -0.9948
vn 0.3269 -0.3444 0.8801
vn 0.7602 -0.6086 -0.2273
vn 0.6460 0.7127 0.2733
vn -0.7365 0.6049 0.3026
vn -0.6367 -0.7120 -0.2962
vn 0.5023 0.0853 -0.8605
vn 0.0708 0.8941 0.4422
vn -0.3134 0.3642 -0.8770
vn -0.0513 -0.8923 -0.4485
vn -0.7786 -0.4678 0.4183
vn 0.1706 -0.9824 -0.0764
vn -0.4857 -0.0573 0.8723
vn -0.1717 0.9822 0.0760
vn -0.6357 0.7551 -0.1603
vn -0.4666 0.8725 0.1450
vn 0.7678 0.4868 -0.4165
vn 0.4664 -0.8725 -0.1455
vn 0.7437 0.6336 0.2131
vn 0.7396 0.6729 -0.0156
vn 0.6356 -0.7551 0.1607
vn -0.7566 -0.6538 0.0111
vn -0.7326 -0.6544 0.1870
vn 0.6369 -0.7382 0.2223
vn -0.7586 -0.6109 -0.2266
vn -0.6344 0.7363 -0.2355
vn 0.7306 0.6697 -0.1333
vn -0.6353 0.7489 0.1883
vn 0.7167 0.6736 -0.1808
vn 0.6351 -0.7489 -0.1892
vn 0.6579 -0.7447 0.1125
vn 0.5103 -0.6686 -0.5409
vn -0.7444 -0.6513 0.1475
vn -0.5121 0.6700 0.5375
vn -0.7319 -0.6246 -0.2725
vn -0.7679 -0.6395 -0.0370
vn -0.6593 0.7447 -0.1040
vn 0.7512 0.6594 0.0290
vn 0.1648 0.6310 0.7581
vn -0.4809 0.7398 -0.4705
vn 0.7283 0.6411 0.2419
vn 0.4728 -0.7395 0.4791
vn 0.5236 -0.6183 -0.5861
vn 0.1277 -0.7180 0.6842
vn -0.1586 -0.6117 -0.7750
vn -0.1320 0.7185 -0.6828
vn 0.6824 -0.6526 -0.3293
vn 0.4791 0.7057 -0.5221
vn -0.4995 0.6378 0.5862
vn -0.4913 -0.7055 0.5108
vn -0.0808 0.0826 0.9933
vn 0.6324 0.6364 0.4416
vn -0.6285 0.6559 0.4181
vn -0.5940 -0.5877 -0.5494
vt 0.022477 0.697827
vt 0.454208 0.697827
vt 0.454208 0.758568
vt 0.022477 0.736050
vt 0.000000 0.500000
vt 0.000000 1.000000
vt 0.411449 1.000000
vt 0.411449 0.500000
vt 0.584595 0.800172
vt 0.584595 0.461630
vt 0.576679 0.461630
vt 0.576679 0.729217
vt 0.469033 0.722755
vt 0.212887 0.722755
vt 0.212887 0.779452
vt 0.469033 0.779452
vt 0.033818 0.722755
vt 0.033818 0.779452
vt 0.411449 0.000000
vt 1.000000 1.000000
vt 1.000000 0.074056
vt 0.925944 0.000000
vt 0.474153 0.777480
vt 0.271264 0.777480
vt 0.271264 0.738961
vt 0.474153 0.738961
vt 0.005062 0.006776
vt 0.429494 0.006776
vt 0.490587 0.067637
vt 0.490587 0.828596
vt 0.005062 0.828596
vt 0.005062 0.417686
vt 0.275411 0.716768
vt 0.079179 0.716768
vt 0.079179 0.747425
vt 0.275411 0.757660
vt 0.374566 0.126466
vt 0.425715 0.085313
vt 0.460482 0.117165
vt 0.411744 0.156379
vt 0.017562 0.777480
vt 0.017562 0.738961
vt 0.585023 0.059797
vt 0.888425 0.059797
vt 0.865649 0.080084
vt 0.607799 0.080084
vt 0.888425 0.427096
vt 0.888425 0.794396
vt 0.868086 0.763968
vt 0.868086 0.425426
vt 0.585023 0.427096
vt 0.605362 0.086883
vt 0.605362 0.425426
vt 0.585023 0.794396
vt 0.605362 0.763968
vt 0.868086 0.086883
vt 0.471642 0.716768
vt 0.471642 0.767895
vt 0.592176 0.784822
vt 0.592176 0.626875
vt 0.555043 0.608565
vt 0.555043 0.809715
vt 0.900820 0.809715
vt 0.900820 0.608565
vt 0.863687 0.626875
vt 0.863687 0.784822
vt 0.000000 0.000000
vt 0.597075 0.439982
vt 0.834837 0.439982
vt 0.834837 0.752148
vt 0.597075 0.752148
vt 0.597075 0.127815
vt 0.834837 0.127815
vt 0.584595 0.123088
vt 0.576679 0.194043
vt 0.576679 0.461630
vt 0.847318 0.123088
vt 0.847318 0.461630
vt 0.855233 0.461630
vt 0.855233 0.194043
vt 0.847318 0.800172
vt 0.855233 0.729217
vt 0.855233 0.461630
vt 0.587031 0.116289
vt 0.844882 0.116289
vt 0.817860 0.109642
vt 0.614053 0.109642
vt 0.570089 0.627063
vt 0.885773 0.627063
vt 0.896173 0.791742
vt 0.559690 0.791742
vt 0.570089 0.181292
vt 0.885773 0.181292
vt 0.877607 0.404178
vt 0.578256 0.404178
vt 0.555043 0.206267
vt 0.555043 0.407416
vt 0.900820 0.407416
vt 0.900820 0.206267
vt 0.743633 0.187480
vt 0.666881 0.217152
vt 0.732076 0.412155
vt 0.815873 0.403555
vt 0.785148 0.192352
vt 0.708395 0.222024
vt 0.643200 0.027021
vt 0.725470 0.033599
vt 0.559690 0.721247
vt 0.555043 0.661626
vt 0.900820 0.661626
vt 0.896173 0.721247
vt 0.853585 0.635290
vt 0.770159 0.621766
vt 0.773591 0.417027
vt 0.857388 0.408427
vt 0.896173 0.766621
vt 0.900820 0.702575
vt 0.555043 0.702575
vt 0.559690 0.766621
vt 0.812071 0.630418
vt 0.728644 0.616894
vt 0.725213 0.821633
vt 0.796544 0.803783
vt 0.838059 0.808654
vt 0.766727 0.826505
vt 0.559690 0.012731
vt 0.896173 0.012731
vt 0.683955 0.028727
vt 0.601686 0.022149
vt 0.592176 0.033700
vt 0.592176 0.191646
vt 0.863687 0.191646
vt 0.863687 0.033700
vt 0.592176 0.629044
vt 0.863687 0.629044
vt 0.555043 0.720372
vt 0.592176 0.681256
vt 0.863687 0.681256
vt 0.900820 0.720372
vt 0.720679 0.804015
vt 0.723374 0.643249
vt 0.844882 0.806181
vt 0.587031 0.806181
vt 0.614053 0.813215
vt 0.817860 0.813215
vt 0.792577 0.699898
vt 0.774406 0.659096
vt 0.578101 0.629044
vt 0.542577 0.661626
vt 0.900820 0.699898
vt 0.863687 0.659096
vt 0.592176 0.659096
vt 0.555043 0.699898
vt 0.607799 0.769977
vt 0.865649 0.769977
vt 1.043313 1.377032
vt 1.043313 1.475628
vt 1.204361 1.475628
vt 1.204361 1.377032
vt 0.000362 0.996833
vt 0.981645 0.996833
vt 0.981645 0.864193
vt 0.000362 0.864193
vt 0.823377 0.871582
vt 0.131144 0.871582
vt 0.131144 0.996211
vt 0.823377 0.996211
vt 0.848406 0.878132
vt 0.155714 0.878132
vt 0.155714 0.994384
vt 0.848406 0.994384
vt 0.198075 0.988357
vt 0.812115 0.988357
vt 0.812115 0.863728
vt 0.198075 0.863728
vt 0.163954 0.989896
vt 0.777536 0.989896
vt 0.777536 0.870432
vt 0.163954 0.870432
vt 0.832289 0.880559
vt 0.148985 0.880559
vt 0.148985 0.988401
vt 0.832289 0.988401
vt 0.979182 0.868650
vt 0.002825 0.868650
vt 0.002825 0.992376
vt 0.979182 0.992376
vt 0.920081 0.864193
vt 0.061926 0.864193
vt 0.061926 0.996833
vt 0.920081 0.996833
vt 0.059463 0.994085
vt 0.922544 0.994085
vt 0.922544 0.866941
vt 0.059463 0.866941
vt 0.797379 0.869808
vt 0.218879 0.869807
vt 0.218879 0.980951
vt 0.797379 0.980951
vt 0.148626 0.986166
vt 0.832648 0.986166
vt 0.832648 0.882793
vt 0.148626 0.882793
vt 0.106348 0.988401
vt 0.874927 0.988401
vt 0.874927 0.880559
vt 0.106348 0.880559
vt 0.874567 0.884183
vt 0.106707 0.884183
vt 0.106707 0.984777
vt 0.874567 0.984777
vt -0.012785 0.983692
vt 0.988679 0.983692
vt 0.988679 0.878660
vt -0.012785 0.878660
vt 0.730373 0.902893
vt 0.065660 0.902893
vt 0.065660 0.990414
vt 0.730373 0.990414
vt 0.797379 0.869807
vt 0.218879 0.869807
vt 0.797379 0.980951
vt 0.797379 0.874413
vt 0.218879 0.874413
vt 0.797379 0.980951
vt -0.349325 0.975582
vt 0.510289 0.975582
vt 0.510289 0.879783
vt -0.349325 0.879782
vt -0.011738 0.987476
vt 0.987631 0.987476
vt 0.987631 0.874876
vt -0.011738 0.874876
vt 0.987692 0.877209
vt -0.011799 0.877209
vt -0.011799 0.985143
vt 0.987692 0.985143
vt 0.988739 0.874876
vt -0.012846 0.874876
vt -0.012846 0.987476
vt 0.988739 0.987476
vt 0.500282 0.975582
vt 1.340076 0.975582
vt 1.340076 0.879783
vt 0.500282 0.879783
vt 1.365262 0.881768
vt 0.505780 0.881768
vt 0.505780 0.973597
vt 1.365261 0.973597
vt -0.323817 0.975582
vt -0.323817 0.879783
vt -0.324139 0.972363
vt 0.500092 0.972363
vt 0.500092 0.883002
vt -0.324139 0.883002
vt 0.005582 0.987476
vt 0.970311 0.987476
vt 0.970311 0.874876
vt 0.005582 0.874876
vt 1.340398 0.972363
vt 1.340398 0.883002
vt 1.365584 0.975582
vt 1.365584 0.879783
vt -0.349003 0.881768
vt -0.349003 0.973597
vt -0.010785 0.973597
vt 1.027044 0.973597
vt 1.027044 0.881768
vt -0.010786 0.881768
vt 0.005578 0.985143
vt 0.970315 0.985143
vt 0.970315 0.877209
vt 0.005578 0.877209
vt -0.000438 0.987476
vt 0.976331 0.987476
vt 0.976331 0.874876
vt -0.000438 0.874876
vt 0.976327 0.878659
vt -0.000434 0.878659
vt -0.000434 0.983692
vt 0.976327 0.983692
vt 1.061686 0.874876
vt -0.085793 0.874876
vt -0.085793 0.987476
vt 1.061686 0.987476
vt -0.042477 0.975582
vt 1.058736 0.975582
vt 1.058736 0.879783
vt -0.042477 0.879783
vt 1.057915 0.883002
vt -0.041656 0.883002
vt -0.041656 0.972363
vt 1.057915 0.972363
vt 1.026222 0.879783
vt -0.009964 0.879783
vt -0.009964 0.975582
vt 1.026222 0.975582
vt 1.045062 0.879847
vt -0.028803 0.879846
vt -0.028803 0.975518
vt 1.045062 0.975518
vt -0.085293 0.983692
vt 1.061187 0.983692
vt 1.061187 0.878659
vt -0.085293 0.878659
vt 1.024613 0.874876
vt -0.048719 0.874876
vt -0.048719 0.987476
vt 1.024613 0.987476
vt 1.025113 0.877209
vt -0.049219 0.877209
vt -0.049219 0.985143
vt 1.025113 0.985143
vt 0.342258 0.868972
vt 0.641553 0.868972
vt 0.641553 0.993380
vt 0.342258 0.993380
vt -0.029934 0.973551
vt 1.046192 0.973551
vt 1.046192 0.881814
vt -0.029934 0.881814
vt 1.100376 0.879803
vt -0.084118 0.879803
vt -0.084118 0.975562
vt 1.100376 0.975562
vt 1.099245 0.883003
vt -0.082987 0.883003
vt -0.082987 0.972361
vt 1.099245 0.972361
vt 0.428222 1.006621
vt 0.630833 1.006621
vt 0.630833 0.886606
vt 0.428222 0.886606
vt 0.342258 0.993257
vt 0.641553 0.993257
vt 1.043312 1.475628
vt 1.204361 1.475628
vt 1.043312 1.377032
vt 0.615382 0.886614
vt 0.428222 0.886614
vt 0.428222 0.998612
vt 0.615382 0.998612
vt 0.615382 0.886614
vt 0.615382 1.006621
vt 0.615382 0.883525
vt 0.428222 0.883525
vt 0.615382 0.998612
s 0
usemtl desk_phone
f 11/1/1 3/2/1 9/3/1 14/4/1
f 19/5/2 2/6/2 5/7/2 20/8/2
f 18/9/3 23/10/3 27/11/3 30/12/3
f 3/13/4 5/14/4 10/15/4 9/16/4
f 5/14/4 2/17/4 6/18/4 10/15/4
f 4/19/2 20/8/2 5/7/2 3/20/2 11/21/2 12/22/2
f 1/23/5 4/24/5 8/25/5 7/26/5
f 8/27/6 13/28/6 14/29/6 9/30/6 10/31/6 22/32/6
f 19/33/7 1/34/7 7/35/7 21/36/7
f 11/37/8 14/38/8 13/39/8 12/40/8
f 4/24/5 12/41/5 13/42/5 8/25/5
f 7/43/9 8/44/9 16/45/9 15/46/9
f 22/47/10 10/48/10 17/49/10 24/50/10
f 21/51/11 7/43/11 15/52/11 23/53/11
f 6/54/11 21/51/11 23/53/11 18/55/11
f 8/44/10 22/47/10 24/50/10 16/56/10
f 2/57/7 19/33/7 21/36/7 6/58/7
f 56/59/12 58/60/12 50/61/12 42/62/12 41/63/12 49/64/12 54/65/12 55/66/12
f 1/67/2 19/5/2 20/8/2 4/19/2
f 27/68/6 28/69/6 29/70/6 30/71/6
f 25/72/6 26/73/6 28/69/6 27/68/6
f 23/10/3 15/74/3 25/75/3 27/76/3
f 16/77/13 24/78/13 28/79/13 26/80/13
f 24/78/13 17/81/13 29/82/13 28/83/13
f 15/84/14 16/85/14 26/86/14 25/87/14
f 48/88/15 47/89/15 35/90/15 36/91/15
f 43/92/16 44/93/16 34/94/16 33/95/16
f 45/96/17 39/97/17 40/98/17 46/99/17
f 48/100/18 50/101/18 39/102/18 33/103/18
f 47/104/19 49/105/19 41/106/19 35/107/19
f 31/108/20 37/109/20 38/110/20 32/111/20
f 44/112/21 46/113/21 40/114/21 34/115/21
f 35/116/22 41/117/22 42/118/22 36/119/22
f 43/120/23 45/121/23 37/122/23 31/123/23
f 33/103/24 39/102/24 45/121/24 43/120/24
f 32/124/25 38/125/25 46/113/25 44/112/25
f 31/126/26 32/127/26 44/93/26 43/92/26
f 34/115/27 40/114/27 49/105/27 47/104/27
f 36/128/28 42/129/28 50/101/28 48/100/28
f 39/97/29 50/61/29 49/64/29 40/98/29
f 33/95/30 34/94/30 47/89/30 48/88/30
f 58/60/31 56/59/31 55/66/31 54/65/31
f 51/130/17 53/131/17 57/132/17 52/133/17
f 37/109/32 51/134/32 52/135/32 38/110/32
f 50/136/33 58/137/33 54/138/33 49/139/33
f 38/125/34 52/140/34 57/141/34 46/113/34
f 17/142/35 18/143/35 30/144/35 29/145/35
f 45/146/36 53/147/36 51/148/36 37/149/36
f 46/150/37 57/151/37 53/152/37 45/153/37
f 10/48/38 6/54/38 18/154/38 17/155/38
f 59/156/39 60/157/39 62/158/39 61/159/39
f 64/160/40 68/161/40 70/162/40 66/163/40
f 60/164/41 64/165/41 66/166/41 62/167/41
f 59/168/42 63/169/42 64/170/42 60/171/42
f 61/172/43 65/173/43 63/174/43 59/175/43
f 62/176/44 66/177/44 65/178/44 61/179/44
f 69/180/45 73/181/45 71/182/45 67/183/45
f 63/184/46 67/185/46 68/186/46 64/187/46
f 65/188/47 69/189/47 67/190/47 63/191/47
f 66/192/48 70/193/48 69/194/48 65/195/48
f 72/196/49 76/197/49 78/198/49 74/199/49
f 70/200/50 74/201/50 73/202/50 69/203/50
f 68/204/51 72/205/51 74/206/51 70/207/51
f 67/208/52 71/209/52 72/210/52 68/211/52
f 75/212/53 79/213/53 80/214/53 76/215/53
f 71/216/54 75/217/54 76/218/54 72/219/54
f 73/220/55 77/221/55 75/198/55 71/222/55
f 74/223/56 78/224/56 77/198/56 73/225/56
f 81/226/57 85/227/57 83/228/57 79/229/57
f 77/230/58 81/231/58 79/232/58 75/233/58
f 78/234/59 82/235/59 81/236/59 77/237/59
f 76/238/60 80/239/60 82/240/60 78/241/60
f 84/242/61 88/243/61 90/244/61 86/245/61
f 82/246/62 86/247/62 85/248/62 81/249/62
f 80/250/63 84/242/63 86/245/63 82/251/63
f 79/252/64 83/253/64 84/254/64 80/255/64
f 89/256/65 93/257/65 91/258/65 87/259/65
f 83/253/66 87/260/66 88/261/66 84/254/66
f 85/227/67 89/262/67 87/263/67 83/228/67
f 86/247/68 90/264/68 89/265/68 85/248/68
f 94/266/69 98/267/69 97/268/69 93/269/69
f 90/270/70 94/271/70 93/272/70 89/273/70
f 88/274/71 92/275/71 94/276/71 90/277/71
f 87/278/72 91/279/72 92/280/72 88/281/72
f 96/282/73 100/283/73 102/284/73 98/285/73
f 92/286/74 96/287/74 98/288/74 94/289/74
f 91/290/75 95/291/75 96/292/75 92/293/75
f 93/294/76 97/295/76 95/296/76 91/297/76
f 101/298/77 105/299/77 103/300/77 99/301/77
f 95/302/78 99/303/78 100/304/78 96/305/78
f 97/306/79 101/307/79 99/308/79 95/309/79
f 98/310/80 102/311/80 101/312/80 97/313/80
f 104/314/81 108/315/81 110/316/81 106/317/81
f 102/318/82 106/319/82 105/320/82 101/321/82
f 100/322/83 104/323/83 106/324/83 102/325/83
f 99/326/84 103/327/84 104/328/84 100/329/84
f 108/330/85 112/331/85 114/332/85 110/333/85
f 103/334/86 107/335/86 108/315/86 104/314/86
f 105/314/87 109/315/87 107/335/87 103/334/87
f 106/317/88 110/316/88 109/315/88 105/314/88
f 111/336/89 113/337/89 114/159/89 112/338/89
f 107/339/90 111/340/90 112/341/90 108/342/90
f 109/343/91 113/340/91 111/330/91 107/344/91
f 110/345/92 114/346/92 113/341/92 109/347/92
