# Blender 4.3.2
# www.blender.org
mtllib book_case_small.mtl
o book_case_small
v -0.473606 0.032992 0.244389
v -0.473606 2.467008 0.244389
v -0.473606 0.032992 -0.244389
v -0.473606 2.467008 -0.244389
v -0.500000 0.000000 0.244389
v -0.500000 2.500000 0.244389
v -0.500000 2.500000 -0.244389
v -0.500000 0.000000 -0.244389
v -0.473606 0.521065 -0.244389
v -0.473606 0.498730 -0.244389
v -0.473606 0.498730 0.244389
v -0.473606 0.521065 0.244389
v -0.473606 1.014879 -0.244389
v -0.473606 0.992544 -0.244389
v -0.473606 0.992544 0.244389
v -0.473606 1.506251 -0.244389
v -0.473606 1.483852 -0.244389
v -0.473606 1.506248 0.244389
v -0.473606 1.996565 -0.244389
v -0.473606 1.973742 -0.244389
v -0.473606 1.973760 0.244389
v -0.473606 1.996547 0.244389
v -0.500000 0.521065 0.244389
v -0.500000 0.498730 0.244389
v -0.500000 1.014879 0.244389
v -0.500000 0.992544 0.244389
v -0.500000 1.506248 0.244389
v -0.500000 1.483854 0.244389
v -0.500000 1.996547 0.244389
v -0.500000 1.973760 0.244389
v -0.500000 1.988589 -0.244389
v -0.500000 2.011411 -0.244389
v -0.500000 1.488801 -0.244389
v -0.500000 1.511199 -0.244389
v -0.500000 0.992544 -0.244389
v -0.500000 1.014879 -0.244389
v -0.500000 0.498730 -0.244389
v -0.500000 0.521065 -0.244389
v 0.473606 0.032992 0.244389
v 0.473606 2.467008 0.244389
v 0.473606 0.032992 -0.244389
v 0.473606 2.467008 -0.244389
v 0.500000 0.000000 0.244389
v 0.500000 2.500000 0.244389
v 0.500000 2.500000 -0.244389
v 0.500000 0.000000 -0.244389
v 0.500000 0.521065 0.244389
v 0.500000 0.498730 0.244389
v 0.500000 1.014879 0.244389
v 0.500000 0.992544 0.244389
v 0.500000 1.506248 0.244389
v 0.500000 1.483854 0.244389
v 0.500000 1.996547 0.244389
v 0.500000 1.973760 0.244389
v 0.500000 1.988589 -0.244389
v 0.500000 2.011411 -0.244389
v 0.500000 1.488801 -0.244389
v 0.500000 1.511199 -0.244389
v 0.500000 0.992544 -0.244389
v 0.500000 1.014879 -0.244389
v 0.500000 0.498730 -0.244389
v 0.500000 0.521065 -0.244389
v 0.473606 0.521065 0.244389
v 0.473606 0.498730 0.244389
v 0.473606 1.014879 0.244389
v 0.473606 1.506248 0.244389
v 0.473606 1.483854 0.244389
v 0.473606 1.996547 0.244389
v 0.473606 1.973760 0.244389
v 0.473606 1.973742 -0.244389
v 0.473606 1.996565 -0.244389
v 0.473606 1.483852 -0.244389
v 0.473606 1.506251 -0.244389
v 0.473606 0.992544 -0.244389
v 0.473606 1.014879 -0.244389
v 0.473606 0.498730 -0.244389
v 0.473606 0.521065 -0.244389
v -0.473606 1.014879 0.244389
v -0.473606 1.483854 0.244389
v 0.473606 0.992544 0.244389
v -0.473606 1.996547 0.229602
v -0.473606 1.973760 0.229602
v -0.473606 0.521065 0.229602
v -0.473606 0.498730 0.229602
v 0.473606 1.996547 0.229602
v 0.473606 0.521065 0.229602
v 0.473606 1.973760 0.229602
v 0.473606 1.506248 0.229602
v -0.473606 1.506248 0.229602
v 0.473606 0.498730 0.229602
v 0.473606 1.483854 0.229602
v -0.473606 1.014879 0.229602
v -0.473606 0.992544 0.229602
v -0.473606 1.483854 0.229602
v 0.473606 0.992544 0.229602
v 0.473606 1.014879 0.229602
vn -0.0000 -0.0000 -1.0000
vn -0.0000 -0.0000 1.0000
vn -1.0000 -0.0000 -0.0000
vn 1.0000 -0.0000 -0.0000
vn -0.0000 -1.0000 -0.0000
vn -0.0000 1.0000 -0.0000
vt 0.878578 1.142574
vt 0.728786 1.142574
vt 0.733513 1.159382
vt 0.889082 1.159382
vt 0.313051 0.512064
vt 0.321455 0.533074
vt -0.315356 0.533074
vt -0.306953 0.512064
vt 1.202236 0.512065
vt 0.565424 0.512065
vt 0.573828 0.533075
vt 1.193832 0.533075
vt 0.794405 0.716117
vt 0.954708 0.716117
vt 0.954708 0.404856
vt 0.799138 0.404856
vt 0.251866 0.678199
vt 0.103573 0.678199
vt 0.103573 0.366939
vt 0.251866 0.366939
vt 0.251866 0.668782
vt 0.782885 0.701230
vt 0.782885 0.349572
vt 0.063422 0.349572
vt 0.063422 0.701230
vt 0.409099 0.678199
vt 0.258978 0.678199
vt 0.258978 0.668782
vt 0.258978 0.366939
vt 0.409099 0.366939
vt 0.409099 0.668782
vt 0.721525 0.678200
vt 0.721524 0.668783
vt 0.721519 0.366939
vt 0.728786 0.366939
vt 0.728780 0.668783
vt 0.728780 0.678200
vt 0.878578 0.678200
vt 0.878578 0.366939
vt 0.572666 0.678200
vt 0.572666 0.668783
vt 0.572667 0.366939
vt 0.565535 0.678200
vt 0.416211 0.678200
vt 0.416211 0.668783
vt 0.416211 0.366939
vt 0.565535 0.366939
vt 0.565535 0.668783
vt 0.721519 1.142574
vt 0.572667 1.142573
vt 0.574242 1.159382
vt 0.726246 1.159382
vt 0.565535 1.142573
vt 0.416211 1.142573
vt 0.416211 1.159382
vt 0.567110 1.159382
vt 0.409099 1.142573
vt 0.258978 1.142573
vt 0.258978 1.159381
vt 0.409099 1.159382
vt 0.251866 1.142573
vt 0.103573 1.142573
vt 0.093067 1.159381
vt 0.251866 1.159381
vt 0.324603 0.716116
vt 0.474725 0.716116
vt 0.474725 0.404856
vt 0.324603 0.404856
vt 0.481837 0.716117
vt 0.631161 0.716117
vt 0.632736 0.404856
vt 0.481837 0.404856
vt 0.638291 0.716117
vt 0.787150 0.716117
vt 0.791872 0.404856
vt 0.639868 0.404856
vt 0.158100 -0.097434
vt 0.008302 -0.097435
vt -0.002203 -0.114243
vt 0.158100 -0.114242
vt 0.783307 -0.097434
vt 0.635013 -0.097434
vt 0.635013 -0.114242
vt 0.793812 -0.114242
vt 0.627902 -0.097434
vt 0.477780 -0.097434
vt 0.477780 -0.114242
vt 0.627902 -0.114242
vt 0.470668 -0.097434
vt 0.321344 -0.097434
vt 0.321344 -0.114242
vt 0.470668 -0.114242
vt 0.314214 -0.097434
vt 0.165355 -0.097434
vt 0.165355 -0.114242
vt 0.314214 -0.114242
vt 0.889083 0.569524
vt 0.169620 0.569523
vt 0.179114 0.545787
vt 0.879588 0.545787
vt 0.477099 0.716117
vt -0.159713 0.716116
vt -0.159713 0.404856
vt 0.477099 0.404856
vt 0.707765 0.499352
vt 0.717260 0.475616
vt -0.002203 0.475616
vt 0.007291 0.499352
vt 0.317492 0.404856
vt 0.317492 0.716116
vt 0.158693 0.716116
vt 0.158693 0.404856
vt 0.878578 -0.097434
vt 0.889083 -0.114242
vt 0.733513 -0.114242
vt 0.728786 -0.097434
vt 0.721519 -0.097434
vt 0.726246 -0.114242
vt 0.574243 -0.114242
vt 0.572667 -0.097434
vt 0.565535 -0.097434
vt 0.567111 -0.114242
vt 0.416211 -0.114242
vt 0.416211 -0.097434
vt 0.409099 -0.097434
vt 0.409099 -0.114242
vt 0.258978 -0.114242
vt 0.258978 -0.097434
vt 0.251866 -0.097434
vt 0.251866 -0.114242
vt 0.093067 -0.114242
vt 0.103573 -0.097434
vt 0.158099 1.142573
vt 0.158099 1.159381
vt -0.002203 1.159381
vt 0.008302 1.142573
vt 0.783307 1.142574
vt 0.793812 1.159382
vt 0.635013 1.159382
vt 0.635013 1.142574
vt 0.627901 1.142574
vt 0.627901 1.159382
vt 0.477780 1.159382
vt 0.477780 1.142574
vt 0.470668 1.142574
vt 0.470668 1.159382
vt 0.321344 1.159381
vt 0.321344 1.142573
vt 0.314213 1.142573
vt 0.314213 1.159381
vt 0.165355 1.159381
vt 0.165355 1.142573
vt 0.804719 0.387862
vt 0.145524 0.387862
vt 0.145524 0.403314
vt 0.804719 0.403314
vt 1.019204 0.488636
vt 0.318731 0.488636
vt 0.318731 0.504706
vt 1.019204 0.504706
vt 0.787692 0.383882
vt 0.087218 0.383882
vt 0.087218 0.399997
vt 0.787692 0.399997
vt 0.763806 0.789970
vt 0.063332 0.789970
vt 0.063332 0.806039
vt 0.763806 0.806039
vt 0.707765 0.311655
vt 0.707765 0.663313
vt 0.007291 0.663313
vt 0.007291 0.311655
vt 0.170883 1.142573
vt 0.170883 -0.097434
vt 0.015252 -0.097434
vt 0.015252 1.142573
vt 0.804719 0.403302
vt 0.145524 0.403302
vt 0.145524 0.387874
vt 0.804719 0.387874
vt 0.787692 0.399995
vt 0.087218 0.399995
vt 0.087218 0.383883
vt 0.787692 0.383883
vt 0.763806 0.973834
vt 0.063332 0.973834
vt 0.063332 0.632815
vt 0.763806 0.632815
vt 0.787692 0.567768
vt 0.087218 0.567768
vt 0.087218 0.226749
vt 0.787692 0.226749
vt 0.145524 0.240133
vt 0.145524 0.561056
vt 0.804719 0.561056
vt 0.804719 0.240133
vt 0.318731 0.331481
vt 0.318731 0.672500
vt 1.019204 0.672500
vt 1.019204 0.331481
vt 0.145524 0.240133
vt 0.318731 0.331481
vt 0.087218 0.226749
s 0
usemtl bookcase
f 4/1/1 19/2/1 32/3/1 7/4/1
f 40/5/2 44/6/2 6/7/2 2/8/2
f 7/9/1 45/10/1 42/11/1 4/12/1
f 29/13/3 6/14/3 7/15/3 32/16/3
f 11/17/4 1/18/4 3/19/4 10/20/4 84/21/4
f 46/22/5 43/23/5 5/24/5 8/25/5
f 15/26/4 12/27/4 83/28/4 9/29/4 14/30/4 93/31/4
f 21/32/4 82/33/4 20/34/4 19/35/4 81/36/4 22/37/4
f 2/38/4 22/37/4 81/36/4 19/35/4 4/39/4
f 21/32/4 18/40/4 89/41/4 16/42/4 20/34/4 82/33/4
f 79/43/4 78/44/4 92/45/4 13/46/4 17/47/4 94/48/4
f 20/49/1 16/50/1 34/51/1 31/52/1
f 17/53/1 13/54/1 36/55/1 33/56/1
f 14/57/1 9/58/1 38/59/1 35/60/1
f 10/61/1 3/62/1 8/63/1 37/64/1
f 23/65/3 26/66/3 35/67/3 38/68/3
f 25/69/3 28/70/3 33/71/3 36/72/3
f 27/73/3 30/74/3 31/75/3 34/76/3
f 22/77/2 2/78/2 6/79/2 29/80/2
f 1/81/2 11/82/2 24/83/2 5/84/2
f 12/85/2 15/86/2 26/87/2 23/88/2
f 78/89/2 79/90/2 28/91/2 25/92/2
f 18/93/2 21/94/2 30/95/2 27/96/2
f 5/97/2 43/98/2 39/99/2 1/100/2
f 6/101/6 44/102/6 45/103/6 7/104/6
f 41/105/1 46/106/1 8/107/1 3/108/1
f 20/49/1 31/52/1 32/3/1 19/2/1
f 17/53/1 33/56/1 34/51/1 16/50/1
f 14/57/1 35/60/1 36/55/1 13/54/1
f 10/61/1 37/64/1 38/59/1 9/58/1
f 12/85/2 23/88/2 24/83/2 11/82/2
f 78/89/2 25/92/2 26/87/2 15/86/2
f 18/93/2 27/96/2 28/91/2 79/90/2
f 22/77/2 29/80/2 30/95/2 21/94/2
f 23/65/3 38/68/3 37/109/3 24/110/3
f 25/69/3 36/72/3 35/67/3 26/66/3
f 27/73/3 34/76/3 33/71/3 28/70/3
f 29/13/3 32/16/3 31/75/3 30/74/3
f 5/111/3 24/110/3 37/109/3 8/112/3
f 79/43/4 94/48/4 17/47/4 16/42/4 89/41/4 18/40/4
f 15/26/4 93/31/4 14/30/4 13/46/4 92/45/4 78/44/4
f 11/17/4 84/21/4 10/20/4 9/29/4 83/28/4 12/27/4
f 42/113/1 45/114/1 56/115/1 71/116/1
f 53/13/4 56/16/4 45/15/4 44/14/4
f 64/17/3 90/21/3 76/20/3 41/19/3 39/18/3
f 80/26/3 95/31/3 74/30/3 77/29/3 86/28/3 63/27/3
f 40/38/3 42/39/3 71/35/3 85/36/3 68/37/3
f 69/32/3 87/33/3 70/34/3 73/42/3 88/41/3 66/40/3
f 67/43/3 91/48/3 72/47/3 75/46/3 96/45/3 65/44/3
f 70/117/1 55/118/1 58/119/1 73/120/1
f 72/121/1 57/122/1 60/123/1 75/124/1
f 74/125/1 59/126/1 62/127/1 77/128/1
f 76/129/1 61/130/1 46/131/1 41/132/1
f 47/65/4 62/68/4 59/67/4 50/66/4
f 49/69/4 60/72/4 57/71/4 52/70/4
f 51/73/4 58/76/4 55/75/4 54/74/4
f 68/133/2 53/134/2 44/135/2 40/136/2
f 39/137/2 43/138/2 48/139/2 64/140/2
f 63/141/2 47/142/2 50/143/2 80/144/2
f 65/145/2 49/146/2 52/147/2 67/148/2
f 66/149/2 51/150/2 54/151/2 69/152/2
f 70/117/1 71/116/1 56/115/1 55/118/1
f 72/121/1 73/120/1 58/119/1 57/122/1
f 74/125/1 75/124/1 60/123/1 59/126/1
f 76/129/1 77/128/1 62/127/1 61/130/1
f 63/141/2 64/140/2 48/139/2 47/142/2
f 65/145/2 80/144/2 50/143/2 49/146/2
f 66/149/2 67/148/2 52/147/2 51/150/2
f 68/133/2 69/152/2 54/151/2 53/134/2
f 47/65/4 48/110/4 61/109/4 62/68/4
f 49/69/4 50/66/4 59/67/4 60/72/4
f 51/73/4 52/70/4 57/71/4 58/76/4
f 53/13/4 54/74/4 55/75/4 56/16/4
f 43/111/4 46/112/4 61/109/4 48/110/4
f 70/153/1 20/154/1 19/155/1 71/156/1
f 74/157/1 14/158/1 13/159/1 75/160/1
f 72/161/1 17/162/1 16/163/1 73/164/1
f 76/165/1 10/166/1 9/167/1 77/168/1
f 39/169/6 41/170/6 3/171/6 1/172/6
f 4/173/5 42/174/5 40/175/5 2/176/5
f 12/27/4 11/17/4 84/21/4 83/28/4
f 67/148/3 66/149/3 88/149/3 91/148/3
f 22/77/4 21/94/4 82/94/4 81/77/4
f 64/140/3 63/141/3 86/141/3 90/140/3
f 96/160/2 92/159/2 93/158/2 95/157/2
f 85/177/2 81/178/2 82/179/2 87/180/2
f 88/181/2 89/182/2 94/183/2 91/184/2
f 86/168/2 83/167/2 84/166/2 90/165/2
f 78/44/4 15/26/4 93/31/4 92/45/4
f 18/40/4 79/43/4 94/48/4 89/41/4
f 80/144/3 65/145/3 96/145/3 95/144/3
f 69/152/3 68/133/3 85/133/3 87/152/3
f 77/185/6 9/186/6 83/187/6 86/188/6
f 73/189/6 16/190/6 89/191/6 88/192/6
f 82/193/5 20/194/5 70/195/5 87/196/5
f 93/197/5 14/198/5 74/199/5 95/200/5
f 71/195/6 19/194/6 81/201/6 85/196/6
f 75/199/6 13/198/6 92/202/6 96/200/6
f 94/203/5 17/190/5 72/189/5 91/192/5
f 84/187/5 10/186/5 76/185/5 90/188/5
