# Blender 4.3.2
# www.blender.org
mtllib books_alt.mtl
o books_alt
v 0.076768 0.000000 0.112515
v 0.076768 0.000000 -0.112515
v 0.139402 0.283835 -0.112515
v 0.139402 0.283835 0.112515
v 0.139402 0.000000 0.112515
v 0.139402 0.000000 -0.112515
v 0.209686 0.283835 -0.112515
v 0.209686 0.283835 0.112515
v 0.209686 0.000000 0.112515
v 0.209686 0.000000 -0.112515
v 0.271585 0.283835 -0.112515
v 0.271585 0.283835 0.112515
v 0.271585 0.000000 0.112515
v 0.271585 0.000000 -0.112515
v 0.310342 0.283835 -0.112515
v 0.310342 0.283835 0.112515
v 0.310342 0.000000 0.112515
v 0.310342 0.000000 -0.112515
v 0.373074 0.000000 0.112515
v 0.373074 0.000000 -0.112515
v 0.076768 0.245243 -0.112515
v 0.076768 0.245243 0.112515
v 0.139402 0.245243 -0.112515
v 0.139402 0.245243 0.112515
v 0.209686 0.361842 0.112515
v 0.209686 0.361842 -0.112515
v 0.139402 0.361842 0.112515
v 0.139402 0.361842 -0.112515
v 0.209686 0.313700 -0.112515
v 0.209686 0.313700 0.112515
v 0.271585 0.313700 -0.112515
v 0.271585 0.313700 0.112515
v 0.310342 0.213459 -0.112515
v 0.310342 0.213459 0.112515
v 0.373074 0.213459 -0.112515
v 0.373074 0.213459 0.112515
v 0.279371 0.283835 -0.103248
v 0.279371 0.283835 0.099804
v 0.302556 0.283835 0.099804
v 0.302556 0.283835 -0.103248
v 0.084554 0.245243 -0.103248
v 0.084554 0.245243 0.099804
v 0.131616 0.245243 0.099804
v 0.131616 0.245243 -0.103248
v 0.147188 0.361842 -0.103248
v 0.147188 0.361842 0.099804
v 0.201900 0.361842 0.099804
v 0.201900 0.361842 -0.103248
v 0.217472 0.313700 -0.103248
v 0.217472 0.313700 0.099804
v 0.263799 0.313700 0.099804
v 0.263799 0.313700 -0.103248
v 0.318129 0.213459 -0.103248
v 0.318129 0.213459 0.099804
v 0.365288 0.213459 0.099804
v 0.365288 0.213459 -0.103248
v 0.423229 0.002021 0.112515
v 0.423229 0.002021 -0.112515
v 0.469145 0.011585 0.112515
v 0.469145 0.011585 -0.112515
v 0.373073 0.242833 -0.112515
v 0.373073 0.242833 0.112515
v 0.418989 0.252396 -0.112515
v 0.418989 0.252396 0.112515
v 0.380696 0.244421 -0.103248
v 0.380696 0.244421 0.099804
v 0.411367 0.250809 0.099804
v 0.411367 0.250809 -0.103248
vn -0.0000 -0.0000 1.0000
vn -0.0000 -1.0000 -0.0000
vn -1.0000 -0.0000 -0.0000
vn -0.0000 -0.0000 -1.0000
vn -0.0000 1.0000 -0.0000
vn 1.0000 -0.0000 -0.0000
vn 0.2039 -0.9790 -0.0000
vn -0.2039 0.9790 -0.0000
vn 0.9790 0.2039 -0.0000
vn -0.9790 -0.2039 -0.0000
vt 0.687860 0.770048
vt 0.781843 0.770048
vt 0.781843 0.849919
vt 0.781843 0.978670
vt 0.687860 0.978670
vt 0.250001 1.870551
vt 0.463203 1.870551
vt 0.463203 2.058518
vt 0.250001 2.058518
vt 0.703187 0.412763
vt 0.703187 0.701364
vt 0.773787 0.701364
vt 0.773787 0.412763
vt 0.250001 1.703045
vt 0.463203 1.703045
vt 0.463203 1.870551
vt 0.737766 0.710399
vt 0.737766 0.412763
vt 0.773787 0.710399
vt 0.019332 0.963657
vt 0.019332 0.905677
vt 0.005344 0.905677
vt 0.005344 0.963657
vt 0.149539 0.918006
vt 0.045964 0.918006
vt 0.029665 0.918006
vt 0.029665 0.977374
vt 0.149539 0.977374
vt 0.687860 0.666840
vt 0.687860 0.010970
vt 0.781843 0.010970
vt 0.143975 0.907916
vt 0.011189 0.907916
vt 0.011189 0.944180
vt 0.044113 0.944180
vt 0.143975 0.944180
vt 0.152266 0.905677
vt 0.152266 0.963657
vt 0.864613 0.010970
vt 0.864613 0.770048
vt 0.463204 2.224058
vt 0.250001 2.224058
vt 0.250001 2.327710
vt 0.463204 2.327710
vt 0.463204 2.495479
vt 0.250002 2.495478
vt 0.916439 0.010970
vt 0.916439 0.581837
vt 0.916439 0.770048
vt 0.463204 2.327711
vt 0.139755 0.935933
vt 0.007867 0.935934
vt 0.007867 0.978443
vt 0.139755 0.978443
vt 0.921337 0.552096
vt 0.921337 0.161254
vt 0.999159 0.161254
vt 0.999159 0.552096
vt 0.912392 0.237508
vt 0.912392 0.414490
vt 0.873333 0.414490
vt 0.873333 0.237508
vt 1.000323 0.010970
vt 1.000323 0.581838
vt 0.139755 0.892159
vt 0.007867 0.892159
vt 0.139755 0.978443
vt 0.134895 0.882026
vt 0.005652 0.882026
vt 0.005652 0.948041
vt 0.134895 0.948041
vt -0.003280 0.918006
vt -0.003280 0.977374
vt 0.017052 0.977374
vt 0.139755 0.878131
vt 0.007867 0.878131
vt 0.139755 0.978443
vt 0.604107 0.666840
vt 0.604108 0.010970
vt 0.687860 0.666840
vt 0.139755 0.893506
vt 0.007867 0.893506
vt 0.139755 0.978443
vt 0.463204 2.058518
vt 0.250001 2.058518
vt 0.781843 0.671618
vt 0.864613 0.671618
vt 0.864613 0.751488
vt 0.781843 0.751488
vt 0.809793 0.724649
vt 0.809793 0.329574
vt 0.846794 0.329574
vt 0.846794 0.724649
vt 0.706402 0.522938
vt 0.706402 0.120569
vt 0.767149 0.120569
vt 0.767149 0.522938
vt 0.139755 0.891978
vt 0.007867 0.891978
vt 0.139755 0.978443
vt 0.138162 0.895837
vt 0.020783 0.895837
vt 0.020783 0.964828
vt 0.138162 0.964828
vt 0.869160 0.429454
vt 0.869160 0.048805
vt 0.878454 0.070306
vt 0.878454 0.413778
vt 0.915425 0.048806
vt 0.906131 0.070307
vt 0.915425 0.429454
vt 0.906130 0.413778
vt 0.906130 0.070307
vt 0.145774 0.992718
vt 0.145774 0.921658
vt 0.139755 0.935934
vt 0.686477 0.497583
vt 0.686477 0.100757
vt 0.676788 0.123172
vt 0.676788 0.481242
vt 0.608534 0.100758
vt 0.618224 0.123173
vt 0.676788 0.123172
vt 0.608534 0.497584
vt 0.618223 0.481242
vt 0.618223 0.123173
vt 0.145774 0.992718
vt 0.145774 0.877883
vt 0.139755 0.892159
vt 0.694324 0.611308
vt 0.694324 0.232850
vt 0.703565 0.254228
vt 0.703565 0.595723
vt 0.777739 0.232851
vt 0.768499 0.254228
vt 0.703565 0.254228
vt 0.777739 0.611309
vt 0.768499 0.595724
vt 0.768499 0.254228
vt 0.145774 0.992718
vt 0.145774 0.863856
vt 0.139755 0.878131
vt 0.856359 0.696128
vt 0.856359 0.338241
vt 0.847620 0.358456
vt 0.847620 0.681390
vt 0.786889 0.338241
vt 0.795627 0.358457
vt 0.786889 0.696128
vt 0.795627 0.681390
vt 0.795628 0.358457
vt 0.145774 0.879231
vt 0.139755 0.978443
vt 0.922087 0.555556
vt 0.922087 0.168885
vt 0.931529 0.190726
vt 0.931529 0.539632
vt 0.998155 0.168885
vt 0.988714 0.190727
vt 0.998155 0.555557
vt 0.988714 0.539633
vt 0.988714 0.190727
vt 0.145774 0.992718
vt 0.145774 0.877703
vt 0.139755 0.891978
vt 0.611537 0.271974
vt 0.611537 0.510088
vt 0.688941 0.510088
vt 0.688941 0.271974
vt 0.250000 1.433611
vt 0.463203 1.433611
vt 0.463203 1.559042
vt 0.250000 1.559042
vt 0.139755 0.917164
vt 0.007867 0.917164
vt 0.007867 0.974604
vt 0.139755 0.974604
vt 0.147119 0.903391
vt 0.010844 0.903391
vt 0.010844 0.955358
vt 0.147119 0.955358
vt 0.469391 0.668810
vt 0.469391 0.010971
vt 0.532106 0.010971
vt 0.532106 0.668810
vt 0.529986 0.458605
vt 0.529986 0.065714
vt 0.520393 0.087906
vt 0.520393 0.442426
vt 0.472200 0.065714
vt 0.481793 0.087907
vt 0.472200 0.458606
vt 0.481793 0.442426
vt 0.481793 0.087907
vt 0.145774 0.988879
vt 0.145774 0.902889
vt 0.139755 0.974603
vt 0.533435 0.437399
vt 0.472925 0.437399
vt 0.472925 0.106224
vt 0.533435 0.106224
vt 0.532310 0.460944
vt 0.532310 0.056697
vt 0.471697 0.056697
vt 0.471697 0.460944
s 0
usemtl books
f 4/1/1 8/2/1 30/3/1 25/4/1 27/5/1
f 5/6/2 6/7/2 10/8/2 9/9/2
f 3/10/3 4/11/3 27/12/3 28/13/3
f 1/14/2 2/15/2 6/16/2 5/6/2
f 4/17/3 3/18/3 23/13/3 24/19/3
f 11/20/4 7/21/4 29/22/4 31/23/4
f 6/24/4 23/25/4 3/26/4 7/27/4 10/28/4
f 4/1/1 24/29/1 5/30/1 9/31/1 8/2/1
f 14/32/4 11/33/4 15/34/4 33/35/4 18/36/4
f 10/37/4 7/21/4 11/20/4 14/38/4
f 8/2/1 9/31/1 13/39/1 12/40/1
f 9/9/2 10/8/2 14/41/2 13/42/2
f 17/43/2 18/44/2 20/45/2 19/46/2
f 12/40/1 13/39/1 17/47/1 34/48/1 16/49/1
f 13/42/2 14/41/2 18/50/2 17/43/2
f 37/51/5 38/52/5 39/53/5 40/54/5
f 36/55/6 19/56/6 20/57/6 35/58/6
f 15/59/6 16/60/6 34/61/6 33/62/6
f 34/48/1 17/47/1 19/63/1 36/64/1
f 41/65/5 42/66/5 43/53/5 44/67/5
f 2/68/4 21/69/4 23/70/4 6/71/4
f 7/27/4 3/26/4 28/72/4 26/73/4 29/74/4
f 45/75/5 46/76/5 47/53/5 48/77/5
f 22/78/1 1/79/1 5/30/1 24/80/1
f 49/81/5 50/82/5 51/53/5 52/83/5
f 7/84/3 8/85/3 30/85/3 29/84/3
f 8/86/1 12/87/1 32/88/1 30/89/1
f 12/90/6 11/91/6 31/92/6 32/93/6
f 30/94/6 29/95/6 26/96/6 25/97/6
f 53/98/5 54/99/5 55/53/5 56/100/5
f 18/101/4 33/102/4 35/103/4 20/104/4
f 11/105/5 12/106/5 38/107/5 37/108/5
f 12/106/5 16/109/5 39/110/5 38/107/5
f 16/109/5 15/111/5 40/112/5 39/113/5
f 15/114/5 11/115/5 37/116/5 40/100/5
f 21/117/5 22/118/5 42/119/5 41/120/5
f 22/118/5 24/121/5 43/122/5 42/123/5
f 24/121/5 23/124/5 44/125/5 43/126/5
f 23/127/5 21/128/5 41/129/5 44/67/5
f 28/130/5 27/131/5 46/132/5 45/133/5
f 27/131/5 25/134/5 47/135/5 46/136/5
f 25/134/5 26/137/5 48/138/5 47/139/5
f 26/140/5 28/141/5 45/142/5 48/67/5
f 29/143/5 30/144/5 50/145/5 49/146/5
f 30/144/5 32/147/5 51/148/5 50/145/5
f 32/147/5 31/149/5 52/150/5 51/151/5
f 31/140/5 29/152/5 49/81/5 52/153/5
f 33/154/5 34/155/5 54/156/5 53/157/5
f 34/155/5 36/158/5 55/159/5 54/156/5
f 36/158/5 35/160/5 56/161/5 55/162/5
f 35/163/5 33/164/5 53/165/5 56/67/5
f 1/166/3 22/167/3 21/168/3 2/169/3
f 57/170/7 58/171/7 60/172/7 59/173/7
f 65/174/8 66/175/8 67/176/8 68/177/8
f 58/178/4 61/179/4 63/180/4 60/181/4
f 62/182/1 57/183/1 59/184/1 64/185/1
f 61/186/8 62/187/8 66/188/8 65/189/8
f 62/187/8 64/190/8 67/191/8 66/188/8
f 64/190/8 63/192/8 68/193/8 67/194/8
f 63/195/8 61/196/8 65/174/8 68/197/8
f 63/198/9 64/199/9 59/200/9 60/201/9
f 61/202/10 58/203/10 57/204/10 62/205/10
