# Blender 4.3.2
# www.blender.org
mtllib books_alt2.mtl
o books_alt2
v -0.131225 0.283835 0.112515
v -0.131225 0.000000 0.112515
v -0.131225 0.283835 -0.112515
v -0.131225 0.000000 -0.112515
v -0.070685 0.283835 -0.112515
v -0.070685 0.283835 0.112515
v -0.070685 0.000000 0.112515
v -0.070685 0.000000 -0.112515
v -0.000046 0.283835 -0.112515
v -0.000046 0.283835 0.112515
v -0.000046 0.000000 0.112515
v -0.000046 0.000000 -0.112515
v 0.068247 0.283835 -0.112515
v 0.068247 0.283835 0.112515
v 0.068247 0.000000 0.112515
v 0.068247 0.000000 -0.112515
v 0.217871 0.307168 0.112515
v 0.217871 0.307168 -0.112515
v 0.114428 0.000000 0.112515
v 0.114428 0.000000 -0.112515
v 0.170626 0.283835 -0.112515
v 0.170626 0.283835 0.112515
v 0.170626 0.000000 0.112515
v 0.170626 0.000000 -0.112515
v 0.217871 0.283835 -0.112515
v 0.217871 0.283835 0.112515
v 0.217871 0.000000 0.112515
v 0.217871 0.000000 -0.112515
v 0.264772 0.000000 0.112515
v 0.264772 0.000000 -0.112515
v -0.070685 0.291475 -0.112515
v -0.070685 0.291475 0.112515
v -0.000046 0.291475 -0.112515
v -0.000046 0.291475 0.112515
v -0.000046 0.339119 -0.112515
v -0.000046 0.339119 0.112515
v 0.068247 0.339119 -0.112515
v 0.068247 0.339119 0.112515
v 0.068247 0.262635 -0.112515
v 0.068247 0.262635 0.112515
v 0.114428 0.262635 -0.112515
v 0.114428 0.262635 0.112515
v 0.170626 0.238313 0.112515
v 0.170626 0.238313 -0.112515
v 0.114428 0.238313 0.112515
v 0.114428 0.238313 -0.112515
v 0.170626 0.307168 0.112515
v 0.170626 0.307168 -0.112515
v 0.217871 0.245980 -0.112515
v 0.217871 0.245980 0.112515
v 0.264772 0.245980 -0.112515
v 0.264772 0.245980 0.112515
v -0.123439 0.283835 -0.103248
v -0.123439 0.283835 0.099804
v -0.078471 0.283835 0.099804
v -0.078471 0.283835 -0.103248
v 0.178413 0.307168 -0.103248
v 0.178413 0.307168 0.099804
v 0.210085 0.307168 0.099804
v 0.210085 0.307168 -0.103248
v -0.062899 0.291475 -0.103248
v -0.062899 0.291475 0.099804
v -0.007832 0.291475 0.099804
v -0.007832 0.291475 -0.103248
v 0.007740 0.339119 -0.103248
v 0.007740 0.339119 0.099804
v 0.060461 0.339119 0.099804
v 0.060461 0.339119 -0.103248
v 0.076033 0.262635 -0.103248
v 0.076033 0.262635 0.099804
v 0.106642 0.262635 0.099804
v 0.106642 0.262635 -0.103248
v 0.122214 0.238313 -0.103248
v 0.122214 0.238313 0.099804
v 0.162840 0.238313 0.099804
v 0.162840 0.238313 -0.103248
v 0.225657 0.245980 -0.103248
v 0.225657 0.245980 0.099804
v 0.256986 0.245980 0.099804
v 0.256986 0.245980 -0.103248
v -0.010531 0.402258 0.112515
v -0.010531 0.402258 -0.112515
v -0.020333 0.356393 0.112515
v -0.020333 0.356393 -0.112515
v 0.230016 0.350845 -0.112515
v 0.230016 0.350845 0.112515
v 0.220213 0.304980 -0.112515
v 0.220213 0.304980 0.112515
v 0.228389 0.343231 -0.103248
v 0.228389 0.343231 0.099804
v 0.221841 0.312594 0.099804
v 0.221841 0.312594 -0.103248
v -0.192174 0.288165 -0.112515
v -0.192174 0.288165 0.112515
v -0.264772 0.013772 0.112515
v -0.264772 0.013772 -0.112515
v -0.140120 0.274393 -0.112515
v -0.140120 0.274393 0.112515
v -0.212718 0.000000 0.112515
v -0.212718 0.000000 -0.112515
v -0.201856 0.251570 -0.112515
v -0.201856 0.251570 0.112515
v -0.184495 0.317189 -0.112515
v -0.184495 0.317189 0.112515
v -0.132441 0.303416 -0.112515
v -0.132441 0.303416 0.112515
v -0.149990 0.237085 -0.112515
v -0.149990 0.237085 0.112515
v -0.176968 0.315197 0.099804
v -0.139968 0.305408 0.099804
v -0.139968 0.305408 -0.103248
v -0.176969 0.315197 -0.103248
vn -1.0000 -0.0000 -0.0000
vn -0.0000 -0.0000 -1.0000
vn -0.0000 -1.0000 -0.0000
vn -0.0000 1.0000 -0.0000
vn -0.0000 -0.0000 1.0000
vn 1.0000 -0.0000 -0.0000
vn -0.9779 0.2090 -0.0000
vn 0.9779 -0.2090 -0.0000
vn -0.2090 -0.9779 -0.0000
vn 0.2090 0.9779 -0.0000
vn -0.2558 -0.9667 -0.0000
vn -0.9667 0.2558 -0.0000
vn 0.2558 0.9667 -0.0000
vn 0.9667 -0.2558 -0.0000
vt 0.474501 0.380206
vt 0.539958 0.380207
vt 0.539958 0.147153
vt 0.474501 0.147153
vt 0.128363 0.912929
vt 0.031680 0.912929
vt 0.031680 0.961053
vt 0.128363 0.961053
vt 0.250000 0.500000
vt 0.463202 0.500000
vt 0.463202 0.661905
vt 0.250000 0.661905
vt 0.139755 0.892159
vt 0.007867 0.892159
vt 0.007867 0.974604
vt 0.139755 0.974604
vt 0.118267 0.957496
vt 0.021584 0.957496
vt 0.021584 0.998740
vt 0.118268 0.998740
vt 0.002586 0.770049
vt 0.002586 0.010971
vt 0.083538 0.010971
vt 0.083538 0.770048
vt 0.128363 0.925719
vt 0.031680 0.925719
vt 0.031680 0.972244
vt 0.038901 0.972244
vt 0.128363 0.972244
vt 0.177996 0.010971
vt 0.177996 0.770048
vt 0.463202 0.661905
vt 0.463202 0.850820
vt 0.250000 0.850820
vt 0.029078 0.912929
vt 0.029078 0.961052
vt 0.438261 0.240987
vt 0.438261 0.699734
vt 0.466781 0.699734
vt 0.466781 0.240987
vt 0.269316 0.010971
vt 0.269316 0.713354
vt 0.269316 0.770048
vt 0.463202 0.850820
vt 0.463202 1.033461
vt 0.250000 1.033461
vt 0.029078 0.925719
vt 0.012848 0.925718
vt 0.012848 0.972244
vt 0.250000 1.156965
vt 0.463202 1.156965
vt 0.463203 1.307261
vt 0.250000 1.307261
vt 0.463202 1.033461
vt 0.463203 1.156965
vt 0.326522 0.519088
vt 0.307371 0.519088
vt 0.307371 0.268011
vt 0.326522 0.268011
vt 0.406216 0.770048
vt 0.469391 0.770048
vt 0.469391 0.832449
vt 0.406216 0.832449
vt 0.146868 0.883720
vt 0.039066 0.883720
vt 0.018474 0.883720
vt 0.018474 0.971463
vt 0.035598 0.971463
vt 0.146868 0.971463
vt 0.466781 0.240987
vt 0.406340 0.240987
vt 0.406340 0.699734
vt 0.445360 0.349907
vt 0.466866 0.349907
vt 0.466866 0.643815
vt 0.445360 0.643815
vt 0.410470 0.643815
vt 0.410470 0.349907
vt 0.131139 0.927846
vt 0.010352 0.927846
vt 0.010352 0.981029
vt 0.131139 0.981029
vt 0.250000 1.433611
vt 0.463203 1.433611
vt 0.463203 1.559042
vt 0.250000 1.559042
vt 0.406216 0.648306
vt 0.406216 0.010971
vt 0.469391 0.010971
vt 0.469391 0.668810
vt 0.463203 1.433611
vt 0.007919 0.883720
vt 0.007919 0.971464
vt 0.131139 0.875545
vt 0.010352 0.875545
vt 0.010352 0.968009
vt 0.131139 0.968009
vt 0.250000 0.850820
vt 0.463202 0.850820
vt 0.177996 0.790480
vt 0.083538 0.790480
vt 0.176641 0.709581
vt 0.085898 0.709581
vt 0.085898 0.718277
vt 0.176641 0.718277
vt 0.131139 0.892504
vt 0.010352 0.892504
vt 0.131139 0.981028
vt 0.303117 0.750108
vt 0.303117 0.827390
vt 0.191674 0.827390
vt 0.191674 0.750108
vt 0.191674 0.720473
vt 0.303117 0.720473
vt 0.269316 0.917898
vt 0.177996 0.917898
vt 0.177996 0.790480
vt 0.185738 0.802776
vt 0.301922 0.802776
vt 0.301922 0.733340
vt 0.185738 0.733340
vt 0.131139 0.892504
vt 0.010352 0.943899
vt 0.131139 0.943899
vt 0.151802 0.902530
vt 0.016176 0.902530
vt 0.016176 0.966497
vt 0.151802 0.966497
vt 0.331068 0.010971
vt 0.331068 0.648306
vt 0.331068 0.713354
vt 0.144876 0.912853
vt 0.004721 0.912853
vt 0.004721 0.962141
vt 0.017701 0.962141
vt 0.144876 0.962141
vt 0.131139 0.912812
vt 0.010352 0.912812
vt 0.131139 0.981029
vt 0.406216 0.641997
vt 0.333592 0.641997
vt 0.333592 0.010971
vt 0.139755 0.917164
vt 0.007867 0.917164
vt 0.139755 0.974604
vt 0.147119 0.903391
vt 0.010844 0.903391
vt 0.010844 0.955358
vt 0.147119 0.955358
vt 0.532106 0.010971
vt 0.532106 0.668810
vt 0.074255 0.682398
vt 0.074255 0.323694
vt 0.065496 0.343955
vt 0.065496 0.667626
vt 0.006155 0.323694
vt 0.014913 0.343955
vt 0.006155 0.682398
vt 0.014913 0.667626
vt 0.014913 0.343955
vt 0.145774 0.988879
vt 0.145774 0.877883
vt 0.139755 0.974604
vt 0.468663 0.720103
vt 0.468663 0.314641
vt 0.458763 0.337544
vt 0.458763 0.703405
vt 0.408591 0.314641
vt 0.418491 0.337544
vt 0.458763 0.337544
vt 0.408591 0.720103
vt 0.418491 0.703406
vt 0.136651 0.994103
vt 0.136651 0.914773
vt 0.131139 0.981029
vt 0.178060 0.696097
vt 0.178060 0.269692
vt 0.167648 0.293778
vt 0.167648 0.678537
vt 0.083602 0.269692
vt 0.094014 0.293778
vt 0.167648 0.293778
vt 0.083602 0.696097
vt 0.094014 0.678537
vt 0.094014 0.293778
vt 0.136651 0.981083
vt 0.136651 0.862471
vt 0.269502 0.776939
vt 0.269502 0.350534
vt 0.259091 0.374620
vt 0.259091 0.759379
vt 0.178182 0.350535
vt 0.188593 0.374620
vt 0.259091 0.374620
vt 0.178182 0.776939
vt 0.188593 0.759380
vt 0.188593 0.374620
vt 0.136651 0.994102
vt 0.136651 0.879430
vt 0.331830 0.685162
vt 0.331830 0.258757
vt 0.321418 0.282843
vt 0.321418 0.667602
vt 0.270078 0.258758
vt 0.280489 0.282843
vt 0.321418 0.282843
vt 0.270078 0.685162
vt 0.280489 0.667602
vt 0.280489 0.282843
vt 0.136651 0.956973
vt 0.136651 0.879430
vt 0.131139 0.892504
vt 0.402580 0.573031
vt 0.402580 0.146627
vt 0.393576 0.170712
vt 0.393576 0.555471
vt 0.337589 0.146627
vt 0.346593 0.170712
vt 0.337589 0.573031
vt 0.346593 0.555472
vt 0.346593 0.170713
vt 0.136651 0.994103
vt 0.136651 0.899738
vt 0.131139 0.912812
vt 0.529986 0.458605
vt 0.529986 0.065714
vt 0.520393 0.087906
vt 0.520393 0.442426
vt 0.472200 0.065714
vt 0.481793 0.087907
vt 0.472200 0.458606
vt 0.481793 0.442426
vt 0.481793 0.087907
vt 0.145774 0.988879
vt 0.145774 0.902889
vt 0.139755 0.974603
vt 0.533435 0.437399
vt 0.472925 0.437399
vt 0.472925 0.106224
vt 0.533435 0.106224
vt 0.532310 0.460944
vt 0.532310 0.056697
vt 0.471697 0.056697
vt 0.471697 0.460944
vt 0.463203 1.559042
vt 0.463203 1.703045
vt 0.250001 1.703045
vt 0.600366 0.641236
vt 0.600366 0.386875
vt 0.546223 0.386875
vt 0.546223 0.641236
vt 0.019103 0.959108
vt 0.019103 0.912751
vt 0.006180 0.912751
vt 0.006180 0.959108
vt 0.141281 0.912751
vt 0.035398 0.912751
vt 0.035715 0.959108
vt 0.141281 0.959108
vt 0.532106 0.770048
vt 0.604108 0.010970
vt 0.604107 0.666840
vt 0.604107 0.770048
vt 0.139755 0.892159
vt 0.007867 0.962331
vt 0.139755 0.962331
vt 0.576419 0.641236
vt 0.576419 0.386875
vt 0.604107 0.850338
vt 0.532106 0.850338
vt 0.545636 0.641236
vt 0.545636 0.386875
vt 0.534787 0.196061
vt 0.534787 0.582074
vt 0.544213 0.566177
vt 0.544213 0.217865
vt 0.145774 0.976606
vt 0.145774 0.877883
vt 0.139755 0.962331
vt 0.602381 0.427776
vt 0.602381 0.065827
vt 0.545855 0.065827
vt 0.545855 0.427776
vt 0.539254 0.638495
vt 0.604976 0.638495
vt 0.604976 0.840676
vt 0.539254 0.840676
vt 0.599969 0.582073
vt 0.599969 0.196060
vt 0.590543 0.217864
vt 0.590543 0.566177
vt 0.590543 0.217864
s 0
usemtl books
f 1/1/1 3/2/1 4/3/1 2/4/1
f 8/5/2 5/6/2 9/7/2 12/8/2
f 2/9/3 4/10/3 8/11/3 7/12/3
f 53/13/4 54/14/4 55/15/4 56/16/4
f 4/17/2 3/18/2 5/19/2 8/20/2
f 1/21/5 2/22/5 7/23/5 6/24/5
f 12/25/2 9/26/2 13/27/2 39/28/2 16/29/2
f 6/24/5 7/23/5 11/30/5 10/31/5
f 7/12/3 8/32/3 12/33/3 11/34/3
f 9/7/2 5/6/2 31/35/2 33/36/2
f 21/37/1 22/38/1 47/39/1 48/40/1
f 10/31/5 11/30/5 15/41/5 40/42/5 14/43/5
f 11/34/3 12/44/3 16/45/3 15/46/3
f 13/27/2 9/26/2 33/47/2 35/48/2 37/49/2
f 19/50/3 20/51/3 24/52/3 23/53/3
f 15/46/3 16/54/3 20/55/3 19/50/3
f 46/56/6 41/57/6 42/58/6 45/59/6
f 22/60/5 26/61/5 17/62/5 47/63/5
f 24/64/2 44/65/2 21/66/2 25/67/2 49/68/2 28/69/2
f 22/39/1 21/70/1 44/71/1 43/72/1
f 25/73/6 18/74/6 17/75/6 26/76/6 50/77/6 49/78/6
f 57/79/4 58/80/4 59/81/4 60/82/4
f 27/83/3 28/84/3 30/85/3 29/86/3
f 22/60/5 43/87/5 23/88/5 27/89/5 50/90/5 26/61/5
f 23/53/3 24/52/3 28/91/3 27/83/3
f 25/67/2 21/66/2 48/92/2 18/93/2
f 61/94/4 62/95/4 63/96/4 64/97/4
f 10/98/6 9/99/6 33/99/6 34/98/6
f 6/24/5 10/31/5 34/100/5 32/101/5
f 5/102/1 6/103/1 32/104/1 31/105/1
f 65/106/4 66/107/4 67/81/4 68/108/4
f 13/109/6 37/110/6 38/111/6 14/112/6 40/113/6 39/114/6
f 10/31/5 14/43/5 38/115/5 36/116/5 34/117/5
f 33/118/1 34/119/1 36/120/1 35/121/1
f 69/122/4 70/107/4 71/123/4 72/124/4
f 20/125/2 46/126/2 44/127/2 24/128/2
f 40/42/5 15/41/5 19/129/5 45/130/5 42/131/5
f 16/132/2 39/133/2 41/134/2 46/135/2 20/136/2
f 73/137/4 74/138/4 75/81/4 76/139/4
f 43/140/5 45/141/5 19/142/5 23/88/5
f 77/143/4 78/144/4 79/15/4 80/145/4
f 28/146/2 49/147/2 51/148/2 30/149/2
f 50/90/5 27/89/5 29/150/5 52/151/5
f 3/152/4 1/153/4 54/154/4 53/155/4
f 1/153/4 6/156/4 55/157/4 54/154/4
f 6/156/4 5/158/4 56/159/4 55/160/4
f 5/161/4 3/162/4 53/13/4 56/163/4
f 48/164/4 47/165/4 58/166/4 57/167/4
f 47/165/4 17/168/4 59/169/4 58/170/4
f 17/168/4 18/171/4 60/172/4 59/169/4
f 18/173/4 48/174/4 57/79/4 60/175/4
f 31/176/4 32/177/4 62/178/4 61/179/4
f 32/177/4 34/180/4 63/181/4 62/182/4
f 34/180/4 33/183/4 64/184/4 63/185/4
f 33/186/4 31/187/4 61/94/4 64/97/4
f 35/188/4 36/189/4 66/190/4 65/191/4
f 36/189/4 38/192/4 67/193/4 66/194/4
f 38/192/4 37/195/4 68/196/4 67/197/4
f 37/198/4 35/199/4 65/106/4 68/108/4
f 39/200/4 40/201/4 70/202/4 69/203/4
f 40/201/4 42/204/4 71/205/4 70/206/4
f 42/204/4 41/207/4 72/208/4 71/209/4
f 41/210/4 39/211/4 69/212/4 72/124/4
f 46/213/4 45/214/4 74/215/4 73/216/4
f 45/214/4 43/217/4 75/218/4 74/215/4
f 43/217/4 44/219/4 76/220/4 75/221/4
f 44/222/4 46/223/4 73/224/4 76/139/4
f 49/225/4 50/226/4 78/227/4 77/228/4
f 50/226/4 52/229/4 79/230/4 78/227/4
f 52/229/4 51/231/4 80/232/4 79/233/4
f 51/234/4 49/235/4 77/143/4 80/236/4
f 51/237/6 52/238/6 29/239/6 30/240/6
f 81/83/7 82/84/7 84/85/7 83/86/7
f 89/143/8 90/144/8 91/15/8 92/145/8
f 82/146/2 85/147/2 87/148/2 84/149/2
f 86/90/5 81/89/5 83/150/5 88/151/5
f 85/225/8 86/226/8 90/227/8 89/228/8
f 86/226/8 88/229/8 91/230/8 90/227/8
f 88/229/8 87/231/8 92/232/8 91/233/8
f 87/234/8 85/235/8 89/143/8 92/236/8
f 87/237/9 88/238/9 83/239/9 84/240/9
f 85/241/10 82/242/10 81/243/10 86/244/10
f 95/86/11 96/245/11 100/246/11 99/247/11
f 94/248/12 93/249/12 101/250/12 102/251/12
f 97/252/2 93/253/2 103/254/2 105/255/2
f 96/256/2 101/257/2 93/253/2 97/252/2 107/258/2 100/259/2
f 94/260/5 102/151/5 95/150/5 99/261/5 108/262/5 98/263/5
f 112/264/13 109/14/13 110/265/13 111/266/13
f 93/249/12 94/248/12 104/267/12 103/268/12
f 94/260/5 98/263/5 106/269/5 104/270/5
f 97/268/14 105/249/14 106/248/14 98/267/14 108/271/14 107/272/14
f 106/273/13 105/274/13 111/275/13 110/276/13
f 105/277/13 103/278/13 112/13/13 111/279/13
f 101/280/12 96/281/12 95/282/12 102/283/12
f 99/284/14 100/285/14 107/286/14 108/287/14
f 103/288/13 104/289/13 109/290/13 112/291/13
f 104/289/13 106/273/13 110/276/13 109/292/13
