# Blender 4.3.2
# www.blender.org
mtllib book_case_with_back.mtl
o book_case_with_back
v -1.012500 0.000000 0.250000
v -1.012500 2.500000 0.250000
v -1.012500 0.000000 -0.250000
v -1.012500 2.500000 -0.250000
v 1.012500 0.000000 0.250000
v 1.012500 2.500000 0.250000
v 1.012500 0.000000 -0.250000
v 1.012500 2.500000 -0.250000
v 0.996402 1.916704 -0.241723
v 0.996402 1.916704 0.225995
v -0.996402 1.916704 -0.241723
v -0.996402 1.916704 0.225995
v 0.996402 1.334659 -0.241723
v 0.996402 1.334659 0.225995
v -0.996402 1.334659 -0.241723
v -0.996402 1.334659 0.225995
v 0.996402 0.656256 -0.241723
v 0.996402 0.656256 0.225995
v -0.996402 0.656256 -0.241723
v -0.996402 0.656256 0.225995
v -0.985500 0.030000 0.250000
v -0.985500 2.470000 0.250000
v -0.985500 0.030000 -0.220000
v -0.985500 2.470000 -0.220000
v 0.985500 0.030000 0.250000
v 0.985500 2.470000 0.250000
v 0.985500 0.030000 -0.220000
v 0.985500 2.470000 -0.220000
v 0.996402 1.886704 -0.241723
v 0.996402 1.886704 0.225995
v -0.996402 1.886704 -0.241723
v -0.996402 1.886704 0.225995
v 0.996402 1.304659 -0.241723
v 0.996402 1.304659 0.225995
v -0.996402 1.304659 -0.241723
v -0.996402 1.304659 0.225995
v 0.996402 0.626256 -0.241723
v 0.996402 0.626256 0.225995
v -0.996402 0.626256 -0.241723
v -0.996402 0.626256 0.225995
vn -1.0000 -0.0000 -0.0000
vn -0.0000 -1.0000 -0.0000
vn -0.0000 1.0000 -0.0000
vn -0.0000 -0.0000 -1.0000
vn 1.0000 -0.0000 -0.0000
vn -0.0000 -0.0000 1.0000
vt -0.061729 0.500000
vt -0.061729 0.874486
vt 1.061729 0.874486
vt 1.061729 0.500000
vt 0.312757 0.500000
vt 0.312757 0.874486
vt 0.687243 0.500000
vt 0.687243 0.874486
vt 0.125514 -0.174075
vt 0.125514 1.174074
vt 0.874486 1.174075
vt 0.874486 -0.174075
vt 0.690220 0.506199
vt 1.058752 0.506199
vt 1.058752 0.856507
vt 0.690220 0.856507
vt 0.134502 -0.156099
vt 0.865498 -0.156099
vt 0.865498 1.156099
vt 0.134502 1.156099
vt 0.690220 0.506199
vt 0.690220 0.856507
vt 1.058752 0.856507
vt 1.058752 0.506199
vt 0.690220 0.874486
vt 1.058752 0.874486
vt 1.058752 0.500000
vt 0.690220 0.500000
s 0
usemtl bookcase
f 3/1/1 1/2/1 2/3/1 4/4/1
f 3/1/2 7/5/2 5/6/2 1/2/2
f 8/7/3 4/4/3 2/3/3 6/8/3
f 7/9/4 3/10/4 4/11/4 8/12/4
f 5/6/5 7/5/5 8/7/5 6/8/5
f 9/13/3 11/14/3 12/15/3 10/16/3
f 13/13/3 15/14/3 16/15/3 14/16/3
f 17/13/3 19/14/3 20/15/3 18/16/3
f 23/1/5 24/4/5 22/3/5 21/2/5
f 23/1/3 21/2/3 25/6/3 27/5/3
f 28/7/2 26/8/2 22/3/2 24/4/2
f 27/17/6 28/18/6 24/19/6 23/20/6
f 25/6/1 26/8/1 28/7/1 27/5/1
f 29/21/2 30/22/2 32/23/2 31/24/2
f 33/21/2 34/22/2 36/23/2 35/24/2
f 37/21/2 38/22/2 40/23/2 39/24/2
f 1/2/6 5/6/6 25/6/6 21/2/6
f 6/8/6 2/3/6 22/3/6 26/8/6
f 5/6/6 6/8/6 26/8/6 25/6/6
f 2/3/6 1/2/6 21/2/6 22/3/6
f 10/25/6 12/26/6 32/26/6 30/25/6
f 11/27/4 9/28/4 29/28/4 31/27/4
f 12/23/1 11/24/1 31/14/1 32/15/1
f 9/21/5 10/22/5 30/16/5 29/13/5
f 14/25/6 16/26/6 36/26/6 34/25/6
f 15/27/4 13/28/4 33/28/4 35/27/4
f 16/23/1 15/24/1 35/14/1 36/15/1
f 13/21/5 14/22/5 34/16/5 33/13/5
f 18/25/6 20/26/6 40/26/6 38/25/6
f 19/27/4 17/28/4 37/28/4 39/27/4
f 20/23/1 19/24/1 39/14/1 40/15/1
f 17/21/5 18/22/5 38/16/5 37/13/5
