# Blender 4.3.2
# www.blender.org
mtllib file_binder.mtl
o file_binder
v -0.037161 0.009263 0.140206
v -0.038950 0.413315 0.142362
v -0.006326 0.010948 -0.149825
v -0.008115 0.415000 -0.147668
v 0.039130 0.009596 0.141224
v 0.037341 0.413648 0.143381
v 0.022828 0.001881 -0.149798
v 0.020958 0.424323 -0.147543
v -0.013029 0.001725 -0.150277
v -0.044614 0.000000 0.146806
v -0.046484 0.422442 0.149060
v -0.014899 0.424167 -0.148022
v 0.014246 0.415097 -0.147370
v 0.016035 0.011045 -0.149526
v 0.046484 0.000397 0.148022
v 0.044614 0.422838 0.150277
vn -0.9944 -0.0038 -0.1057
vn 0.0133 0.0054 -0.9999
vn 0.9969 0.0048 -0.0792
vn -0.0133 -0.0054 0.9999
vn 0.0044 -1.0000 -0.0053
vn -0.0044 1.0000 0.0053
vn 0.8043 -0.5886 0.0821
vn 0.7990 0.5948 0.0884
vn 0.0596 0.0056 -0.9982
vn -0.0330 0.0052 -0.9994
vn -0.8010 -0.5956 0.0607
vn -0.8063 0.5878 0.0670
vn 0.0134 -0.5873 -0.8092
vn 0.0081 0.5960 -0.8029
vt 0.057285 0.650898
vt 0.057285 0.966925
vt 0.215050 0.966925
vt 0.215050 0.650898
vt 0.013300 0.571015
vt 0.221397 0.571015
vt 0.221397 0.513552
vt 0.013300 0.513552
vt 0.221344 0.596815
vt 0.221344 0.998861
vt 0.004236 0.998861
vt 0.004236 0.596815
vt 0.328356 0.528566
vt 0.328356 0.998208
vt 0.237463 0.998208
vt 0.237463 0.528566
vt 0.214350 0.553141
vt 0.214350 0.533004
vt 0.012964 0.508721
vt 0.012964 0.577423
vt 0.212903 0.531360
vt 0.212903 0.547402
vt 0.004568 0.566747
vt 0.004568 0.512014
vt 0.138181 0.936483
vt 0.115545 0.692713
vt 0.109330 0.687048
vt 0.132516 0.936745
vt 0.115545 0.692713
vt 0.138181 0.971108
vt 0.138181 0.631950
vt 0.132516 0.624232
vt 0.132516 0.978826
vt 0.156952 0.631950
vt 0.156952 0.971108
vt 0.162617 0.978826
vt 0.162617 0.624232
vt 0.179587 0.692713
vt 0.156952 0.936483
vt 0.162617 0.936745
vt 0.185802 0.687048
vt 0.156952 0.936483
s 0
usemtl Binders
f 10/1/1 11/2/1 12/3/1 9/4/1
f 3/5/2 4/6/2 13/7/2 14/8/2
f 7/9/3 8/10/3 16/11/3 15/12/3
f 15/13/4 16/14/4 11/15/4 10/16/4
f 3/17/5 14/18/5 5/19/5 1/20/5
f 13/21/6 4/22/6 2/23/6 6/24/6
f 3/25/7 1/26/7 10/27/7 9/28/7
f 2/29/8 4/25/8 12/28/8 11/27/8
f 4/30/9 3/31/9 9/32/9 12/33/9
f 14/34/10 13/35/10 8/36/10 7/37/10
f 5/38/11 14/39/11 7/40/11 15/41/11
f 13/42/12 6/38/12 16/41/12 8/40/12
f 1/29/13 5/38/13 15/41/13 10/27/13
f 6/38/14 2/26/14 11/27/14 16/41/14
