# Blender 4.3.2
# www.blender.org
mtllib file_binder_alt5.mtl
o file_binder_alt5
v -0.038149 0.009195 0.141992
v -0.038149 0.413257 0.141992
v -0.011182 0.009195 -0.148428
v -0.011182 0.413257 -0.148428
v 0.038149 0.009195 0.141992
v 0.038149 0.413257 0.141992
v 0.017930 0.000000 -0.148741
v 0.017930 0.422452 -0.148741
v -0.017930 0.000000 -0.148741
v -0.045553 0.000000 0.148741
v -0.045553 0.422452 0.148741
v -0.017930 0.422452 -0.148741
v 0.011182 0.413257 -0.148428
v 0.011182 0.009195 -0.148428
v 0.045553 0.000000 0.148741
v 0.045553 0.422452 0.148741
vn -0.9957 -0.0000 -0.0925
vn -0.0000 -0.0000 -1.0000
vn 0.9957 -0.0000 -0.0925
vn -0.0000 -0.0000 1.0000
vn -0.0000 -1.0000 -0.0000
vn -0.0000 1.0000 -0.0000
vn 0.8027 -0.5917 0.0745
vn 0.8027 0.5917 0.0745
vn 0.0463 -0.0000 -0.9989
vn -0.0463 -0.0000 -0.9989
vn -0.8027 -0.5917 0.0745
vn -0.8027 0.5917 0.0745
vn -0.0000 -0.5917 -0.8062
vn -0.0000 0.5917 -0.8062
vt 0.053630 0.145039
vt 0.053630 0.461065
vt 0.211395 0.461065
vt 0.211395 0.145039
vt 0.013300 0.571015
vt 0.221397 0.571015
vt 0.221397 0.513552
vt 0.013300 0.513552
vt 0.217689 0.090955
vt 0.217689 0.493002
vt 0.000582 0.493002
vt 0.000582 0.090955
vt 0.324702 0.022706
vt 0.324702 0.492349
vt 0.233808 0.492349
vt 0.233808 0.022706
vt 0.214350 0.553141
vt 0.214350 0.533004
vt 0.012964 0.508721
vt 0.012964 0.577423
vt 0.212903 0.531360
vt 0.212903 0.547402
vt 0.004568 0.566747
vt 0.004568 0.512014
vt 0.134526 0.430624
vt 0.111891 0.186853
vt 0.105676 0.181189
vt 0.128862 0.430886
vt 0.134526 0.465248
vt 0.134526 0.126091
vt 0.128862 0.118373
vt 0.128862 0.472966
vt 0.153298 0.126091
vt 0.153298 0.465248
vt 0.158962 0.472966
vt 0.158962 0.118373
vt 0.175933 0.186853
vt 0.153298 0.430624
vt 0.158962 0.430886
vt 0.182148 0.181189
s 0
usemtl Binders
f 10/1/1 11/2/1 12/3/1 9/4/1
f 3/5/2 4/6/2 13/7/2 14/8/2
f 7/9/3 8/10/3 16/11/3 15/12/3
f 15/13/4 16/14/4 11/15/4 10/16/4
f 3/17/5 14/18/5 5/19/5 1/20/5
f 13/21/6 4/22/6 2/23/6 6/24/6
f 3/25/7 1/26/7 10/27/7 9/28/7
f 2/26/8 4/25/8 12/28/8 11/27/8
f 4/29/9 3/30/9 9/31/9 12/32/9
f 14/33/10 13/34/10 8/35/10 7/36/10
f 5/37/11 14/38/11 7/39/11 15/40/11
f 13/38/12 6/37/12 16/40/12 8/39/12
f 1/26/13 5/37/13 15/40/13 10/27/13
f 6/37/14 2/26/14 11/27/14 16/40/14
