# Blender 4.3.2
# www.blender.org
mtllib divider_full_c_blue.mtl
o divider_full_c_blue
v 1.399999 -0.000025 0.002075
v 0.000000 -0.000024 0.000000
v 0.000000 1.501547 -0.000000
v 0.000000 -0.000024 -0.085829
v 1.400000 -0.000025 -0.083754
v 0.000000 1.501547 -0.085829
v 1.399999 1.501547 -0.085829
v -1.414172 -0.000025 0.002075
v -1.414172 -0.000025 -0.083754
v -1.414171 1.501547 -0.085829
v 1.400000 -0.000024 1.500000
v 1.400000 1.501547 0.000000
v 1.485828 -0.000024 -0.000000
v 1.485829 -0.000024 1.500000
v 1.485829 1.501547 -0.000000
v 1.400000 1.501547 1.500000
v 1.485829 1.501547 1.500000
v -1.500000 -0.000024 1.500000
v -1.500000 -0.000024 0.000000
v -1.500000 1.501547 -0.000000
v -1.414171 -0.000024 -0.000000
v -1.414171 -0.000024 1.500000
v -1.500000 1.501547 1.500000
v -1.414171 1.501547 1.500000
v -1.414327 -0.000024 0.000882
v -1.414171 1.501547 -0.000000
v -1.466189 1.501547 -0.052015
v -1.466080 -0.000024 -0.050868
v 1.451800 -0.000024 -0.050867
v 1.452018 1.501547 -0.052015
vn -0.0000 -1.0000 -0.0000
vn -0.0007 0.0007 1.0000
vn -0.0000 1.0000 -0.0000
vn 0.0007 -0.0007 -1.0000
vn 0.0007 0.0007 1.0000
vn -0.0007 -0.0007 -1.0000
vn -1.0000 -0.0000 -0.0000
vn 1.0000 -0.0000 -0.0000
vn -0.0000 -0.0000 -1.0000
vn -0.9917 0.0002 0.1288
vn -0.9847 -0.0000 -0.1741
vn -0.5401 -0.0009 -0.8416
vn -0.8352 -0.0002 -0.5499
vn 0.5405 -0.0009 -0.8413
vn 0.8348 -0.0003 -0.5505
vt 0.859891 0.819060
vt 0.625450 0.819060
vt 0.625450 0.833433
vt 0.859891 0.833433
vt 0.625576 0.643861
vt 0.860017 0.643861
vt 0.860017 0.895311
vt 0.625576 0.895311
vt 0.609728 0.821013
vt 0.844168 0.820666
vt 0.844168 0.835038
vt 0.609728 0.835386
vt 0.625874 0.643861
vt 0.625874 0.895311
vt 0.860315 0.895311
vt 0.860315 0.643861
vt 0.624100 0.821013
vt 0.624100 0.835386
vt 0.860914 0.835386
vt 0.860914 0.821013
vt 0.861040 0.645814
vt 0.861040 0.897263
vt 0.624226 0.897263
vt 0.624226 0.645814
vt 0.845191 0.822966
vt 0.845191 0.837338
vt 0.608377 0.836991
vt 0.608377 0.822618
vt 0.861338 0.645814
vt 0.624524 0.645814
vt 0.624524 0.897263
vt 0.861338 0.897263
vt 0.859891 0.567874
vt 0.874264 0.819060
vt 0.874264 0.567874
vt 0.856193 0.645814
vt 0.605006 0.645814
vt 0.605006 0.897263
vt 0.856193 0.897263
vt 0.844168 0.569827
vt 0.858541 0.569827
vt 0.858541 0.821013
vt 0.790809 0.645814
vt 0.791156 0.897263
vt 0.539969 0.897263
vt 0.539969 0.645814
vt 0.874390 0.895311
vt 0.874390 0.643861
vt 0.860017 0.643861
vt 0.609728 0.569826
vt 0.624100 0.569826
vt 0.866534 0.620669
vt 0.615348 0.620669
vt 0.615348 0.872118
vt 0.866534 0.872118
vt 0.594005 0.822966
vt 0.594005 0.571779
vt 0.608378 0.571779
vt 0.608378 0.822966
vt 0.610151 0.897263
vt 0.624524 0.645814
vt 0.610151 0.645814
vt 0.866187 0.620669
vt 0.866387 0.620669
vt 0.615390 0.829723
vt 0.615534 0.645814
vt 0.615516 0.897263
vt 0.864903 0.897263
vt 0.864711 0.645814
vt 0.608351 0.822818
vt 0.599685 0.831484
vt 0.868728 0.895311
vt 0.868691 0.643861
vt 0.864711 0.645814
vt 0.868602 0.827771
vt 0.852843 0.829531
s 0
usemtl dividers
f 12/1/1 3/2/1 6/3/1 7/4/1
f 4/5/2 5/6/2 7/7/2 6/8/2
f 2/9/3 1/10/3 5/11/3 4/12/3
f 2/13/4 3/14/4 12/15/4 1/16/4
f 26/17/1 10/18/1 6/19/1 3/20/1
f 4/21/5 6/22/5 10/23/5 9/24/5
f 2/25/3 4/26/3 9/27/3 8/28/3
f 2/29/6 8/30/6 26/31/6 3/32/6
f 16/33/1 12/1/1 15/34/1 17/35/1
f 13/36/7 14/37/7 17/38/7 15/39/7
f 1/10/3 11/40/3 14/41/3 13/42/3
f 1/43/8 12/44/8 16/45/8 11/46/8
f 16/7/9 17/47/9 14/48/9 11/49/9
f 23/50/1 20/9/1 26/17/1 24/51/1
f 21/52/7 22/53/7 24/54/7 26/55/7
f 19/56/3 18/57/3 22/58/3 21/59/3
f 19/36/8 20/39/8 23/38/8 18/37/8
f 23/60/9 24/31/9 22/61/9 18/62/9
f 8/63/10 26/55/10 25/64/10
f 25/64/11 26/55/11 21/52/11
f 26/17/3 10/18/3 27/65/3
f 26/17/3 27/65/3 20/9/3
f 10/23/12 9/24/12 28/66/12 27/67/12
f 27/68/13 28/69/13 19/36/13 20/39/13
f 9/27/1 8/28/1 25/70/1 28/71/1
f 28/71/1 25/70/1 21/59/1 19/56/1
f 5/6/14 7/7/14 30/72/14 29/73/14
f 29/74/15 30/68/15 15/39/15 13/36/15
f 7/4/3 12/1/3 30/75/3
f 30/75/3 12/1/3 15/34/3
f 1/10/1 5/11/1 29/76/1
f 1/10/1 29/76/1 13/42/1
