# Blender 4.3.2
# www.blender.org
mtllib divider_full_c_desk_red.mtl
o divider_full_c_desk_red
v 1.399999 -0.000025 0.002075
v 0.000000 -0.000024 0.000000
v 0.000000 1.501547 -0.000000
v 0.000000 -0.000024 -0.085829
v 1.400000 -0.000025 -0.083754
v 0.000000 1.501547 -0.085829
v 1.399999 1.501547 -0.085829
v -1.414172 -0.000025 0.002075
v -1.414172 -0.000025 -0.083754
v -1.414171 1.501547 -0.085829
v 1.400000 -0.000024 1.500000
v 1.400000 1.501547 0.000000
v 1.485828 -0.000024 -0.000000
v 1.485829 -0.000024 1.500000
v 1.485829 1.501547 -0.000000
v 1.400000 1.501547 1.500000
v 1.485829 1.501547 1.500000
v -1.500000 -0.000024 1.500000
v -1.500000 -0.000024 0.000000
v -1.500000 1.501547 -0.000000
v -1.414171 -0.000024 -0.000000
v -1.414171 -0.000024 1.500000
v -1.500000 1.501547 1.500000
v -1.414171 1.501547 1.500000
v -1.414327 -0.000024 0.000882
v -1.414171 1.501547 -0.000000
v -1.466189 1.501547 -0.052015
v -1.466080 -0.000024 -0.050868
v 1.451800 -0.000024 -0.050867
v 1.452018 1.501547 -0.052015
v -1.422249 0.846057 0.950001
v 1.422249 0.846057 0.950001
v -1.422249 0.846057 -0.050000
v 1.422249 0.846057 -0.050000
v -1.422249 0.903945 -0.050000
v -1.422249 0.903945 0.950001
v 1.422249 0.903945 0.950001
v 1.422249 0.903945 -0.050000
vn -0.0000 -1.0000 -0.0000
vn -0.0007 0.0007 1.0000
vn -0.0000 1.0000 -0.0000
vn 0.0007 -0.0007 -1.0000
vn 0.0007 0.0007 1.0000
vn -0.0007 -0.0007 -1.0000
vn -1.0000 -0.0000 -0.0000
vn 1.0000 -0.0000 -0.0000
vn -0.0000 -0.0000 -1.0000
vn -0.9917 0.0002 0.1288
vn -0.9847 -0.0000 -0.1741
vn -0.5401 -0.0009 -0.8416
vn -0.8352 -0.0002 -0.5499
vn 0.5405 -0.0009 -0.8413
vn 0.8348 -0.0003 -0.5505
vn -0.0000 -0.0000 1.0000
vt 0.459268 0.405950
vt 0.244163 0.405950
vt 0.244163 0.419138
vt 0.459268 0.419138
vt 0.244163 0.181954
vt 0.459268 0.181954
vt 0.459268 0.412665
vt 0.244163 0.412665
vt 0.244163 0.405950
vt 0.459268 0.405632
vt 0.459268 0.418819
vt 0.244163 0.181954
vt 0.244163 0.412665
vt 0.459268 0.412665
vt 0.459268 0.181954
vt 0.026882 0.405950
vt 0.026882 0.419138
vt 0.026882 0.412665
vt 0.026881 0.181954
vt 0.026881 0.418819
vt 0.026881 0.405632
vt 0.026882 0.181954
vt 0.026882 0.412665
vt 0.459268 0.175481
vt 0.472455 0.405950
vt 0.472455 0.175481
vt 0.354313 0.181954
vt 0.123844 0.181954
vt 0.123844 0.412665
vt 0.354313 0.412665
vt 0.472455 0.405950
vt 0.357990 0.181954
vt 0.358309 0.412665
vt 0.127840 0.412665
vt 0.127840 0.181954
vt 0.236481 0.412665
vt 0.249668 0.412665
vt 0.249668 0.181954
vt 0.236481 0.181954
vt 0.013694 0.175481
vt 0.013694 0.405950
vt 0.026882 0.175481
vt 0.358309 0.181954
vt 0.127840 0.181954
vt 0.127840 0.412665
vt 0.358309 0.412665
vt 0.013694 0.175481
vt 0.026882 0.175481
vt 0.026882 0.405950
vt 0.357990 0.181954
vt 0.358174 0.181954
vt 0.018889 0.413942
vt 0.018906 0.181954
vt 0.018889 0.412665
vt 0.362305 0.412665
vt 0.362129 0.181954
vt 0.026858 0.405815
vt 0.018906 0.413766
vt 0.467260 0.412665
vt 0.467227 0.181954
vt 0.362129 0.181954
vt 0.467260 0.413942
vt 0.467227 0.413766
vt 0.536595 0.013156
vt 0.536595 0.166803
vt 0.973640 0.166803
vt 0.973640 0.013156
vt 0.973640 0.085532
vt 0.536595 0.085532
vt 0.536595 0.094427
vt 0.973640 0.094427
vt 0.678294 0.085532
vt 0.831941 0.085532
vt 0.831941 0.094427
vt 0.678294 0.094427
s 0
usemtl dividers
f 12/1/1 3/2/1 6/3/1 7/4/1
f 4/5/2 5/6/2 7/7/2 6/8/2
f 2/9/3 1/10/3 5/11/3 4/3/3
f 2/12/4 3/13/4 12/14/4 1/15/4
f 26/16/1 10/17/1 6/3/1 3/2/1
f 4/5/5 6/8/5 10/18/5 9/19/5
f 2/9/3 4/3/3 9/20/3 8/21/3
f 2/12/6 8/22/6 26/23/6 3/13/6
f 16/24/1 12/1/1 15/25/1 17/26/1
f 13/27/7 14/28/7 17/29/7 15/30/7
f 1/10/3 11/24/3 14/26/3 13/31/3
f 1/32/8 12/33/8 16/34/8 11/35/8
f 16/36/9 17/37/9 14/38/9 11/39/9
f 23/40/1 20/41/1 26/16/1 24/42/1
f 21/43/7 22/44/7 24/45/7 26/46/7
f 19/41/3 18/47/3 22/48/3 21/49/3
f 19/27/8 20/30/8 23/29/8 18/28/8
f 23/36/9 24/37/9 22/38/9 18/39/9
f 8/50/10 26/46/10 25/51/10
f 25/51/11 26/46/11 21/43/11
f 26/16/3 10/17/3 27/52/3
f 26/16/3 27/52/3 20/41/3
f 10/18/12 9/19/12 28/53/12 27/54/12
f 27/55/13 28/56/13 19/27/13 20/30/13
f 9/20/1 8/21/1 25/57/1 28/58/1
f 28/58/1 25/57/1 21/49/1 19/41/1
f 5/6/14 7/7/14 30/59/14 29/60/14
f 29/61/15 30/55/15 15/30/15 13/27/15
f 7/4/3 12/1/3 30/62/3
f 30/62/3 12/1/3 15/25/3
f 1/10/1 5/11/1 29/63/1
f 1/10/1 29/63/1 13/31/1
f 31/64/1 33/65/1 34/66/1 32/67/1
f 36/64/3 37/67/3 38/66/3 35/65/3
f 34/68/9 33/69/9 35/70/9 38/71/9
f 31/69/16 32/68/16 37/71/16 36/70/16
f 32/72/8 34/73/8 38/74/8 37/75/8
f 33/73/7 31/72/7 36/75/7 35/74/7
