# Blender 4.3.2
# www.blender.org
mtllib divider_wood_blue.mtl
o divider_wood_blue
v -1.500000 0.037920 0.000000
v -0.000000 0.037920 -0.000000
v 0.000000 2.500000 0.000000
v 0.000000 0.037920 0.085829
v -1.500000 0.037920 0.085829
v 0.000000 2.500000 0.085829
v -1.368066 2.500000 0.000000
v -1.500000 2.368066 0.000000
v -1.461357 2.461358 0.000000
v -1.500000 2.368066 0.085829
v -1.368066 2.500000 0.085829
v -1.461357 2.461358 0.085829
v -1.097468 0.000000 -0.218579
v -0.902532 0.000000 -0.218579
v -0.902532 -0.000000 0.304407
v -1.097468 -0.000000 0.304407
v -0.902532 0.043817 -0.172674
v -1.097468 0.043817 -0.172674
v -0.902532 0.043817 0.258502
v -1.097468 0.043817 0.258502
v -1.500000 0.037920 -0.023037
v -0.000000 0.037920 -0.023037
v 0.000000 0.037920 0.108865
v -1.500000 0.037920 0.108866
v -1.500000 2.368066 -0.023036
v -1.500000 2.368066 0.108866
v -0.000000 0.007723 -0.023037
v -1.530197 0.007723 -0.023037
v 0.000000 0.007723 0.108865
v -1.530197 0.007723 0.108866
v -1.530197 2.368066 0.108866
v -1.530197 2.368066 -0.023036
v 1.500000 0.037920 -0.000000
v 1.500000 0.037920 0.085829
v 1.368066 2.500000 -0.000000
v 1.500000 2.368066 -0.000000
v 1.461357 2.461358 -0.000000
v 1.500000 2.368066 0.085829
v 1.368066 2.500000 0.085829
v 1.461357 2.461358 0.085829
v 1.097468 0.000000 -0.218580
v 0.902532 0.000000 -0.218580
v 0.902532 -0.000000 0.304407
v 1.097468 -0.000000 0.304407
v 0.902532 0.043817 -0.172674
v 1.097468 0.043817 -0.172674
v 0.902532 0.043817 0.258502
v 1.097468 0.043817 0.258502
v 1.500000 0.037920 -0.023037
v 1.500000 0.037920 0.108865
v 1.500000 2.368066 -0.023037
v 1.500000 2.368066 0.108866
v 1.530197 0.007723 -0.023037
v 1.530197 0.007723 0.108865
v 1.530197 2.368066 0.108866
v 1.530197 2.368066 -0.023037
vn -0.0000 -1.0000 -0.0000
vn -0.0000 -0.0000 -1.0000
vn -0.0000 1.0000 -0.0000
vn -0.0000 -0.0000 1.0000
vn 0.9239 -0.3827 -0.0000
vn 0.3827 -0.9239 -0.0000
vn 1.0000 -0.0000 -0.0000
vn -1.0000 -0.0000 -0.0000
vn -0.0000 0.7234 -0.6905
vn -0.0000 0.7234 0.6905
vn -0.9239 -0.3827 -0.0000
vn -0.3827 -0.9239 -0.0000
vt 0.892008 0.856707
vt 0.678919 0.856707
vt 0.678919 0.870650
vt 0.892008 0.870650
vt 0.669979 0.583922
vt 0.915199 0.583922
vt 0.915199 0.962461
vt 0.905788 0.977617
vt 0.883067 0.983894
vt 0.669979 0.983894
vt 0.636032 0.856707
vt 0.881253 0.856707
vt 0.881253 0.870650
vt 0.636032 0.870650
vt 0.669979 0.583922
vt 0.669979 0.983894
vt 0.883067 0.983894
vt 0.905788 0.977617
vt 0.915199 0.962461
vt 0.915199 0.583922
vt 0.883736 0.963635
vt 0.862833 0.963635
vt 0.862833 0.978791
vt 0.883736 0.978791
vt 0.914728 0.870650
vt 0.914728 0.856707
vt 0.860814 0.609585
vt 0.860814 0.988125
vt 0.881717 0.988125
vt 0.881717 0.609585
vt 0.659719 0.343132
vt 0.764316 0.343132
vt 0.764316 0.304145
vt 0.659719 0.304145
vt 0.668900 0.343132
vt 0.668900 0.304145
vt 0.755135 0.304145
vt 0.755135 0.343132
vt 0.659719 0.295381
vt 0.764316 0.295381
vt 0.805229 0.327115
vt 0.700632 0.327115
vt 0.709813 0.335878
vt 0.796048 0.335878
vt 0.620516 0.321971
vt 0.620516 0.346148
vt 0.805075 0.346148
vt 0.805075 0.321971
vt 0.555677 0.344148
vt 0.555677 0.319970
vt 0.982785 0.319970
vt 0.982785 0.344148
vt 0.623283 0.321971
vt 0.813377 0.321971
vt 0.813377 0.346148
vt 0.623283 0.346148
vt 0.547374 0.344148
vt 0.980017 0.344148
vt 0.980017 0.319970
vt 0.547374 0.319970
vt 0.981401 0.313057
vt 0.554293 0.313057
vt 0.548758 0.307522
vt 0.981401 0.307522
vt 0.582425 0.313057
vt 0.606602 0.313057
vt 0.606602 0.307522
vt 0.582425 0.307522
vt 0.791307 0.313057
vt 0.975866 0.313057
vt 0.791307 0.307522
vt 0.614981 0.346148
vt 0.614981 0.321971
s 0
usemtl dividers
f 7/1/1 3/2/1 6/3/1 11/4/1
f 4/5/2 5/6/2 10/7/2 12/8/2 11/9/2 6/10/2
f 2/11/3 1/12/3 5/13/3 4/14/3
f 2/15/4 3/16/4 7/17/4 9/18/4 8/19/4 1/20/4
f 10/21/5 8/22/5 9/23/5 12/24/5
f 12/25/6 9/26/6 7/1/6 11/4/6
f 1/27/7 8/28/7 10/29/7 5/30/7
f 14/31/1 15/32/1 16/33/1 13/34/1
f 17/35/3 18/36/3 20/37/3 19/38/3
f 13/39/8 16/40/8 20/37/8 18/36/8
f 14/31/9 13/34/9 18/36/9 17/35/9
f 15/41/7 14/42/7 17/43/7 19/44/7
f 16/33/10 15/32/10 19/38/10 20/37/10
f 22/45/1 23/46/1 24/47/1 21/48/1
f 21/49/8 24/50/8 26/51/8 25/52/8
f 27/53/3 28/54/3 30/55/3 29/56/3
f 28/57/7 32/58/7 31/59/7 30/60/7
f 26/61/2 24/62/2 30/63/2 31/64/2
f 25/65/1 26/66/1 31/67/1 32/68/1
f 22/69/4 21/70/4 28/64/4 27/71/4
f 21/62/4 25/61/4 32/64/4 28/63/4
f 23/45/8 22/46/8 27/72/8 29/73/8
f 24/70/2 23/69/2 29/71/2 30/64/2
f 35/1/1 39/4/1 6/3/1 3/2/1
f 4/5/2 6/10/2 39/9/2 40/8/2 38/7/2 34/6/2
f 2/11/3 4/14/3 34/13/3 33/12/3
f 2/15/4 33/20/4 36/19/4 37/18/4 35/17/4 3/16/4
f 38/21/11 40/24/11 37/23/11 36/22/11
f 40/25/12 39/4/12 35/1/12 37/26/12
f 33/27/8 34/30/8 38/29/8 36/28/8
f 42/31/1 41/34/1 44/33/1 43/32/1
f 45/35/3 47/38/3 48/37/3 46/36/3
f 41/39/7 46/36/7 48/37/7 44/40/7
f 42/31/9 45/35/9 46/36/9 41/34/9
f 43/41/8 47/44/8 45/43/8 42/42/8
f 44/33/10 48/37/10 47/38/10 43/32/10
f 22/45/1 49/48/1 50/47/1 23/46/1
f 49/49/7 51/52/7 52/51/7 50/50/7
f 27/53/3 29/56/3 54/55/3 53/54/3
f 53/57/8 54/60/8 55/59/8 56/58/8
f 52/61/2 55/64/2 54/63/2 50/62/2
f 51/65/1 56/68/1 55/67/1 52/66/1
f 22/69/4 27/71/4 53/64/4 49/70/4
f 49/62/4 53/63/4 56/64/4 51/61/4
f 50/70/2 54/64/2 29/71/2 23/69/2
