# Blender 4.3.2
# www.blender.org
mtllib divider_veneer.mtl
o divider_veneer
v -1.500000 0.037920 0.000000
v -0.000000 0.037920 -0.000000
v 0.000000 2.500000 0.000000
v 0.000000 0.037920 0.085829
v -1.500000 0.037920 0.085829
v 0.000000 2.500000 0.085829
v -1.368066 2.500000 0.000000
v -1.500000 2.368066 0.000000
v -1.461357 2.461358 0.000000
v -1.500000 2.368066 0.085829
v -1.368066 2.500000 0.085829
v -1.461357 2.461358 0.085829
v -1.097468 0.000000 -0.218579
v -0.902532 0.000000 -0.218579
v -0.902532 -0.000000 0.304407
v -1.097468 -0.000000 0.304407
v -0.902532 0.043817 -0.172674
v -1.097468 0.043817 -0.172674
v -0.902532 0.043817 0.258502
v -1.097468 0.043817 0.258502
v -1.500000 0.037920 -0.023037
v -0.000000 0.037920 -0.023037
v 0.000000 0.037920 0.108865
v -1.500000 0.037920 0.108866
v -1.500000 2.368066 -0.023036
v -1.500000 2.368066 0.108866
v -0.000000 0.007723 -0.023037
v -1.530197 0.007723 -0.023037
v 0.000000 0.007723 0.108865
v -1.530197 0.007723 0.108866
v -1.530197 2.368066 0.108866
v -1.530197 2.368066 -0.023036
v 1.500000 0.037920 -0.000000
v 1.500000 0.037920 0.085829
v 1.368066 2.500000 -0.000000
v 1.500000 2.368066 -0.000000
v 1.461357 2.461358 -0.000000
v 1.500000 2.368066 0.085829
v 1.368066 2.500000 0.085829
v 1.461357 2.461358 0.085829
v 1.097468 0.000000 -0.218580
v 0.902532 0.000000 -0.218580
v 0.902532 -0.000000 0.304407
v 1.097468 -0.000000 0.304407
v 0.902532 0.043817 -0.172674
v 1.097468 0.043817 -0.172674
v 0.902532 0.043817 0.258502
v 1.097468 0.043817 0.258502
v 1.500000 0.037920 -0.023037
v 1.500000 0.037920 0.108865
v 1.500000 2.368066 -0.023037
v 1.500000 2.368066 0.108866
v 1.530197 0.007723 -0.023037
v 1.530197 0.007723 0.108865
v 1.530197 2.368066 0.108866
v 1.530197 2.368066 -0.023037
vn -0.0000 -1.0000 -0.0000
vn -0.0000 -0.0000 -1.0000
vn -0.0000 1.0000 -0.0000
vn -0.0000 -0.0000 1.0000
vn 0.9239 -0.3827 -0.0000
vn 0.3827 -0.9239 -0.0000
vn 1.0000 -0.0000 -0.0000
vn -1.0000 -0.0000 -0.0000
vn -0.0000 0.7234 -0.6905
vn -0.0000 0.7234 0.6905
vn -0.9239 -0.3827 -0.0000
vn -0.3827 -0.9239 -0.0000
vt 0.443116 0.853197
vt 0.230027 0.853197
vt 0.230027 0.867140
vt 0.443116 0.867140
vt 0.221087 0.580412
vt 0.466307 0.580412
vt 0.466307 0.958951
vt 0.456896 0.974107
vt 0.434176 0.980384
vt 0.221087 0.980384
vt 0.187140 0.853197
vt 0.432361 0.853197
vt 0.432361 0.867140
vt 0.187140 0.867140
vt 0.221087 0.580412
vt 0.221087 0.980384
vt 0.434176 0.980384
vt 0.456896 0.974107
vt 0.466307 0.958951
vt 0.466307 0.580412
vt 0.432825 0.984615
vt 0.411922 0.984615
vt 0.411922 0.999770
vt 0.432825 0.999770
vt 0.465836 0.867140
vt 0.465836 0.853197
vt 0.411922 0.606075
vt 0.432825 0.606075
vt 0.642138 0.458809
vt 0.746736 0.458809
vt 0.746736 0.419822
vt 0.642138 0.419822
vt 0.651319 0.458809
vt 0.651319 0.419822
vt 0.737554 0.419822
vt 0.737554 0.458809
vt 0.642138 0.411058
vt 0.746736 0.411058
vt 0.787649 0.442792
vt 0.683051 0.442792
vt 0.692232 0.451555
vt 0.778468 0.451555
vt 0.602935 0.437647
vt 0.602935 0.461825
vt 0.787494 0.461825
vt 0.787494 0.437647
vt 0.538096 0.459824
vt 0.538096 0.435647
vt 0.965204 0.435647
vt 0.965204 0.459824
vt 0.605703 0.437647
vt 0.795796 0.437647
vt 0.795796 0.461825
vt 0.605703 0.461825
vt 0.529794 0.459824
vt 0.962437 0.459824
vt 0.962437 0.435647
vt 0.529794 0.435647
vt 0.963820 0.428734
vt 0.536713 0.428734
vt 0.531178 0.423199
vt 0.963820 0.423199
vt 0.564844 0.428734
vt 0.589021 0.428734
vt 0.589021 0.423199
vt 0.564844 0.423199
vt 0.773727 0.428734
vt 0.958285 0.428734
vt 0.773727 0.423199
vt 0.597400 0.461825
vt 0.597400 0.437647
s 0
usemtl dividers
f 7/1/1 3/2/1 6/3/1 11/4/1
f 4/5/2 5/6/2 10/7/2 12/8/2 11/9/2 6/10/2
f 2/11/3 1/12/3 5/13/3 4/14/3
f 2/15/4 3/16/4 7/17/4 9/18/4 8/19/4 1/20/4
f 10/21/5 8/22/5 9/23/5 12/24/5
f 12/25/6 9/26/6 7/1/6 11/4/6
f 1/27/7 8/22/7 10/21/7 5/28/7
f 14/29/1 15/30/1 16/31/1 13/32/1
f 17/33/3 18/34/3 20/35/3 19/36/3
f 13/37/8 16/38/8 20/35/8 18/34/8
f 14/29/9 13/32/9 18/34/9 17/33/9
f 15/39/7 14/40/7 17/41/7 19/42/7
f 16/31/10 15/30/10 19/36/10 20/35/10
f 22/43/1 23/44/1 24/45/1 21/46/1
f 21/47/8 24/48/8 26/49/8 25/50/8
f 27/51/3 28/52/3 30/53/3 29/54/3
f 28/55/7 32/56/7 31/57/7 30/58/7
f 26/59/2 24/60/2 30/61/2 31/62/2
f 25/63/1 26/64/1 31/65/1 32/66/1
f 22/67/4 21/68/4 28/62/4 27/69/4
f 21/60/4 25/59/4 32/62/4 28/61/4
f 23/43/8 22/44/8 27/70/8 29/71/8
f 24/68/2 23/67/2 29/69/2 30/62/2
f 35/1/1 39/4/1 6/3/1 3/2/1
f 4/5/2 6/10/2 39/9/2 40/8/2 38/7/2 34/6/2
f 2/11/3 4/14/3 34/13/3 33/12/3
f 2/15/4 33/20/4 36/19/4 37/18/4 35/17/4 3/16/4
f 38/21/11 40/24/11 37/23/11 36/22/11
f 40/25/12 39/4/12 35/1/12 37/26/12
f 33/27/8 34/28/8 38/21/8 36/22/8
f 42/29/1 41/32/1 44/31/1 43/30/1
f 45/33/3 47/36/3 48/35/3 46/34/3
f 41/37/7 46/34/7 48/35/7 44/38/7
f 42/29/9 45/33/9 46/34/9 41/32/9
f 43/39/8 47/42/8 45/41/8 42/40/8
f 44/31/10 48/35/10 47/36/10 43/30/10
f 22/43/1 49/46/1 50/45/1 23/44/1
f 49/47/7 51/50/7 52/49/7 50/48/7
f 27/51/3 29/54/3 54/53/3 53/52/3
f 53/55/8 54/58/8 55/57/8 56/56/8
f 52/59/2 55/62/2 54/61/2 50/60/2
f 51/63/1 56/66/1 55/65/1 52/64/1
f 22/67/4 27/69/4 53/62/4 49/68/4
f 49/60/4 53/61/4 56/62/4 51/59/4
f 50/68/2 54/62/2 29/69/2 23/67/2
