# Blender 4.3.2
# www.blender.org
mtllib divider_veneer_blue_half.mtl
o divider_veneer_blue_half
v -1.006886 0.037920 0.000000
v -0.000000 0.037920 -0.000000
v 0.000000 2.500000 0.000000
v 0.000000 0.037920 0.085829
v -1.006886 0.037920 0.085829
v 0.000000 2.500000 0.085829
v -0.874953 2.500000 0.000000
v -1.006886 2.368066 0.000000
v -0.968244 2.461358 0.000000
v -1.006886 2.368066 0.085829
v -0.874953 2.500000 0.085829
v -0.968244 2.461358 0.085829
v -0.604354 0.000000 -0.218579
v -0.409419 0.000000 -0.218579
v -0.409419 -0.000000 0.304407
v -0.604354 -0.000000 0.304407
v -0.409419 0.043817 -0.172674
v -0.604354 0.043817 -0.172674
v -0.409419 0.043817 0.258502
v -0.604354 0.043817 0.258502
v -1.006886 0.037920 -0.023037
v -0.000000 0.037920 -0.023037
v 0.000000 0.037920 0.108865
v -1.006886 0.037920 0.108866
v -1.006886 2.368066 -0.023036
v -1.006886 2.368066 0.108866
v -0.000000 0.007723 -0.023037
v -1.037083 0.007723 -0.023037
v 0.000000 0.007723 0.108865
v -1.037083 0.007723 0.108866
v -1.037083 2.368066 0.108866
v -1.037083 2.368066 -0.023036
v 1.006886 0.037920 -0.000000
v 1.006886 0.037920 0.085829
v 0.874953 2.500000 -0.000000
v 1.006886 2.368066 -0.000000
v 0.968244 2.461358 -0.000000
v 1.006886 2.368066 0.085829
v 0.874953 2.500000 0.085829
v 0.968244 2.461358 0.085829
v 0.604354 0.000000 -0.218579
v 0.409419 0.000000 -0.218579
v 0.409419 -0.000000 0.304407
v 0.604354 -0.000000 0.304407
v 0.409419 0.043817 -0.172674
v 0.604354 0.043817 -0.172674
v 0.409419 0.043817 0.258502
v 0.604354 0.043817 0.258502
v 1.006886 0.037920 -0.023037
v 1.006886 0.037920 0.108865
v 1.006886 2.368066 -0.023037
v 1.006886 2.368066 0.108866
v 1.037083 0.007723 -0.023037
v 1.037083 0.007723 0.108865
v 1.037083 2.368066 0.108866
v 1.037083 2.368066 -0.023037
vn -0.0000 -1.0000 -0.0000
vn -0.0000 -0.0000 -1.0000
vn -0.0000 1.0000 -0.0000
vn -0.0000 -0.0000 1.0000
vn 0.9239 -0.3827 -0.0000
vn 0.3827 -0.9239 -0.0000
vn 1.0000 -0.0000 -0.0000
vn -1.0000 -0.0000 -0.0000
vn -0.0000 0.7234 -0.6905
vn -0.0000 0.7234 0.6905
vn -0.9239 -0.3827 -0.0000
vn -0.3827 -0.9239 -0.0000
vt 0.810905 0.808614
vt 0.668766 0.808614
vt 0.668766 0.822558
vt 0.810905 0.822558
vt 0.662802 0.535829
vt 0.826374 0.535829
vt 0.826374 0.914369
vt 0.820097 0.929524
vt 0.804941 0.935802
vt 0.662802 0.935802
vt 0.640159 0.808614
vt 0.803731 0.808614
vt 0.803731 0.822557
vt 0.640159 0.822557
vt 0.662802 0.535829
vt 0.662802 0.935802
vt 0.804941 0.935802
vt 0.820097 0.929524
vt 0.826374 0.914369
vt 0.826374 0.535829
vt 0.806960 0.911312
vt 0.793017 0.911312
vt 0.793017 0.926468
vt 0.806960 0.926468
vt 0.826060 0.822558
vt 0.826060 0.808614
vt 0.790097 0.561493
vt 0.790998 0.935802
vt 0.804040 0.561493
vt 0.610296 0.450763
vt 0.703530 0.450763
vt 0.703530 0.416011
vt 0.610296 0.416011
vt 0.618480 0.450763
vt 0.618480 0.416011
vt 0.695346 0.416011
vt 0.695346 0.450763
vt 0.679406 0.432238
vt 0.772640 0.432238
vt 0.771694 0.433196
vt 0.678460 0.433196
vt 0.686643 0.441007
vt 0.763510 0.441007
vt 0.607048 0.428610
vt 0.607048 0.450161
vt 0.771556 0.450161
vt 0.771556 0.428610
vt 0.549253 0.448378
vt 0.549253 0.426827
vt 0.929959 0.426827
vt 0.929959 0.448378
vt 0.609514 0.428610
vt 0.778956 0.428610
vt 0.778956 0.450161
vt 0.609514 0.450161
vt 0.541852 0.448378
vt 0.927493 0.448378
vt 0.927493 0.426827
vt 0.541852 0.426827
vt 0.928726 0.420665
vt 0.548019 0.420665
vt 0.543086 0.415731
vt 0.928726 0.415731
vt 0.573095 0.420665
vt 0.594645 0.420665
vt 0.594645 0.415731
vt 0.573095 0.415731
vt 0.928018 0.441007
vt 0.932952 0.436073
vt 0.763510 0.436073
vt 0.536919 0.448378
vt 0.536919 0.426827
s 0
usemtl dividers
f 7/1/1 3/2/1 6/3/1 11/4/1
f 4/5/2 5/6/2 10/7/2 12/8/2 11/9/2 6/10/2
f 2/11/3 1/12/3 5/13/3 4/14/3
f 2/15/4 3/16/4 7/17/4 9/18/4 8/19/4 1/20/4
f 10/21/5 8/22/5 9/23/5 12/24/5
f 12/25/6 9/26/6 7/1/6 11/4/6
f 1/27/7 8/28/7 10/17/7 5/29/7
f 14/30/1 15/31/1 16/32/1 13/33/1
f 17/34/3 18/35/3 20/36/3 19/37/3
f 13/38/8 16/39/8 20/36/8 18/35/8
f 14/30/9 13/33/9 18/35/9 17/34/9
f 15/40/7 14/41/7 17/42/7 19/43/7
f 16/32/10 15/31/10 19/37/10 20/36/10
f 22/44/1 23/45/1 24/46/1 21/47/1
f 21/48/8 24/49/8 26/50/8 25/51/8
f 27/52/3 28/53/3 30/54/3 29/55/3
f 28/56/7 32/57/7 31/58/7 30/59/7
f 26/60/2 24/61/2 30/62/2 31/63/2
f 25/64/1 26/65/1 31/66/1 32/67/1
f 22/43/4 21/68/4 28/69/4 27/70/4
f 21/61/4 25/60/4 32/63/4 28/62/4
f 23/59/8 22/56/8 27/71/8 29/72/8
f 24/68/2 23/43/2 29/70/2 30/69/2
f 35/1/1 39/4/1 6/3/1 3/2/1
f 4/5/2 6/10/2 39/9/2 40/8/2 38/7/2 34/6/2
f 2/11/3 4/14/3 34/13/3 33/12/3
f 2/15/4 33/20/4 36/19/4 37/18/4 35/17/4 3/16/4
f 38/21/11 40/24/11 37/23/11 36/22/11
f 40/25/12 39/4/12 35/1/12 37/26/12
f 33/27/8 34/29/8 38/17/8 36/28/8
f 42/30/1 41/33/1 44/32/1 43/31/1
f 45/34/3 47/37/3 48/36/3 46/35/3
f 41/38/7 46/35/7 48/36/7 44/39/7
f 42/30/9 45/34/9 46/35/9 41/33/9
f 43/40/8 47/43/8 45/42/8 42/41/8
f 44/32/10 48/36/10 47/37/10 43/31/10
f 22/44/1 49/47/1 50/46/1 23/45/1
f 49/48/7 51/51/7 52/50/7 50/49/7
f 27/52/3 29/55/3 54/54/3 53/53/3
f 53/56/8 54/59/8 55/58/8 56/57/8
f 52/60/2 55/63/2 54/62/2 50/61/2
f 51/64/1 56/67/1 55/66/1 52/65/1
f 22/43/4 27/70/4 53/69/4 49/68/4
f 49/61/4 53/62/4 56/63/4 51/60/4
f 50/68/2 54/69/2 29/70/2 23/43/2
