# Blender 4.3.2
# www.blender.org
mtllib divider_wood_blue_low.mtl
o divider_wood_blue_low
v -1.500000 0.037920 0.000000
v -0.000000 0.037920 -0.000000
v 0.000000 1.502407 0.000000
v 0.000000 0.037920 0.085829
v -1.500000 0.037920 0.085829
v 0.000000 1.502407 0.085829
v -1.368066 1.502407 0.000000
v -1.500000 1.370474 0.000000
v -1.461357 1.463765 0.000000
v -1.500000 1.370474 0.085829
v -1.368066 1.502407 0.085829
v -1.461357 1.463765 0.085829
v -1.097468 0.000000 -0.218579
v -0.902532 0.000000 -0.218579
v -0.902532 -0.000000 0.304407
v -1.097468 -0.000000 0.304407
v -0.902532 0.043817 -0.172674
v -1.097468 0.043817 -0.172674
v -0.902532 0.043817 0.258502
v -1.097468 0.043817 0.258502
v -1.500000 0.037920 -0.023037
v -0.000000 0.037920 -0.023037
v 0.000000 0.037920 0.108865
v -1.500000 0.037920 0.108866
v -1.500000 1.370474 -0.023036
v -1.500000 1.370474 0.108866
v -0.000000 0.007723 -0.023037
v -1.530197 0.007723 -0.023037
v 0.000000 0.007723 0.108865
v -1.530197 0.007723 0.108866
v -1.530197 1.370474 0.108866
v -1.530197 1.370474 -0.023036
v 1.500000 0.037920 -0.000000
v 1.500000 0.037920 0.085829
v 1.368066 1.502407 -0.000000
v 1.500000 1.370474 -0.000000
v 1.461357 1.463765 -0.000000
v 1.500000 1.370474 0.085829
v 1.368066 1.502407 0.085829
v 1.461357 1.463765 0.085829
v 1.097468 0.000000 -0.218580
v 0.902532 0.000000 -0.218580
v 0.902532 -0.000000 0.304407
v 1.097468 -0.000000 0.304407
v 0.902532 0.043817 -0.172674
v 1.097468 0.043817 -0.172674
v 0.902532 0.043817 0.258502
v 1.097468 0.043817 0.258502
v 1.500000 0.037920 -0.023037
v 1.500000 0.037920 0.108865
v 1.500000 1.370474 -0.023037
v 1.500000 1.370474 0.108866
v 1.530197 0.007723 -0.023037
v 1.530197 0.007723 0.108865
v 1.530197 1.370474 0.108866
v 1.530197 1.370474 -0.023037
vn -0.0000 -1.0000 -0.0000
vn -0.0000 -0.0000 -1.0000
vn -0.0000 1.0000 -0.0000
vn -0.0000 -0.0000 1.0000
vn 0.9239 -0.3827 -0.0000
vn 0.3827 -0.9239 -0.0000
vn 1.0000 -0.0000 -0.0000
vn -1.0000 -0.0000 -0.0000
vn -0.0000 0.7234 -0.6905
vn -0.0000 0.7234 0.6905
vn -0.9239 -0.3827 -0.0000
vn -0.3827 -0.9239 -0.0000
vt 0.890011 0.856856
vt 0.605837 0.856856
vt 0.605837 0.870437
vt 0.890011 0.870437
vt 0.589512 0.591163
vt 0.932360 0.591163
vt 0.932360 0.959861
vt 0.915175 0.974622
vt 0.873686 0.980736
vt 0.589512 0.980736
vt 0.588652 0.856856
vt 0.931500 0.856856
vt 0.931500 0.870437
vt 0.588652 0.870437
vt 0.589512 0.591163
vt 0.589512 0.980736
vt 0.932360 0.591163
vt 0.873239 0.960368
vt 0.835069 0.960368
vt 0.835069 0.975129
vt 0.873239 0.975129
vt 0.931500 0.856856
vt 0.833050 0.616159
vt 0.833050 0.984857
vt 0.871220 0.984857
vt 0.871220 0.616159
vt 0.666315 0.349562
vt 0.770913 0.349562
vt 0.770913 0.310575
vt 0.666315 0.310575
vt 0.675496 0.349562
vt 0.675496 0.310575
vt 0.761732 0.310575
vt 0.761732 0.349562
vt 0.666315 0.301811
vt 0.770913 0.301811
vt 0.811826 0.333545
vt 0.707229 0.333545
vt 0.716410 0.342308
vt 0.802645 0.342308
vt 0.627113 0.328401
vt 0.627113 0.352578
vt 0.811671 0.352578
vt 0.811671 0.328401
vt 0.562274 0.350578
vt 0.562274 0.326400
vt 0.989381 0.326400
vt 0.989381 0.350578
vt 0.629880 0.328401
vt 0.819974 0.328401
vt 0.819974 0.352578
vt 0.629880 0.352578
vt 0.553971 0.350578
vt 0.986614 0.350578
vt 0.986614 0.326400
vt 0.553971 0.326400
vt 0.987998 0.319487
vt 0.560890 0.319487
vt 0.555355 0.313952
vt 0.987998 0.313952
vt 0.589021 0.319487
vt 0.613199 0.319487
vt 0.613199 0.313952
vt 0.589021 0.313952
vt 0.797904 0.325022
vt 0.982463 0.325022
vt 0.797904 0.319487
vt 0.548436 0.350578
vt 0.548436 0.326400
s 0
usemtl dividers
f 7/1/1 3/2/1 6/3/1 11/4/1
f 4/5/2 5/6/2 10/7/2 12/8/2 11/9/2 6/10/2
f 2/11/3 1/12/3 5/13/3 4/14/3
f 2/15/4 3/16/4 7/9/4 9/8/4 8/7/4 1/17/4
f 10/18/5 8/19/5 9/20/5 12/21/5
f 12/13/6 9/22/6 7/1/6 11/4/6
f 1/23/7 8/24/7 10/25/7 5/26/7
f 14/27/1 15/28/1 16/29/1 13/30/1
f 17/31/3 18/32/3 20/33/3 19/34/3
f 13/35/8 16/36/8 20/33/8 18/32/8
f 14/27/9 13/30/9 18/32/9 17/31/9
f 15/37/7 14/38/7 17/39/7 19/40/7
f 16/29/10 15/28/10 19/34/10 20/33/10
f 22/41/1 23/42/1 24/43/1 21/44/1
f 21/45/8 24/46/8 26/47/8 25/48/8
f 27/49/3 28/50/3 30/51/3 29/52/3
f 28/53/7 32/54/7 31/55/7 30/56/7
f 26/57/2 24/58/2 30/59/2 31/60/2
f 25/61/1 26/62/1 31/63/1 32/64/1
f 22/65/4 21/66/4 28/57/4 27/67/4
f 21/58/4 25/57/4 32/60/4 28/59/4
f 23/56/8 22/53/8 27/68/8 29/69/8
f 24/66/2 23/65/2 29/67/2 30/57/2
f 35/1/1 39/4/1 6/3/1 3/2/1
f 4/5/2 6/10/2 39/9/2 40/8/2 38/7/2 34/6/2
f 2/11/3 4/14/3 34/13/3 33/12/3
f 2/15/4 33/17/4 36/7/4 37/8/4 35/9/4 3/16/4
f 38/18/11 40/21/11 37/20/11 36/19/11
f 40/13/12 39/4/12 35/1/12 37/22/12
f 33/23/8 34/26/8 38/25/8 36/24/8
f 42/27/1 41/30/1 44/29/1 43/28/1
f 45/31/3 47/34/3 48/33/3 46/32/3
f 41/35/7 46/32/7 48/33/7 44/36/7
f 42/27/9 45/31/9 46/32/9 41/30/9
f 43/37/8 47/40/8 45/39/8 42/38/8
f 44/29/10 48/33/10 47/34/10 43/28/10
f 22/41/1 49/44/1 50/43/1 23/42/1
f 49/45/7 51/48/7 52/47/7 50/46/7
f 27/49/3 29/52/3 54/51/3 53/50/3
f 53/53/8 54/56/8 55/55/8 56/54/8
f 52/57/2 55/60/2 54/59/2 50/58/2
f 51/61/1 56/64/1 55/63/1 52/62/1
f 22/65/4 27/67/4 53/57/4 49/66/4
f 49/58/4 53/59/4 56/60/4 51/57/4
f 50/66/2 54/57/2 29/67/2 23/65/2
