# Blender 4.3.2
# www.blender.org
mtllib divider_veneer_blue.mtl
o divider_veneer_blue
v -1.500000 0.037920 0.000000
v -0.000000 0.037920 -0.000000
v 0.000000 2.500000 0.000000
v 0.000000 0.037920 0.085829
v -1.500000 0.037920 0.085829
v 0.000000 2.500000 0.085829
v -1.368066 2.500000 0.000000
v -1.500000 2.368066 0.000000
v -1.461357 2.461358 0.000000
v -1.500000 2.368066 0.085829
v -1.368066 2.500000 0.085829
v -1.461357 2.461358 0.085829
v -1.097468 0.000000 -0.218579
v -0.902532 0.000000 -0.218579
v -0.902532 -0.000000 0.304407
v -1.097468 -0.000000 0.304407
v -0.902532 0.043817 -0.172674
v -1.097468 0.043817 -0.172674
v -0.902532 0.043817 0.258502
v -1.097468 0.043817 0.258502
v -1.500000 0.037920 -0.023037
v -0.000000 0.037920 -0.023037
v 0.000000 0.037920 0.108865
v -1.500000 0.037920 0.108866
v -1.500000 2.368066 -0.023036
v -1.500000 2.368066 0.108866
v -0.000000 0.007723 -0.023037
v -1.530197 0.007723 -0.023037
v 0.000000 0.007723 0.108865
v -1.530197 0.007723 0.108866
v -1.530197 2.368066 0.108866
v -1.530197 2.368066 -0.023036
v 1.500000 0.037920 -0.000000
v 1.500000 0.037920 0.085829
v 1.368066 2.500000 -0.000000
v 1.500000 2.368066 -0.000000
v 1.461357 2.461358 -0.000000
v 1.500000 2.368066 0.085829
v 1.368066 2.500000 0.085829
v 1.461357 2.461358 0.085829
v 1.097468 0.000000 -0.218580
v 0.902532 0.000000 -0.218580
v 0.902532 -0.000000 0.304407
v 1.097468 -0.000000 0.304407
v 0.902532 0.043817 -0.172674
v 1.097468 0.043817 -0.172674
v 0.902532 0.043817 0.258502
v 1.097468 0.043817 0.258502
v 1.500000 0.037920 -0.023037
v 1.500000 0.037920 0.108865
v 1.500000 2.368066 -0.023037
v 1.500000 2.368066 0.108866
v 1.530197 0.007723 -0.023037
v 1.530197 0.007723 0.108865
v 1.530197 2.368066 0.108866
v 1.530197 2.368066 -0.023037
vn -0.0000 -1.0000 -0.0000
vn -0.0000 -0.0000 -1.0000
vn -0.0000 1.0000 -0.0000
vn -0.0000 -0.0000 1.0000
vn 0.9239 -0.3827 -0.0000
vn 0.3827 -0.9239 -0.0000
vn 1.0000 -0.0000 -0.0000
vn -1.0000 -0.0000 -0.0000
vn -0.0000 0.7234 -0.6905
vn -0.0000 0.7234 0.6905
vn -0.9239 -0.3827 -0.0000
vn -0.3827 -0.9239 -0.0000
vt 0.901049 0.833962
vt 0.687960 0.833962
vt 0.687960 0.847905
vt 0.901049 0.847905
vt 0.679020 0.561177
vt 0.924240 0.561177
vt 0.924240 0.939717
vt 0.914829 0.954872
vt 0.892109 0.961150
vt 0.679020 0.961150
vt 0.645074 0.833962
vt 0.890294 0.833962
vt 0.890294 0.847905
vt 0.645074 0.847905
vt 0.679020 0.561177
vt 0.679020 0.961150
vt 0.892109 0.961150
vt 0.914829 0.954872
vt 0.924240 0.939717
vt 0.924240 0.561177
vt 0.892777 0.940891
vt 0.871874 0.940891
vt 0.871874 0.956046
vt 0.892777 0.956046
vt 0.923769 0.847905
vt 0.923769 0.833962
vt 0.869855 0.586841
vt 0.869855 0.965380
vt 0.890758 0.965380
vt 0.890758 0.586841
vt 0.642138 0.458809
vt 0.746736 0.458809
vt 0.746736 0.419822
vt 0.642138 0.419822
vt 0.651319 0.458809
vt 0.651319 0.419822
vt 0.737554 0.419822
vt 0.737554 0.458809
vt 0.642138 0.411058
vt 0.746736 0.411058
vt 0.787649 0.442792
vt 0.683051 0.442792
vt 0.692232 0.451555
vt 0.778468 0.451555
vt 0.602935 0.437647
vt 0.602935 0.461825
vt 0.787494 0.461825
vt 0.787494 0.437647
vt 0.538096 0.459824
vt 0.538096 0.435647
vt 0.965204 0.435647
vt 0.965204 0.459824
vt 0.605703 0.437647
vt 0.795796 0.437647
vt 0.795796 0.461825
vt 0.605703 0.461825
vt 0.529794 0.459824
vt 0.962437 0.459824
vt 0.962437 0.435647
vt 0.529794 0.435647
vt 0.963820 0.428734
vt 0.536713 0.428734
vt 0.531178 0.423199
vt 0.963820 0.423199
vt 0.564844 0.428734
vt 0.589021 0.428734
vt 0.589021 0.423199
vt 0.564844 0.423199
vt 0.773727 0.428734
vt 0.958285 0.428734
vt 0.773727 0.423199
vt 0.597400 0.461825
vt 0.597400 0.437647
s 0
usemtl dividers
f 7/1/1 3/2/1 6/3/1 11/4/1
f 4/5/2 5/6/2 10/7/2 12/8/2 11/9/2 6/10/2
f 2/11/3 1/12/3 5/13/3 4/14/3
f 2/15/4 3/16/4 7/17/4 9/18/4 8/19/4 1/20/4
f 10/21/5 8/22/5 9/23/5 12/24/5
f 12/25/6 9/26/6 7/1/6 11/4/6
f 1/27/7 8/28/7 10/29/7 5/30/7
f 14/31/1 15/32/1 16/33/1 13/34/1
f 17/35/3 18/36/3 20/37/3 19/38/3
f 13/39/8 16/40/8 20/37/8 18/36/8
f 14/31/9 13/34/9 18/36/9 17/35/9
f 15/41/7 14/42/7 17/43/7 19/44/7
f 16/33/10 15/32/10 19/38/10 20/37/10
f 22/45/1 23/46/1 24/47/1 21/48/1
f 21/49/8 24/50/8 26/51/8 25/52/8
f 27/53/3 28/54/3 30/55/3 29/56/3
f 28/57/7 32/58/7 31/59/7 30/60/7
f 26/61/2 24/62/2 30/63/2 31/64/2
f 25/65/1 26/66/1 31/67/1 32/68/1
f 22/69/4 21/70/4 28/64/4 27/71/4
f 21/62/4 25/61/4 32/64/4 28/63/4
f 23/45/8 22/46/8 27/72/8 29/73/8
f 24/70/2 23/69/2 29/71/2 30/64/2
f 35/1/1 39/4/1 6/3/1 3/2/1
f 4/5/2 6/10/2 39/9/2 40/8/2 38/7/2 34/6/2
f 2/11/3 4/14/3 34/13/3 33/12/3
f 2/15/4 33/20/4 36/19/4 37/18/4 35/17/4 3/16/4
f 38/21/11 40/24/11 37/23/11 36/22/11
f 40/25/12 39/4/12 35/1/12 37/26/12
f 33/27/8 34/30/8 38/29/8 36/28/8
f 42/31/1 41/34/1 44/33/1 43/32/1
f 45/35/3 47/38/3 48/37/3 46/36/3
f 41/39/7 46/36/7 48/37/7 44/40/7
f 42/31/9 45/35/9 46/36/9 41/34/9
f 43/41/8 47/44/8 45/43/8 42/42/8
f 44/33/10 48/37/10 47/38/10 43/32/10
f 22/45/1 49/48/1 50/47/1 23/46/1
f 49/49/7 51/52/7 52/51/7 50/50/7
f 27/53/3 29/56/3 54/55/3 53/54/3
f 53/57/8 54/60/8 55/59/8 56/58/8
f 52/61/2 55/64/2 54/63/2 50/62/2
f 51/65/1 56/68/1 55/67/1 52/66/1
f 22/69/4 27/71/4 53/64/4 49/70/4
f 49/62/4 53/63/4 56/64/4 51/61/4
f 50/70/2 54/64/2 29/71/2 23/69/2
