# Blender 4.3.2
# www.blender.org
mtllib divider_full_h_lue_desk.mtl
o divider_full_h_lue_desk
v 1.470326 -0.000025 0.002075
v 0.000000 -0.000024 0.000000
v 0.000000 1.501547 -0.000000
v 0.000000 -0.000024 -0.085829
v 1.470326 -0.000025 -0.083754
v 0.000000 1.501547 -0.085829
v 1.368066 1.501547 -0.000000
v 1.470326 1.369613 0.002074
v 1.431683 1.462904 0.002074
v 1.470326 1.369613 -0.083754
v 1.368066 1.501547 -0.085829
v 1.431683 1.462904 -0.083754
v -1.470326 -0.000025 0.002075
v -1.470326 -0.000025 -0.083754
v -1.368066 1.501547 -0.000000
v -1.470326 1.369613 0.002074
v -1.431683 1.462904 0.002074
v -1.470326 1.369613 -0.083754
v -1.368066 1.501547 -0.085829
v -1.431683 1.462904 -0.083754
v 1.400000 -0.000024 1.500000
v 1.399999 -0.000024 0.000000
v 1.400000 1.501547 -0.000000
v 1.485828 -0.000024 -0.000000
v 1.485829 -0.000024 1.500000
v 1.485829 1.501547 -0.000000
v 1.400000 1.501547 1.500000
v 1.485829 1.501547 1.500000
v 1.399999 -0.000024 -1.500000
v 1.485828 -0.000024 -1.500000
v 1.400000 1.501547 -1.500000
v 1.485829 1.501547 -1.500000
v -1.500000 -0.000024 1.500000
v -1.500000 -0.000024 0.000000
v -1.500000 1.501547 -0.000000
v -1.414171 -0.000024 -0.000000
v -1.414171 -0.000024 1.500000
v -1.414171 1.501547 -0.000000
v -1.500000 1.501547 1.500000
v -1.414171 1.501547 1.500000
v -1.500000 -0.000024 -1.500000
v -1.414171 -0.000024 -1.500000
v -1.500000 1.501547 -1.500000
v -1.414171 1.501547 -1.500000
v -1.422249 0.846057 0.955248
v 1.422249 0.846057 0.955248
v -1.422249 0.846057 -1.055247
v 1.422249 0.846057 -1.055247
v -1.422249 0.903945 -1.055247
v -1.422249 0.903945 0.955248
v 1.422249 0.903945 0.955248
v 1.422249 0.903945 -1.055247
vn -0.0000 -1.0000 -0.0000
vn -0.0014 0.0006 1.0000
vn -0.0000 1.0000 -0.0000
vn 0.0014 -0.0006 -1.0000
vn -0.9239 -0.3827 -0.0000
vn -0.5192 -0.8547 -0.0000
vn -1.0000 -0.0000 -0.0000
vn 0.0014 0.0006 1.0000
vn -0.0014 -0.0006 -1.0000
vn 0.9239 -0.3827 -0.0000
vn 0.5192 -0.8547 -0.0000
vn 1.0000 -0.0000 -0.0000
vn -0.0000 -0.0000 -1.0000
vn -0.0000 -0.0000 1.0000
vt 0.972261 0.743111
vt 0.748429 0.743111
vt 0.748429 0.757154
vt 0.972261 0.757154
vt 0.748429 0.627125
vt 0.988992 0.627125
vt 0.988992 0.851214
vt 0.982669 0.866478
vt 0.972261 0.872800
vt 0.748429 0.872800
vt 0.748429 0.743111
vt 0.988992 0.742772
vt 0.988992 0.756814
vt 0.755450 0.854375
vt 0.741407 0.854375
vt 0.741407 0.869639
vt 0.755450 0.869639
vt 0.982669 0.756814
vt 0.982669 0.742772
vt 0.741407 0.630286
vt 0.755450 0.630286
vt 0.524596 0.743111
vt 0.524596 0.757154
vt 0.524596 0.872800
vt 0.514188 0.866478
vt 0.507865 0.851214
vt 0.507865 0.627125
vt 0.507865 0.756814
vt 0.507865 0.742772
vt 0.755450 0.854376
vt 0.755450 0.869639
vt 0.741407 0.869639
vt 0.741407 0.854376
vt 0.514188 0.756814
vt 0.514188 0.742772
vt 0.503010 0.756984
vt 0.748428 0.756984
vt 0.748428 0.742941
vt 0.503010 0.742941
vt 0.748428 0.627125
vt 0.503010 0.627125
vt 0.503010 0.872800
vt 0.748428 0.872800
vt 0.748428 0.756984
vt 0.503010 0.756984
vt 0.741407 0.872800
vt 0.755450 0.872800
vt 0.755450 0.627125
vt 0.741407 0.627125
vt 0.993847 0.756984
vt 0.993847 0.742941
vt 0.993847 0.872800
vt 0.993847 0.627125
vt 0.993847 0.742941
vt 0.741407 0.627125
vt 0.748428 0.756984
vt 0.748428 0.742941
vt 0.993847 0.742941
vt 0.677854 0.182017
vt 0.800974 0.182017
vt 0.800974 0.007823
vt 0.677854 0.007823
vt 0.620451 0.010837
vt 0.858377 0.010837
vt 0.858377 0.179003
vt 0.620451 0.179003
vt 0.858377 0.092499
vt 0.620451 0.092499
vt 0.620451 0.097341
vt 0.858377 0.097341
vt 0.655331 0.092499
vt 0.823497 0.092499
vt 0.823497 0.097341
vt 0.655331 0.097341
s 0
usemtl dividers
f 7/1/1 3/2/1 6/3/1 11/4/1
f 4/5/2 5/6/2 10/7/2 12/8/2 11/9/2 6/10/2
f 2/11/3 1/12/3 5/13/3 4/3/3
f 2/5/4 3/10/4 7/9/4 9/8/4 8/7/4 1/6/4
f 10/14/5 8/15/5 9/16/5 12/17/5
f 12/18/6 9/19/6 7/1/6 11/4/6
f 1/20/7 8/15/7 10/14/7 5/21/7
f 15/22/1 19/23/1 6/3/1 3/2/1
f 4/5/8 6/10/8 19/24/8 20/25/8 18/26/8 14/27/8
f 2/11/3 4/3/3 14/28/3 13/29/3
f 2/5/9 13/27/9 16/26/9 17/25/9 15/24/9 3/10/9
f 18/30/10 20/31/10 17/32/10 16/33/10
f 20/34/11 19/23/11 15/22/11 17/35/11
f 13/20/12 14/21/12 18/30/12 16/33/12
f 27/36/1 23/37/1 26/38/1 28/39/1
f 24/40/7 25/41/7 28/42/7 26/43/7
f 22/44/3 21/45/3 25/39/3 24/38/3
f 22/40/12 23/43/12 27/42/12 21/41/12
f 27/46/13 28/47/13 25/48/13 21/49/13
f 31/50/1 32/51/1 26/38/1 23/37/1
f 24/40/7 26/43/7 32/52/7 30/53/7
f 22/44/3 24/38/3 30/54/3 29/50/3
f 22/40/12 29/53/12 31/52/12 23/43/12
f 31/46/14 29/55/14 30/48/14 32/47/14
f 39/45/1 35/56/1 38/38/1 40/39/1
f 36/40/7 37/41/7 40/42/7 38/43/7
f 34/37/3 33/36/3 37/39/3 36/57/3
f 34/40/12 35/43/12 39/42/12 33/41/12
f 39/46/13 40/47/13 37/48/13 33/49/13
f 43/50/1 44/54/1 38/38/1 35/56/1
f 36/40/7 38/43/7 44/52/7 42/53/7
f 34/37/3 36/57/3 42/58/3 41/50/3
f 34/40/12 41/53/12 43/52/12 35/43/12
f 43/46/14 41/49/14 42/48/14 44/47/14
f 45/59/1 47/60/1 48/61/1 46/62/1
f 50/63/3 51/64/3 52/65/3 49/66/3
f 48/67/13 47/68/13 49/69/13 52/70/13
f 45/68/14 46/67/14 51/70/14 50/69/14
f 46/71/12 48/72/12 52/73/12 51/74/12
f 47/72/7 45/71/7 50/74/7 49/73/7
