# Blender 4.3.2
# www.blender.org
mtllib divider_veneer_low_half.mtl
o divider_veneer_low_half
v -1.006886 0.037920 0.000000
v -0.000000 0.037920 -0.000000
v 0.000000 1.502407 0.000000
v 0.000000 0.037920 0.085829
v -1.006886 0.037920 0.085829
v 0.000000 1.502407 0.085829
v -0.874953 1.502407 0.000000
v -1.006886 1.370474 0.000000
v -0.968244 1.463765 0.000000
v -1.006886 1.370474 0.085829
v -0.874953 1.502407 0.085829
v -0.968244 1.463765 0.085829
v -0.604354 0.000000 -0.218579
v -0.409419 0.000000 -0.218579
v -0.409419 -0.000000 0.304407
v -0.604354 -0.000000 0.304407
v -0.409419 0.043817 -0.172674
v -0.604354 0.043817 -0.172674
v -0.409419 0.043817 0.258502
v -0.604354 0.043817 0.258502
v -1.006886 0.037920 -0.023037
v -0.000000 0.037920 -0.023037
v 0.000000 0.037920 0.108865
v -1.006886 0.037920 0.108866
v -1.006886 1.370474 -0.023036
v -1.006886 1.370474 0.108866
v -0.000000 0.007723 -0.023037
v -1.037083 0.007723 -0.023037
v 0.000000 0.007723 0.108865
v -1.037083 0.007723 0.108866
v -1.037083 1.370474 0.108866
v -1.037083 1.370474 -0.023036
v 1.006886 0.037920 -0.000000
v 1.006886 0.037920 0.085829
v 0.874953 1.502407 -0.000000
v 1.006886 1.370474 -0.000000
v 0.968244 1.463765 -0.000000
v 1.006886 1.370474 0.085829
v 0.874953 1.502407 0.085829
v 0.968244 1.463765 0.085829
v 0.604354 0.000000 -0.218579
v 0.409419 0.000000 -0.218579
v 0.409419 -0.000000 0.304407
v 0.604354 -0.000000 0.304407
v 0.409419 0.043817 -0.172674
v 0.604354 0.043817 -0.172674
v 0.409419 0.043817 0.258502
v 0.604354 0.043817 0.258502
v 1.006886 0.037920 -0.023037
v 1.006886 0.037920 0.108865
v 1.006886 1.370474 -0.023037
v 1.006886 1.370474 0.108866
v 1.037083 0.007723 -0.023037
v 1.037083 0.007723 0.108865
v 1.037083 1.370474 0.108866
v 1.037083 1.370474 -0.023037
vn -0.0000 -1.0000 -0.0000
vn -0.0000 -0.0000 -1.0000
vn -0.0000 1.0000 -0.0000
vn -0.0000 -0.0000 1.0000
vn 0.9239 -0.3827 -0.0000
vn 0.3827 -0.9239 -0.0000
vn 1.0000 -0.0000 -0.0000
vn -1.0000 -0.0000 -0.0000
vn -0.0000 0.7234 -0.6905
vn -0.0000 0.7234 0.6905
vn -0.9239 -0.3827 -0.0000
vn -0.3827 -0.9239 -0.0000
vt 0.419374 0.854371
vt 0.224768 0.854371
vt 0.224768 0.868314
vt 0.419374 0.868314
vt 0.218804 0.581586
vt 0.434844 0.581586
vt 0.434844 0.960126
vt 0.428566 0.975281
vt 0.413411 0.981559
vt 0.218804 0.981559
vt 0.196161 0.854371
vt 0.412200 0.854371
vt 0.412200 0.868314
vt 0.196161 0.868314
vt 0.218804 0.981559
vt 0.413411 0.981559
vt 0.428566 0.975281
vt 0.434844 0.960126
vt 0.412510 0.985789
vt 0.398567 0.985789
vt 0.398567 1.000945
vt 0.412510 1.000945
vt 0.434530 0.868314
vt 0.434530 0.854371
vt 0.398567 0.607250
vt 0.412510 0.607250
vt 0.684907 0.474151
vt 0.789504 0.474151
vt 0.789504 0.435164
vt 0.684907 0.435164
vt 0.694088 0.474151
vt 0.694088 0.435164
vt 0.780323 0.435164
vt 0.780323 0.474151
vt 0.694910 0.439382
vt 0.799507 0.439382
vt 0.780323 0.435164
vt 0.799507 0.420281
vt 0.694910 0.420281
vt 0.704091 0.429045
vt 0.790326 0.429045
vt 0.614793 0.415137
vt 0.614793 0.439314
vt 0.799352 0.439314
vt 0.799352 0.415137
vt 0.549954 0.437314
vt 0.549954 0.413137
vt 0.977062 0.413137
vt 0.977062 0.437314
vt 0.617561 0.415137
vt 0.807655 0.415137
vt 0.807655 0.439314
vt 0.617561 0.439314
vt 0.541652 0.437314
vt 0.974295 0.437314
vt 0.974295 0.413137
vt 0.541652 0.413137
vt 0.982597 0.437314
vt 0.555489 0.437314
vt 0.549954 0.431779
vt 0.982597 0.431779
vt 0.583621 0.437314
vt 0.607798 0.437314
vt 0.607798 0.431779
vt 0.583621 0.431779
vt 0.765512 0.419638
vt 0.950071 0.419638
vt 0.955606 0.414103
vt 0.765512 0.414103
vt 0.555489 0.413137
vt 0.549954 0.413137
s 0
usemtl dividers
f 7/1/1 3/2/1 6/3/1 11/4/1
f 4/5/2 5/6/2 10/7/2 12/8/2 11/9/2 6/10/2
f 2/11/3 1/12/3 5/13/3 4/14/3
f 2/5/4 3/15/4 7/16/4 9/17/4 8/18/4 1/6/4
f 10/19/5 8/20/5 9/21/5 12/22/5
f 12/23/6 9/24/6 7/1/6 11/4/6
f 1/25/7 8/20/7 10/19/7 5/26/7
f 14/27/1 15/28/1 16/29/1 13/30/1
f 17/31/3 18/32/3 20/33/3 19/34/3
f 13/35/8 16/36/8 20/37/8 18/32/8
f 14/27/9 13/30/9 18/32/9 17/31/9
f 15/38/7 14/39/7 17/40/7 19/41/7
f 16/29/10 15/28/10 19/34/10 20/33/10
f 22/42/1 23/43/1 24/44/1 21/45/1
f 21/46/8 24/47/8 26/48/8 25/49/8
f 27/50/3 28/51/3 30/52/3 29/53/3
f 28/54/7 32/55/7 31/56/7 30/57/7
f 26/58/2 24/59/2 30/60/2 31/61/2
f 25/62/1 26/63/1 31/64/1 32/65/1
f 22/66/4 21/67/4 28/68/4 27/69/4
f 21/59/4 25/58/4 32/61/4 28/60/4
f 23/70/8 22/59/8 27/46/8 29/71/8
f 24/67/2 23/66/2 29/69/2 30/68/2
f 35/1/1 39/4/1 6/3/1 3/2/1
f 4/5/2 6/10/2 39/9/2 40/8/2 38/7/2 34/6/2
f 2/11/3 4/14/3 34/13/3 33/12/3
f 2/5/4 33/6/4 36/18/4 37/17/4 35/16/4 3/15/4
f 38/19/11 40/22/11 37/21/11 36/20/11
f 40/23/12 39/4/12 35/1/12 37/24/12
f 33/25/8 34/26/8 38/19/8 36/20/8
f 42/27/1 41/30/1 44/29/1 43/28/1
f 45/31/3 47/34/3 48/33/3 46/32/3
f 41/35/7 46/32/7 48/37/7 44/36/7
f 42/27/9 45/31/9 46/32/9 41/30/9
f 43/38/8 47/41/8 45/40/8 42/39/8
f 44/29/10 48/33/10 47/34/10 43/28/10
f 22/42/1 49/45/1 50/44/1 23/43/1
f 49/46/7 51/49/7 52/48/7 50/47/7
f 27/50/3 29/53/3 54/52/3 53/51/3
f 53/54/8 54/57/8 55/56/8 56/55/8
f 52/58/2 55/61/2 54/60/2 50/59/2
f 51/62/1 56/65/1 55/64/1 52/63/1
f 22/66/4 27/69/4 53/68/4 49/67/4
f 49/59/4 53/60/4 56/61/4 51/58/4
f 50/67/2 54/68/2 29/69/2 23/66/2
