# Blender 4.3.2
# www.blender.org
mtllib divider_wood_half.mtl
o divider_wood_half
v -1.006886 0.037920 0.000000
v -0.000000 0.037920 -0.000000
v 0.000000 2.500000 0.000000
v 0.000000 0.037920 0.085829
v -1.006886 0.037920 0.085829
v 0.000000 2.500000 0.085829
v -0.874953 2.500000 0.000000
v -1.006886 2.368066 0.000000
v -0.968244 2.461358 0.000000
v -1.006886 2.368066 0.085829
v -0.874953 2.500000 0.085829
v -0.968244 2.461358 0.085829
v -0.604354 0.000000 -0.218579
v -0.409419 0.000000 -0.218579
v -0.409419 -0.000000 0.304407
v -0.604354 -0.000000 0.304407
v -0.409419 0.043817 -0.172674
v -0.604354 0.043817 -0.172674
v -0.409419 0.043817 0.258502
v -0.604354 0.043817 0.258502
v -1.006886 0.037920 -0.023037
v -0.000000 0.037920 -0.023037
v 0.000000 0.037920 0.108865
v -1.006886 0.037920 0.108866
v -1.006886 2.368066 -0.023036
v -1.006886 2.368066 0.108866
v -0.000000 0.007723 -0.023037
v -1.037083 0.007723 -0.023037
v 0.000000 0.007723 0.108865
v -1.037083 0.007723 0.108866
v -1.037083 2.368066 0.108866
v -1.037083 2.368066 -0.023036
v 1.006886 0.037920 -0.000000
v 1.006886 0.037920 0.085829
v 0.874953 2.500000 -0.000000
v 1.006886 2.368066 -0.000000
v 0.968244 2.461358 -0.000000
v 1.006886 2.368066 0.085829
v 0.874953 2.500000 0.085829
v 0.968244 2.461358 0.085829
v 0.604354 0.000000 -0.218579
v 0.409419 0.000000 -0.218579
v 0.409419 -0.000000 0.304407
v 0.604354 -0.000000 0.304407
v 0.409419 0.043817 -0.172674
v 0.604354 0.043817 -0.172674
v 0.409419 0.043817 0.258502
v 0.604354 0.043817 0.258502
v 1.006886 0.037920 -0.023037
v 1.006886 0.037920 0.108865
v 1.006886 2.368066 -0.023037
v 1.006886 2.368066 0.108866
v 1.037083 0.007723 -0.023037
v 1.037083 0.007723 0.108865
v 1.037083 2.368066 0.108866
v 1.037083 2.368066 -0.023037
vn -0.0000 -1.0000 -0.0000
vn -0.0000 -0.0000 -1.0000
vn -0.0000 1.0000 -0.0000
vn -0.0000 -0.0000 1.0000
vn 0.9239 -0.3827 -0.0000
vn 0.3827 -0.9239 -0.0000
vn 1.0000 -0.0000 -0.0000
vn -1.0000 -0.0000 -0.0000
vn -0.0000 0.7234 -0.6905
vn -0.0000 0.7234 0.6905
vn -0.9239 -0.3827 -0.0000
vn -0.3827 -0.9239 -0.0000
vt 0.422082 0.851887
vt 0.279943 0.851887
vt 0.279943 0.865831
vt 0.422082 0.865831
vt 0.273979 0.579102
vt 0.437551 0.579102
vt 0.437551 0.957642
vt 0.431274 0.972797
vt 0.416118 0.979075
vt 0.273979 0.979075
vt 0.251336 0.851887
vt 0.414908 0.851887
vt 0.414908 0.865830
vt 0.251336 0.865830
vt 0.273979 0.579102
vt 0.273979 0.979075
vt 0.416118 0.979075
vt 0.431274 0.972797
vt 0.437551 0.957642
vt 0.437551 0.579102
vt 0.402175 0.979075
vt 0.402175 0.994230
vt 0.416118 0.994230
vt 0.437237 0.865831
vt 0.437237 0.851887
vt 0.401274 0.604766
vt 0.415217 0.604766
vt 0.680613 0.359413
vt 0.773846 0.359413
vt 0.773846 0.324662
vt 0.680613 0.324662
vt 0.688796 0.359413
vt 0.688796 0.324662
vt 0.765663 0.324662
vt 0.765663 0.359413
vt 0.680613 0.316850
vt 0.773846 0.316850
vt 0.772900 0.317808
vt 0.679666 0.317808
vt 0.687850 0.325619
vt 0.764716 0.325619
vt 0.608254 0.313222
vt 0.608254 0.334773
vt 0.772762 0.334773
vt 0.772762 0.313222
vt 0.550459 0.332990
vt 0.550459 0.311439
vt 0.931166 0.311439
vt 0.931166 0.332990
vt 0.610721 0.313222
vt 0.780163 0.313222
vt 0.780163 0.334773
vt 0.610721 0.334773
vt 0.543059 0.332990
vt 0.928699 0.332990
vt 0.928699 0.311439
vt 0.543059 0.311439
vt 0.929932 0.305277
vt 0.549226 0.305277
vt 0.544292 0.300343
vt 0.929932 0.300343
vt 0.574301 0.305277
vt 0.595852 0.305277
vt 0.595852 0.300343
vt 0.574301 0.300343
vt 0.929225 0.325619
vt 0.934158 0.320685
vt 0.764716 0.320686
vt 0.538125 0.332990
vt 0.538125 0.311439
s 0
usemtl dividers
f 7/1/1 3/2/1 6/3/1 11/4/1
f 4/5/2 5/6/2 10/7/2 12/8/2 11/9/2 6/10/2
f 2/11/3 1/12/3 5/13/3 4/14/3
f 2/15/4 3/16/4 7/17/4 9/18/4 8/19/4 1/20/4
f 10/17/5 8/21/5 9/22/5 12/23/5
f 12/24/6 9/25/6 7/1/6 11/4/6
f 1/26/7 8/21/7 10/17/7 5/27/7
f 14/28/1 15/29/1 16/30/1 13/31/1
f 17/32/3 18/33/3 20/34/3 19/35/3
f 13/36/8 16/37/8 20/34/8 18/33/8
f 14/28/9 13/31/9 18/33/9 17/32/9
f 15/38/7 14/39/7 17/40/7 19/41/7
f 16/30/10 15/29/10 19/35/10 20/34/10
f 22/42/1 23/43/1 24/44/1 21/45/1
f 21/46/8 24/47/8 26/48/8 25/49/8
f 27/50/3 28/51/3 30/52/3 29/53/3
f 28/54/7 32/55/7 31/56/7 30/57/7
f 26/58/2 24/59/2 30/60/2 31/61/2
f 25/62/1 26/63/1 31/64/1 32/65/1
f 22/41/4 21/66/4 28/67/4 27/68/4
f 21/59/4 25/58/4 32/61/4 28/60/4
f 23/57/8 22/54/8 27/69/8 29/70/8
f 24/66/2 23/41/2 29/68/2 30/67/2
f 35/1/1 39/4/1 6/3/1 3/2/1
f 4/5/2 6/10/2 39/9/2 40/8/2 38/7/2 34/6/2
f 2/11/3 4/14/3 34/13/3 33/12/3
f 2/15/4 33/20/4 36/19/4 37/18/4 35/17/4 3/16/4
f 38/17/11 40/23/11 37/22/11 36/21/11
f 40/24/12 39/4/12 35/1/12 37/25/12
f 33/26/8 34/27/8 38/17/8 36/21/8
f 42/28/1 41/31/1 44/30/1 43/29/1
f 45/32/3 47/35/3 48/34/3 46/33/3
f 41/36/7 46/33/7 48/34/7 44/37/7
f 42/28/9 45/32/9 46/33/9 41/31/9
f 43/38/8 47/41/8 45/40/8 42/39/8
f 44/30/10 48/34/10 47/35/10 43/29/10
f 22/42/1 49/45/1 50/44/1 23/43/1
f 49/46/7 51/49/7 52/48/7 50/47/7
f 27/50/3 29/53/3 54/52/3 53/51/3
f 53/54/8 54/57/8 55/56/8 56/55/8
f 52/58/2 55/61/2 54/60/2 50/59/2
f 51/62/1 56/65/1 55/64/1 52/63/1
f 22/41/4 27/68/4 53/67/4 49/66/4
f 49/59/4 53/60/4 56/61/4 51/58/4
f 50/66/2 54/67/2 29/68/2 23/41/2
