# Blender 4.3.2
# www.blender.org
mtllib computer_mouse.mtl
o computer_mouse
v -0.029741 0.000000 0.054299
v -0.029741 0.034182 0.054299
v -0.032401 0.000000 -0.052240
v -0.032401 0.032630 -0.052240
v 0.033324 0.000000 0.052178
v 0.033324 0.034182 0.052178
v 0.028818 0.000000 -0.054299
v 0.028818 0.032630 -0.054299
v -0.001791 0.000000 -0.053270
v -0.001791 0.032630 -0.053270
v 0.001791 0.000000 0.053238
v 0.001791 0.034182 0.053238
v -0.036965 0.000000 0.001228
v -0.036965 0.042870 0.001228
v 0.036965 0.000000 -0.001259
v 0.036965 0.042870 -0.001259
v 0.000000 0.042870 -0.000016
v 0.000000 0.000000 -0.000016
vn -0.9964 -0.0000 -0.0851
vn -0.0336 -0.0000 -0.9994
vn 0.9977 -0.0000 0.0680
vn 0.0336 -0.0000 0.9994
vn -0.0000 -1.0000 -0.0000
vn 0.0054 0.9870 0.1608
vn -0.0063 0.9820 -0.1886
vn 0.9884 -0.0000 -0.1518
vn -0.9909 -0.0000 0.1349
vt 0.712486 0.661603
vt 0.712486 0.709214
vt 0.771663 0.697842
vt 0.771663 0.661603
vt 0.723228 0.627713
vt 0.723228 0.688533
vt 0.780315 0.688533
vt 0.780315 0.627713
vt 0.712486 0.657490
vt 0.712486 0.700424
vt 0.659123 0.691723
vt 0.659123 0.657490
vt 0.704674 0.665404
vt 0.704674 0.698896
vt 0.673759 0.698896
vt 0.673759 0.665404
vt 0.741783 0.697100
vt 0.766113 0.697100
vt 0.762537 0.662049
vt 0.741783 0.662049
vt 0.704674 0.699788
vt 0.650272 0.699788
vt 0.645865 0.658642
vt 0.704674 0.658642
vt 0.759075 0.699788
vt 0.763482 0.658642
vt 0.717453 0.697100
vt 0.721029 0.662049
vt 0.735588 0.665404
vt 0.735588 0.698896
vt 0.666142 0.627713
vt 0.666142 0.688533
vt 0.721636 0.732151
vt 0.741783 0.732151
vt 0.775361 0.743085
vt 0.705650 0.743085
vt 0.654494 0.739322
vt 0.761930 0.732151
vt 0.765849 0.657490
vt 0.765849 0.690168
vt 0.653309 0.661603
vt 0.653309 0.699565
s 0
usemtl computer
f 13/1/1 14/2/1 4/3/1 3/4/1
f 9/5/2 10/6/2 8/7/2 7/8/2
f 15/9/3 16/10/3 6/11/3 5/12/3
f 11/13/4 12/14/4 2/15/4 1/16/4
f 18/17/5 15/18/5 5/19/5 11/20/5
f 17/21/6 14/22/6 2/23/6 12/24/6
f 16/25/6 17/21/6 12/24/6 6/26/6
f 13/27/5 18/17/5 11/20/5 1/28/5
f 5/29/4 6/30/4 12/14/4 11/13/4
f 3/31/2 4/32/2 10/6/2 9/5/2
f 3/33/5 9/34/5 18/17/5 13/27/5
f 8/35/7 10/36/7 17/21/7 16/25/7
f 10/36/7 4/37/7 14/22/7 17/21/7
f 9/34/5 7/38/5 15/18/5 18/17/5
f 7/39/8 8/40/8 16/10/8 15/9/8
f 1/41/9 2/42/9 14/2/9 13/1/9
