# Blender 4.3.2
# www.blender.org
mtllib computer_tower.mtl
o computer_tower
v -0.131086 0.000000 0.295308
v -0.131086 0.609137 0.295308
v -0.131086 0.000000 -0.304568
v -0.131086 0.609137 -0.304568
v 0.131086 0.000000 0.295308
v 0.131086 0.609137 0.295308
v 0.131086 0.000000 -0.304568
v 0.131086 0.609137 -0.304568
v 0.000000 0.000000 -0.304568
v 0.000000 0.609137 -0.304568
v 0.000000 0.000000 0.304568
v 0.000000 0.609137 0.304568
vn -1.0000 -0.0000 -0.0000
vn -0.0000 -0.0000 -1.0000
vn 1.0000 -0.0000 -0.0000
vn -0.0705 -0.0000 0.9975
vn -0.0000 -1.0000 -0.0000
vn -0.0000 1.0000 -0.0000
vn 0.0705 -0.0000 0.9975
vt 0.739231 0.003541
vt 0.739231 0.328593
vt 0.977719 0.328593
vt 0.977719 0.003541
vt 0.566748 0.303734
vt 0.566748 0.632637
vt 0.699496 0.632637
vt 0.699496 0.303734
vt 0.739231 0.328593
vt 0.739231 0.003541
vt 0.862060 0.335845
vt 0.862060 0.629868
vt 0.725893 0.629868
vt 0.725893 0.335845
vt 0.855469 0.323663
vt 0.920263 0.323663
vt 0.920263 0.027151
vt 0.855469 0.022574
vt 0.851984 0.318319
vt 0.755030 0.318319
vt 0.755030 0.021807
vt 0.851984 0.017229
vt 0.948937 0.318319
vt 0.948937 0.021807
vt 0.790674 0.323663
vt 0.790674 0.027151
vt 0.998227 0.335845
vt 0.998227 0.629868
vt 0.433999 0.303734
vt 0.433999 0.632637
s 0
usemtl computer
f 1/1/1 2/2/1 4/3/1 3/4/1
f 9/5/2 10/6/2 8/7/2 7/8/2
f 7/4/3 8/3/3 6/9/3 5/10/3
f 11/11/4 12/12/4 2/13/4 1/14/4
f 9/15/5 7/16/5 5/17/5 11/18/5
f 10/19/6 4/20/6 2/21/6 12/22/6
f 8/23/6 10/19/6 12/22/6 6/24/6
f 3/25/5 9/15/5 11/18/5 1/26/5
f 5/27/7 6/28/7 12/12/7 11/11/7
f 3/29/2 4/30/2 10/6/2 9/5/2
