# Blender 4.3.2
# www.blender.org
mtllib desktop_brick.mtl
o desktop_brick
v -0.428444 0.000000 0.428444
v 0.428444 0.000000 0.428444
v -0.405661 0.022784 -0.383248
v 0.405661 0.022784 -0.383248
v -0.444441 0.000000 0.144590
v 0.444441 0.000000 0.144590
v -0.364622 0.105654 0.139050
v -0.428444 0.028948 0.428444
v 0.428444 0.028948 0.428444
v 0.444441 0.055734 0.144590
v 0.405661 0.177876 -0.383361
v -0.428444 0.179089 -0.383248
v 0.401043 0.478454 0.097684
v 0.367440 0.455769 -0.357391
v -0.367440 0.455769 -0.357391
v -0.359262 0.428534 0.103223
v 0.427085 0.275220 0.120235
v -0.361435 0.270108 0.120802
v -0.389139 0.331374 -0.369016
v 0.389139 0.331374 -0.369016
v 0.199993 0.000000 0.428444
v 0.199993 0.022784 -0.383248
v 0.207460 0.000000 0.144590
v 0.199993 0.028948 0.428444
v 0.199993 0.179089 -0.383248
v 0.090123 0.105654 0.139050
v 0.180464 0.455769 -0.357391
v 0.088268 0.428534 0.103223
v 0.192183 0.334526 -0.368721
v 0.199358 0.275220 0.120235
v 0.207460 0.055734 0.144590
v -0.444441 0.055734 0.144590
v 0.187202 0.478454 0.097684
v -0.401043 0.478454 0.097684
v -0.427085 0.275220 0.120235
v 0.088414 0.272824 0.120501
v 0.240750 0.217971 0.154196
v 0.221073 0.206611 0.154196
v 0.221073 0.183889 0.154196
v 0.240750 0.172529 0.154196
v 0.260427 0.183889 0.154196
v 0.260427 0.206611 0.154196
v 0.221073 0.206611 0.124616
v 0.240750 0.217971 0.124616
v 0.221073 0.183889 0.124616
v 0.240750 0.172529 0.124616
v 0.260427 0.183889 0.124616
v 0.260427 0.206611 0.124616
v 0.240750 0.149130 0.154196
v 0.221073 0.137770 0.154196
v 0.221073 0.115048 0.154196
v 0.240750 0.103688 0.154196
v 0.260427 0.115048 0.154196
v 0.260427 0.137770 0.154196
v 0.221073 0.137770 0.124616
v 0.240750 0.149130 0.124616
v 0.221073 0.115048 0.124616
v 0.240750 0.103688 0.124616
v 0.260427 0.115048 0.124616
v 0.260427 0.137770 0.124616
v 0.309703 0.149130 0.154196
v 0.290025 0.137770 0.154196
v 0.290025 0.115048 0.154196
v 0.309703 0.103688 0.154196
v 0.329380 0.115048 0.154196
v 0.329380 0.137770 0.154196
v 0.290025 0.137770 0.124616
v 0.309703 0.149130 0.124616
v 0.290025 0.115048 0.124616
v 0.309703 0.103688 0.124616
v 0.329380 0.115048 0.124616
v 0.329380 0.137770 0.124616
v 0.088414 0.271015 0.104203
v -0.336685 0.267896 0.104549
v 0.065118 0.116264 0.120023
v -0.339388 0.116264 0.120023
v 0.063539 0.411805 0.089655
v -0.334845 0.411805 0.089655
v 0.090123 0.103846 0.122752
v -0.364622 0.103846 0.122752
v 0.088268 0.426726 0.086925
v -0.359262 0.426726 0.086925
v -0.361435 0.268300 0.104504
v 0.063662 0.270879 0.104218
v -0.051571 0.269010 0.114404
v -0.221361 0.267745 0.114544
v -0.050954 0.203437 0.121106
v -0.222507 0.203437 0.121106
v -0.051624 0.328778 0.108227
v -0.220580 0.328778 0.108227
v 0.199993 0.000000 -0.383248
v -0.428444 0.000000 -0.383248
v -0.405661 0.177876 -0.383361
v 0.428444 0.179089 -0.383248
v 0.428444 0.000000 -0.383248
v 0.180464 0.478454 -0.355271
v -0.386608 0.478454 -0.355271
v -0.411713 0.334526 -0.368721
v 0.411713 0.334526 -0.368721
v 0.386608 0.478454 -0.355271
vn -0.0000 -1.0000 -0.0000
vn -0.0000 0.1103 0.9939
vn -0.0000 0.9956 0.0939
vn 0.9984 -0.0000 0.0563
vn 0.0001 -0.0004 -1.0000
vn -0.0000 -0.0000 1.0000
vn -0.9995 -0.0000 -0.0303
vn 0.9995 -0.0000 -0.0303
vn -0.9984 -0.0000 0.0563
vn -0.0000 1.0000 -0.0000
vn -0.9892 0.1452 -0.0222
vn 0.9892 0.1452 -0.0222
vn -0.0000 0.0930 -0.9957
vn -0.0000 0.0931 -0.9957
vn 0.9958 0.0902 -0.0145
vn -0.9958 0.0902 -0.0145
vn -0.0000 -0.9939 0.1103
vn -0.0003 -0.0004 -1.0000
vn 0.9999 -0.0135 0.0015
vn -0.0000 -0.0000 -1.0000
vn 1.0000 -0.0000 -0.0000
vn -1.0000 -0.0000 -0.0000
vn 0.5000 0.8660 -0.0000
vn 0.5000 -0.8660 -0.0000
vn -0.5000 -0.8660 -0.0000
vn -0.5000 0.8660 -0.0000
vn -0.0857 0.1037 0.9909
vn 0.0859 0.1025 0.9910
vn -0.9999 -0.0101 0.0011
vn 0.9998 -0.0191 0.0021
vn -0.0000 0.9939 -0.1103
vn -1.0000 -0.0009 0.0001
vn -0.0000 0.2147 0.9767
vn -0.0000 0.1800 0.9837
vn 0.0280 0.1055 0.9940
vn -0.0227 0.1071 0.9940
vn -0.0281 0.1058 0.9940
vn 0.0227 0.1067 0.9940
vn -0.0000 0.1016 0.9948
vn -0.0000 0.1029 0.9947
vn -0.0000 0.2183 0.9759
vn 0.0859 0.1021 0.9911
vn -0.0858 0.1027 0.9910
vn -0.0000 -0.0124 0.9999
vn -0.0023 -0.0003 -1.0000
vn 0.0023 -0.0003 -1.0000
vt 0.850784 0.184592
vt 0.850228 0.227242
vt 0.867231 0.227242
vt 0.868422 0.184592
vt 0.850228 0.163465
vt 0.867231 0.163465
vt 0.409250 0.190120
vt 0.445458 0.190120
vt 0.441317 0.207910
vt 0.407317 0.207910
vt 0.437559 0.637825
vt 0.614418 0.636262
vt 0.613721 0.750310
vt 0.434964 0.749789
vt 0.849941 0.162307
vt 0.849941 0.249608
vt 0.818806 0.249608
vt 0.833770 0.162307
vt 0.689334 0.543066
vt 0.689334 0.308429
vt 0.561884 0.308429
vt 0.560888 0.543066
vt 0.849941 0.230264
vt 0.849941 0.300525
vt 0.833770 0.300525
vt 0.833770 0.230264
vt 0.436866 0.162062
vt 0.377575 0.162062
vt 0.377575 0.167829
vt 0.436866 0.180592
vt 0.380149 0.180347
vt 0.438078 0.180347
vt 0.438078 0.198451
vt 0.380149 0.185981
vt 0.388546 0.185694
vt 0.391364 0.154669
vt 0.453490 0.155297
vt 0.450672 0.185987
vt 0.435363 0.196675
vt 0.380095 0.190539
vt 0.382428 0.211567
vt 0.433971 0.211567
vt 0.382611 0.208169
vt 0.436610 0.214165
vt 0.435250 0.228715
vt 0.384891 0.228715
vt 0.387799 0.158135
vt 0.387349 0.203833
vt 0.405112 0.202128
vt 0.405112 0.159056
vt 0.435744 0.314830
vt 0.433153 0.540041
vt 0.410538 0.170907
vt 0.448217 0.170907
vt 0.778318 0.234129
vt 0.778318 0.136447
vt 0.561884 0.622744
vt 0.435744 0.616343
vt 0.387349 0.142652
vt 0.405112 0.144357
vt 0.388546 0.226804
vt 0.450672 0.226176
vt 0.849941 0.036986
vt 0.833770 0.036986
vt 0.689335 0.622744
vt 0.008327 0.635741
vt 0.009970 0.749789
vt 0.744219 0.183971
vt 0.745673 0.220632
vt 0.803454 0.163465
vt 0.802264 0.184592
vt 0.803454 0.227242
vt 0.428590 0.206362
vt 0.428590 0.156107
vt 0.438611 0.147286
vt 0.438611 0.219330
vt 0.419981 0.168194
vt 0.413628 0.208170
vt 0.404124 0.216617
vt 0.412474 0.164071
vt 0.437027 0.159575
vt 0.437969 0.186332
vt 0.418567 0.187164
vt 0.413438 0.151453
vt 0.438611 0.212108
vt 0.426264 0.220231
vt 0.412014 0.188850
vt 0.444066 0.156672
vt 0.441884 0.189205
vt 0.411975 0.211930
vt 0.640100 0.347640
vt 0.653873 0.352018
vt 0.667645 0.347640
vt 0.667645 0.338885
vt 0.653873 0.334508
vt 0.640100 0.338885
vt 0.802359 0.469227
vt 0.802359 0.460472
vt 0.816131 0.456095
vt 0.829903 0.460472
vt 0.829903 0.469227
vt 0.816131 0.473605
vt 0.824083 0.470549
vt 0.808180 0.470549
vt 0.808180 0.459151
vt 0.824083 0.459151
vt 0.802359 0.470549
vt 0.816131 0.470549
vt 0.816131 0.459151
vt 0.802359 0.459151
vt 0.829903 0.470549
vt 0.829903 0.459151
vt 0.059530 0.961571
vt 0.057795 0.878919
vt 0.166509 0.878832
vt 0.167245 0.913885
vt 0.435194 0.880632
vt 0.435078 0.961571
vt 0.326517 0.913885
vt 0.326566 0.879559
vt 0.743587 0.222800
vt 0.741383 0.243976
vt 0.744311 0.258551
vt 0.784594 0.241718
vt 0.784594 0.134441
vt 0.738056 0.263701
vt 0.436566 0.791832
vt 0.055248 0.791832
vt 0.031460 0.784700
vt 0.460138 0.784700
vt 0.458390 0.970140
vt 0.036512 0.970140
vt 0.034464 0.879151
vt 0.458528 0.880711
vt 0.165428 0.841898
vt 0.327148 0.841898
vt 0.440301 0.149895
vt 0.440301 0.213222
vt 0.444628 0.213222
vt 0.444628 0.147512
vt 0.410846 0.149895
vt 0.410615 0.147512
vt 0.440301 0.234726
vt 0.410846 0.234726
vt 0.410615 0.237108
vt 0.444628 0.237108
vt 0.432526 0.167838
vt 0.432526 0.239493
vt 0.437914 0.241999
vt 0.437914 0.167838
vt 0.381693 0.151622
vt 0.381094 0.149262
vt 0.402976 0.140548
vt 0.432526 0.143386
vt 0.437914 0.140879
vt 0.403725 0.137596
vt 0.402976 0.242330
vt 0.403725 0.245283
vt 0.381693 0.232999
vt 0.381094 0.235359
s 0
usemtl computer
f 23/1/1 91/2/1 95/3/1 6/4/1
f 21/5/1 23/1/1 6/4/1 2/6/1
f 30/7/2 17/8/2 13/9/2 33/10/2
f 24/11/3 9/12/3 10/13/3 31/14/3
f 2/15/4 6/16/4 10/17/4 9/18/4
f 22/19/5 3/20/5 93/21/5 25/22/5
f 21/23/6 2/24/6 9/25/6 24/26/6
f 92/27/7 5/28/7 32/29/7 12/30/7
f 6/31/8 95/32/8 94/33/8 10/34/8
f 5/16/9 1/15/9 8/18/9 32/17/9
f 33/35/10 13/36/10 100/37/10 96/38/10
f 98/39/11 35/40/11 34/41/11 97/42/11
f 17/43/12 99/44/12 100/45/12 13/46/12
f 29/47/13 19/48/13 15/49/13 27/50/13
f 25/22/14 93/21/14 19/51/14 29/52/14
f 10/34/15 94/33/15 99/44/15 17/43/15
f 12/30/16 32/29/16 35/40/16 98/39/16
f 31/53/2 10/54/2 17/8/2 30/7/2
f 28/55/17 16/56/17 82/56/17 81/55/17
f 11/57/14 25/22/14 29/52/14 20/58/14
f 20/59/13 29/47/13 27/50/13 14/60/13
f 34/61/10 33/35/10 96/38/10 97/62/10
f 1/63/6 21/23/6 24/26/6 8/64/6
f 4/65/18 22/19/18 25/22/18 11/57/18
f 8/66/3 24/11/3 31/14/3 32/67/3
f 16/68/19 18/69/19 83/69/19 82/68/19
f 1/70/1 5/71/1 23/1/1 21/5/1
f 5/71/1 92/72/1 91/2/1 23/1/1
f 26/73/2 7/74/2 32/75/2 31/76/2
f 16/77/2 28/78/2 33/79/2 34/80/2
f 7/81/2 18/82/2 35/83/2 32/84/2
f 18/82/2 16/85/2 34/86/2 35/83/2
f 36/87/2 26/80/2 31/88/2 30/89/2
f 28/90/2 36/87/2 30/89/2 33/76/2
f 38/91/20 37/92/20 42/93/20 41/94/20 40/95/20 39/96/20
f 43/97/6 45/98/6 46/99/6 47/100/6 48/101/6 44/102/6
f 38/103/21 39/104/21 45/105/21 43/106/21
f 41/104/22 42/103/22 48/106/22 47/105/22
f 39/107/23 40/108/23 46/109/23 45/110/23
f 37/108/24 38/107/24 43/110/24 44/109/24
f 42/111/25 37/108/25 44/109/25 48/112/25
f 40/108/26 41/111/26 47/112/26 46/109/26
f 50/91/20 49/92/20 54/93/20 53/94/20 52/95/20 51/96/20
f 55/97/6 57/98/6 58/99/6 59/100/6 60/101/6 56/102/6
f 50/103/21 51/104/21 57/105/21 55/106/21
f 53/104/22 54/103/22 60/106/22 59/105/22
f 51/107/23 52/108/23 58/109/23 57/110/23
f 49/108/24 50/107/24 55/110/24 56/109/24
f 54/111/25 49/108/25 56/109/25 60/112/25
f 52/108/26 53/111/26 59/112/26 58/109/26
f 62/91/20 61/92/20 66/93/20 65/94/20 64/95/20 63/96/20
f 67/97/6 69/98/6 70/99/6 71/100/6 72/101/6 68/102/6
f 62/103/21 63/104/21 69/105/21 67/106/21
f 65/104/22 66/103/22 72/106/22 71/105/22
f 63/107/23 64/108/23 70/109/23 69/110/23
f 61/108/24 62/107/24 67/110/24 68/109/24
f 66/111/25 61/108/25 68/109/25 72/112/25
f 64/108/26 65/111/26 71/112/26 70/109/26
f 78/113/27 74/114/27 86/115/27 90/116/27
f 84/117/28 77/118/28 89/119/28 85/120/28
f 26/121/29 36/122/29 73/122/29 79/121/29
f 18/69/30 7/123/30 80/123/30 83/69/30
f 7/124/31 26/125/31 79/125/31 80/124/31
f 36/122/32 28/126/32 81/126/32 73/122/32
f 75/127/33 76/128/33 80/129/33 79/130/33
f 78/113/34 77/118/34 81/131/34 82/132/34
f 76/128/35 74/114/35 83/133/35 80/129/35
f 74/114/36 78/113/36 82/132/36 83/133/36
f 84/117/37 75/127/37 79/130/37 73/134/37
f 77/118/38 84/117/38 73/134/38 81/131/38
f 88/135/39 87/136/39 85/120/39 86/115/39
f 86/115/40 85/120/40 89/119/40 90/116/40
f 77/118/41 78/113/41 90/116/41 89/119/41
f 75/127/42 84/117/42 85/120/42 87/136/42
f 74/114/43 76/128/43 88/135/43 86/115/43
f 76/128/44 75/127/44 87/136/44 88/135/44
f 3/137/20 22/138/20 91/139/20 92/140/20
f 93/141/45 3/137/45 92/140/45 12/142/45
f 4/143/46 11/144/46 94/145/46 95/146/46
f 27/147/14 15/148/14 97/149/14 96/150/14
f 19/151/14 93/141/14 12/142/14 98/152/14
f 20/153/13 14/154/13 100/155/13 99/156/13
f 15/148/13 19/157/13 98/158/13 97/149/13
f 11/144/14 20/159/14 99/160/14 94/145/14
f 22/138/20 4/143/20 95/146/20 91/139/20
f 14/154/13 27/147/13 96/150/13 100/155/13
