# Blender 4.3.2
# www.blender.org
mtllib horizontal_desktop.mtl
o horizontal_desktop
v -0.340219 0.204431 0.289553
v 0.340219 0.204431 0.289553
v -0.340219 0.204431 -0.289553
v 0.340219 0.204431 -0.289553
v -0.340219 0.000000 -0.289553
v -0.340219 0.000000 0.289553
v 0.340219 0.000000 0.289553
v 0.340219 0.000000 -0.289553
vn -0.0000 -1.0000 -0.0000
vn -0.0000 1.0000 -0.0000
vn 1.0000 -0.0000 -0.0000
vn -0.0000 -0.0000 1.0000
vn -0.0000 -0.0000 -1.0000
vn -1.0000 -0.0000 -0.0000
vt 0.733167 0.117372
vt 0.733167 0.232352
vt 0.978562 0.232352
vt 0.978562 0.117372
vt 0.757421 0.132081
vt 0.915651 0.132081
vt 0.915651 0.206220
vt 0.757421 0.206220
vt 0.938658 0.014638
vt 0.938658 0.310075
vt 0.773070 0.310075
vt 0.773070 0.014638
vt 0.704052 0.306605
vt 0.704051 0.622532
vt 0.432237 0.622532
vt 0.432237 0.306605
vt 0.551234 0.006386
vt 0.551234 0.289700
vt 0.707622 0.289700
vt 0.707622 0.006386
vt 0.942674 0.307900
vt 0.942674 0.025150
vt 0.784197 0.025150
vt 0.784197 0.307900
s 0
usemtl computer
f 1/1/1 3/2/1 4/3/1 2/4/1
f 6/5/2 7/6/2 8/7/2 5/8/2
f 3/9/3 1/10/3 6/11/3 5/12/3
f 4/13/4 3/14/4 5/15/4 8/16/4
f 1/17/5 2/18/5 7/19/5 6/20/5
f 2/21/6 4/22/6 8/23/6 7/24/6
