# Blender 4.3.2
# www.blender.org
mtllib TV.mtl
o TV
v -0.171010 0.462829 -0.357911
v -0.180899 0.195114 -0.363034
v 0.402321 0.462829 -0.357911
v 0.412210 0.195114 -0.363034
v 0.431594 0.046369 -0.209452
v -0.204193 0.481253 -0.166497
v 0.435503 0.481253 -0.166497
v -0.200283 0.046369 -0.209452
v 0.431594 0.184550 -0.220652
v 0.425621 0.475075 -0.210840
v -0.200283 0.184550 -0.220652
v -0.194310 0.475075 -0.210840
v -0.201963 0.149784 0.243374
v 0.288785 0.149784 0.243373
v -0.201963 0.558847 0.243374
v 0.288785 0.558847 0.243373
v 0.532359 0.062338 0.059677
v 0.507510 0.037433 0.059677
v 0.523682 0.038207 0.036367
v -0.299740 0.644616 0.059677
v -0.274779 0.669521 0.059677
v -0.291997 0.654366 0.041471
v 0.506090 0.669521 0.059677
v 0.531051 0.644616 0.059677
v 0.523308 0.654366 0.041471
v -0.276199 0.037433 0.059677
v -0.301048 0.062338 0.059677
v -0.292371 0.038207 0.036367
v -0.286060 0.072920 0.266446
v -0.266661 0.052477 0.266446
v -0.274314 0.068703 0.266446
v 0.497973 0.052477 0.266445
v 0.517371 0.072920 0.266445
v 0.505625 0.068703 0.266445
v -0.266661 0.656154 0.266446
v -0.286060 0.635710 0.266446
v -0.274314 0.639928 0.266446
v 0.517371 0.635710 0.266445
v 0.497972 0.656154 0.266445
v 0.505625 0.639928 0.266445
v -0.285262 0.056650 0.266446
v -0.301104 0.062338 0.266446
v -0.276199 0.037433 0.266446
v 0.516573 0.056650 0.266445
v 0.507510 0.037433 0.266445
v 0.532415 0.062338 0.266445
v -0.285262 0.651981 0.266446
v -0.276199 0.671198 0.266446
v -0.301104 0.646292 0.266446
v 0.516573 0.651981 0.266445
v 0.532415 0.646292 0.266445
v 0.507510 0.671198 0.266445
v -0.239113 0.112634 0.236512
v 0.325935 0.112634 0.236512
v -0.239113 0.595997 0.236512
v 0.325935 0.595997 0.236512
v 0.505625 0.068703 0.253229
v -0.274314 0.068703 0.253229
v -0.274314 0.639928 0.253229
v 0.505625 0.639928 0.253229
v -0.286060 0.072920 0.253229
v -0.266661 0.052477 0.253229
v 0.497973 0.052477 0.253229
v 0.517371 0.072920 0.253229
v -0.266661 0.656154 0.253229
v -0.286060 0.635710 0.253229
v 0.517371 0.635710 0.253229
v 0.497972 0.656154 0.253229
v 0.050998 0.683686 0.102695
v 0.180313 0.683686 0.102695
v 0.050933 0.684761 0.223220
v 0.180378 0.684761 0.223220
v 0.115655 0.683435 0.074584
v 0.115655 0.685012 0.251401
v 0.204067 0.684223 0.162993
v 0.027244 0.684223 0.162993
v 0.116355 0.709313 0.159327
v 0.071984 0.666709 0.163358
v 0.059385 0.666709 0.185178
v 0.084582 0.666709 0.185178
v -0.020655 0.940575 0.078097
v -0.023764 0.940575 0.083483
v -0.017545 0.940575 0.083483
v 0.153450 0.668445 0.178222
v 0.135485 0.668445 0.160556
v 0.129168 0.668445 0.184947
v 0.259212 0.950086 0.109916
v 0.254778 0.950086 0.105556
v 0.253219 0.950086 0.111576
v 0.046797 0.653839 0.098778
v 0.184514 0.653839 0.098777
v 0.046727 0.654983 0.227134
v 0.184584 0.654983 0.227133
v 0.115655 0.653571 0.068840
v 0.115655 0.655251 0.257146
v 0.209812 0.654411 0.162993
v 0.021499 0.654411 0.162993
v -0.239113 0.112634 0.227597
v 0.325935 0.112634 0.227597
v -0.239113 0.595997 0.227597
v 0.325935 0.595997 0.227597
vn -0.0000 0.0191 -0.9998
vn -0.9888 0.0320 -0.1460
vn -0.0000 -1.0000 -0.0000
vn -0.9280 0.0129 -0.3725
vn -0.0000 0.9966 -0.0830
vn -0.0000 -0.9973 -0.0740
vn -0.0000 0.7686 -0.6398
vn -1.0000 -0.0000 -0.0000
vn -1.0000 0.0011 -0.0034
vn 1.0000 0.0011 -0.0034
vn -0.0000 -0.9994 -0.0332
vn -0.0000 1.0000 -0.0081
vn 0.9894 0.0133 -0.1444
vn 0.9888 0.0320 -0.1460
vn -0.0000 -0.0808 -0.9967
vn -0.0000 0.9904 -0.1380
vn -0.9894 0.0133 -0.1444
vn 0.3379 0.9412 -0.0000
vn -0.0866 -0.0000 0.9962
vn -0.9044 -0.4266 -0.0000
vn -0.0000 -0.0000 1.0000
vn 1.0000 -0.0000 -0.0000
vn 0.6412 -0.6398 0.4236
vn -0.7041 0.7057 0.0785
vn 0.7041 0.7057 0.0785
vn -0.6412 -0.6398 0.4236
vn 0.7075 -0.7067 -0.0001
vn -0.7075 -0.7067 -0.0001
vn 0.7067 0.7075 -0.0105
vn -0.7067 0.7075 -0.0105
vn 0.9280 0.0129 -0.3725
vn 0.3299 -0.0000 0.9440
vn -0.0000 -0.2581 0.9661
vn -0.0000 0.2581 0.9661
vn 0.9045 0.4266 -0.0000
vn -0.3380 -0.9412 -0.0000
vn -0.0000 1.0000 -0.0000
vn -0.9045 0.4266 -0.0000
vn -0.3379 0.9412 -0.0000
vn 0.9044 -0.4266 -0.0000
vn 0.3380 -0.9412 -0.0000
vn -0.1219 0.9495 -0.2890
vn -0.1138 0.9608 0.2527
vn 0.2776 0.9534 -0.1179
vn 0.2699 0.9579 0.0976
vn 0.1227 0.9489 -0.2908
vn 0.1145 0.9603 0.2543
vn -0.2661 0.9591 0.0961
vn -0.2736 0.9548 -0.1163
vn 0.8580 0.1360 -0.4954
vn -0.0000 0.3481 0.9375
vn -0.7902 -0.4093 -0.4562
vn 0.2646 0.1323 0.9552
vn -0.9105 0.3396 -0.2358
vn 0.6427 -0.3998 -0.6535
vn 0.9165 0.1766 0.3589
vn 0.9153 0.1764 -0.3622
vn -0.3937 0.1742 0.9026
vn 0.3937 0.1742 0.9026
vn -0.9153 0.1764 -0.3622
vn -0.9165 0.1766 0.3589
vn -0.3921 0.1738 -0.9034
vn 0.3921 0.1738 -0.9034
vn -0.0000 -0.3909 0.9204
vn -0.3909 -0.0000 0.9204
vn 0.3909 -0.0000 0.9204
vn -0.0000 0.3909 0.9204
vt 0.235254 0.836158
vt 0.239473 0.950379
vt 0.484086 0.950379
vt 0.488305 0.836158
vt 0.438830 0.826250
vt 0.434581 0.952061
vt 0.498270 0.946758
vt 0.500488 0.830825
vt 0.643079 0.308302
vt 0.209057 0.308302
vt 0.209057 0.422811
vt 0.643079 0.422812
vt 0.353400 0.801332
vt 0.361347 0.720877
vt 0.315870 0.719367
vt 0.311558 0.723832
vt 0.311558 0.831554
vt 0.314926 0.833358
vt 0.194472 0.869253
vt 0.523078 0.869253
vt 0.510728 0.947211
vt 0.206823 0.947211
vt 0.691337 0.704897
vt 0.236548 0.704897
vt 0.250499 0.807375
vt 0.677386 0.807375
vt 0.528317 0.845748
vt 0.189234 0.845748
vt 0.142691 0.735511
vt 0.151818 0.725860
vt 0.565733 0.725860
vt 0.574859 0.735511
vt 0.971453 0.038367
vt 0.971453 0.642057
vt 0.368814 0.203858
vt 0.368814 0.527255
vt 0.483323 0.526327
vt 0.483323 0.203858
vt 0.483323 0.203858
vt 0.368814 0.527255
vt 0.368814 0.203858
vt 0.215177 0.836843
vt 0.532421 0.836843
vt 0.578655 0.713426
vt 0.570536 0.701722
vt 0.177062 0.701722
vt 0.168943 0.713426
vt 0.209058 0.308302
vt 0.643079 0.308302
vt 0.642293 0.422812
vt 0.209844 0.422812
vt 0.386880 0.821684
vt 0.382437 0.953218
vt 0.362361 0.956015
vt 0.381809 0.759123
vt 0.451343 0.826467
vt 0.449023 0.947674
vt 0.949333 0.720431
vt 0.639603 0.720431
vt 0.639603 0.788164
vt 0.949333 0.788164
vt 0.433980 0.766411
vt 0.415378 0.954737
vt 0.026162 0.043136
vt 0.038866 0.038607
vt 0.966633 0.025818
vt 0.980079 0.030645
vt 0.980079 0.652621
vt 0.966633 0.657449
vt 0.760936 0.623746
vt 0.753365 0.074214
vt 0.958749 0.646587
vt 0.948397 0.664115
vt 0.696079 0.102681
vt 0.698622 0.576308
vt 0.119198 0.576308
vt 0.116655 0.102681
vt 0.099302 0.084497
vt 0.083643 0.084497
vt 0.083643 0.602987
vt 0.099302 0.602987
vt 0.644329 0.612452
vt 0.644329 0.602983
vt 0.135082 0.599350
vt 0.135082 0.608818
vt 0.099302 0.602987
vt 0.083643 0.602987
vt 0.083643 0.084497
vt 0.099302 0.084497
vt 0.756279 0.749957
vt 0.726734 0.749066
vt 0.746136 0.777032
vt 0.109471 0.762343
vt 0.133745 0.749066
vt 0.113088 0.770908
vt 0.604838 0.752070
vt 0.629112 0.765348
vt 0.625496 0.773913
vt 0.044903 0.752070
vt 0.015358 0.752962
vt 0.025501 0.780037
vt 0.000000 0.122396
vt 0.029879 0.122396
vt 0.019005 0.122396
vt 0.122499 0.119859
vt 0.122396 0.149705
vt 0.122462 0.142902
vt 0.029879 0.122396
vt 0.000002 0.122639
vt 0.019005 0.122583
vt 0.999998 0.122639
vt 0.970120 0.122396
vt 0.980995 0.122583
vt 0.368814 0.190066
vt 0.483323 0.190066
vt 0.483323 0.190066
vt 0.368814 0.190066
vt 0.656871 0.308302
vt 0.656116 0.422812
vt 0.196020 0.422812
vt 0.195265 0.308302
vt 0.149651 0.809304
vt 0.146311 0.807516
vt 0.146311 0.700720
vt 0.150587 0.696294
vt 0.195672 0.697791
vt 0.187794 0.777553
vt 0.018963 0.666464
vt 0.005517 0.661636
vt 0.005517 0.030645
vt 0.018963 0.025818
vt 0.059259 0.076107
vt 0.059259 0.629425
vt 0.957872 0.676024
vt 0.027724 0.675273
vt 0.018963 0.656698
vt 0.027723 0.007243
vt 0.957873 0.007243
vt 0.049217 0.021079
vt 0.010025 0.031785
vt 0.027017 0.025684
vt 0.039233 0.004928
vt 0.958854 0.033843
vt 0.948398 0.016566
vt 0.958381 0.000443
vt 0.970597 0.020914
vt 0.970597 0.020914
vt 0.987590 0.027015
vt 0.038761 0.651351
vt 0.049217 0.668628
vt 0.039234 0.684751
vt 0.027017 0.664280
vt 0.026162 0.646827
vt 0.027017 0.664279
vt 0.010025 0.658178
vt 0.987590 0.653408
vt 0.970597 0.659510
vt 0.958381 0.680266
vt 0.946505 0.666008
vt 0.047324 0.670521
vt 0.864122 0.540543
vt 0.864122 0.579319
vt 0.835764 0.566989
vt 0.835735 0.514128
vt 0.864122 0.501768
vt 0.902899 0.540543
vt 0.892481 0.566989
vt 0.892509 0.514128
vt 0.825345 0.540543
vt 0.669161 0.062493
vt 0.673832 0.070583
vt 0.678503 0.062493
vt 0.638331 0.100199
vt 0.640637 0.100199
vt 0.639484 0.102196
vt 0.682566 0.037049
vt 0.690657 0.037049
vt 0.722269 0.103744
vt 0.720272 0.103744
vt 0.669161 0.037049
vt 0.678503 0.037049
vt 0.640637 0.103744
vt 0.638331 0.103744
vt 0.687838 0.085931
vt 0.694499 0.079381
vt 0.685495 0.076888
vt 0.732069 0.106324
vt 0.731491 0.104092
vt 0.733713 0.104708
vt 0.685495 0.052002
vt 0.694499 0.052002
vt 0.733713 0.118697
vt 0.731491 0.118697
vt 0.682156 0.052002
vt 0.673112 0.052002
vt 0.700316 0.118697
vt 0.702549 0.118697
vt 0.687838 0.052002
vt 0.732069 0.118697
vt 0.072561 0.059667
vt 0.739711 0.059667
vt 0.075566 0.619322
vt 0.742716 0.619322
s 0
usemtl tv
f 2/1/1 1/2/1 3/3/1 4/4/1
f 11/5/2 12/6/2 1/7/2 2/8/2
f 45/9/3 43/10/3 26/11/3 18/12/3
f 6/13/4 8/14/4 28/15/4 27/16/4 20/17/4 22/18/4
f 12/19/5 10/20/5 3/21/5 1/22/5
f 9/23/6 11/24/6 2/25/6 4/26/6
f 7/27/7 6/28/7 22/29/7 21/30/7 23/31/7 25/32/7
f 33/33/8 38/34/8 67/34/8 64/33/8
f 42/35/9 49/36/9 20/37/9 27/38/9
f 17/39/10 24/37/10 51/40/10 46/41/10
f 8/42/11 5/43/11 19/44/11 18/45/11 26/46/11 28/47/11
f 48/48/12 52/49/12 23/50/12 21/51/12
f 9/52/13 10/53/13 7/54/13 5/55/13
f 4/56/14 3/57/14 10/53/14 9/52/14
f 5/58/15 8/59/15 11/60/15 9/61/15
f 6/28/16 7/27/16 10/20/16 12/19/16
f 8/62/17 6/63/17 12/6/17 11/5/17
f 29/64/18 31/65/18 58/65/18 61/64/18
f 57/66/19 64/67/19 67/68/19 60/69/19 56/70/19 54/71/19
f 40/72/20 39/73/20 68/73/20 60/72/20
f 14/74/21 16/75/21 15/76/21 13/77/21
f 99/78/8 54/79/8 56/80/8 101/81/8
f 101/82/3 56/83/3 55/84/3 100/85/3
f 100/86/22 55/87/22 53/88/22 98/89/22
f 17/90/23 18/91/23 19/92/23
f 20/93/24 21/94/24 22/95/24
f 23/96/25 24/97/25 25/98/25
f 26/99/26 27/100/26 28/101/26
f 42/102/21 43/103/21 41/104/21
f 45/105/21 46/106/21 44/107/21
f 48/108/21 49/109/21 47/110/21
f 51/111/21 52/112/21 50/113/21
f 17/39/27 46/41/27 45/114/27 18/115/27
f 42/35/28 27/38/28 26/116/28 43/117/28
f 23/50/29 52/49/29 51/118/29 24/119/29
f 20/120/30 49/121/30 48/48/30 21/51/30
f 25/122/31 24/123/31 17/124/31 19/125/31 5/126/31 7/127/31
f 59/128/32 66/129/32 61/130/32 58/131/32 53/132/32 55/133/32
f 60/69/33 68/134/33 65/135/33 59/136/33 55/133/33 56/70/33
f 58/131/34 62/137/34 63/138/34 57/66/34 54/71/34 53/132/34
f 31/65/35 30/139/35 62/139/35 58/65/35
f 31/65/21 29/64/21 42/140/21 41/141/21
f 30/139/21 31/65/21 41/141/21 43/142/21
f 34/143/21 32/144/21 45/145/21 44/146/21
f 33/33/21 34/143/21 44/147/21 46/148/21
f 37/149/21 35/150/21 48/151/21 47/152/21
f 36/153/21 37/149/21 47/154/21 49/155/21
f 40/72/21 38/34/21 51/156/21 50/157/21
f 39/73/21 40/72/21 50/157/21 52/158/21
f 38/34/21 33/33/21 46/148/21 51/156/21
f 32/144/21 30/139/21 43/142/21 45/145/21
f 35/150/21 39/73/21 52/158/21 48/151/21
f 29/64/21 36/153/21 49/155/21 42/140/21
f 38/34/36 40/72/36 60/72/36 67/34/36
f 30/139/37 32/144/37 63/144/37 62/139/37
f 32/144/38 34/143/38 57/143/38 63/144/38
f 39/159/3 35/160/3 65/160/3 68/159/3
f 34/143/39 33/33/39 64/33/39 57/143/39
f 36/153/22 29/64/22 61/64/22 66/153/22
f 35/150/40 37/149/40 59/149/40 65/150/40
f 37/149/41 36/153/41 66/153/41 59/149/41
f 98/85/37 53/84/37 54/83/37 99/82/37
f 77/161/42 73/162/42 69/163/42
f 71/164/43 74/165/43 77/161/43
f 77/161/44 75/166/44 70/167/44
f 72/168/45 75/166/45 77/161/45
f 73/162/46 77/161/46 70/167/46
f 74/165/47 72/168/47 77/161/47
f 76/169/48 71/164/48 77/161/48
f 76/169/49 77/161/49 69/163/49
f 79/170/3 78/171/3 80/172/3
f 82/173/37 83/174/37 81/175/37
f 80/176/50 78/177/50 81/178/50 83/179/50
f 79/180/51 80/181/51 83/182/51 82/183/51
f 78/177/52 79/176/52 82/179/52 81/178/52
f 85/184/3 84/185/3 86/186/3
f 88/187/37 89/188/37 87/189/37
f 86/190/53 84/191/53 87/192/53 89/193/53
f 85/194/54 86/195/54 89/196/54 88/197/54
f 84/191/55 85/198/55 88/199/55 87/192/55
f 75/166/56 72/168/56 93/168/56 96/166/56
f 70/167/57 75/166/57 96/166/57 91/167/57
f 74/165/58 71/164/58 92/164/58 95/165/58
f 72/168/59 74/165/59 95/165/59 93/168/59
f 76/169/60 69/163/60 90/163/60 97/169/60
f 71/164/61 76/169/61 97/169/61 92/164/61
f 69/163/62 73/162/62 94/162/62 90/163/62
f 73/162/63 70/167/63 91/167/63 94/162/63
f 14/74/64 13/77/64 98/200/64 99/201/64
f 13/77/65 15/76/65 100/202/65 98/200/65
f 16/75/66 14/74/66 99/201/66 101/203/66
f 15/76/67 16/75/67 101/203/67 100/202/67
