# Blender 4.3.2
# www.blender.org
mtllib desk2_alt4.mtl
o desk2_alt4
v 1.097379 0.847000 -0.548535
v 1.102596 0.891110 0.537972
v 1.097379 0.891110 -0.548535
v 1.097695 0.891110 -0.482701
v 1.097379 0.000000 -0.548535
v 1.097695 0.000000 -0.482701
v 1.097695 0.847000 -0.482701
v -1.102596 0.847000 -0.537972
v -1.097379 0.891110 0.548535
v -1.102596 0.891110 -0.537972
v -1.102280 0.847000 -0.472138
v -1.102280 0.891110 -0.472138
v -1.102596 0.000000 -0.537972
v -1.102280 0.000000 -0.472138
v 1.102596 0.847000 0.537972
v 1.039579 0.847000 0.538275
v 1.102280 0.847000 0.472138
v 1.039263 0.847000 0.472440
v 1.039579 0.000000 0.538275
v 1.102596 0.000000 0.537972
v 1.102280 0.000000 0.472138
v 1.039263 0.000000 0.472440
v -1.097379 0.847000 0.548535
v -1.034363 0.847000 0.548232
v -1.097695 0.847000 0.482701
v -1.034679 0.847000 0.482398
v -1.034363 0.000000 0.548232
v -1.097379 0.000000 0.548535
v -1.097695 0.000000 0.482701
v -1.034679 0.000000 0.482398
vn 1.0000 -0.0000 -0.0048
vn -0.0000 -1.0000 -0.0000
vn -0.0048 -0.0000 -1.0000
vn 0.0048 -0.0775 0.9970
vn -0.0000 1.0000 -0.0000
vn 0.0048 -0.0000 1.0000
vn -1.0000 -0.0000 0.0048
vt 0.959996 0.962494
vt 0.922959 0.962494
vt 0.922959 0.485993
vt 0.959996 0.485993
vt 0.996900 0.968143
vt 0.996900 0.504195
vt -0.003100 0.504196
vt -0.003100 0.968143
vt 0.949856 0.457587
vt 0.949856 0.487477
vt 0.258219 0.487477
vt 0.258219 0.457587
vt 0.994467 0.457587
vt 0.994467 0.487477
vt 0.781243 0.457587
vt 0.781243 0.487477
vt 1.004922 0.541461
vt 1.004922 0.926461
vt 0.004922 0.926461
vt 0.004922 0.541461
vt 1.000000 0.959087
vt 1.000000 0.989012
vt 0.000000 0.989012
vt 0.000000 0.959087
vt 1.000000 0.489975
vt 1.000000 0.510025
vt 0.000000 0.510025
vt 0.000000 0.489975
vt 1.004922 0.949968
vt 1.004922 0.564968
vt 0.004922 0.564968
vt 0.004922 0.949968
vt 0.937261 1.001355
vt 0.937261 0.476662
vt 0.896478 0.476662
vt 0.896478 1.001355
vt 0.258219 0.487477
vt 0.000000 0.495140
vt 1.000000 0.495140
vt 0.479864 0.444252
vt 0.446829 0.444252
vt 0.446829 0.000236
vt 0.479864 0.000236
vt 0.650524 0.006127
vt 0.650524 0.065977
vt 0.707813 0.065977
vt 0.707813 0.006127
vt 0.445352 0.444252
vt 0.445352 0.000236
s 0
usemtl desk_2
f 1/1/1 7/2/1 6/3/1 5/4/1
f 7/5/2 15/6/2 23/7/2 11/8/2
f 7/9/1 4/10/1 2/11/1 15/12/1
f 7/9/1 1/13/1 3/14/1 4/10/1
f 1/15/3 8/15/3 10/16/3 3/16/3
f 5/17/4 6/17/4 7/18/4 11/19/4 14/20/4 13/20/4
f 4/21/5 3/22/5 10/23/5 12/24/5
f 15/25/6 2/26/6 9/27/6 23/28/6
f 1/29/3 5/30/3 13/31/3 8/32/3
f 8/33/7 13/34/7 14/35/7 11/36/7
f 11/9/7 23/12/7 9/37/7 12/10/7
f 11/9/7 12/10/7 10/14/7 8/13/7
f 4/21/5 12/24/5 9/38/5 2/39/5
f 15/40/6 16/41/6 19/42/6 20/43/6
f 19/44/2 22/45/2 21/46/2 20/47/2
f 18/41/3 17/40/3 21/43/3 22/42/3
f 16/48/7 18/40/7 22/43/7 19/49/7
f 17/40/1 15/48/1 20/49/1 21/43/1
f 23/40/6 28/43/6 27/42/6 24/41/6
f 27/44/2 28/47/2 29/46/2 30/45/2
f 26/41/3 30/42/3 29/43/3 25/40/3
f 24/48/1 27/49/1 30/43/1 26/40/1
f 25/40/7 29/43/7 28/49/7 23/48/7
