# Blender 4.3.2
# www.blender.org
mtllib desk2_alt3_weathered.mtl
o desk2_alt3_weathered
v 1.102596 0.847000 0.537972
v 1.097379 0.847000 -0.548535
v 1.102596 0.891110 0.537972
v 1.097379 0.891110 -0.548535
v 1.102280 0.847000 0.472138
v 1.097695 0.891110 -0.482701
v 1.034679 0.847000 -0.482398
v 1.097379 0.000000 -0.548535
v 1.097695 0.000000 -0.482701
v 0.495397 0.847000 -0.479809
v 0.499981 0.847000 0.475030
v 1.097695 0.847000 -0.482701
v 0.495397 0.131372 -0.479809
v 1.097695 0.131372 -0.482701
v 1.102280 0.131372 0.472138
v 0.499981 0.131372 0.475030
v 0.495397 0.608457 -0.479809
v 0.495397 0.369914 -0.479809
v 0.499981 0.369914 0.475030
v 0.499981 0.608457 0.475030
v 1.097695 0.608457 -0.482701
v 1.097695 0.369914 -0.482701
v 1.102280 0.369914 0.472138
v 1.102280 0.608457 0.472138
v -1.102596 0.847000 -0.537972
v -1.097379 0.891110 0.548535
v -1.102596 0.891110 -0.537972
v -1.102280 0.847000 -0.472138
v -1.102280 0.891110 -0.472138
v -1.102596 0.000000 -0.537972
v -1.102280 0.000000 -0.472138
v -0.002292 0.000000 -0.477419
v -0.002608 0.000000 -0.543254
v 0.860800 0.522767 0.471551
v 0.860800 0.552681 0.471551
v 0.737334 0.552681 0.472144
v 0.737334 0.522767 0.472144
v 0.737447 0.522767 0.495829
v 0.860914 0.522767 0.495236
v 0.860800 0.282123 0.471551
v 0.860800 0.312038 0.471551
v 0.737334 0.312038 0.472144
v 0.737334 0.282123 0.472144
v 0.737447 0.282123 0.495829
v 0.860914 0.282123 0.495236
v 0.860800 0.764480 0.471551
v 0.860800 0.794394 0.471551
v 0.737334 0.794394 0.472144
v 0.737334 0.764480 0.472144
v 0.737447 0.764480 0.495829
v 0.860914 0.764480 0.495236
v 1.039579 0.847000 0.538275
v 1.039263 0.847000 0.472440
v 1.039579 0.000000 0.538275
v 1.102596 0.000000 0.537972
v 1.102280 0.000000 0.472138
v 1.039263 0.000000 0.472440
v -1.097379 0.847000 0.548535
v -1.034363 0.847000 0.548232
v -1.097695 0.847000 0.482701
v -1.034679 0.847000 0.482398
v -1.034363 0.000000 0.548232
v -1.097379 0.000000 0.548535
v -1.097695 0.000000 0.482701
v -1.034679 0.000000 0.482398
vn 1.0000 -0.0000 -0.0048
vn -0.0000 -1.0000 -0.0000
vn -0.0048 -0.0000 -1.0000
vn 0.0048 -0.0000 1.0000
vn -0.0000 1.0000 -0.0000
vn -0.9036 -0.0335 -0.4271
vn -1.0000 -0.0000 0.0048
vn 0.0038 0.6208 0.7840
vt 0.959996 0.962494
vt 0.922959 0.962494
vt 0.922959 0.485993
vt 0.959996 0.485993
vt 0.962912 0.950847
vt 0.991556 0.516824
vt -0.008444 0.486899
vt -0.008444 0.950847
vt 0.991556 0.486899
vt 0.258219 0.457587
vt 0.302830 0.457587
vt 0.258219 0.487477
vt 0.949856 0.457587
vt 0.949856 0.487477
vt 0.258219 0.487477
vt 0.650524 0.934023
vt 0.707813 0.934023
vt 0.707813 0.065977
vt 0.994467 0.457587
vt 0.994467 0.487477
vt 0.781243 0.457587
vt 0.781243 0.487477
vt 0.975132 0.936078
vt 0.003776 0.936078
vt 0.003776 0.551078
vt 0.503776 0.551078
vt 1.003776 0.551078
vt 1.000000 0.959087
vt 1.000000 0.989012
vt 0.000000 0.989012
vt 0.000000 0.959087
vt 1.000000 0.489975
vt 1.000000 0.510025
vt 0.000000 0.510025
vt 0.000000 0.489975
vt 1.004922 0.949968
vt 1.004922 0.564968
vt 0.504922 0.564968
vt 0.004922 0.564968
vt 0.004922 0.949968
vt 0.979913 0.996467
vt 0.939717 0.996467
vt 0.979913 0.456191
vt 0.446829 0.444252
vt 0.481342 0.444252
vt 0.496457 0.001411
vt 0.470558 0.000798
vt 0.621101 0.308062
vt 0.990140 0.308062
vt 0.990140 0.445492
vt 0.621101 0.445492
vt 0.937261 1.001355
vt 0.937261 0.476662
vt 0.896478 0.476662
vt 0.896478 1.001355
vt 0.258219 0.457587
vt 0.903126 0.375865
vt 0.903126 0.028860
vt 0.684240 0.028860
vt 0.684240 0.375865
vt 0.160262 0.934023
vt 0.160262 0.065977
vt 0.998810 0.237604
vt 0.619036 0.237604
vt 0.619036 0.332481
vt 0.998810 0.332481
vt 0.951834 0.263687
vt 0.658429 0.263687
vt 0.658429 0.379889
vt 0.951834 0.379889
vt 0.866501 0.366405
vt 0.866501 0.026329
vt 0.985563 0.026329
vt 0.985563 0.366405
vt 0.951834 0.147484
vt 0.658429 0.147484
vt 0.998810 0.142728
vt 0.619036 0.142728
vt 0.747438 0.366405
vt 0.747439 0.026329
vt 0.866501 0.026329
vt 0.951834 0.031281
vt 0.658429 0.031281
vt 0.628376 0.366405
vt 0.628376 0.026329
vt 0.747439 0.026329
vt 0.998810 0.047852
vt 0.619036 0.047852
vt 0.464792 0.953353
vt 0.464792 0.983549
vt 0.969323 0.983549
vt 0.969323 0.953353
vt 0.969323 0.953353
vt 0.000000 0.495140
vt 1.000000 0.495140
vt 0.774871 0.399642
vt 0.835481 0.399642
vt 0.835481 0.414327
vt 0.774871 0.414327
vt 0.767795 0.414325
vt 0.767795 0.397091
vt 0.766336 0.413892
vt 0.840854 0.413892
vt 0.840854 0.399596
vt 0.766336 0.399596
vt 0.843445 0.397091
vt 0.843445 0.414325
vt 0.843445 0.397091
vt 0.775169 0.400302
vt 0.833875 0.400302
vt 0.833875 0.414526
vt 0.775169 0.414526
vt 0.809215 0.414526
vt 0.809215 0.400302
vt 0.797953 0.400302
vt 0.775169 0.409143
vt 0.833875 0.409143
vt 0.833875 0.397881
vt 0.775169 0.397881
vt 0.479864 0.444252
vt 0.446829 0.000236
vt 0.479864 0.000236
vt 0.650524 0.006127
vt 0.650524 0.065977
vt 0.707813 0.006127
vt 0.445352 0.444252
vt 0.445352 0.000236
s 0
usemtl desk_2_timeworn
f 2/1/1 12/2/1 9/3/1 8/4/1
f 7/5/2 5/6/2 58/7/2 28/8/2
f 5/6/2 1/9/2 58/7/2
f 1/10/1 5/11/1 3/12/1
f 12/13/1 6/14/1 3/15/1 5/11/1
f 7/16/2 12/17/2 5/18/2
f 12/13/1 2/19/1 4/20/1 6/14/1
f 2/21/3 25/21/3 27/22/3 4/22/3
f 7/23/4 28/24/4 31/25/4 32/26/4 9/27/4
f 6/28/5 4/29/5 27/30/5 29/31/5
f 1/32/4 3/33/4 26/34/4 58/35/4
f 2/36/3 8/37/3 33/38/3 30/39/3 25/40/3
f 12/41/4 7/42/4 9/43/4
f 7/44/6 2/45/6 8/46/6 9/47/6
f 16/48/4 15/49/4 23/50/4 19/51/4
f 25/52/7 30/53/7 31/54/7 28/55/7
f 28/13/7 58/56/7 26/12/7 29/14/7
f 28/13/7 29/14/7 27/20/7 25/19/7
f 14/57/2 15/58/2 16/59/2 13/60/2
f 5/18/5 12/17/5 10/61/5 11/62/5
f 23/49/4 24/50/4 20/51/4 19/48/4
f 17/63/7 20/64/7 11/65/7 10/66/7
f 21/67/3 17/68/3 10/69/3 12/70/3
f 24/71/1 21/72/1 12/73/1 5/74/1
f 22/75/3 18/76/3 17/68/3 21/67/3
f 18/77/7 19/78/7 20/64/7 17/63/7
f 23/79/1 22/80/1 21/81/1 24/71/1
f 14/82/3 13/83/3 18/76/3 22/75/3
f 15/84/1 14/85/1 22/86/1 23/79/1
f 13/87/7 16/88/7 19/78/7 18/77/7
f 32/89/2 33/90/2 8/91/2 9/92/2
f 32/89/2 31/93/2 30/91/2 33/90/2
f 6/28/5 29/31/5 26/94/5 3/95/5
f 20/48/4 24/49/4 5/50/4 11/51/4
f 38/96/8 39/97/8 35/98/8 36/99/8
f 36/100/7 37/101/7 38/101/7
f 37/102/2 34/103/2 39/104/2 38/105/2
f 34/106/1 35/107/1 39/108/1
f 44/96/8 45/97/8 41/98/8 42/99/8
f 42/100/7 43/101/7 44/101/7
f 43/102/2 40/103/2 45/104/2 44/105/2
f 40/106/1 41/107/1 45/108/1
f 50/109/8 51/110/8 47/111/8 48/112/8
f 48/113/7 49/114/7 50/115/7
f 49/116/2 46/117/2 51/118/2 50/119/2
f 46/114/1 47/113/1 51/115/1
f 1/120/4 52/44/4 54/121/4 55/122/4
f 54/123/2 57/124/2 56/18/2 55/125/2
f 53/44/3 5/120/3 56/122/3 57/121/3
f 52/126/7 53/120/7 57/122/7 54/127/7
f 5/120/1 1/126/1 55/127/1 56/122/1
f 58/120/4 63/122/4 62/121/4 59/44/4
f 62/123/2 63/125/2 64/18/2 65/124/2
f 61/44/3 65/121/3 64/122/3 60/120/3
f 59/126/1 62/127/1 65/122/1 61/120/1
f 60/120/7 64/122/7 63/127/7 58/126/7
