# Blender 4.3.2
# www.blender.org
mtllib desk2.mtl
o desk2
v 1.102596 0.847000 0.537972
v 1.097379 0.847000 -0.548535
v 1.102596 0.891110 0.537972
v 1.097379 0.891110 -0.548535
v 0.000000 0.847000 0.543254
v 0.002609 0.847000 -0.543253
v 0.000000 0.891110 0.543254
v 0.002608 0.891110 -0.543279
v 1.034363 0.891110 -0.548232
v 1.034363 0.847000 -0.548232
v 1.039579 0.891110 0.538275
v 1.039579 0.847000 0.538275
v 1.102279 0.847000 0.472138
v 1.097695 0.847000 -0.482701
v 1.097695 0.891110 -0.482701
v 1.102279 0.891110 0.472138
v 0.000000 0.891110 0.477419
v 0.002292 0.891110 -0.477419
v 0.002292 0.847000 -0.477419
v 0.000000 0.847000 0.477419
v 1.034679 0.891110 -0.482398
v 1.039263 0.891110 0.472440
v 1.034679 0.847000 -0.482398
v 1.039263 0.847000 0.472440
v 1.039579 -0.000000 0.538275
v 1.102596 -0.000000 0.537972
v 1.034363 -0.000000 -0.548232
v 1.034679 -0.000000 -0.482398
v 1.097379 -0.000000 -0.548535
v 1.102279 -0.000000 0.472138
v 1.039263 -0.000000 0.472440
v 1.097695 -0.000000 -0.482701
v 0.495397 0.847000 -0.479809
v 0.499981 0.847000 0.475030
v 0.495397 0.131371 -0.479809
v 1.097695 0.131371 -0.482701
v 1.102279 0.131371 0.472138
v 0.499981 0.131371 0.475030
v 0.495397 0.608457 -0.479809
v 0.495397 0.369914 -0.479809
v 0.499981 0.369914 0.475030
v 0.499981 0.608457 0.475030
v 1.097695 0.608457 -0.482701
v 1.097695 0.369914 -0.482701
v 1.102279 0.369914 0.472138
v 1.102279 0.608457 0.472138
v 0.852912 0.766767 0.474078
v 0.852912 0.796682 0.474078
v 0.724689 0.796682 0.474693
v 0.724689 0.766767 0.474693
v 0.724803 0.766767 0.498378
v 0.853025 0.766767 0.497763
v 0.852912 0.524474 0.474078
v 0.852912 0.554388 0.474078
v 0.724689 0.554388 0.474693
v 0.724689 0.524474 0.474693
v 0.724803 0.524474 0.498378
v 0.853025 0.524474 0.497763
v 0.852912 0.282181 0.474078
v 0.852912 0.312095 0.474078
v 0.724689 0.312095 0.474693
v 0.724689 0.282181 0.474693
v 0.724803 0.282181 0.498378
v 0.853025 0.282181 0.497763
v -1.102596 0.847000 0.537972
v -1.097379 0.847000 -0.548535
v -1.102596 0.891110 0.537972
v -1.097379 0.891110 -0.548535
v -1.034363 0.891110 -0.548232
v -1.034363 0.847000 -0.548232
v -1.039579 0.891110 0.538275
v -1.039579 0.847000 0.538275
v -1.102279 0.847000 0.472138
v -1.097695 0.847000 -0.482701
v -1.097695 0.891110 -0.482701
v -1.102279 0.891110 0.472138
v 1.030060 0.847000 -0.482376
v -1.034679 0.891110 -0.482398
v -1.039263 0.891110 0.472440
v -1.034679 0.847000 -0.482398
v -1.039263 0.847000 0.472440
v -1.039579 -0.000000 0.538275
v -1.102596 -0.000000 0.537972
v -1.034363 -0.000000 -0.548232
v -1.034679 -0.000000 -0.482398
v -1.097379 -0.000000 -0.548535
v -1.102279 -0.000000 0.472138
v -1.039263 -0.000000 0.472440
v -1.097695 -0.000000 -0.482701
v -0.495397 0.847000 -0.479809
v -0.499981 0.847000 0.475030
v -0.495397 0.131371 -0.479809
v -1.097695 0.131371 -0.482701
v -1.102279 0.131371 0.472138
v -0.499981 0.131371 0.475030
v -0.495397 0.608457 -0.479809
v -0.495397 0.369914 -0.479809
v -0.499981 0.369914 0.475030
v -0.499981 0.608457 0.475030
v -1.097695 0.608457 -0.482701
v -1.097695 0.369914 -0.482701
v -1.102279 0.369914 0.472138
v -1.102279 0.608457 0.472138
v -0.852912 0.766767 0.474078
v -0.852912 0.796682 0.474078
v -0.724689 0.796682 0.474693
v -0.724689 0.766767 0.474693
v -0.724803 0.766767 0.498378
v -0.853025 0.766767 0.497763
v -0.852912 0.524474 0.474078
v -0.852912 0.554388 0.474078
v -0.724689 0.554388 0.474693
v -0.724689 0.524474 0.474693
v -0.724803 0.524474 0.498378
v -0.853025 0.524474 0.497763
v -0.852912 0.282181 0.474078
v -0.852912 0.312095 0.474078
v -0.724689 0.312095 0.474693
v -0.724689 0.282181 0.474693
v -0.724803 0.282181 0.498378
v -0.853025 0.282181 0.497763
vn -0.0000 1.0000 -0.0000
vn 0.0048 -0.0000 1.0000
vn 1.0000 -0.0000 -0.0048
vn -0.0048 -0.0003 -1.0000
vn -0.0000 -1.0000 -0.0000
vn -0.0048 -0.0000 -1.0000
vn -1.0000 -0.0000 0.0048
vn 0.0038 0.6208 0.7840
vn -0.0048 -0.0000 1.0000
vn -1.0000 -0.0000 -0.0048
vn 0.0048 -0.0003 -1.0000
vn 0.0048 -0.0000 -1.0000
vn 1.0000 -0.0000 0.0048
vn -0.0038 0.6208 0.7840
vt 0.962422 0.961565
vt 0.993103 0.961565
vt 0.993103 0.994246
vt 0.962422 0.994246
vt 0.962422 0.454896
vt 0.993103 0.454896
vt 0.993103 0.487576
vt 0.962422 0.487576
vt 0.738541 0.457587
vt 0.781243 0.457587
vt 0.781243 0.487477
vt 0.738541 0.487477
vt 0.320239 0.443078
vt 0.273777 0.443078
vt 0.273777 0.003870
vt 0.320239 0.003870
vt 0.035860 0.457587
vt 0.039395 0.487477
vt 0.318250 0.443078
vt 0.318250 0.003870
vt 0.464792 0.953353
vt 0.691969 0.953353
vt 0.938292 0.953353
vt 0.940420 0.953353
vt 0.940420 0.515397
vt 0.464792 0.515397
vt 0.258219 0.457587
vt 0.302830 0.457587
vt 0.302830 0.487477
vt 0.258219 0.487477
vt 0.949856 0.457587
vt 0.949856 0.487477
vt 0.457547 0.961565
vt 0.457547 0.487576
vt 0.650524 0.934023
vt 0.707813 0.934023
vt 0.707813 0.065977
vt 0.650524 0.065977
vt 0.994467 0.457587
vt 0.994467 0.487477
vt 0.464792 0.983549
vt 0.940420 0.983549
vt 0.464792 0.485201
vt 0.940420 0.485201
vt 0.035860 0.487477
vt 0.457547 0.454896
vt 0.460087 0.994246
vt 0.650524 0.006127
vt 0.707813 0.006127
vt 0.650524 0.993873
vt 0.707813 0.993873
vt 0.271788 0.443078
vt 0.271788 0.003870
vt 0.160262 0.934023
vt 0.160262 0.065977
vt 0.646329 0.934023
vt 0.619036 0.142728
vt 0.998810 0.142728
vt 0.998810 0.047852
vt 0.619036 0.047852
vt 0.658429 0.147484
vt 0.951834 0.147484
vt 0.951834 0.031281
vt 0.658429 0.031281
vt 0.996292 0.445492
vt 0.627253 0.445492
vt 0.627253 0.308062
vt 0.996292 0.308062
vt 0.747439 0.026329
vt 0.747438 0.366405
vt 0.628376 0.366405
vt 0.628376 0.026329
vt 0.985563 0.026329
vt 0.985563 0.366405
vt 0.866501 0.366405
vt 0.866501 0.026329
vt 0.658429 0.379889
vt 0.918888 0.379889
vt 0.951834 0.379889
vt 0.951834 0.263687
vt 0.658429 0.263687
vt 0.619036 0.332481
vt 0.998810 0.332481
vt 0.998810 0.237604
vt 0.619036 0.237604
vt 0.774871 0.399642
vt 0.835481 0.399642
vt 0.835481 0.414327
vt 0.774871 0.414327
vt 0.767795 0.414325
vt 0.767795 0.397091
vt 0.766336 0.413892
vt 0.840854 0.413892
vt 0.840854 0.399596
vt 0.766336 0.399596
vt 0.843445 0.397091
vt 0.843445 0.414325
vt 0.843445 0.397091
vt 0.457547 0.994246
s 0
usemtl desk_2
f 21/1/1 15/2/1 4/3/1 9/4/1
f 11/5/1 3/6/1 16/7/1 22/8/1
f 12/9/2 1/10/2 3/11/2 11/12/2
f 2/13/3 14/14/3 32/15/3 29/16/3
f 10/9/4 6/17/4 8/18/4 9/12/4
f 1/19/2 12/14/2 25/15/2 26/20/2
f 19/21/5 33/22/5 77/23/5 23/24/5 24/25/5 20/26/5
f 1/27/3 13/28/3 16/29/3 3/30/3
f 14/31/3 15/32/3 16/29/3 13/28/3
f 21/1/1 18/33/1 17/34/1 22/8/1
f 23/35/5 14/36/5 13/37/5 24/38/5
f 14/31/3 2/39/3 4/40/3 15/32/3
f 15/2/1 21/1/1 22/8/1 16/7/1
f 19/21/5 6/41/5 10/42/5 23/24/5 77/23/5 33/22/5
f 2/10/6 10/9/6 9/12/6 4/11/6
f 5/43/5 20/26/5 24/25/5 12/44/5
f 5/17/2 12/9/2 11/12/2 7/45/2
f 7/46/1 11/5/1 22/8/1 17/34/1
f 18/33/1 21/1/1 9/4/1 8/47/1
f 25/48/5 31/38/5 30/37/5 26/49/5
f 28/35/5 27/50/5 29/51/5 32/36/5
f 24/14/6 13/19/6 30/20/6 31/15/6
f 12/52/7 24/19/7 31/20/7 25/53/7
f 14/19/2 23/14/2 28/15/2 32/20/2
f 10/14/6 2/19/6 29/20/6 27/15/6
f 23/14/7 10/13/7 27/16/7 28/15/7
f 13/19/3 1/52/3 26/53/3 30/20/3
f 33/54/1 34/55/1 13/37/1 14/36/1 77/56/1
f 35/54/5 36/36/5 37/37/5 38/55/5
f 41/57/7 40/58/7 35/59/7 38/60/7
f 40/61/6 44/62/6 36/63/6 35/64/6
f 45/65/2 41/66/2 38/67/2 37/68/2
f 44/69/3 45/70/3 37/71/3 36/72/3
f 14/73/3 13/74/3 46/75/3 43/76/3
f 43/76/3 46/75/3 45/70/3 44/69/3
f 13/65/2 34/66/2 42/67/2 46/68/2
f 46/65/2 42/66/2 41/67/2 45/68/2
f 33/77/6 77/78/6 14/79/6 43/80/6 39/81/6
f 39/81/6 43/80/6 44/62/6 40/61/6
f 34/82/7 33/83/7 39/84/7 42/85/7
f 42/85/7 39/84/7 40/58/7 41/57/7
f 51/86/8 52/87/8 48/88/8 49/89/8
f 49/90/7 50/91/7 51/91/7
f 50/92/5 47/93/5 52/94/5 51/95/5
f 47/96/3 48/97/3 52/98/3
f 57/86/8 58/87/8 54/88/8 55/89/8
f 55/90/7 56/91/7 57/91/7
f 56/92/5 53/93/5 58/94/5 57/95/5
f 53/96/3 54/97/3 58/98/3
f 63/86/8 64/87/8 60/88/8 61/89/8
f 61/90/7 62/91/7 63/91/7
f 62/92/5 59/93/5 64/94/5 63/95/5
f 59/96/3 60/97/3 64/98/3
f 78/1/1 69/4/1 68/3/1 75/2/1
f 71/5/1 79/8/1 76/7/1 67/6/1
f 72/9/9 71/12/9 67/11/9 65/10/9
f 66/13/10 86/16/10 89/15/10 74/14/10
f 70/9/11 69/12/11 8/45/11 6/17/11
f 65/19/9 83/20/9 82/15/9 72/14/9
f 19/21/5 20/26/5 81/25/5 80/24/5
f 65/27/10 67/30/10 76/29/10 73/28/10
f 74/31/10 73/28/10 76/29/10 75/32/10
f 78/1/1 79/8/1 17/34/1 18/33/1
f 80/35/5 81/38/5 73/37/5 74/36/5
f 74/31/10 75/32/10 68/40/10 66/39/10
f 75/2/1 76/7/1 79/8/1 78/1/1
f 19/21/5 80/24/5 70/42/5 6/41/5
f 66/10/12 68/11/12 69/12/12 70/9/12
f 5/43/5 72/44/5 81/25/5 20/26/5
f 5/17/9 7/45/9 71/12/9 72/9/9
f 7/46/1 17/34/1 79/8/1 71/5/1
f 18/33/1 8/99/1 69/4/1 78/1/1
f 82/48/5 83/49/5 87/37/5 88/38/5
f 85/35/5 89/36/5 86/51/5 84/50/5
f 81/14/12 88/15/12 87/20/12 73/19/12
f 72/52/13 82/53/13 88/20/13 81/19/13
f 74/19/9 89/20/9 85/15/9 80/14/9
f 70/14/12 84/15/12 86/20/12 66/19/12
f 80/14/13 85/15/13 84/16/13 70/13/13
f 73/19/10 87/20/10 83/53/10 65/52/10
f 90/54/1 74/36/1 73/37/1 91/55/1
f 92/54/5 95/55/5 94/37/5 93/36/5
f 98/57/13 95/60/13 92/59/13 97/58/13
f 97/61/12 92/64/12 93/63/12 101/62/12
f 102/65/9 94/68/9 95/67/9 98/66/9
f 101/69/10 93/72/10 94/71/10 102/70/10
f 74/73/10 100/76/10 103/75/10 73/74/10
f 100/76/10 101/69/10 102/70/10 103/75/10
f 73/65/9 103/68/9 99/67/9 91/66/9
f 103/65/9 102/68/9 98/67/9 99/66/9
f 90/77/12 96/81/12 100/80/12 74/79/12
f 96/81/12 97/61/12 101/62/12 100/80/12
f 91/82/13 99/85/13 96/84/13 90/83/13
f 99/85/13 98/57/13 97/58/13 96/84/13
f 108/86/14 106/89/14 105/88/14 109/87/14
f 106/90/13 108/91/13 107/91/13
f 107/92/5 108/95/5 109/94/5 104/93/5
f 104/96/10 109/98/10 105/97/10
f 114/86/14 112/89/14 111/88/14 115/87/14
f 112/90/13 114/91/13 113/91/13
f 113/92/5 114/95/5 115/94/5 110/93/5
f 110/96/10 115/98/10 111/97/10
f 120/86/14 118/89/14 117/88/14 121/87/14
f 118/90/13 120/91/13 119/91/13
f 119/92/5 120/95/5 121/94/5 116/93/5
f 116/96/10 121/98/10 117/97/10
